<svg width="610" height="527" fill="none" xmlns="http://www.w3.org/2000/svg"><path opacity=".18" d="M315.921 407.486c-91.938 0-166.468 21.242-166.468 47.444v.127c.058 6.364-5.019 11.579-11.384 11.479-2.905-.046-5.836-.07-8.793-.071C57.878 466.465 0 480.011 0 496.717s57.878 30.251 129.276 30.251c61.549 0 113.042-10.065 126.079-23.544a11.164 11.164 0 019.062-3.364c16.218 1.502 33.527 2.315 51.504 2.315 91.936 0 166.465-21.242 166.465-47.445 0-26.202-74.529-47.444-166.465-47.444z" fill="#fff" fill-opacity=".95"/><path d="M397.374 401.424v19.734l-14.07.571-1.944-21.543 16.014 1.238zm9.057-1.238l-1.621 17.635 11.803-1.049.875-19.619-11.057 3.033z" fill="#FAC2AE"/><path opacity=".18" d="M112.595 395.32h442.799s65.031-202.215-5.557-244.594C486.736 112.848 509.841.616 421.064 13.586c-88.776 12.97-94.208 50.935-183.5 43.005-132.746-11.777-214.33 92.531-136.823 236.634 19.581 36.411 21.122 73.329 11.854 102.095z" fill="#fff" fill-opacity=".95"/><path d="M610 394.53H43.347v2.644H610v-2.644z" fill="#7BADC9"/><path d="M556.996 17.495v262.399h-351.76V19.439a13.373 13.373 0 0113.377-13.371h326.944a11.437 11.437 0 0111.439 11.427z" fill="#22396B"/><path d="M552.671 11.437v262.399h-351.76V13.387a13.38 13.38 0 018.257-12.357 13.376 13.376 0 015.119-1.02H541.23a11.436 11.436 0 0111.441 11.426z" fill="#D8E4EF"/><path d="M235.704.007h-23.363a11.435 11.435 0 00-11.437 11.438v262.391h34.8V.007z" fill="#fff"/><path d="M552.671 13.42v22.032h-351.76V13.42a11.437 11.437 0 0111.438-11.438H541.23a11.439 11.439 0 0111.441 11.438z" fill="#C7D5E0"/><path d="M552.671 11.438v22.031h-351.76V11.437A11.437 11.437 0 01212.349 0H541.23a11.439 11.439 0 0111.441 11.438z" fill="#fff"/><path d="M522.276 25.385a8.647 8.647 0 100-17.294 8.647 8.647 0 000 17.294zm-24.332-6.798v-3.6a4.808 4.808 0 00-4.805-4.802h-.009a4.805 4.805 0 00-4.804 4.804v3.6l-1.677 2.428h4.204a2.278 2.278 0 002.28 2.28 2.278 2.278 0 002.28-2.28h4.206l-1.675-2.43zm-23.076-3.217h-1.102a5.029 5.029 0 00-.449-1.087l.778-.777a.526.526 0 000-.746l-1.193-1.202a.527.527 0 00-.745 0l-.778.778a5.015 5.015 0 00-1.087-.458V10.78a.528.528 0 00-.528-.527h-1.696a.528.528 0 00-.527.527v1.101c-.38.11-.745.263-1.088.458l-.778-.778a.525.525 0 00-.745 0l-1.199 1.199a.526.526 0 000 .745l.778.778a5.035 5.035 0 00-.452 1.088h-1.102a.528.528 0 00-.526.527v1.696a.535.535 0 00.153.372.524.524 0 00.373.154h1.102c.107.38.257.745.449 1.089l-.778.778a.516.516 0 00-.154.372.515.515 0 00.154.372l1.199 1.2a.528.528 0 00.745 0l.778-.778c.344.192.709.343 1.087.449v1.089a.528.528 0 00.528.527h1.696a.528.528 0 00.528-.527V21.59a5.031 5.031 0 001.087-.449l.778.778a.527.527 0 00.745 0l1.199-1.2a.517.517 0 00.154-.372.516.516 0 00-.154-.372l-.778-.778c.192-.344.342-.71.449-1.089h1.102a.527.527 0 00.526-.526V15.89a.524.524 0 00-.529-.52zm-5.958 4.034a2.656 2.656 0 01-2.607-3.175 2.658 2.658 0 015.265.514 2.659 2.659 0 01-2.658 2.654v.007zm-251.692-.056l-3.271-3.271-1.939 1.938 5.21 5.208 5.208-5.208-1.939-1.939-3.269 3.272z" fill="#D8E4EF"/><path d="M222.426 12.19l-1.939-1.936-3.269 3.27-3.271-3.27-1.939 1.937 5.21 5.208 5.208-5.208z" fill="#D8E4EF"/><path d="M540.564 45.358h-18.607v18.607h18.607V45.358z" fill="#fff"/><path d="M528.045 54.66a1.508 1.508 0 11-3.016.002 1.508 1.508 0 013.016-.002zm4.724 0a1.506 1.506 0 01-2.574 1.07 1.507 1.507 0 01.228-2.322 1.509 1.509 0 012.346 1.252zm4.723 0a1.506 1.506 0 01-2.574 1.07 1.507 1.507 0 01.228-2.322 1.509 1.509 0 012.346 1.252z" fill="#D8D8D8"/><path d="M265.599 45.358h-18.607v18.607h18.607V45.358z" fill="#fff"/><path d="M261.992 53.154h-6.012l1.763-1.763-1.938-1.938-3.701 3.701h-.017v.017l-1.49 1.49 1.49 1.49v.018h.017l3.701 3.7 1.938-1.937-1.763-1.763h6.012v-3.015z" fill="#D8D8D8"/><path d="M335.094 49.453h-59.737v8.386h59.737v-8.386z" fill="#91A2C6"/><path d="M335.511 58.255h-60.569v-9.218h60.569v9.218zm-59.738-.83h58.906v-7.556h-58.906v7.555z" fill="#91A2C6"/><path d="M347.243 73.674H246.992v96.408h100.251V73.674zm44.097 107.659H246.992v80.298H391.34v-80.298zm149.225 0H403.01v80.298h137.555v-80.298z" fill="#fff"/><path d="M503.369 193.427c-15.494 0-28.06 12.562-28.06 28.06 0 15.497 12.564 28.06 28.06 28.06a28.06 28.06 0 0028.06-28.06c-.003-15.491-12.566-28.06-28.06-28.06zm15.225 45.356a23.044 23.044 0 01-37.537-11.471 23.044 23.044 0 0111.917-26.393 23.046 23.046 0 0133.428 20.572 22.967 22.967 0 01-7.808 17.292z" fill="#D8D8D8"/><path d="M531.426 221.483a27.992 27.992 0 01-2.417 11.413 27.989 27.989 0 01-6.861 9.434l-3.553-3.555a23.04 23.04 0 006.322-25.427 23.048 23.048 0 00-21.548-14.907v-5.014c15.494 0 28.057 12.569 28.057 28.056z" fill="#405284"/><path d="M454.863 197.559a27.91 27.91 0 00-14.657-4.132c-15.494 0-28.06 12.563-28.06 28.06a28.06 28.06 0 0028.06 28.06c15.494 0 28.06-12.563 28.06-28.06a28.027 28.027 0 00-13.403-23.928zm-14.657 46.97a23.04 23.04 0 01-21.294-14.225 23.037 23.037 0 014.996-25.116 23.044 23.044 0 0139.341 16.299 23.039 23.039 0 01-23.043 23.039v.003z" fill="#D8D8D8"/><path d="M468.265 221.484c0 15.494-12.564 28.06-28.06 28.06a28.02 28.02 0 01-23.924-13.402l3.66-3.66a23.037 23.037 0 0016.946 11.814 23.045 23.045 0 0014.303-43.061l3.66-3.66a28.032 28.032 0 0113.415 23.909z" fill="#14234C"/><path d="M268.055 242.046h-8.22v-50.77h8.22v50.77zm15.776-33.934h-8.218v33.934h8.218v-33.934zm15.778 15.348h-8.22v18.586h8.22V223.46zm15.776-24.426h-8.218v43.012h8.218v-43.012zm15.778 14.266h-8.22v28.746h8.22V213.3zm15.774-9.511h-8.218v38.257h8.218v-38.257zm15.778-12.513h-8.22v50.77h8.22v-50.77zm15.776 5.812h-8.221v44.958h8.218l.003-44.958z" fill="#91A2C6"/><path d="M540.565 73.674h-182.15v96.408h182.15V73.674z" fill="#fff"/><path d="M512.852 92.859l.035.797c.484-.61 1.117-.915 1.898-.915 1.34 0 2.016.756 2.028 2.268v4.19h-1.084v-4.196c-.004-.457-.11-.795-.317-1.013-.203-.22-.521-.329-.955-.329-.351 0-.66.094-.926.282a1.92 1.92 0 00-.621.738v4.517h-1.084v-6.34h1.026zm-.492 20.339v-5.501h-1.002v-.838h1.002v-.651c0-.679.181-1.205.545-1.576.363-.371.876-.557 1.541-.557.25 0 .498.034.744.1l-.059.879a3.122 3.122 0 00-.586-.053c-.351 0-.623.104-.814.311-.192.203-.287.496-.287.879v.668h1.353v.838h-1.353v5.501h-1.084zm-.821 10.772c0-.621.121-1.18.364-1.676a2.756 2.756 0 011.019-1.148c.438-.27.936-.405 1.494-.405.864 0 1.561.299 2.092.897.535.598.803 1.393.803 2.385v.076c0 .617-.119 1.172-.358 1.664a2.675 2.675 0 01-1.013 1.143c-.438.273-.942.41-1.512.41-.859 0-1.557-.299-2.092-.897-.531-.597-.797-1.388-.797-2.373v-.076zm1.09.129c0 .703.162 1.267.486 1.693.329.426.766.639 1.313.639.551 0 .988-.215 1.312-.645.325-.433.487-1.039.487-1.816 0-.695-.166-1.258-.498-1.688a1.566 1.566 0 00-1.313-.65c-.535 0-.967.213-1.295.639-.328.426-.492 1.035-.492 1.828z" fill="#fff"/><path d="M531.426 84.118h-37.01v11.82h37.01v-11.82z" fill="#91A2C6"/><path d="M532.312 108H366.669v.865h165.643V108z" fill="#405284"/><path d="M532.31 115.5h-79.408v3.384h79.408V115.5zm0 10.375h-79.408v3.384h79.408v-3.384z" fill="#BCD2E2"/><path d="M532.31 136.251h-79.408v3.384h79.408v-3.384z" fill="#9B9B9B"/><path d="M464.968 136.251h-12.066v3.384h12.066v-3.384z" fill="#BCD2E2"/><path d="M532.31 146.627h-79.408v3.384h79.408v-3.384z" fill="#9B9B9B"/><path d="M499.968 146.627h-47.066v3.384h47.066v-3.384z" fill="#BCD2E2"/><path d="M532.31 157.002h-79.408v3.384h79.408v-3.384z" fill="#9B9B9B"/><path d="M516.63 157.002h-63.728v3.384h63.728v-3.384z" fill="#BCD2E2"/><path d="M338.622 96.142h-83.011v.865h83.011v-.865zm0 63.812h-83.011v.865h83.011v-.865zm0-67.391h-83.011v.865h83.011v-.865zm0-3.579h-83.011v.864h83.011v-.864zm0-3.58h-83.011v.865h83.011v-.865zm0-3.579h-83.011v.865h83.011v-.865z" fill="#D8D8D8"/><path d="M318.65 138.97h-.078a3.65 3.65 0 01-3.469-2.629l-5.153-17.005a1.153 1.153 0 00-1.067-.836 1.165 1.165 0 00-1.153.705 3.661 3.661 0 01-3.392 2.217 3.656 3.656 0 01-3.391-2.226l-2.546-5.856c-.286-.659-.896-.676-1.082-.711a1.161 1.161 0 00-1.083.708l-3.729 8.503a3.704 3.704 0 01-3.243 2.215 3.695 3.695 0 01-3.41-1.947l-1.396-2.592a1.152 1.152 0 00-1.032-.621h-.008a1.156 1.156 0 00-1.032.61l-5.81 10.436a3.702 3.702 0 01-5.337 1.249 3.707 3.707 0 01-1.293-1.565l-7.417-16.959a1.175 1.175 0 00-1.65-.563 1.176 1.176 0 00-.459.453l-2.616 4.595-2.193-1.248 2.616-4.595a3.699 3.699 0 013.413-1.868 3.705 3.705 0 013.199 2.215l7.416 16.948a1.181 1.181 0 002.115.103l5.811-10.436a3.7 3.7 0 013.262-1.902 3.703 3.703 0 013.236 1.948l1.393 2.592c.106.195.264.357.456.467a1.2 1.2 0 00.633.155 1.165 1.165 0 001.034-.707l3.729-8.504a3.66 3.66 0 013.392-2.217 3.664 3.664 0 013.39 2.228l2.546 5.855a1.168 1.168 0 001.082.71 1.16 1.16 0 001.082-.707 3.7 3.7 0 013.613-2.21 3.701 3.701 0 013.325 2.623l5.153 17.005a1.179 1.179 0 002.246.046l3.826-10.989a3.704 3.704 0 017.059.2l.517 1.81a1.185 1.185 0 001.808.647c.206-.143.362-.348.445-.585l2.821-8.163 2.385.823-2.821 8.164a3.711 3.711 0 01-3.602 2.492 3.698 3.698 0 01-2.169-.776 3.698 3.698 0 01-1.291-1.908l-.517-1.811a1.185 1.185 0 00-1.808-.648 1.19 1.19 0 00-.445.584l-3.826 10.99a3.646 3.646 0 01-3.485 2.488z" fill="#405284"/><path d="M449.288 88.131h-83.01v.865h83.01v-.865zm0 4.241h-83.01v.865h83.01v-.865z" fill="#D8D8D8"/><path d="M448.204 116.76h-83.011v.865h83.011v-.865z" fill="#91A2C6"/><path d="M448.618 118.039H364.78v-1.695h83.841l-.003 1.695zm-83.009-.831h82.178v-.032h-82.178v.032zm82.595 9.928h-83.011v.865h83.011v-.865z" fill="#91A2C6"/><path d="M448.618 128.416H364.78v-1.696h83.841l-.003 1.696zm-83.009-.832h82.178v-.033h-82.178v.033zm82.595 9.927h-83.011v.864h83.011v-.864z" fill="#91A2C6"/><path d="M448.618 138.792H364.78v-1.696h83.841l-.003 1.696zm-83.009-.832h82.178v-.033h-82.178v.033zm82.595 9.927h-83.011v.864h83.011v-.864z" fill="#91A2C6"/><path d="M448.618 149.166H364.78v-1.696h83.841l-.003 1.696zm-83.009-.831h82.178v-.033h-82.178v.033zm82.595 9.928h-83.011v.865h83.011v-.865z" fill="#91A2C6"/><path d="M448.618 159.542H364.78v-1.695h83.841l-.003 1.695zm-83.009-.831h82.178v-.033h-82.178v.033z" fill="#91A2C6"/><path d="M295.888 359.688h-32.33a4.967 4.967 0 01-4.776-3.547l-29.433-97.646a19.198 19.198 0 00-18.495-13.74h-31.057a9.196 9.196 0 00-8.811 11.857l30.369 100.74a9.147 9.147 0 008.811 6.547h32.309a4.992 4.992 0 014.988 4.988v61.239h4.217v-61.239a9.214 9.214 0 00-9.205-9.199h-32.316a4.957 4.957 0 01-4.777-3.547l-30.368-100.745a4.983 4.983 0 01.773-4.415 4.987 4.987 0 014.003-2.016h31.069a15.013 15.013 0 0114.46 10.746l29.432 97.641a9.147 9.147 0 008.812 6.547h32.33a4.995 4.995 0 014.988 4.988v47.863h4.217v-47.863a9.214 9.214 0 00-9.21-9.199z" fill="#0F1A42"/><path d="M305.093 413.765v6.141a9.213 9.213 0 01-9.205 9.203h-95.183v-4.21h95.183a4.999 4.999 0 004.988-4.993v-6.141h4.217z" fill="#0F1A42"/><path d="M249.629 422.504a2.104 2.104 0 012.104 2.105v4.037a9.211 9.211 0 01-9.203 9.204h-93.08a2.104 2.104 0 01-1.489-3.595c.395-.395.93-.617 1.489-.617h90.971a7.094 7.094 0 007.094-7.094v-1.934a2.098 2.098 0 011.3-1.944c.256-.106.529-.16.806-.16l.008-.002z" fill="#0F1A42"/><path d="M236.97 313.227h-41.294a7.564 7.564 0 01-7.248-5.392L174.55 261.85a4.835 4.835 0 01.75-4.257 4.84 4.84 0 013.857-1.951h41.328a7.586 7.586 0 017.246 5.392l13.85 45.987a4.82 4.82 0 01-.745 4.263 4.81 4.81 0 01-3.866 1.943z" fill="#33437C"/><path d="M231.352 313.227h-35.676a7.564 7.564 0 01-7.248-5.392L174.55 261.85a4.835 4.835 0 01.75-4.257 4.84 4.84 0 013.857-1.951h35.676a7.622 7.622 0 017.274 5.392l13.85 45.987a4.813 4.813 0 01-.744 4.26 4.809 4.809 0 01-3.861 1.946z" fill="#1D2956"/><path d="M301.528 357.799h-88.055v-15.638a.514.514 0 01.514-.514h87.027a.51.51 0 01.363.151.51.51 0 01.151.363v15.638z" fill="#33437C"/><path d="M209.75 361.301h95.498a.23.23 0 00.231-.23v-8.97a.23.23 0 00-.231-.23H209.75a.23.23 0 00-.23.23v8.97c0 .127.103.23.23.23z" fill="#1D2956"/><path d="M369.486 114.433s2.835-8.511 10.3-1.139c7.465 7.371-4.142 14.676-4.142 14.676l-6.158-13.537z" fill="#091644"/><path d="M366.566 282.453s-4.85-8.659-2.079-15.355c2.771-6.697-1.963-17.088-1.963-17.088l16.858-16.51 35.674.231s21.593 74.376 21.593 81.996c0 7.62-19.604 87.864-19.604 87.864h-17.001s7.706-88.198 12.324-100.436c0 0-12.321-25.667-17.169-34.557l-1.154 38.562-27.479-24.707z" fill="#1C2854"/><path d="M437.803 178.971s2.121-4.244 2.208-6.321c.087-2.077 3.724-4.677 4.763-4.979 1.038-.302 4.503-3.898 4.157-4.979-.346-1.082 3.463-1.083 1.992 2.592-1.472 3.675-1.907 3.724-1.907 3.724s5.499.693 6.799 1.775c1.299 1.083 10.405 1.139 11.213.563.808-.576.52 3.694-1.732 4.098-2.253.404-10.276.404-10.276.404s-7.625-.057-8.37 1.677c-.746 1.734-4.728 4.215-4.728 4.215l-4.119-2.769z" fill="#FAC2AE"/><path d="M449.017 169.013l-2.511.735 4.109-3.706-1.598 2.971zm-9.401 9.118s2.593.55 6.111-1.355c3.518-1.904 4.88-.663 4.88-.663s-3.422-.224-4.703 2.471c-1.281 2.694-4.552 2.781-4.552 2.781l-1.736-3.234z" fill="#F1A080"/><path d="M395.718 259.765l-.53 9.179s10.961 24.641 17.18 34.211l-8.742 62.939c16.58-16.807 18.131-49.91 20.435-61.802 2.305-11.892-28.343-44.527-28.343-44.527z" fill="#0F1A42"/><path d="M366.566 282.453s11.642 105.859 11.979 121.138c0 0 7.199 6.456 21.502 0l-5.999-96.432-27.482-24.706z" fill="#1C2854"/><path d="M436.878 177.446l1.14-.952 6.321 4.763-1.697 2.544-7.654-2.631 1.89-3.724z" fill="#fff"/><path d="M243.179 196.053s6.474 1.22 9.469 11.41c0 0 2.105 5.746 5.664 5.665 0 0 1.781 1.618-2.265 3.48 0 0 1.994 4.773 2.655 6.959.662 2.185 1.472 7.121-16.25 10.925 0 0-2.347 9.386 1.699 16.912s-16.023 6.15-16.104 5.423c-.081-.728 5.746-13.115 1.862-21.364-3.884-8.249-14.971-15.942-14.971-15.942s19.744-30.833 28.241-23.468z" fill="#FAC2AE"/><path d="M240.105 208.757s-2.913 5.185 0 9.469c0 0-6.635-3.723-6.473-7.607.161-3.884 6.473-1.862 6.473-1.862z" fill="#182651"/><path d="M233.772 214.128s-5.643 7.091 3.824 9.843c0 0-7.768 6.313-9.711.324-1.943-5.988 3.762-12.081 5.887-10.167z" fill="#F1A080"/><path d="M370.453 116.031s7.843-4.011 13.08 6.004c0 0 3.355 5.556 6.734 4.712 0 0 2.079 1.313-1.357 4.118 0 0 3.018 4.563 4.159 6.71 1.14 2.147 4.256 6.541-11.805 14.288 0 0-1.251 10.894 4.369 17.895 5.619 7.002-13.89 9.838-14.137 9.095-.247-.742 1.278-14.133-2.17-22.277-3.75-8.858-17.58-14.417-17.58-14.417s8.868-32.011 18.707-26.128z" fill="#FAC2AE"/><path d="M361.901 139.072s-5.147-.864-2.853 5.725c2.293 6.59-6.863-9.522-6.863-9.522l9.716 3.797zm-.374 8.156s7.883-.305 8.775 4.543c.892 4.848 1.207 12.946 1.207 12.946l-3.873-11.639-6.109-5.85z" fill="#F1A080"/><path d="M369.45 117.088s-4.257 2.04-1.881 7.986c2.927 7.32-10.238 14.233-10.238 14.233s5.482-26.727 11.753-22.102" fill="#F1A080"/><path d="M246.659 197.834s2.05 7.983-4.1 10.897c-6.151 2.915-14.242 8.092-11.221 11.976 3.021 3.884-1.429 14.756-1.429 14.756s-18.317 1.86-17.561-15.942c0 0-7.661 4.422-7.553-4.208.108-8.63 5.502-12.409 7.445-9.279 1.943 3.129 3.993 3.236 3.993-4.423 0-7.658 16.268-18.033 25.548-12.848 9.28 5.185 5.421 7.777 4.878 9.071z" fill="#232F63"/><path d="M245.273 247.454s11.33 2.022 20.96-.648 9.548 15.294 10.522 28.162c.975 12.868 4.533 26.3.972 27.755-3.561 1.455-32.13-1.873-32.13-1.873s-21.198 9.96-34.231 4.62c-13.032-5.341-2.914-49.85-2.914-49.85s.648-4.613 7.284-4.369c6.635.244 13.789-2.941 13.789-2.941s5.633 9.738 10.569 5.207c4.937-4.53 5.179-6.063 5.179-6.063z" fill="#A3C4E8"/><path d="M230.756 247.251s4.636 7.038 6.841 4.27a62.757 62.757 0 014.727-5.203l.624 4.108-6.1 6.138-6.344-8.046.252-1.267z" fill="#F1A080"/><path d="M227.846 248.98s.532 12.033 3.66 14.801c.819.725 2.126.34 2.51-.684.441-1.177 1.22-3.234 2.257-5.9 1.769-4.549 2.812 4.481 10.89 5.338 0 0 1.145.294-1.536-8.194l-6.829.854s-1.047-.906-5.243-.334c-4.195.572-5.709-5.881-5.709-5.881z" fill="#88ACD3"/><path d="M263.48 267.198s2.347 20.475 1.539 21.365c0 0-18.289-5.665-33.583-.324 0 0 4.666-3.83 20.364-5.185 15.699-1.356 11.68-15.856 11.68-15.856zm-44.426 6.965s-1.7 16.833-.729 18.128c.972 1.295 3.48 1.294 3.48 1.294s-2.104-8.34-2.751-19.422z" fill="#6E9BC4"/><path d="M231.436 288.239s.889 7.121.404 8.012c0 0-6.07-1.781-10.035-2.67 0 0 5.968-4.276 9.631-5.342z" fill="#C5E1F9"/><path d="M245.597 300.851l-13.757-4.606a18.991 18.991 0 000-4.329s23.166 10.129 47.427 6.999c.005.006 7.358 10.675-33.67 1.936z" fill="#88ACD3"/><path d="M370.145 167.691s-3.233 2.54-12.238 3.695c-9.006 1.154-16.165 54.378-16.165 54.378s-1.501 5.426 4.387 12.008c5.888 6.582 18.356 29.326 18.356 29.326l3.233-15.241s.925-7.273 3.464-7.851c2.539-.578 40.641-2.425 43.872-10.275 0 0-.114-4.042-.692-11.084s-.692-10.391-.692-10.391 3.001 12.988 13.046-4.156 16.281-24.064 16.281-24.064-8.082-5.024-6.12-6.582c0 0-.634-2.828-2.251.636-1.616 3.463-14.524 17.69-14.524 17.69s-5.061-16.612-6.114-21.796c-1.212-5.975-3.55-9.351-9.871-9.264-6.321.087-18.617.518-18.617.518l-6.638 7.534-5.225-.087-3.492-4.994z" fill="#232F63"/><path d="M407.785 183.392l5.888 28.864s2.618 8.337 7.658 3.015c-.001 0-5.639-2.379-13.546-31.879zm7.396 50.682l1.229 3.399s-12.552 10.696-38.182 9.656c0 0-7.679-1.044-10.508 4.728 0 0-1.847-8.832 6.582-11.546 8.429-2.715 40.879-6.237 40.879-6.237z" fill="#0F1A42"/><path d="M253.888 347.243s12.476 49.768 23.845 63.01c11.369 13.241 2.888 12.701 9.391 14.926 6.503 2.225-4.311-35.621-4.311-35.621l-12.365-48.775-16.56 6.46z" fill="#FAC2AE"/><path d="M311.027 432.256c-2.44-.991-4.985-.925-5.359-1.09-.052-.012-.069-.012-.087-.026-3.507-2.287-12.549-12.644-14.414-18.271-.221-.665.245-8.868.245-8.868-9.793-1.136-16.07 3.276-16.07 3.276.168 2.731-.355 18.041-.496 19.029a6.532 6.532 0 000 1.439c.369 3.801 3.073 10.334 3.874 11.895l2.085-.212c-.116-1.561.102-5.9 1.618-7.519 0 0 1.297-.211 3.739 1.316 2.614 1.633 6.438 5.003 8.224 4.822l21.08-2.143c-.538-.604-.726-1.905-4.439-3.648z" fill="#1C2854"/><path d="M289.163 333.498l31.63 72.866 11.657 15.948-17.278 3.05-4.365-19s-36.048-41.875-31.184-68.706c4.863-26.831 9.54-4.158 9.54-4.158z" fill="#FAC2AE"/><path d="M367.72 251.857l-7.366 7.908 3.683 6.517 3.683-14.425z" fill="#fff"/><path d="M417.443 410.55s-6.475 2.853-12.048-1.1c0 0-4.27-1.83-5.795 20.841 0 0 37.149 2.347 47.902 1.31 0 0 5.633-8.967-7.052-11.5-12.684-2.533-23.007-9.551-23.007-9.551z" fill="#232F63"/><path opacity=".49" d="M448.487 425.765s-47.615-2.825-47.69-6.628l-.609 7.989 48.412 1.74s.208-2.235-.113-3.101z" fill="#111D49"/><path d="M447.5 431.601s1.373-2.359 1.237-4.02l-48.73-2.217-.366 5.518s45.049 1.593 47.859.719z" fill="#231F20"/><path d="M399.684 414.018l.683 16.89s-12.152 4.728-30.738 8.002c-9.241 1.63-11.217.009-12.09-1.889-.887-1.934-.773-4.775 3.23-8.408 0 0 17.731-7.265 20.781-12.604 0 0 9.158 3.528 13.638-1.047 3.041-3.107 4.496-.944 4.496-.944z" fill="#232F63"/><path d="M357.539 437.021s16.487 1.83 42.641-9.895l.187 3.782s-38.942 14.159-42.828 6.113z" fill="#231F20"/><path opacity=".49" d="M357.262 433.936s16.766 1.794 42.918-9.934l.187 3.78s-45.937 20.876-43.105 6.154z" fill="#111D49"/><path d="M250.014 360.827l12.606 120.707s2.193 3.091 6.211.728l15.346-125.936-34.163 4.501z" fill="#485068"/><path d="M250.014 357.67l2.274 24.213s19.163 11.213 29.219-3.64l2.67-20.573h-34.163z" fill="#2F3A54"/><path d="M117.854 337.64l12.605 120.708s2.192 3.091 6.211.727l15.347-125.936-34.163 4.501zm198.134-43.367l12.605 120.708s2.193 3.091 6.212.728l15.346-125.936-34.163 4.5zm104.134 22.096l12.606 120.706s2.193 3.093 6.211.728l15.346-125.935-34.163 4.501z" fill="#485068"/><path d="M419.985 311.869l2.271 24.209s19.164 11.213 29.219-3.64l2.671-20.573-34.161.004z" fill="#2F3A54"/><path d="M103.679 325.754l165.885 29.873 195.114-50.696-124.231-17.095-236.768 37.918z" fill="#00458B"/><path d="M103.679 325.753v7.015l166.249 31.46v-8.601l-166.249-29.874z" fill="#1D63AA"/><path d="M269.928 355.627l194.75-50.696v6.959l-194.75 52.338v-8.601z" fill="#002C58"/><path d="M173.99 311.641l50.891 1.208-30.649 27.41-48.552-9.354 28.31-19.264z" fill="#91A2C6"/><path d="M224.997 283.729l2.672 1.489-11.02 32.668-3.152-1.258 11.5-32.899z" fill="#5787AA"/><path d="M185.117 279.892l39.88 3.837-11.5 32.899-39.304-7.529 10.924-29.207z" fill="#7EA4CE"/><path d="M146.877 325.193l46.033 9.069 20.587-17.634-39.304-7.529-27.316 16.094z" fill="#6F9FBC"/><path d="M192.909 334.262l-.276 3.82 24.016-20.196-3.152-1.258-20.588 17.634z" fill="#4E7A9B"/><path d="M146.877 325.193l46.032 9.069-.276 3.82-46-9.522.244-3.367z" fill="#285972"/><path d="M185.117 279.892l28.235 2.716-26.207 28.972-12.952-2.481 10.924-29.207z" fill="#8DB0DC"/><path d="M174.193 309.099l.804-2.147 39.206 7.656-.706 2.02-39.304-7.529z" fill="#6590B7"/><path d="M169.17 453.924s.439 9.921-1.277 16.721c-1.715 6.8 5.021 10.422 25.866 7.118 20.845-3.305 29.359-2.733 29.042-12.774 0 0-.064-6.545-3.495-6.609-3.432-.064-20.972 4.639-27.2-.508-6.228-5.147-19.818-13.615-22.936-3.948z" fill="#111D44"/><path d="M155.946 407.158l9.821 43.565s7.912 11.343 19.063 0 11.661-69.493-28.249-43.565" fill="#131E42"/><path d="M104.824 258.698s6.577-16.775-11.058-9.723c-17.635 7.051 11.058 9.723 11.058 9.723z" fill="#182651"/><path d="M117.297 373.346l56.23.029s6.696-1.723 8.226 21.321c1.822 27.468-69.54-12.961-64.456-21.35z" fill="#1D2956"/><path d="M95.959 254.504c-.287.191 6.481-7.151 15.919 7.721 0 0 5.147 7.15 9.533 8.293 0 0 2.669 1.525-3.05 6.1 0 0-.095 4.385 1.24 10.199 1.334 5.815-12.107 9.343-12.107 9.343s.762 10.58 2.574 13.725c1.812 3.144-14.966 4.671-14.966 4.671s4.004-11.725-.953-18.494c-4.958-6.769-14.299-12.868-11.153-19.923 3.146-7.054 12.963-21.635 12.963-21.635z" fill="#FAC2AE"/><path d="M88.035 284.817s3.965 4.322 8.998 1.334c0 0-4.63 8.198-10.604.445-5.973-7.753 1.606-1.779 1.606-1.779z" fill="#F1A080"/><path d="M89.96 275.772s3.648-1.885 5.618 1.801l1.452-10.169-7.07 8.368z" fill="#182651"/><path d="M105.799 255.101s-1.26-6.976-5.837-5.356c-4.576 1.619 3.909 12.392.668 17.731-3.24 5.339-17.754 8.387-12.595 17.348l6.747 12.223s-7.274-1.606-13.784-3.576c-17.264-5.225-19.261-32.097-1.054-44.393 17.629-11.915 30.437-4.89 25.855 6.023z" fill="#232F63"/><path d="M107.493 296.161l-5.297 1.431 6.358 7.114-1.061-8.545z" fill="#F1A080"/><path d="M135.494 347.284s18.709-2.03 26.525-6.511c7.815-4.48 15.347-13.06 18.588-12.107 3.241.953 8.77 2.861 8.77 4.386s-3.876 9.469-3.876 9.469.128 1.08-4.003 1.017c-4.132-.062-3.496-2.097-6.293-.7-2.796 1.397-25.229 18.875-43.023 16.905l3.312-12.459z" fill="#FAC2AE"/><path d="M139.716 350.832s6.072 6.417 15.634 3.692c0 0-7.788 4.132-17.385 5.374l1.751-9.066z" fill="#F1A080"/><path d="M183.846 463.85s.441 9.922-1.275 16.722c-1.715 6.8 5.021 10.421 25.864 7.117 20.844-3.305 29.361-2.733 29.044-12.774 0 0-.064-6.545-3.495-6.609-3.431-.064-20.972 4.639-27.2-.508-6.228-5.147-19.819-13.615-22.938-3.948z" fill="#1D2956"/><path d="M183.845 464.879v5.009s7.149 4.841 19.048-5.009l-4.88-4.512-14.168 4.512z" fill="#111D44"/><path d="M163.134 350.451s9.784-10.853 14.995-10.091c5.211.763 8.417-.038 8.417-.038l-1.185 2.5s-3.215 1.839-7.654-.247c0 0-1.255-.915-4.006 1.198-2.752 2.114-10.567 6.678-10.567 6.678z" fill="#F1A080"/><path d="M97.03 411.016s17.943 6.443 51.48-.762c7.738-1.663 13.013-2.498 16.608-2.875a7.186 7.186 0 015.423 1.69 7.199 7.199 0 012.507 5.098c.688 13.179 2.934 42.721 9.529 51.746 0 0 13.791 2.878 17.732-4.558 0 0 2.135-49.704 3.57-65.508 1.891-20.74-71.835-18.901-89.05-9.585-17.214 9.317-17.8 24.754-17.8 24.754z" fill="#232F63"/><path d="M83.376 405.404s7.53 16.11 26.357 12.392c18.826-3.718 23.974-44.421 23.974-44.421l-10.675-.357-39.656 32.386z" fill="#1D2956"/><path d="M96.115 310.444s6.763 3.813 13.63-1.22c0 0 12.142 21.631 14.526 39.075l13.632-1.238s6.005 9.818 3.622 20.495l-14.488.857s.857 13.346-6.005 20.305c-6.863 6.959-18.784 25.042-45.598 22.294 0 0-.822-19.339-2.728-35.449-1.906-16.11 10.524-61.506 23.409-65.119z" fill="#6FA4BC"/><path d="M92.432 341.249s18.3 25.453 29.17 26.596l5.433.572-.029 3.627s.527 10.688-7.73 18.354c0 0-2.251 3.281-12.737-14.64-10.486-17.92-14.107-34.509-14.107-34.509z" fill="#4C8A9B"/><path d="M124.271 348.304s-12.632-10.231-16.977-17.603c0 0 11.119 10.6 15.334 9.621l1.643 7.982z" fill="#619AAF"/><path d="M145.665 427.615h-29.738a4.58 4.58 0 01-4.395-3.264l-27.08-89.838a17.66 17.66 0 00-17.015-12.642h-28.59a8.46 8.46 0 00-8.106 10.908l27.94 92.687a8.416 8.416 0 008.108 6.024h29.737a4.589 4.589 0 014.589 4.588v56.344h3.88v-56.344a8.48 8.48 0 00-8.469-8.463H66.795a4.562 4.562 0 01-4.394-3.264l-27.947-92.696a4.588 4.588 0 014.394-5.915h28.586a13.809 13.809 0 0113.303 9.885l27.08 89.841a8.42 8.42 0 008.107 6.024h29.738a4.59 4.59 0 014.589 4.588v57.34h3.879v-57.34a8.476 8.476 0 00-8.465-8.463z" fill="#0F1A42"/><path d="M154.133 493.415v5.65a8.473 8.473 0 01-2.483 5.985 8.473 8.473 0 01-5.985 2.483H58.092v-3.875h87.573a4.596 4.596 0 004.589-4.593v-5.65h3.879z" fill="#58595B"/><path d="M103.104 485.409a1.937 1.937 0 011.936 1.937v3.712a8.472 8.472 0 01-8.468 8.468H10.937a1.945 1.945 0 01-1.37-.567 1.937 1.937 0 011.37-3.307h83.698a6.527 6.527 0 006.527-6.527v-1.779a1.944 1.944 0 01.567-1.37 1.934 1.934 0 011.37-.567h.005z" fill="#0F1A42"/><path d="M91.456 384.878H53.464a6.961 6.961 0 01-6.668-4.963L34.03 337.603a4.443 4.443 0 014.238-5.711h38.018a6.977 6.977 0 016.669 4.962l12.742 42.308a4.435 4.435 0 01-4.24 5.716z" fill="#33437C"/><path d="M86.288 384.878H53.464a6.961 6.961 0 01-6.668-4.963L34.03 337.603a4.443 4.443 0 014.238-5.711h32.824a7.014 7.014 0 016.693 4.962l12.742 42.308a4.432 4.432 0 01-4.238 5.716z" fill="#1D2956"/><path d="M150.845 425.877H69.837v-14.345a.515.515 0 01.514-.514h79.986a.516.516 0 01.514.514v14.345h-.006z" fill="#33437C"/><path d="M66.432 429.1h87.826a.23.23 0 00.231-.23v-8.216a.23.23 0 00-.231-.23H66.432a.23.23 0 00-.23.23v8.216c0 .127.103.23.23.23z" fill="#1D2956"/><path d="M145.665 507.534H58.092a1.94 1.94 0 01-1.938-1.939 1.936 1.936 0 011.938-1.938h87.573a4.594 4.594 0 004.59-4.59v-62.983a4.592 4.592 0 00-4.59-4.589h-29.737a8.416 8.416 0 01-8.106-6.023l-27.08-89.836a13.812 13.812 0 00-13.305-9.886h-28.59a1.94 1.94 0 01-1.937-1.938 1.936 1.936 0 011.938-1.938h28.586a17.667 17.667 0 0117.016 12.645l27.081 89.835a4.562 4.562 0 004.393 3.265h29.738a8.475 8.475 0 018.467 8.465v62.983a8.477 8.477 0 01-8.464 8.467z" fill="#0F1A42"/><path d="M170.824 409.33s9.03-.752 10.962-1.677c1.932-.926.529 0 .529 0s-5.774 15.358-6.972 32.128c0-.003-3.128-17.162-4.519-30.451z" fill="#1D2956"/><path d="M371.033 163.6s3.669 6.927 7.824 9.178c0 0 3.788-5.373 3.104-10.922l5.267 2.841c.634 1.038 1.501 13.796 1.501 13.796l-9.237-5.369s-.458-1.385-3.29 1.558c-2.832 2.944-4.166 7.563-4.166 7.563s-1.491-1.22-3.684-13.573l2.681-5.072z" fill="#fff"/><path d="M229.886 246.903s4.632 6.799 6.651 7.883c0 0 5.606-6.571 6.281-7.883.676-1.311 3.425 0 3.425 0s-1.456 11.07 0 14.227c1.457 3.157-8.982-6.205-8.982-6.205s-2.103-1.969-4.127 7.985c0 0-2.427 3.157-5.337-14.242l2.089-1.765z" fill="#C5E1F9"/><path d="M359.523 196.845s.54 15.389-2.075 25.315a11.741 11.741 0 00.598 7.731l9.674 21.973s1.011-6.667 3.464-7.85c.001-.008-8.943-22.114-11.661-47.169zm58.623-7.613s-.487 7.528 0 10.006l1.956-3.46-1.956-6.546z" fill="#0F1A42"/><path d="M452.942 169.928l6.8-.383s4.098-1.812 5.147-2.097c0 0 1.24-.047.906.857-.334.905-5.481 2.574-5.815 2.765-.334.191-5.672.381-5.672.381l-1.366-1.523z" fill="#FAC2AE"/><path d="M369.45 117.088s-2.91-12.482-10.119-5.197c-7.208 7.285 5.173 14.718 5.173 14.718l.056-3.313c.029-1.668.641-3.301 1.83-4.477a6.585 6.585 0 012.701-1.614l.359-.117zm-6.778 15.389s-.064 6.659 2.521 9.679c0 0-3.892-5.826-7.863-2.847-3.971 2.978 5.342-6.832 5.342-6.832z" fill="#080F28"/><path d="M369.449 117.088s-1.54-5.915-3.294-4.334c-2.984 2.689-2.202 6.004-1.245 10.094a6.98 6.98 0 00.649 1.792c1.441 2.577 1.008 6.307-4.28 10.849-5.289 4.541-4.894 10.397 2.722 12.422 7.615 2.026 5.325 8.661 5.325 8.661s-4.304-4.073-8.564-3.016c-4.261 1.056-19.749-2.572-21.687-14.964-.772-4.935.995-5.711.934-7.966-.209-7.778 7.336-23.813 23.473-22.91 0 0 7.059.227 7.015 8.706l-1.048.666z" fill="#232F63"/><path d="M357.917 140.387s-4.376 6.138 4.728 10.086c0 0 4.227 2.333 4.04 4.22l2.639 1.88s2.352-6.925-5.325-8.66c.002 0-6.358-1.007-6.082-7.526z" fill="#0A1A49"/><path d="M339.922 131.902s-1.401 8.244-.727 10.827c-.005.003-3.482-6.627.727-10.827z" fill="#232F63"/><path d="M87.802 284.389s.314 9.234-6.253 9.134c0 0 12.164 2.304 13.522 4.056 0 0 .083-6.005-2.548-7.257-2.63-1.252-4.721-5.933-4.721-5.933z" fill="#182651"/><path d="M381.264 151.858s-2.611-.284-2.719 1.877c-.109 2.161 3.036 6.192 3.036 6.192s-.73-6.957-.317-8.069z" fill="#F1A080"/><path d="M351.249 416.14c-2.622.275-4.836 1.525-5.243 1.557a.246.246 0 01-.089.02c-4.177-.372-17.02-5.26-21.313-9.348-.508-.483-3.951-7.942-3.951-7.942-9.179 3.602-12.644 10.446-12.644 10.446 1.433 2.333 8.171 16.09 8.509 17.028.178.447.405.873.679 1.269 2.112 3.181 7.572 7.677 9.014 8.68l1.739-1.166c-.836-1.326-2.683-5.256-2.108-7.398 0 0 1.046-.796 3.921-.596 3.073.212 8.034 1.387 9.524.388l17.598-11.803c-.762-.284-1.54-1.344-5.636-1.135z" fill="#1C2854"/><path d="M244.499 311.002L279.708 302l38.164 9.697-28.232 9.504-45.141-10.199z" fill="#91A2C6"/><path d="M246.384 309.348l33.4-8.54 36.204 9.2-26.782 9.014-42.822-9.674z" fill="#fff"/></svg>