<svg width="99" height="142" fill="none" xmlns="http://www.w3.org/2000/svg"><path d="M61.125 17.81l-4.633-1.394 1.266-10.45h.371c.46-.355 1.804-1.896 1.444-3.038-.323-1.046-2.06-1.465-3.467-1.64-1.997-.242-3.304-.025-3.783.623-.642.875.205 2.519.587 3.077l.1.146-.698 10.1-5.141-1.358.29-1 3.723 1 .586-8.539c-.37-.58-1.485-2.64-.486-4.017.742-1.01 2.39-1.37 4.907-1.067 3.932.48 4.685 2.039 4.63 3.262-.056 1.224-1.136 2.726-1.95 3.284l-1.08 8.895 3.668 1.103-.334 1.014z" fill="url(#paint0_linear)"/><path d="M99 142H5.798L0 137.425 5.798 16.943l87.404-4.576L99 16.943V142z" fill="#00458B"/><path d="M99 142H5.798L0 137.425 5.798 16.943l87.404-4.576L99 16.943V142z" fill="url(#paint1_linear)"/><path d="M95.93 139.819l-91.609.221L0 137.425 3.07 16.509l87.403-4.576 5.799 4.576-.342 123.31z" fill="url(#paint2_linear)"/><path d="M.5 136.925V12.867h92.202v124.058H.5z" fill="#fff" stroke="#000"/><path d="M29.37 21.07c-.048.316-.07.711.197.89a.963.963 0 00.483.127 94.916 94.916 0 0025.684-1.366c1.393-.267 3.078-.879 3.178-2.234.093-1.203-1.114-2.672-.14-3.426.364-.21.78-.322 1.206-.324a5.411 5.411 0 002.156-.792 5.155 5.155 0 001.597-1.599l-24.37-.189c-2.37-.017-6.683-.97-8.375 1.068-1.31 1.562-1.615 5.988-1.615 7.845z" fill="url(#paint3_linear)"/><path d="M56.377 17.868H31.145L29.438 2.836l25.402-.164 1.537 15.196zM54.842 2.672l9.38 4.469-1.366 5.226h-6.934l-1.08-9.695z" fill="#00458B"/><path d="M54.842 2.672l9.38 4.469-1.366 5.226h-6.934l-1.08-9.695z" fill="url(#paint4_linear)"/><path d="M49.194 17.633l-4.855-.182-1.678-11.62.349-.085c.345-.52 1.214-2.554.549-3.686-.601-1.031-2.394-.992-3.794-.775-1.993.306-3.196.91-3.474 1.747-.372 1.124.894 2.654 1.414 3.148l.137.128 2.127 11.08h-5.33v-1.16h3.879L36.72 6.87c-.505-.523-2.171-2.415-1.581-4.19.43-1.3 1.923-2.153 4.454-2.54 3.92-.602 5.079.86 5.368 2.198.29 1.338-.341 3.259-.969 4.091l1.426 9.898 3.842.146-.067 1.16z" fill="url(#paint5_linear)"/><path d="M42.739 31.43H14.096v34.643h28.643V31.43z" fill="#00458B"/><path d="M80.587 36.226H53.08c-.816 0-1.477.634-1.477 1.416 0 .782.661 1.416 1.477 1.416h27.507c.816 0 1.478-.634 1.478-1.416 0-.782-.662-1.416-1.478-1.416z" fill="#E31E27"/><path d="M80.587 42.434H53.08c-.816 0-1.477.634-1.477 1.416 0 .782.661 1.416 1.477 1.416h27.507c.816 0 1.478-.633 1.478-1.416 0-.782-.662-1.416-1.478-1.416zm0 9.041H53.08c-.816 0-1.477.634-1.477 1.416 0 .782.661 1.416 1.477 1.416h27.507c.816 0 1.478-.634 1.478-1.416 0-.782-.662-1.416-1.478-1.416zm0 6.208H53.08c-.816 0-1.477.634-1.477 1.416 0 .782.661 1.416 1.477 1.416h27.507c.816 0 1.478-.634 1.478-1.416 0-.782-.662-1.416-1.478-1.416zm-17.39 28.762H35.689c-.816 0-1.477.634-1.477 1.416 0 .782.661 1.416 1.477 1.416h27.508c.816 0 1.477-.634 1.477-1.416 0-.782-.661-1.416-1.477-1.416zm0 6.208H35.689c-.816 0-1.477.634-1.477 1.416 0 .782.661 1.416 1.477 1.416h27.508c.816 0 1.477-.634 1.477-1.416 0-.782-.661-1.416-1.477-1.416zm0 14.705H35.689c-.816 0-1.477.633-1.477 1.416 0 .782.661 1.416 1.477 1.416h27.508c.816 0 1.477-.634 1.477-1.416 0-.783-.661-1.416-1.477-1.416zm0 6.208H35.689c-.816 0-1.477.634-1.477 1.416 0 .782.661 1.416 1.477 1.416h27.508c.816 0 1.477-.634 1.477-1.416 0-.782-.661-1.416-1.477-1.416zm17.387-42.808H14.89c-.816 0-1.478.634-1.478 1.416 0 .782.662 1.416 1.478 1.416h65.694c.816 0 1.477-.634 1.477-1.416 0-.782-.661-1.416-1.477-1.416zm0 6.209H14.89c-.816 0-1.478.634-1.478 1.416 0 .782.662 1.416 1.478 1.416h65.694c.816 0 1.477-.634 1.477-1.416 0-.782-.661-1.416-1.477-1.416z" fill="#00458B"/><path d="M20.068 59.964c-1.726 1.213-3.274 3.394-2.97 5.429 8.453-.398 16.475.068 23.821-.035-.148-1.85-.924-4.202-2.268-5.537a8.34 8.34 0 00-2.383-1.476c-1.79-.843-3.605-1.683-5.569-2.074-3.92-.794-7.546 1.53-10.631 3.693z" fill="#fff"/><path d="M34.917 47.59c.032.297-.002.597-.1.88-.1.284-.26.544-.472.763a.877.877 0 01-.371.25c-.743.23-.776-1.207-.564-1.616.252-.466 1.395-1.202 1.507-.277z" fill="url(#paint6_linear)"/><path d="M21.727 46.786c-.033.297 0 .597.099.88.098.284.258.544.469.763.1.11.228.196.371.25.743.23.776-1.21.56-1.616-.244-.455-1.388-1.202-1.499-.277z" fill="url(#paint7_linear)"/><path d="M27.38 35.614a4.21 4.21 0 012.776-1.448c1.055-.107 2.227.242 2.792 1.096.364.655.531 1.394.482 2.135a4.038 4.038 0 01-.326 2.013 2.905 2.905 0 01-1.57 1.292c-1.545.583-3.367.11-4.563-.943-1.195-1.053-.527-3.056.409-4.145z" fill="#606161"/><path d="M27.38 35.614a4.21 4.21 0 012.776-1.448c1.055-.107 2.227.242 2.792 1.096.364.655.531 1.394.482 2.135a4.038 4.038 0 01-.326 2.013 2.905 2.905 0 01-1.57 1.292c-1.545.583-3.367.11-4.563-.943-1.195-1.053-.527-3.056.409-4.145z" fill="url(#paint8_linear)"/><path d="M31.093 51.61s.045 4.703 1.162 5.693c1.118.989-4.477 5.61-6.845.451 0 0 1.377-2.227.906-5.98-.471-3.754 4.777-.164 4.777-.164z" fill="url(#paint9_linear)"/><path d="M31.257 52.724v1.031s-2.84 3.914-4.002 2.601c-1.162-1.313-.82-1.608-.82-1.608l-.126-2.97 4.948.946z" fill="url(#paint10_linear)"/><path d="M33.8 44.886s.816 7.18-3.19 8.603c-4.005 1.423-6.392-.62-7.49-4.085-1.1-3.465.582-10.46 4.825-9.78 4.243.68 5.854 5.262 5.854 5.262z" fill="url(#paint11_linear)"/><path d="M34.434 47.298a1.87 1.87 0 00.345-.836 7.519 7.519 0 00-.328-4.03 7.825 7.825 0 00-2.382-3.335c-.44-.372-.95-.66-1.503-.85a4.998 4.998 0 00-1.7-.178 8.788 8.788 0 00-4.982 1.718 6.314 6.314 0 00-1.707 1.975 6.05 6.05 0 00-.736 2.466c-.05.51.038 1.024.253 1.494.109.234.273.44.48.602.207.161.45.275.711.33.925.153 1.177-.665 1.927-1.21 1.114-.822 1.485-2.042 4.046-1.836 4.165.335 4.462 5.003 5.576 3.69z" fill="#606161"/><path d="M22.47 47.298a.467.467 0 01-.115-.153.98.98 0 01-.03-.206.295.295 0 00-.097-.178.22.22 0 00-.204-.036.228.228 0 00-.122.135.737.737 0 00-.026.182 1.37 1.37 0 00.107.694c.091.15.208.285.346.398a.284.284 0 00.193.1.264.264 0 00.133-.047.165.165 0 00.049-.035.137.137 0 000-.053 1.283 1.283 0 000-.491.649.649 0 00-.234-.31z" fill="url(#paint12_linear)"/><path d="M34.063 48.07a.467.467 0 00.115-.153.921.921 0 00.03-.203.275.275 0 01.1-.178.2.2 0 01.2-.039.24.24 0 01.123.135c.016.06.025.123.026.185a1.37 1.37 0 01-.107.694 1.55 1.55 0 01-.346.395.312.312 0 01-.193.103.267.267 0 01-.133-.05.097.097 0 01-.049-.035.126.126 0 010-.053 1.269 1.269 0 010-.488.66.66 0 01.234-.313z" fill="url(#paint13_linear)"/><path d="M22.122 96.56h-4.24c-.813 0-1.592-.3-2.167-.833a2.745 2.745 0 01-.899-2.01v-4.254a2.746 2.746 0 01.899-2.01 3.193 3.193 0 012.167-.833h4.24c.813 0 1.592.3 2.167.833.575.533.898 1.256.899 2.01v4.263a2.746 2.746 0 01-.902 2.004 3.194 3.194 0 01-2.164.83zm-4.24-9.167a2.311 2.311 0 00-1.57.605 1.99 1.99 0 00-.652 1.456v4.263a1.99 1.99 0 00.652 1.456c.416.386.98.604 1.57.604h4.24c.589 0 1.153-.218 1.57-.604.415-.386.65-.91.65-1.456v-4.254c0-.546-.235-1.07-.65-1.456a2.312 2.312 0 00-1.57-.604l-4.24-.01z" fill="#00458B"/><path d="M20.29 95.14l-3.628-3.332a1.142 1.142 0 01-.27-.372 1.065 1.065 0 010-.875c.063-.139.154-.265.27-.37.115-.107.252-.191.403-.249a1.336 1.336 0 01.951 0c.15.058.288.142.403.248l1.733 1.595 5.815-6.19c.215-.229.521-.37.85-.392.33-.022.654.077.904.276.249.198.402.48.426.782a1.08 1.08 0 01-.3.831l-7.556 8.048z" fill="#E31E27"/><path d="M22.122 116.44h-4.24a3.195 3.195 0 01-2.167-.833 2.745 2.745 0 01-.899-2.01v-4.254a2.746 2.746 0 01.899-2.01 3.195 3.195 0 012.167-.833h4.24c.813.001 1.592.3 2.167.833.575.533.898 1.256.899 2.01v4.263a2.746 2.746 0 01-.902 2.004 3.196 3.196 0 01-2.164.83zm-4.24-9.167a2.314 2.314 0 00-1.57.605c-.417.386-.65.909-.652 1.456v4.263a1.99 1.99 0 00.652 1.456c.416.386.98.604 1.57.604h4.24a2.31 2.31 0 001.57-.604c.415-.386.65-.91.65-1.456v-4.254c0-.546-.235-1.07-.65-1.456a2.31 2.31 0 00-1.57-.604l-4.24-.01z" fill="#00458B"/><path d="M20.29 115.02l-3.628-3.332a1.16 1.16 0 01-.27-.371 1.069 1.069 0 010-.876 1.15 1.15 0 01.27-.371 1.26 1.26 0 01.403-.248 1.347 1.347 0 01.951 0c.15.058.288.142.403.248l1.733 1.595 5.815-6.189a1.28 1.28 0 01.85-.393c.33-.022.654.077.904.276.249.198.402.48.426.782a1.08 1.08 0 01-.3.831l-7.556 8.048z" fill="#E31E27"/><defs><linearGradient id="paint0_linear" x1="51.791" y1="23.885" x2="57.964" y2="-.313" gradientUnits="userSpaceOnUse"><stop stop-color="#010101" stop-opacity="0"/><stop offset=".95" stop-color="#010101"/></linearGradient><linearGradient id="paint1_linear" x1="53575.8" y1="71071.8" x2="-15947.2" y2="9583.95" gradientUnits="userSpaceOnUse"><stop stop-color="#010101" stop-opacity="0"/><stop offset=".95" stop-color="#010101"/></linearGradient><linearGradient id="paint2_linear" x1="44886.6" y1="27858.4" x2="13618.2" y2="30261.8" gradientUnits="userSpaceOnUse"><stop stop-color="#010101" stop-opacity="0"/><stop offset=".95" stop-color="#010101"/></linearGradient><linearGradient id="paint3_linear" x1="8900.87" y1="1196.13" x2="9046.3" y2="-1405.68" gradientUnits="userSpaceOnUse"><stop stop-color="#010101" stop-opacity="0"/><stop offset=".95" stop-color="#010101"/></linearGradient><linearGradient id="paint4_linear" x1="2920.54" y1="200.936" x2="2752.86" y2="503.568" gradientUnits="userSpaceOnUse"><stop stop-color="#010101" stop-opacity="0"/><stop offset=".95" stop-color="#010101"/></linearGradient><linearGradient id="paint5_linear" x1="3758.2" y1="1710.74" x2="3732.05" y2="328.832" gradientUnits="userSpaceOnUse"><stop stop-color="#010101" stop-opacity="0"/><stop offset=".95" stop-color="#010101"/></linearGradient><linearGradient id="paint6_linear" x1="34.928" y1="48.326" x2="33.306" y2="48.326" gradientUnits="userSpaceOnUse"><stop stop-color="#E4C5D5"/><stop offset=".42" stop-color="#E9D3CF"/><stop offset="1" stop-color="#EFE8CA"/></linearGradient><linearGradient id="paint7_linear" x1="-244.278" y1="413.289" x2="-237.167" y2="413.289" gradientUnits="userSpaceOnUse"><stop stop-color="#E4C5D5"/><stop offset=".42" stop-color="#E9D3CF"/><stop offset="1" stop-color="#EFE8CA"/></linearGradient><linearGradient id="paint8_linear" x1="2412.03" y1="868.091" x2="2384.01" y2="945.844" gradientUnits="userSpaceOnUse"><stop stop-color="#010101" stop-opacity="0"/><stop offset=".95" stop-color="#010101"/></linearGradient><linearGradient id="paint9_linear" x1="-2552.91" y1="1835.03" x2="-2421.27" y2="1835.03" gradientUnits="userSpaceOnUse"><stop stop-color="#E4C5D5"/><stop offset=".42" stop-color="#E9D3CF"/><stop offset="1" stop-color="#EFE8CA"/></linearGradient><linearGradient id="paint10_linear" x1="29.594" y1="57.491" x2="26.618" y2="42.154" gradientUnits="userSpaceOnUse"><stop offset=".12" stop-color="#010101" stop-opacity="0"/><stop offset=".95" stop-color="#010101"/></linearGradient><linearGradient id="paint11_linear" x1="-4105.95" y1="2244.33" x2="-3775.56" y2="2244.33" gradientUnits="userSpaceOnUse"><stop stop-color="#E4C5D5"/><stop offset=".42" stop-color="#E9D3CF"/><stop offset="1" stop-color="#EFE8CA"/></linearGradient><linearGradient id="paint12_linear" x1="-270.428" y1="283.297" x2="-278.243" y2="282.377" gradientUnits="userSpaceOnUse"><stop offset=".12" stop-color="#010101" stop-opacity="0"/><stop offset=".95" stop-color="#010101"/></linearGradient><linearGradient id="paint13_linear" x1=".232" y1="288.005" x2="-7.582" y2="287.092" gradientUnits="userSpaceOnUse"><stop offset=".12" stop-color="#010101" stop-opacity="0"/><stop offset=".95" stop-color="#010101"/></linearGradient></defs></svg>