<svg width="518" height="509" fill="none" xmlns="http://www.w3.org/2000/svg"><g filter="url(#filter0_d)"><rect x="277.95" y="252.5" width="228.653" height="203.75" rx="10" fill="#fff"/></g><path d="M390.89 384.323c.075.201.084.421.026.629a.995.995 0 01-.2.305c-.793.896-1.977 1.325-3.106 1.717a8.328 8.328 0 01-1.21.35 7.207 7.207 0 01-1.329.079 38.607 38.607 0 01-4.365-.277 5.17 5.17 0 013.772-3.173c.798-.157 1.62-.118 2.428-.198a.35.35 0 00.293-.133.367.367 0 000-.257l-.324-1.207a.516.516 0 01-.018-.318c.054-.149.226-.216.378-.257.547-.159.909-1.763 1.494-1.797.585-.033 1.399 1.882 1.502 2.49.123.75.575 1.731.659 2.047z" fill="#00458B"/><path d="M390.89 384.323c.075.201.084.421.026.629a.995.995 0 01-.2.305c-.793.896-1.977 1.325-3.106 1.717a8.328 8.328 0 01-1.21.35 7.207 7.207 0 01-1.329.079 38.607 38.607 0 01-4.365-.277 5.17 5.17 0 013.772-3.173c.798-.157 1.62-.118 2.428-.198a.35.35 0 00.293-.133.367.367 0 000-.257l-.324-1.207a.516.516 0 01-.018-.318c.054-.149.226-.216.378-.257.547-.159.909-1.763 1.494-1.797.585-.033 1.399 1.882 1.502 2.49.123.75.575 1.731.659 2.047z" fill="url(#paint0_linear)"/><path d="M407.105 385.762c1.52 1.456 3.828 1.756 5.905 1.518.351-.041.752-.126.927-.434.174-.308.043-.696-.144-.996-.442-.699-1.158-1.176-1.879-1.582a17.241 17.241 0 00-3.358-1.435 2.036 2.036 0 01-.688-.305c-.455-.36-.498-1.027-.858-1.489-.151-.193-1.864-.652-2.03-.514-.514.396.1 1.643.323 2.229.429 1.086.942 2.184 1.802 3.008z" fill="#00458B"/><path d="M407.105 385.762c1.52 1.456 3.828 1.756 5.905 1.518.351-.041.752-.126.927-.434.174-.308.043-.696-.144-.996-.442-.699-1.158-1.176-1.879-1.582a17.241 17.241 0 00-3.358-1.435 2.036 2.036 0 01-.688-.305c-.455-.36-.498-1.027-.858-1.489-.151-.193-1.864-.652-2.03-.514-.514.396.1 1.643.323 2.229.429 1.086.942 2.184 1.802 3.008z" fill="url(#paint1_linear)"/><path d="M443.739 336.834h-12.605v51.354h12.605v-51.354zm-92.206 0h-12.605v51.354h12.605v-51.354z" fill="#00458B"/><path d="M351.533 336.834h-12.605v14.341h12.605v-14.341z" fill="url(#paint2_linear)"/><path d="M443.706 336.834h-12.605v14.341h12.605v-14.341z" fill="url(#paint3_linear)"/><path d="M446.542 332.632H334.261v5.134h112.281v-5.134zm-55.559 12.137s-17.041 7.471-17.742 8.754c-.701 1.284-.467 4.552.585 5.954 1.053 1.401 12.605 22.527 12.605 22.527l3.851-1.053-7.586-22.876s21.01-1.165 22.527-2.683c1.518-1.517 3.618-6.069 3.618-6.069l-10.973-9.922-6.885 5.368z" fill="#00458B"/><path d="M390.983 344.769s-17.041 7.471-17.742 8.754c-.701 1.284-.467 4.552.585 5.954 1.053 1.401 12.605 22.527 12.605 22.527l3.851-1.053-7.586-22.876s21.01-1.165 22.527-2.683c1.518-1.517 3.618-6.069 3.618-6.069l-10.973-9.922-6.885 5.368z" fill="url(#paint4_linear)"/><path d="M400.769 290.381H351.32a2.704 2.704 0 00-2.704 2.703v29.14a2.704 2.704 0 002.704 2.703h49.449a2.703 2.703 0 002.703-2.703v-29.14a2.703 2.703 0 00-2.703-2.703z" fill="#00458B"/><path d="M399.16 291.826h-46.369a2.49 2.49 0 00-2.49 2.49v26.355a2.49 2.49 0 002.49 2.49h46.369a2.49 2.49 0 002.49-2.49v-26.355a2.49 2.49 0 00-2.49-2.49z" fill="url(#paint5_linear)"/><path d="M399.16 291.826h-46.369a2.49 2.49 0 00-2.49 2.49v26.355a2.49 2.49 0 002.49 2.49h46.369a2.49 2.49 0 002.49-2.49v-26.355a2.49 2.49 0 00-2.49-2.49z" fill="url(#paint6_linear)"/><path d="M394.746 305.016c-1.283 2.311-3.08 4.293-4.274 6.649-.865 1.723-1.379 3.594-2.159 5.361-.78 1.766-1.897 3.476-3.594 4.405-.691.38-1.515.673-1.872 1.373 3.615.567 7.271.825 10.929.771.234.013.468-.025.685-.111.255-.154.465-.372.611-.631 2.486-3.558 6.596-6.118 7.8-10.287.557-1.918.413-3.961.256-5.953-.19-2.606-.382-5.217-.77-7.805-.287-1.953-.495-4.076-2.567-4.906-1.194-.48-2.868-.513-3.989.19-1.554.958-.804 2.054-.211 3.386 1.155 2.483.431 5.281-.845 7.558z" fill="url(#paint7_linear)"/><path d="M401.994 304.467a.323.323 0 01.215.039c.043.045.07.103.077.164.052.386.078.776.078 1.165.003.393.139.772.387 1.076.385.408 1.009.447 1.569.462a1.15 1.15 0 00.351-.028c.154-.069.3-.155.434-.257.398-.228.901-.19 1.31-.398.157-.084.299-.195.421-.326.808-.847.883-2.174.611-3.316-.273-1.143-.824-2.198-1.122-3.338-.257-1.004-.329-2.097-.907-2.96a.703.703 0 00-.541-.375 11.275 11.275 0 00-2.614-.156c-.703 0-1.437.038-2.053.375-.396.213-1.5-1.471-1.777-1.12-.195.257.27 5.548.334 5.956.547 3.453 2.259 3.086 3.227 3.037z" fill="url(#paint8_linear)"/><path d="M393.958 314.425s1.869-6.654 5.779-7.879c3.91-1.224 9.804-1.576 11.147-1.227s5.193 2.511 5.602 8.698c.408 6.187.757 9.278.757 9.278l-1.05 26.028s-14.356 2.334-18.207.583l-1.401-6.418-1.399 5.019-4.203-3.735 2.334-7.82s-.35-18.676.641-22.527z" fill="#00458B"/><path d="M393.958 314.425s1.869-6.654 5.779-7.879c3.91-1.224 9.804-1.576 11.147-1.227s5.193 2.511 5.602 8.698c.408 6.187.757 9.278.757 9.278l-1.05 26.028s-14.356 2.334-18.207.583l-1.401-6.418-1.399 5.019-4.203-3.735 2.334-7.82s-.35-18.676.641-22.527z" fill="url(#paint9_linear)"/><path opacity=".48" d="M408.989 323.367c-.947 1.566-1.381 3.378-1.797 5.155l-2.729 11.532c-.567 2.402-1.147 4.841-2.326 7.011-1.178 2.169-3.047 4.084-5.422 4.762-1.761.513-3.64.3-5.46.5a12.439 12.439 0 00-9.014 5.648c7.512.1 15.022-.32 22.476-1.258 1.102-.138 2.242-.303 3.181-.896 1.101-.698 1.779-1.894 2.311-3.08 1.157-2.537 1.902-5.24 2.567-7.959a134.68 134.68 0 002.546-13.511c.565-4.141 1.718-9.321 1.009-13.437-2.713.611-5.899 3.161-7.342 5.533z" fill="url(#paint10_linear)"/><path d="M386.3 331.875l6.726-.059.175-3.094-6.901 3.153z" stroke="#3CB6D5" stroke-width="1.28" stroke-miterlimit="10"/><path d="M390.518 357.96l14.005 23.577 3.034-.701-7.003-23.693-10.036.817z" fill="#00458B"/><path d="M390.518 357.96l14.005 23.577 3.034-.701-7.003-23.693-10.036.817z" fill="url(#paint11_linear)"/><path d="M434.287 332.517c-.586 2.338-5.61 21.821-5.61 21.821s-1.283 5.37-5.247 5.37c-2.128 0-12.548-.184-21.752-.359-7.958-.149-15.01-.288-15.01-.288s-.932-3.442 1.979-3.681c2.911-.239 11.203 0 11.203 0s4.092-.223 5.723-4.313c1.342-3.337 4.4-16.889 5.47-21.664a8.731 8.731 0 011.692-3.569c1.841-2.351 5.496-6.082 10.346-6.392 5.037-.337 8.271 1.553 9.938 3.232a5.673 5.673 0 011.268 1.779c.582 1.522.582 5.725 0 8.064z" fill="#00458B"/><path d="M433.018 322.679c0 .149 0 .287-.012.436 0 0-9.812-3.494-17.162 7.535l-6.829 23.978s-1.355 4.551-7.337 4.726c-7.958-.149-15.01-.288-15.01-.288s-.932-3.442 1.979-3.681c2.911-.239 11.203 0 11.203 0s4.092-.223 5.723-4.313c1.342-3.337 4.4-16.89 5.47-21.665a8.733 8.733 0 011.692-3.568c1.841-2.352 5.496-6.082 10.346-6.392 5.037-.337 8.271 1.553 9.937 3.232z" fill="url(#paint12_linear)"/><path d="M407.439 359.428h-1.866v28.879h1.866v-28.879z" fill="#00458B"/><path d="M407.439 359.428h-1.866v28.879h1.866v-28.879z" fill="url(#paint13_linear)"/><path d="M413.726 386.025h-13.447a1.155 1.155 0 100 2.31h13.447a1.155 1.155 0 100-2.31z" fill="#00458B"/><path d="M413.726 386.025h-13.447a1.155 1.155 0 100 2.31h13.447a1.155 1.155 0 100-2.31z" fill="url(#paint14_linear)"/><path d="M385.266 324.912h-15.932v6.595h15.932v-6.595z" fill="#00458B"/><path d="M385.266 324.912h-15.932v6.595h15.932v-6.595z" fill="url(#paint15_linear)"/><path d="M391.309 329.813H362.13v2.801h29.179v-2.801z" fill="#00458B"/><path d="M391.769 330.018H362.59v2.195h29.179v-2.195z" fill="url(#paint16_linear)"/><path d="M401.506 291.038c-.483.359-.901.803-1.409 1.124-.7.416-1.498.636-2.311.637-.552.018-1.227.025-1.491.513-.219.398 0 .901.277 1.256.261.321.582.59.945.79.185.086.358.196.513.329.316.321.318.829.513 1.235.278.57.909.873 1.315 1.36.798.958.603 2.437 1.283 3.474.412.555.98.975 1.631 1.206.874.38 1.836.512 2.78.38a3.62 3.62 0 002.372-1.394c.485-.675.68-1.512.819-2.331.275-1.614.37-3.291-.036-4.877-.801-3.12-4.102-6.005-7.201-3.702z" fill="#3F3D56"/><path d="M401.506 291.038c-.483.359-.901.803-1.409 1.124-.7.416-1.498.636-2.311.637-.552.018-1.227.025-1.491.513-.219.398 0 .901.277 1.256.261.321.582.59.945.79.185.086.358.196.513.329.316.321.318.829.513 1.235.278.57.909.873 1.315 1.36.798.958.603 2.437 1.283 3.474.412.555.98.975 1.631 1.206.874.38 1.836.512 2.78.38a3.62 3.62 0 002.372-1.394c.485-.675.68-1.512.819-2.331.275-1.614.37-3.291-.036-4.877-.801-3.12-4.102-6.005-7.201-3.702z" fill="url(#paint17_linear)"/><path d="M402.323 309.07a4.015 4.015 0 01.631 3.306c-.673 2.919-2.534 9.846-5.668 12.836-4.028 3.851-10.154 7.879-22.848 7.53l.177-3.502s13.742-1.227 14.966-5.779c1.225-4.551 6.041-14.355 7.792-15.318 1.376-.75 3.566-.911 4.95.927z" fill="#00458B"/><path d="M402.323 309.07a4.015 4.015 0 01.631 3.306c-.673 2.919-2.534 9.846-5.668 12.836-4.028 3.851-10.154 7.879-22.848 7.53l.177-3.502s13.742-1.227 14.966-5.779c1.225-4.551 6.041-14.355 7.792-15.318 1.376-.75 3.566-.911 4.95.927z" fill="url(#paint18_linear)"/><path d="M371.744 329.06a5.965 5.965 0 00-5.678 2.008l3.042.298c.197.002.391.055.562.154.131.122.255.25.372.385.263.183.579.273.899.257.952.043 1.907.046 2.86 0a.538.538 0 00.333-.09.512.512 0 00.142-.28c.125-.488.403-1.854-.07-2.195-.22-.157-.898-.136-1.183-.211-.426-.097-.845-.238-1.279-.326z" fill="url(#paint19_linear)"/><path opacity=".18" d="M438.771 288.357v11.925a2.384 2.384 0 01-2.385 2.382h-8.749l-3.712 5.538v-5.538h-6.043a2.385 2.385 0 01-1.686-.697 2.379 2.379 0 01-.699-1.685v-11.925a2.379 2.379 0 01.699-1.685 2.375 2.375 0 011.686-.697h18.504a2.384 2.384 0 012.385 2.382z" fill="#00458B"/><path d="M437.85 287.744v11.925a2.379 2.379 0 01-.699 1.685 2.368 2.368 0 01-1.686.697h-8.747l-3.714 5.538v-5.53h-6.041a2.386 2.386 0 01-2.388-2.383v-11.932a2.399 2.399 0 01.701-1.686 2.385 2.385 0 011.687-.696h18.502a2.377 2.377 0 012.203 1.47c.12.289.182.599.182.912z" fill="#fff"/><path d="M355.802 293.898h-2.166V320.7h2.166v-26.802z" fill="url(#paint20_linear)"/><path d="M421.376 293.897l3.753-1.933v.56l-3.162 1.576v.018l3.162 1.584v.56l-3.753-1.933v-.432zm4.277 2.696l2.257-5.866h.549l-2.264 5.866h-.542zm7.068-2.236l-3.751 1.925v-.572l3.186-1.584v-.026l-3.186-1.584v-.552l3.751 1.926v.467z" fill="#00458B"/><path d="M366.897 298.162h-6.964v.511h6.964v-.511z" fill="url(#paint21_linear)"/><path d="M364.184 299.15h-4.251v.48h4.251v-.48z" fill="url(#paint22_linear)"/><path d="M379.277 299.15h-13.378v.483h13.378v-.483z" fill="url(#paint23_linear)"/><path d="M388.056 299.15h-7.529v.483h7.529v-.483z" fill="url(#paint24_linear)"/><path d="M367.989 300.141h-5.846v.506h5.846v-.506z" fill="url(#paint25_linear)"/><path d="M370.985 301.129h-6.965v.511h6.965v-.511z" fill="url(#paint26_linear)"/><path d="M377.277 301.129h-5.838v.568h5.838v-.568z" fill="url(#paint27_linear)"/><path d="M369.388 302.118h-5.378v.48h5.378v-.48z" fill="url(#paint28_linear)"/><path d="M390.3 302.118h-5.378v.48h5.378v-.48z" fill="url(#paint29_linear)"/><path d="M381.002 302.118h-11.098v.531h11.098v-.531z" fill="url(#paint30_linear)"/><path d="M384.503 302.118h-2.446v.542h2.446v-.542z" fill="url(#paint31_linear)"/><path d="M366.897 303.455h-6.964v.511h6.964v-.511z" fill="url(#paint32_linear)"/><path d="M364.184 304.444h-4.251v.48h4.251v-.48z" fill="url(#paint33_linear)"/><path d="M379.277 304.444h-13.378v.482h13.378v-.482z" fill="url(#paint34_linear)"/><path d="M388.056 304.444h-7.529v.482h7.529v-.482z" fill="url(#paint35_linear)"/><path d="M367.989 305.432h-5.846v.506h5.846v-.506z" fill="url(#paint36_linear)"/><path d="M370.985 306.423h-6.965v.511h6.965v-.511z" fill="url(#paint37_linear)"/><path d="M377.277 306.423h-5.838v.567h5.838v-.567z" fill="url(#paint38_linear)"/><path d="M369.388 307.411h-5.378v.48h5.378v-.48z" fill="url(#paint39_linear)"/><path d="M390.3 307.411h-5.378v.48h5.378v-.48z" fill="url(#paint40_linear)"/><path d="M381.002 307.411h-11.098v.532h11.098v-.532z" fill="url(#paint41_linear)"/><path d="M384.503 307.411h-2.446v.542h2.446v-.542z" fill="url(#paint42_linear)"/><path d="M366.897 308.749h-6.964v.511h6.964v-.511z" fill="url(#paint43_linear)"/><path d="M364.184 309.737h-4.251v.481h4.251v-.481z" fill="url(#paint44_linear)"/><path d="M379.277 309.737h-13.378v.483h13.378v-.483z" fill="url(#paint45_linear)"/><path d="M388.056 309.737h-7.529v.483h7.529v-.483z" fill="url(#paint46_linear)"/><path d="M367.989 310.726h-5.846v.505h5.846v-.505z" fill="url(#paint47_linear)"/><path d="M370.985 311.714h-6.965v.511h6.965v-.511z" fill="url(#paint48_linear)"/><path d="M377.277 311.714h-5.838v.567h5.838v-.567z" fill="url(#paint49_linear)"/><path d="M369.388 312.705h-5.378v.48h5.378v-.48z" fill="url(#paint50_linear)"/><path d="M390.3 312.705h-5.378v.48h5.378v-.48z" fill="url(#paint51_linear)"/><path d="M381.002 312.705h-11.098v.531h11.098v-.531z" fill="url(#paint52_linear)"/><path d="M384.503 312.705h-2.446v.541h2.446v-.541z" fill="url(#paint53_linear)"/><path d="M336.398 420.733c-.1 1.062-.492 1.892-1.175 2.489-.684.592-1.593.888-2.728.888-.793 0-1.492-.187-2.098-.56-.602-.379-1.067-.914-1.395-1.607-.328-.692-.499-1.497-.513-2.413v-.929c0-.939.167-1.766.499-2.482.333-.715.809-1.267 1.429-1.654.624-.388 1.344-.581 2.16-.581 1.098 0 1.983.298 2.653.895.669.597 1.059 1.44 1.168 2.53h-1.722c-.082-.716-.292-1.231-.629-1.545-.333-.319-.823-.479-1.47-.479-.752 0-1.331.276-1.736.827-.401.547-.606 1.351-.615 2.413v.882c0 1.076.191 1.896.574 2.461.387.565.952.848 1.695.848.679 0 1.19-.153 1.531-.458.342-.306.559-.814.65-1.525h1.722zm1.081-.526c0-.725.143-1.376.43-1.955a3.125 3.125 0 011.21-1.34c.52-.314 1.117-.472 1.791-.472.998 0 1.807.322 2.427.964.624.643.962 1.495 1.012 2.557l.006.39c0 .729-.141 1.38-.423 1.955a3.084 3.084 0 01-1.203 1.333c-.52.314-1.122.471-1.805.471-1.044 0-1.88-.346-2.509-1.039-.624-.697-.936-1.624-.936-2.782v-.082zm1.661.144c0 .761.157 1.358.471 1.791.315.428.752.642 1.313.642.56 0 .996-.219 1.306-.656.314-.438.471-1.078.471-1.921 0-.747-.162-1.34-.485-1.777-.319-.438-.754-.657-1.306-.657-.542 0-.973.217-1.292.65-.319.428-.478 1.071-.478 1.928zm12.892 3.623h-1.661v-6.057h-2.885v6.057h-1.661v-7.397h6.207v7.397zm8.244-3.623c0 1.143-.259 2.057-.779 2.741-.519.679-1.217 1.018-2.092 1.018-.811 0-1.46-.266-1.948-.8v3.507h-1.661v-10.24h1.531l.069.752c.487-.592 1.15-.889 1.989-.889.902 0 1.609.338 2.119 1.012.515.67.772 1.602.772 2.796v.103zm-1.654-.144c0-.738-.148-1.324-.444-1.757-.292-.433-.711-.649-1.258-.649-.679 0-1.167.28-1.463.841v3.281c.301.574.793.861 1.477.861.528 0 .941-.212 1.237-.636.301-.428.451-1.075.451-1.941zm2.755 0c0-.725.144-1.376.431-1.955.287-.583.69-1.03 1.21-1.34.519-.314 1.116-.472 1.791-.472.998 0 1.807.322 2.426.964.625.643.962 1.495 1.012 2.557l.007.39c0 .729-.141 1.38-.424 1.955a3.084 3.084 0 01-1.203 1.333c-.52.314-1.121.471-1.805.471-1.043 0-1.88-.346-2.509-1.039-.624-.697-.936-1.624-.936-2.782v-.082zm1.661.144c0 .761.157 1.358.472 1.791.314.428.752.642 1.312.642.561 0 .996-.219 1.306-.656.314-.438.472-1.078.472-1.921 0-.747-.162-1.34-.486-1.777-.319-.438-.754-.657-1.305-.657-.543 0-.973.217-1.292.65-.319.428-.479 1.071-.479 1.928zm6.747 3.623v-7.397h3.001c1.012 0 1.782.178 2.311.533.528.351.793.857.793 1.518 0 .342-.107.649-.322.923-.209.269-.521.476-.936.622.483.1.866.303 1.148.608.283.306.424.666.424 1.08 0 .688-.255 1.213-.766 1.573-.505.36-1.235.54-2.187.54h-3.466zm1.661-3.152v1.839h1.819c.852 0 1.278-.305 1.278-.916 0-.615-.433-.923-1.299-.923h-1.798zm0-1.189h1.367c.944 0 1.416-.278 1.416-.834 0-.584-.447-.884-1.34-.903h-1.443v1.737zm5.886.574c0-.725.144-1.376.431-1.955.287-.583.69-1.03 1.21-1.34.519-.314 1.116-.472 1.791-.472.998 0 1.807.322 2.426.964.625.643.962 1.495 1.012 2.557l.007.39c0 .729-.141 1.38-.424 1.955a3.084 3.084 0 01-1.203 1.333c-.519.314-1.121.471-1.805.471-1.043 0-1.88-.346-2.508-1.039-.625-.697-.937-1.624-.937-2.782v-.082zm1.661.144c0 .761.157 1.358.472 1.791.314.428.752.642 1.312.642.561 0 .996-.219 1.306-.656.314-.438.472-1.078.472-1.921 0-.747-.162-1.34-.486-1.777-.319-.438-.754-.657-1.305-.657-.543 0-.973.217-1.292.65-.319.428-.479 1.071-.479 1.928zm12.982.649h-.882v2.974h-1.661V421h-.875l-1.702 2.974h-2.038l2.455-3.849-2.325-3.548h2.031l1.674 2.905h.78v-2.905h1.661v2.905h.786l1.682-2.905h2.03l-2.318 3.527 2.468 3.87h-2.064L391.975 421zm4.826 1.647c.46-.515.768-1.002.923-1.462.159-.465.255-1.058.287-1.778l.095-2.83h5.134v6.07h1.026v3.528h-1.655v-2.201h-4.744v2.201h-1.681l.006-3.528h.609zm1.948 0h2.837v-4.641h-1.866l-.048 1.415c-.064 1.358-.372 2.433-.923 3.226zm9.96 1.463c-1.053 0-1.907-.33-2.563-.991-.652-.665-.978-1.549-.978-2.652v-.205c0-.739.141-1.397.424-1.976a3.267 3.267 0 011.203-1.36 3.168 3.168 0 011.723-.486c1.007 0 1.784.322 2.331.964.551.643.827 1.552.827 2.728v.67h-4.833c.05.61.253 1.093.608 1.449.36.355.811.533 1.354.533.761 0 1.381-.307 1.859-.923l.896.855a3.015 3.015 0 01-1.19 1.032c-.492.242-1.046.362-1.661.362zm-.198-6.337c-.456 0-.825.16-1.108.479-.278.319-.455.763-.533 1.333h3.165v-.123c-.036-.556-.184-.975-.444-1.258-.26-.287-.62-.431-1.08-.431zm10.725 6.201h-1.661v-2.988h-2.878v2.988h-1.661v-7.397h1.661v3.083h2.878v-3.083h1.661v7.397zm6.392-7.397h1.654v7.397h-1.654v-4.936l-2.898 4.936h-1.655v-7.397h1.655v4.936l2.898-4.936zm6.679 7.533c-1.053 0-1.908-.33-2.564-.991-.652-.665-.977-1.549-.977-2.652v-.205c0-.739.141-1.397.423-1.976a3.276 3.276 0 011.204-1.36 3.168 3.168 0 011.722-.486c1.007 0 1.784.322 2.331.964.552.643.827 1.552.827 2.728v.67h-4.833c.051.61.253 1.093.609 1.449.36.355.811.533 1.353.533.761 0 1.381-.307 1.86-.923l.895.855a3.005 3.005 0 01-1.189 1.032c-.492.242-1.046.362-1.661.362zm-.199-6.337c-.455 0-.824.16-1.107.479-.278.319-.456.763-.533 1.333h3.165v-.123c-.037-.556-.185-.975-.445-1.258-.259-.287-.619-.431-1.08-.431zm12.339 6.201h-1.654v-7.992l-2.44.834v-1.401l3.882-1.429h.212v9.988zm11.321-3.241c-.101 1.062-.493 1.892-1.176 2.489-.684.592-1.593.888-2.728.888-.793 0-1.492-.187-2.098-.56-.602-.379-1.067-.914-1.395-1.607-.328-.692-.499-1.497-.513-2.413v-.929c0-.939.167-1.766.499-2.482.333-.715.809-1.267 1.429-1.654.625-.388 1.345-.581 2.16-.581 1.099 0 1.983.298 2.653.895.67.597 1.059 1.44 1.169 2.53h-1.723c-.082-.716-.292-1.231-.629-1.545-.333-.319-.823-.479-1.47-.479-.752 0-1.33.276-1.736.827-.401.547-.606 1.351-.615 2.413v.882c0 1.076.191 1.896.574 2.461.387.565.952.848 1.695.848.679 0 1.19-.153 1.532-.458.341-.306.558-.814.649-1.525h1.723z" fill="#00458B"/><g filter="url(#filter1_d)"><rect x="9" y="48.75" width="228.653" height="203.75" rx="10" fill="#fff"/></g><g clip-path="url(#clip0)"><path d="M167.644 109.379a10.419 10.419 0 01-10.411 10.411H135.7a9.679 9.679 0 01-1.412-.101c-.565.068-1.133.102-1.702.101H102.26a14.67 14.67 0 01-14.857-14.67 14.674 14.674 0 0114.857-14.67h5.974a19.132 19.132 0 0118.285-16.703 19.135 19.135 0 0119.453 15.326h1.855a9.615 9.615 0 019.618 9.613v.285a10.406 10.406 0 0110.199 10.408z" fill="url(#paint54_linear)"/><path d="M165.302 107.037a10.419 10.419 0 01-10.411 10.411h-21.53a9.682 9.682 0 01-1.413-.101c-.564.068-1.131.102-1.699.101H99.918a14.686 14.686 0 01-10.494-4.231 14.664 14.664 0 01-4.363-10.439 14.672 14.672 0 0114.857-14.67h5.974a19.132 19.132 0 0137.738-1.377h1.855a9.616 9.616 0 019.618 9.61v.288a10.409 10.409 0 0110.199 10.408z" fill="#00458B"/><path d="M165.302 107.037a10.419 10.419 0 01-10.411 10.411h-21.53a9.682 9.682 0 01-1.413-.101c-.564.068-1.131.102-1.699.101h-29.453a14.672 14.672 0 017.318-27.39h5.976a19.138 19.138 0 0118.988-16.718h.236a19.158 19.158 0 0110.323 13.388h1.855a9.616 9.616 0 019.618 9.61v.288a10.41 10.41 0 0110.192 10.411z" fill="url(#paint55_linear)"/><path d="M82.05 157.262h-1.156v-44.769a4.216 4.216 0 014.211-4.208h7.297v1.155h-7.297a3.063 3.063 0 00-3.06 3.06l.005 44.762zm94.722 0h-1.154v-44.769a3.061 3.061 0 00-3.059-3.06h-7.297v-1.156h7.297a4.217 4.217 0 014.208 4.209l.005 44.776z" fill="#00458B"/><path d="M180.931 135.925h-10.9a4.569 4.569 0 00-4.569 4.569v23.131a4.569 4.569 0 004.569 4.569h10.9a4.57 4.57 0 004.569-4.569v-23.131a4.57 4.57 0 00-4.569-4.569z" fill="#00458B"/><path d="M184.127 140.442v20.389a2.917 2.917 0 01-.859 2.074 2.941 2.941 0 01-2.073.859h-11.499a2.926 2.926 0 01-2.075-.858 2.924 2.924 0 01-.86-2.075v-20.389a2.936 2.936 0 012.935-2.937h11.499a2.927 2.927 0 012.074.861 2.928 2.928 0 01.858 2.076zm-6.089 24.673h-4.639a.976.976 0 100 1.951h4.639a.976.976 0 100-1.951z" fill="#fff"/><path d="M106.998 144.644H73.906a3.166 3.166 0 00-3.166 3.166v16.307a3.166 3.166 0 003.166 3.166h33.092a3.167 3.167 0 003.166-3.166V147.81a3.166 3.166 0 00-3.166-3.166z" fill="#00458B"/><path d="M106.028 145.752h-31.06a2.898 2.898 0 00-2.898 2.898v14.499a2.897 2.897 0 002.897 2.898h31.061c1.6 0 2.898-1.297 2.898-2.898V148.65c0-1.6-1.298-2.898-2.898-2.898z" fill="#fff"/><path d="M110.161 168.77a1.48 1.48 0 01-1.487 1.488H72.228a1.488 1.488 0 010-2.975h36.446a1.488 1.488 0 011.487 1.487z" fill="#00458B"/><path d="M109.881 167.904a1.477 1.477 0 01-1.207.621H72.228a1.477 1.477 0 01-1.21-.621 1.47 1.47 0 011.21-.621h36.446a1.471 1.471 0 011.207.621z" fill="url(#paint56_linear)"/><path d="M153.253 152.376h-18.869c-.317 0-.8-.259-.8-.577 0-.317.483-.579.8-.579h18.869a4.15 4.15 0 004.149-4.147v-17.107a2.964 2.964 0 00-2.961-2.962h-13.299a3.651 3.651 0 01-3.648-3.648v-4.345a.579.579 0 111.156 0v4.345a2.493 2.493 0 002.492 2.493h13.299a4.12 4.12 0 014.117 4.117v17.107a5.31 5.31 0 01-5.305 5.303z" fill="#00458B"/><path opacity=".18" d="M181.27 144.427h-11.188a.78.78 0 100 1.561h11.188a.781.781 0 000-1.561zm0 3.079h-11.188a.78.78 0 100 1.56h11.188a.78.78 0 100-1.56zm0 3.079h-11.188a.78.78 0 100 1.56h11.188a.78.78 0 100-1.56zm0 3.078h-11.188a.781.781 0 000 1.561h11.188a.78.78 0 100-1.561zm-92.707-3.187H77.375a.781.781 0 100 1.561h11.188a.78.78 0 100-1.561zm0 3.079H77.375a.781.781 0 100 1.561h11.188a.781.781 0 100-1.561zm0 3.081H77.375a.781.781 0 100 1.561h11.188a.78.78 0 100-1.561zm0 3.079H77.375a.781.781 0 100 1.561h11.188a.781.781 0 100-1.561z" fill="#00458B"/><path opacity=".18" d="M107.794 146.355L72.07 159.087v-10.435a2.9 2.9 0 012.9-2.9h31.056a2.88 2.88 0 011.768.603zm1.132 10.992v5.8a2.892 2.892 0 01-1.791 2.675c-.352.146-.729.22-1.109.22H87.224l21.702-8.695z" fill="#00458B"/><path d="M149.731 136.187h-20.106a2.568 2.568 0 00-2.568 2.568v24.79a2.568 2.568 0 002.568 2.568h20.106a2.568 2.568 0 002.568-2.568v-24.79a2.567 2.567 0 00-2.568-2.568z" fill="#00458B"/><path d="M151.115 139.616v22.425c.001.305-.059.607-.176.888a2.312 2.312 0 01-2.145 1.433h-18.18a2.337 2.337 0 01-1.643-.679 2.327 2.327 0 01-.681-1.642v-22.425a2.323 2.323 0 012.324-2.321h18.18a2.32 2.32 0 012.321 2.321z" fill="#fff"/><path opacity=".18" d="M131.393 147.897l3.297-1.476 3.99 3.382 4.077-5.376 4.077 5.725v3.957h-15.281l-.16-6.212z" fill="#00458B"/><path d="M140.85 164.79h-1.854a.39.39 0 100 .779h1.854a.39.39 0 100-.779z" fill="url(#paint57_linear)"/><path d="M148.091 154.257h-16.769v-11.131h.231v10.9h16.538v.231z" fill="#00458B"/><path d="M135.255 145.88h-1.334v8.229h1.334v-8.229zm8.326-2.02h-1.335v10.251h1.335V143.86zm-4.228 5.251h-1.334v4.998h1.334v-4.998zm7.98 0h-1.335v4.998h1.335v-4.998z" fill="#00458B"/><path opacity=".18" d="M151.115 139.616v2.041l-22.832 12.449v-14.49a2.323 2.323 0 012.324-2.321h18.18a2.327 2.327 0 012.151 1.431c.117.282.177.585.177.89zm33.012 9.159v12.056a2.92 2.92 0 01-.859 2.074 2.941 2.941 0 01-2.073.859h-11.499a2.944 2.944 0 01-2.075-.858 2.924 2.924 0 01-.86-2.075v-2.556l17.359-10.651.007 1.151z" fill="#00458B"/><path d="M117.326 183.265l-.925.191v-66.055h.925v65.864z" fill="#00458B"/></g><path d="M90.786 216.982c-.1 1.062-.492 1.891-1.176 2.488-.683.593-1.592.889-2.727.889-.793 0-1.493-.187-2.099-.561-.601-.378-1.066-.913-1.394-1.606-.328-.693-.5-1.497-.513-2.413v-.93c0-.939.166-1.766.499-2.481.333-.716.809-1.267 1.429-1.655.624-.387 1.344-.581 2.16-.581 1.098 0 1.982.299 2.652.896.67.597 1.06 1.44 1.17 2.529h-1.724c-.082-.715-.291-1.23-.628-1.545-.333-.319-.823-.478-1.47-.478-.752 0-1.33.276-1.736.827-.401.547-.607 1.351-.616 2.413v.882c0 1.075.192 1.896.575 2.461.387.565.952.847 1.695.847.679 0 1.19-.152 1.531-.458.342-.305.558-.813.65-1.524h1.722zm4.649 3.377c-1.053 0-1.908-.33-2.564-.991-.651-.666-.977-1.55-.977-2.653v-.205c0-.738.14-1.396.423-1.975a3.27 3.27 0 011.204-1.361 3.176 3.176 0 011.722-.485c1.007 0 1.784.321 2.331.964.552.643.827 1.552.827 2.727v.67h-4.833c.05.611.253 1.094.609 1.45.36.355.811.533 1.353.533.761 0 1.381-.308 1.86-.923l.895.854a3.005 3.005 0 01-1.19 1.033 3.728 3.728 0 01-1.66.362zm-.199-6.337c-.455 0-.825.16-1.107.479-.278.319-.456.763-.533 1.333h3.165v-.123c-.037-.556-.185-.976-.444-1.258-.26-.287-.62-.431-1.08-.431zm10.938 2.577c0 1.144-.26 2.058-.779 2.741-.52.679-1.217 1.019-2.092 1.019-.811 0-1.461-.267-1.948-.8v3.507h-1.662v-10.24h1.532l.068.752c.488-.593 1.151-.889 1.989-.889.903 0 1.609.337 2.119 1.012.515.67.773 1.602.773 2.796v.102zm-1.654-.143c0-.739-.149-1.324-.445-1.757-.291-.433-.711-.65-1.258-.65-.679 0-1.166.281-1.462.841v3.281c.3.575.793.862 1.476.862.529 0 .941-.212 1.237-.636.301-.428.452-1.075.452-1.941zm3.192 3.766v-7.396h3.001c1.012 0 1.782.178 2.31.533.529.351.793.857.793 1.518 0 .341-.107.649-.321.922-.209.269-.522.477-.936.622.483.101.866.304 1.148.609.283.305.424.665.424 1.08 0 .688-.255 1.212-.766 1.572-.506.36-1.235.54-2.187.54h-3.466zm1.661-3.151v1.839h1.818c.853 0 1.279-.306 1.279-.916 0-.615-.433-.923-1.299-.923h-1.798zm0-1.19h1.367c.944 0 1.415-.278 1.415-.834 0-.583-.446-.884-1.34-.902h-1.442v1.736zm10.815-3.055h1.654v7.396h-1.654v-4.935l-2.899 4.935h-1.654v-7.396h1.654v4.935l2.899-4.935zm6.46 6.207c.414 0 .758-.121 1.032-.362a1.24 1.24 0 00.437-.896h1.566c-.019.46-.162.891-.431 1.292a2.832 2.832 0 01-1.094.943c-.46.233-.957.349-1.49.349-1.034 0-1.855-.335-2.461-1.005-.606-.67-.909-1.595-.909-2.775v-.171c0-1.126.301-2.026.902-2.7.602-.679 1.422-1.019 2.461-1.019.88 0 1.595.258 2.147.773.556.51.847 1.182.875 2.016h-1.566c-.018-.424-.164-.772-.437-1.046-.269-.273-.613-.41-1.032-.41-.538 0-.953.196-1.245.588-.291.387-.439.978-.444 1.77v.267c0 .802.144 1.401.431 1.798.291.392.711.588 1.258.588zm6.077-3.856h1.627c.606 0 1.134.105 1.586.315.451.209.793.503 1.025.882.237.378.355.818.355 1.319 0 .761-.268 1.372-.806 1.832-.538.46-1.253.693-2.147.697h-3.301v-7.396h1.661v2.351zm7.485 5.045h-1.661v-7.396h1.661v7.396zm-7.485-3.712v2.386h1.62c.405 0 .724-.1.957-.301.237-.205.355-.494.355-.868s-.116-.667-.348-.882c-.228-.218-.538-.33-.93-.335h-1.654zm17.356 3.712h-1.654v-7.991l-2.441.834v-1.401l3.883-1.429h.212v9.987zm11.32-3.24c-.1 1.062-.492 1.891-1.175 2.488-.684.593-1.593.889-2.728.889-.793 0-1.492-.187-2.099-.561-.601-.378-1.066-.913-1.394-1.606-.328-.693-.499-1.497-.513-2.413v-.93c0-.939.167-1.766.499-2.481.333-.716.809-1.267 1.429-1.655.624-.387 1.344-.581 2.16-.581 1.098 0 1.983.299 2.652.896.67.597 1.06 1.44 1.169 2.529h-1.722c-.082-.715-.292-1.23-.629-1.545-.333-.319-.823-.478-1.47-.478-.752 0-1.331.276-1.736.827-.401.547-.606 1.351-.615 2.413v.882c0 1.075.191 1.896.574 2.461.387.565.952.847 1.695.847.679 0 1.19-.152 1.531-.458.342-.305.559-.813.65-1.524h1.722z" fill="#00458B"/><g filter="url(#filter2_d)"><rect x="277.95" y="8" width="228.653" height="203.75" rx="10" fill="#fff"/></g><path d="M428.36 52.982v78.284a7.515 7.515 0 01-2.194 5.305 7.518 7.518 0 01-5.301 2.2h-49.442a7.5 7.5 0 01-7.495-7.505V52.982a7.494 7.494 0 017.495-7.495h49.442a7.5 7.5 0 017.495 7.495z" fill="#00458B"/><path d="M376.087 97.99c-1.487 3.646-4.717 6.113-7.512 8.721-1.439 1.341-2.549 2.838-3.832 4.291a3.053 3.053 0 01-.81.623V96.732c.398-1.264.653-2.568.761-3.889.486 1.602.267 3.556 1.502 4.693.795.744 1.963.875 3.05.924 2.29.093 4.584-.064 6.841-.47z" fill="url(#paint58_linear)"/><path d="M421.698 52.163h-52.321v78.405h52.321V52.163z" fill="url(#paint59_linear)"/><path d="M422.459 51.544v78.179h-45.767s-6.343-1.334-6.678-12.025c-.336-10.691.335-66.154.335-66.154h52.11z" fill="#fff"/><g clip-path="url(#clip1)"><path d="M403.484 87.524a6.173 6.173 0 00-8.72 0 6.163 6.163 0 00-1.501 6.257l-6.943 6.944a.56.56 0 00-.165.396v3.171c0 .31.251.56.561.56h3.171a.56.56 0 00.396-.164l.793-.793a.563.563 0 00.16-.461l-.099-.852 1.18-.111a.56.56 0 00.506-.505l.111-1.18.852.099a.564.564 0 00.625-.557v-1.043h1.024c.149 0 .291-.06.397-.164l1.437-1.419c2.195.712 4.573.184 6.215-1.459a6.172 6.172 0 000-8.72zm-1.586 3.963a1.683 1.683 0 01-2.378 0 1.684 1.684 0 010-2.377 1.682 1.682 0 012.378 2.378z" fill="#00458B"/></g><path d="M421.317 138.146c-.166-7.655-.358-15.476-2.98-22.672-1.49-4.09-3.738-7.894-4.953-12.074-.957-3.293-.729-6.79-.7-10.221.015-1.818.027-3.675-.537-5.403-.486-1.509-1.417-2.892-1.618-4.467 2.124 1.549 4.374 3.27 5.145 5.782.374 1.215.359 2.523.561 3.782.651 4.073 3.49 7.39 5.512 10.984 4.442 7.904 4.997 17.357 4.953 26.422 0 1.964-.059 4.003-.921 5.77-.863 1.766-2.528 2.452-4.462 2.097z" fill="url(#paint60_linear)"/><path d="M380.576 129.647a.95.95 0 00-.09.076h-3.794s-6.343-1.335-6.678-12.025c0 0 2.282 7.193 10.102 5.655 0 0-4.143 6.754.46 6.294z" fill="#fff"/><path d="M380.576 129.647a.95.95 0 00-.09.076h-3.794s-6.343-1.335-6.678-12.025c0 0 2.282 7.193 10.102 5.655 0 0-4.143 6.754.46 6.294z" fill="url(#paint61_linear)"/><path d="M415.943 68.043h-37.285a.69.69 0 000 1.38h37.285a.69.69 0 100-1.38z" fill="url(#paint62_linear)"/><path d="M415.943 72.186h-37.285a.69.69 0 000 1.38h37.285a.69.69 0 100-1.38z" fill="url(#paint63_linear)"/><path d="M415.943 76.327h-37.285a.69.69 0 000 1.38h37.285a.69.69 0 100-1.38z" fill="url(#paint64_linear)"/><path d="M415.943 80.471h-37.285a.69.69 0 000 1.38h37.285a.69.69 0 100-1.38z" fill="url(#paint65_linear)"/><path d="M415.943 84.615h-37.285a.69.69 0 000 1.38h37.285a.69.69 0 100-1.38z" fill="url(#paint66_linear)"/><path d="M407.712 48.389v2.255a4.95 4.95 0 01-1.454 3.516 4.972 4.972 0 01-3.516 1.454h-13.298a4.975 4.975 0 01-4.598-3.066 4.972 4.972 0 01-.379-1.904V48.39a4.974 4.974 0 014.977-4.97h13.298a4.964 4.964 0 014.592 3.068c.25.603.378 1.25.378 1.902z" fill="#00458B"/><path d="M384.503 48.33v2.258a4.964 4.964 0 004.97 4.982h.999a4.967 4.967 0 01-4.97-4.982v-2.257a4.967 4.967 0 014.97-4.97h-.999a4.964 4.964 0 00-4.592 3.067 4.967 4.967 0 00-.378 1.903z" fill="url(#paint67_linear)"/><path d="M407.712 48.389v2.255a4.95 4.95 0 01-1.454 3.516 4.972 4.972 0 01-3.516 1.454H390.44a4.975 4.975 0 01-4.597-3.066 4.954 4.954 0 01-.38-1.904V48.39a4.971 4.971 0 014.977-4.97h12.302a4.964 4.964 0 014.592 3.068c.25.603.378 1.25.378 1.902z" fill="url(#paint68_linear)"/><path d="M364.006 91.132a1.52 1.52 0 00.024.426c-.466-.311-.996-1.325-1.458-2.542-.284-.746-1.003-4.35-1.003-5.15 0-1.84 1.266-3.378 2.598-4.7-.299 2.55.24 8.051-.161 11.966z" fill="url(#paint69_linear)"/><path d="M368.297 175.179v9.953h-1.723v-8.558h-3.049l-.177 3.848c-.069 1.203-.217 2.138-.445 2.803-.223.661-.549 1.144-.977 1.449-.429.305-1.003.458-1.723.458h-.437v-1.381l.273-.02c.397-.037.702-.176.916-.417.219-.242.383-.606.492-1.094.114-.492.194-1.214.24-2.167l.191-4.874h6.419zm6.542 2.557h1.654v7.396h-1.654v-4.935l-2.899 4.935h-1.654v-7.396h1.654v4.935l2.899-4.935zm3.486 0h1.661v6.07h2.885v-6.07h1.661v6.07h1.005l-.137 3.52h-1.51v-2.194h-5.565v-7.396zm11.642 7.533c-1.053 0-1.907-.331-2.564-.991-.651-.666-.977-1.55-.977-2.653v-.205c0-.738.141-1.397.424-1.975a3.27 3.27 0 011.203-1.361 3.175 3.175 0 011.722-.485c1.008 0 1.785.321 2.331.964.552.642.828 1.552.828 2.727v.67h-4.833c.05.611.253 1.094.608 1.449.36.356.811.534 1.353.534.762 0 1.381-.308 1.86-.923l.895.854a3.016 3.016 0 01-1.189 1.033 3.727 3.727 0 01-1.661.362zm-.198-6.337c-.456 0-.825.159-1.108.478-.278.319-.456.764-.533 1.333h3.165v-.123c-.037-.556-.185-.975-.444-1.257-.26-.287-.62-.431-1.08-.431zm10.725 6.2h-1.661v-2.987h-2.878v2.987h-1.661v-7.396h1.661v3.083h2.878v-3.083h1.661v7.396zm7.376-5.373c0 .328-.1.631-.301.909-.196.274-.474.492-.834.657.848.296 1.272.868 1.272 1.715 0 .679-.276 1.222-.827 1.627-.552.401-1.29.602-2.215.602-.565 0-1.08-.094-1.545-.28-.465-.192-.827-.461-1.087-.807-.26-.351-.39-.766-.39-1.244h1.655c0 .301.134.554.403.759.269.2.608.3 1.019.3.405 0 .726-.093.963-.28a.906.906 0 00.363-.745c0-.36-.105-.62-.315-.779-.209-.16-.533-.24-.97-.24h-1.19v-1.196h1.231c.742-.009 1.114-.314 1.114-.916 0-.301-.107-.535-.321-.704-.215-.169-.509-.253-.882-.253-.365 0-.673.091-.923.274-.251.177-.376.403-.376.676h-1.654c0-.651.273-1.185.82-1.599.547-.42 1.242-.629 2.085-.629.916 0 1.629.187 2.139.56.511.374.766.905.766 1.593zm6.166-2.023h1.654v7.396h-1.654v-4.935l-2.898 4.935h-1.655v-7.396h1.655v4.935l2.898-4.935zm8.039 0h1.654v7.396h-1.654v-4.935l-2.898 4.935h-1.655v-7.396h1.655v4.935l2.898-4.935z" fill="#00458B"/><g filter="url(#filter3_d)"><rect x="9" y="293.25" width="228.653" height="203.75" rx="10" fill="#fff"/></g><path d="M156.505 338.232v78.284a7.486 7.486 0 01-2.193 5.304 7.504 7.504 0 01-5.302 2.2H99.57a7.49 7.49 0 01-6.927-4.633 7.502 7.502 0 01-.569-2.871v-78.284a7.496 7.496 0 017.495-7.495h49.441a7.502 7.502 0 017.495 7.495z" fill="#00458B"/><path d="M104.233 383.241c-1.488 3.645-4.717 6.112-7.512 8.719-1.439 1.342-2.55 2.839-3.833 4.292a3.051 3.051 0 01-.809.622v-14.892c.398-1.264.653-2.568.76-3.889.487 1.602.268 3.556 1.503 4.693.794.744 1.963.875 3.05.924 2.29.093 4.584-.064 6.841-.469z" fill="url(#paint70_linear)"/><path d="M149.844 337.413h-52.32v78.405h52.32v-78.405z" fill="url(#paint71_linear)"/><path d="M150.605 336.793v78.18h-45.767s-6.343-1.335-6.678-12.025c-.336-10.691.335-66.155.335-66.155h52.11z" fill="#fff"/><g clip-path="url(#clip2)"><path d="M131.63 372.773a6.174 6.174 0 00-8.72 0 6.165 6.165 0 00-1.501 6.258l-6.944 6.943a.562.562 0 00-.164.397v3.17c0 .31.251.561.561.561h3.171a.561.561 0 00.396-.164l.792-.793a.564.564 0 00.161-.461l-.099-.852 1.18-.111a.56.56 0 00.506-.505l.111-1.18.851.099a.554.554 0 00.438-.138.563.563 0 00.187-.419v-1.044h1.025a.56.56 0 00.396-.164l1.438-1.418c2.195.711 4.573.184 6.215-1.459a6.173 6.173 0 000-8.72zm-1.586 3.964a1.683 1.683 0 01-2.378-2.378 1.683 1.683 0 012.378 2.378z" fill="#00458B"/></g><path d="M149.463 423.396c-.166-7.656-.358-15.476-2.98-22.672-1.49-4.09-3.738-7.894-4.953-12.074-.957-3.293-.729-6.79-.7-10.222.015-1.817.027-3.674-.537-5.402-.486-1.509-1.417-2.892-1.618-4.467 2.124 1.548 4.374 3.269 5.144 5.782.375 1.215.36 2.522.562 3.781.651 4.073 3.49 7.391 5.512 10.985 4.442 7.903 4.996 17.357 4.953 26.422 0 1.964-.059 4.002-.922 5.769-.862 1.767-2.527 2.452-4.461 2.098z" fill="url(#paint72_linear)"/><path d="M108.721 414.897a1.069 1.069 0 00-.089.075h-3.794s-6.343-1.334-6.678-12.025c0 0 2.282 7.194 10.102 5.656 0 0-4.143 6.753.459 6.294z" fill="#fff"/><path d="M108.721 414.897a1.069 1.069 0 00-.089.075h-3.794s-6.343-1.334-6.678-12.025c0 0 2.282 7.194 10.102 5.656 0 0-4.143 6.753.459 6.294z" fill="url(#paint73_linear)"/><path d="M144.089 353.292h-37.285a.69.69 0 000 1.381h37.285a.69.69 0 000-1.381z" fill="url(#paint74_linear)"/><path d="M144.089 357.436h-37.285a.69.69 0 000 1.38h37.285a.69.69 0 000-1.38z" fill="url(#paint75_linear)"/><path d="M144.089 361.577h-37.285a.69.69 0 000 1.38h37.285a.69.69 0 000-1.38z" fill="url(#paint76_linear)"/><path d="M144.089 365.72h-37.285a.691.691 0 000 1.381h37.285a.69.69 0 000-1.381z" fill="url(#paint77_linear)"/><path d="M144.089 369.864h-37.285a.69.69 0 000 1.38h37.285a.69.69 0 000-1.38z" fill="url(#paint78_linear)"/><path d="M135.858 333.639v2.255a4.972 4.972 0 01-1.454 3.516 4.972 4.972 0 01-3.516 1.454H117.59a4.97 4.97 0 01-4.598-3.067 4.99 4.99 0 01-.38-1.903v-2.255a4.973 4.973 0 014.978-4.97h13.298a4.975 4.975 0 014.97 4.97z" fill="#00458B"/><path d="M112.649 333.58v2.258a4.962 4.962 0 003.065 4.603 4.962 4.962 0 001.905.379h.999a4.963 4.963 0 01-4.97-4.982v-2.258a4.967 4.967 0 014.97-4.97h-.999a4.964 4.964 0 00-4.592 3.068 4.968 4.968 0 00-.378 1.902z" fill="url(#paint79_linear)"/><path d="M135.858 333.639v2.255a4.972 4.972 0 01-1.454 3.516 4.972 4.972 0 01-3.516 1.454h-12.302a4.977 4.977 0 01-3.518-1.454 4.957 4.957 0 01-1.079-1.613 4.953 4.953 0 01-.38-1.903v-2.255a4.972 4.972 0 014.977-4.97h12.302a4.975 4.975 0 014.97 4.97z" fill="url(#paint80_linear)"/><path d="M92.152 376.382a1.51 1.51 0 00.025.425c-.467-.311-.997-1.324-1.459-2.542-.284-.746-1.003-4.35-1.003-5.149 0-1.84 1.266-3.378 2.598-4.7-.3 2.549.24 8.051-.16 11.966z" fill="url(#paint81_linear)"/><path d="M98.649 460.429v9.953h-1.723v-8.559h-3.049l-.177 3.849c-.069 1.203-.217 2.137-.445 2.802-.223.661-.549 1.144-.977 1.45-.428.305-1.003.458-1.723.458h-.437v-1.381l.273-.021c.397-.036.702-.175.916-.417.219-.241.383-.606.492-1.093.114-.493.194-1.215.24-2.167l.191-4.874h6.419zm6.542 2.556h1.654v7.397h-1.654v-4.936l-2.898 4.936h-1.655v-7.397h1.655v4.936l2.898-4.936zm3.486 0h1.661v6.07h2.885v-6.07h1.661v6.07h1.005l-.136 3.521h-1.511v-2.194h-5.565v-7.397zm11.642 7.533c-1.053 0-1.907-.33-2.564-.991-.651-.665-.977-1.549-.977-2.652v-.205c0-.739.141-1.397.424-1.976a3.267 3.267 0 011.203-1.36 3.168 3.168 0 011.723-.486c1.007 0 1.784.322 2.331.964.551.643.827 1.552.827 2.728v.67h-4.833c.05.61.253 1.094.608 1.449.36.355.811.533 1.354.533.761 0 1.381-.307 1.859-.923l.896.855a3.015 3.015 0 01-1.19 1.032c-.492.242-1.046.362-1.661.362zm-.198-6.337c-.456 0-.825.16-1.108.479-.278.319-.455.763-.533 1.333h3.165v-.123c-.036-.556-.184-.975-.444-1.258-.26-.287-.62-.431-1.08-.431zm10.725 6.201h-1.661v-2.988h-2.878v2.988h-1.661v-7.397h1.661v3.083h2.878v-3.083h1.661v7.397zm7.376-5.373c0 .328-.1.631-.301.909-.195.273-.473.492-.833.656.847.296 1.271.868 1.271 1.716 0 .679-.276 1.221-.827 1.627-.552.401-1.29.601-2.215.601-.565 0-1.08-.093-1.545-.28-.465-.191-.827-.46-1.087-.807-.26-.35-.389-.765-.389-1.244h1.654c0 .301.134.554.403.759.269.201.609.301 1.019.301.405 0 .727-.094.964-.28a.91.91 0 00.362-.746c0-.36-.105-.619-.315-.779-.209-.159-.533-.239-.97-.239h-1.19v-1.196h1.231c.743-.009 1.114-.315 1.114-.916 0-.301-.107-.536-.321-.704-.215-.169-.508-.253-.882-.253-.365 0-.672.091-.923.273-.251.178-.376.403-.376.677h-1.654c0-.652.273-1.185.82-1.6.547-.419 1.242-.629 2.085-.629.916 0 1.629.187 2.14.561.51.374.765.904.765 1.593zm6.166-2.024h1.655v7.397h-1.655v-4.936l-2.898 4.936h-1.654v-7.397h1.654v4.936l2.898-4.936zm8.039 0h1.655v7.397h-1.655v-4.936l-2.898 4.936h-1.654v-7.397h1.654v4.936l2.898-4.936z" fill="#00458B"/><defs><linearGradient id="paint40_linear" x1="1693.3" y1="335.308" x2="1693.24" y2="373.622" gradientUnits="userSpaceOnUse"><stop stop-color="#fff" stop-opacity="0"/><stop offset=".99" stop-color="#fff"/></linearGradient><linearGradient id="paint44_linear" x1="970.205" y1="346.636" x2="970.125" y2="384.954" gradientUnits="userSpaceOnUse"><stop stop-color="#fff" stop-opacity="0"/><stop offset=".99" stop-color="#fff"/></linearGradient><linearGradient id="paint1_linear" x1="3528.4" y1="3239.89" x2="3382.19" y2="3481.9" gradientUnits="userSpaceOnUse"><stop stop-opacity="0"/><stop offset=".99"/></linearGradient><linearGradient id="paint2_linear" x1="397.793" y1="4002.53" x2="12199" y2="5815.85" gradientUnits="userSpaceOnUse"><stop stop-opacity="0"/><stop offset=".99"/></linearGradient><linearGradient id="paint3_linear" x1="5015.53" y1="4002.53" x2="16816.7" y2="5815.85" gradientUnits="userSpaceOnUse"><stop stop-opacity="0"/><stop offset=".99"/></linearGradient><linearGradient id="paint4_linear" x1="6233.63" y1="14939.8" x2="22998.7" y2="14467.2" gradientUnits="userSpaceOnUse"><stop stop-opacity="0"/><stop offset=".99"/></linearGradient><linearGradient id="paint5_linear" x1="10463" y1="4072.12" x2="9890.52" y2="22379.8" gradientUnits="userSpaceOnUse"><stop stop-opacity="0"/><stop offset=".99"/></linearGradient><linearGradient id="paint6_linear" x1="375.403" y1="335.25" x2="376.553" y2="279.558" gradientUnits="userSpaceOnUse"><stop stop-color="#fff" stop-opacity="0"/><stop offset=".99" stop-color="#fff"/></linearGradient><linearGradient id="paint7_linear" x1="5176.48" y1="4324.76" x2="15192.2" y2="4740.28" gradientUnits="userSpaceOnUse"><stop stop-opacity="0"/><stop offset=".99"/></linearGradient><linearGradient id="paint8_linear" x1="398.384" y1="301.404" x2="407.588" y2="301.404" gradientUnits="userSpaceOnUse"><stop stop-color="#ECC4D7"/><stop offset=".42" stop-color="#EFD4D1"/><stop offset="1" stop-color="#F2EAC9"/></linearGradient><linearGradient id="paint9_linear" x1="7414.46" y1="9662.92" x2="20307.3" y2="10515" gradientUnits="userSpaceOnUse"><stop stop-opacity="0"/><stop offset=".99"/></linearGradient><linearGradient id="paint10_linear" x1="8975" y1="9496.5" x2="25190.8" y2="17438.9" gradientUnits="userSpaceOnUse"><stop stop-opacity="0"/><stop offset=".99"/></linearGradient><linearGradient id="paint11_linear" x1="5191.8" y1="10091.2" x2="6784.37" y2="2547.65" gradientUnits="userSpaceOnUse"><stop stop-opacity="0"/><stop offset=".99"/></linearGradient><linearGradient id="paint12_linear" x1="13622.1" y1="14009.4" x2="18961.7" y2="2468.1" gradientUnits="userSpaceOnUse"><stop stop-color="#fff" stop-opacity="0"/><stop offset=".99" stop-color="#fff"/></linearGradient><linearGradient id="paint13_linear" x1="992.072" y1="12476.3" x2="2973.51" y2="9129.69" gradientUnits="userSpaceOnUse"><stop stop-opacity="0"/><stop offset=".99"/></linearGradient><linearGradient id="paint14_linear" x1="5246.92" y1="1376.49" x2="5295.89" y2="1638.8" gradientUnits="userSpaceOnUse"><stop stop-opacity="0"/><stop offset=".99"/></linearGradient><linearGradient id="paint15_linear" x1="3585.06" y1="1731.85" x2="3584.52" y2="1350.78" gradientUnits="userSpaceOnUse"><stop stop-opacity="0"/><stop offset=".99"/></linearGradient><linearGradient id="paint16_linear" x1="6223.45" y1="778.976" x2="6223.73" y2="880.122" gradientUnits="userSpaceOnUse"><stop stop-opacity="0"/><stop offset=".99"/></linearGradient><linearGradient id="paint17_linear" x1="4178.87" y1="1388.05" x2="4691.47" y2="1696.56" gradientUnits="userSpaceOnUse"><stop stop-opacity="0"/><stop offset=".99"/></linearGradient><linearGradient id="paint18_linear" x1="7621.8" y1="5133.2" x2="6902.02" y2="4213.46" gradientUnits="userSpaceOnUse"><stop stop-color="#fff" stop-opacity="0"/><stop offset=".99" stop-color="#fff"/></linearGradient><linearGradient id="paint19_linear" x1="1706.71" y1="1048.82" x2="1981.92" y2="1048.82" gradientUnits="userSpaceOnUse"><stop stop-color="#ECC4D7"/><stop offset=".42" stop-color="#EFD4D1"/><stop offset="1" stop-color="#F2EAC9"/></linearGradient><linearGradient id="paint20_linear" x1="544.177" y1="3769.53" x2="708.695" y2="3767.27" gradientUnits="userSpaceOnUse"><stop stop-color="#fff" stop-opacity="0"/><stop offset=".99" stop-color="#fff"/></linearGradient><linearGradient id="paint21_linear" x1="1396.02" y1="316.41" x2="1395.96" y2="357.187" gradientUnits="userSpaceOnUse"><stop stop-color="#fff" stop-opacity="0"/><stop offset=".99" stop-color="#fff"/></linearGradient><linearGradient id="paint22_linear" x1="970.205" y1="316.255" x2="970.125" y2="354.568" gradientUnits="userSpaceOnUse"><stop stop-color="#fff" stop-opacity="0"/><stop offset=".99" stop-color="#fff"/></linearGradient><linearGradient id="paint23_linear" x1="2834.75" y1="316.713" x2="2834.73" y2="355.236" gradientUnits="userSpaceOnUse"><stop stop-color="#fff" stop-opacity="0"/><stop offset=".99" stop-color="#fff"/></linearGradient><linearGradient id="paint24_linear" x1="2113.24" y1="317.128" x2="2113.19" y2="355.646" gradientUnits="userSpaceOnUse"><stop stop-color="#fff" stop-opacity="0"/><stop offset=".99" stop-color="#fff"/></linearGradient><linearGradient id="paint25_linear" x1="1270.19" y1="318.272" x2="1270.12" y2="358.634" gradientUnits="userSpaceOnUse"><stop stop-color="#fff" stop-opacity="0"/><stop offset=".99" stop-color="#fff"/></linearGradient><linearGradient id="paint26_linear" x1="1512.52" y1="319.531" x2="1512.46" y2="360.308" gradientUnits="userSpaceOnUse"><stop stop-color="#fff" stop-opacity="0"/><stop offset=".99" stop-color="#fff"/></linearGradient><linearGradient id="paint27_linear" x1="1489.91" y1="321.849" x2="1489.82" y2="367.133" gradientUnits="userSpaceOnUse"><stop stop-color="#fff" stop-opacity="0"/><stop offset=".99" stop-color="#fff"/></linearGradient><linearGradient id="paint28_linear" x1="1234.43" y1="319.386" x2="1234.37" y2="357.699" gradientUnits="userSpaceOnUse"><stop stop-color="#fff" stop-opacity="0"/><stop offset=".99" stop-color="#fff"/></linearGradient><linearGradient id="paint29_linear" x1="1693.3" y1="320.116" x2="1693.24" y2="358.433" gradientUnits="userSpaceOnUse"><stop stop-color="#fff" stop-opacity="0"/><stop offset=".99" stop-color="#fff"/></linearGradient><linearGradient id="paint30_linear" x1="2544.34" y1="321.573" x2="2544.3" y2="363.984" gradientUnits="userSpaceOnUse"><stop stop-color="#fff" stop-opacity="0"/><stop offset=".99" stop-color="#fff"/></linearGradient><linearGradient id="paint31_linear" x1="935.979" y1="322.258" x2="935.799" y2="365.487" gradientUnits="userSpaceOnUse"><stop stop-color="#fff" stop-opacity="0"/><stop offset=".99" stop-color="#fff"/></linearGradient><linearGradient id="paint32_linear" x1="1396.02" y1="332.238" x2="1395.96" y2="373.014" gradientUnits="userSpaceOnUse"><stop stop-color="#fff" stop-opacity="0"/><stop offset=".99" stop-color="#fff"/></linearGradient><linearGradient id="paint33_linear" x1="970.205" y1="331.443" x2="970.125" y2="369.76" gradientUnits="userSpaceOnUse"><stop stop-color="#fff" stop-opacity="0"/><stop offset=".99" stop-color="#fff"/></linearGradient><linearGradient id="paint34_linear" x1="2834.75" y1="331.959" x2="2834.73" y2="370.482" gradientUnits="userSpaceOnUse"><stop stop-color="#fff" stop-opacity="0"/><stop offset=".99" stop-color="#fff"/></linearGradient><linearGradient id="paint35_linear" x1="2113.24" y1="332.369" x2="2113.19" y2="370.892" gradientUnits="userSpaceOnUse"><stop stop-color="#fff" stop-opacity="0"/><stop offset=".99" stop-color="#fff"/></linearGradient><linearGradient id="paint36_linear" x1="1270.19" y1="333.987" x2="1270.12" y2="374.354" gradientUnits="userSpaceOnUse"><stop stop-color="#fff" stop-opacity="0"/><stop offset=".99" stop-color="#fff"/></linearGradient><linearGradient id="paint37_linear" x1="1512.52" y1="335.359" x2="1512.46" y2="376.136" gradientUnits="userSpaceOnUse"><stop stop-color="#fff" stop-opacity="0"/><stop offset=".99" stop-color="#fff"/></linearGradient><linearGradient id="paint38_linear" x1="1489.91" y1="338.841" x2="1489.82" y2="384.126" gradientUnits="userSpaceOnUse"><stop stop-color="#fff" stop-opacity="0"/><stop offset=".99" stop-color="#fff"/></linearGradient><linearGradient id="paint39_linear" x1="1234.43" y1="334.579" x2="1234.37" y2="372.892" gradientUnits="userSpaceOnUse"><stop stop-color="#fff" stop-opacity="0"/><stop offset=".99" stop-color="#fff"/></linearGradient><linearGradient id="paint0_linear" x1="378.609" y1="379.889" x2="398.094" y2="391.164" gradientUnits="userSpaceOnUse"><stop stop-opacity="0"/><stop offset=".99"/></linearGradient><linearGradient id="paint42_linear" x1="935.979" y1="338.721" x2="935.799" y2="381.951" gradientUnits="userSpaceOnUse"><stop stop-color="#fff" stop-opacity="0"/><stop offset=".99" stop-color="#fff"/></linearGradient><linearGradient id="paint43_linear" x1="1396.02" y1="348.066" x2="1395.96" y2="388.837" gradientUnits="userSpaceOnUse"><stop stop-color="#fff" stop-opacity="0"/><stop offset=".99" stop-color="#fff"/></linearGradient><linearGradient id="paint41_linear" x1="2544.34" y1="337.819" x2="2544.3" y2="380.235" gradientUnits="userSpaceOnUse"><stop stop-color="#fff" stop-opacity="0"/><stop offset=".99" stop-color="#fff"/></linearGradient><linearGradient id="paint45_linear" x1="2834.75" y1="347.204" x2="2834.73" y2="385.723" gradientUnits="userSpaceOnUse"><stop stop-color="#fff" stop-opacity="0"/><stop offset=".99" stop-color="#fff"/></linearGradient><linearGradient id="paint46_linear" x1="2113.24" y1="347.615" x2="2113.19" y2="386.137" gradientUnits="userSpaceOnUse"><stop stop-color="#fff" stop-opacity="0"/><stop offset=".99" stop-color="#fff"/></linearGradient><linearGradient id="paint47_linear" x1="1270.19" y1="349.708" x2="1270.12" y2="390.075" gradientUnits="userSpaceOnUse"><stop stop-color="#fff" stop-opacity="0"/><stop offset=".99" stop-color="#fff"/></linearGradient><linearGradient id="paint48_linear" x1="1512.52" y1="351.184" x2="1512.46" y2="391.961" gradientUnits="userSpaceOnUse"><stop stop-color="#fff" stop-opacity="0"/><stop offset=".99" stop-color="#fff"/></linearGradient><linearGradient id="paint49_linear" x1="1489.91" y1="355.831" x2="1489.82" y2="401.115" gradientUnits="userSpaceOnUse"><stop stop-color="#fff" stop-opacity="0"/><stop offset=".99" stop-color="#fff"/></linearGradient><linearGradient id="paint50_linear" x1="1234.43" y1="349.766" x2="1234.37" y2="388.084" gradientUnits="userSpaceOnUse"><stop stop-color="#fff" stop-opacity="0"/><stop offset=".99" stop-color="#fff"/></linearGradient><linearGradient id="paint51_linear" x1="1693.3" y1="350.5" x2="1693.24" y2="388.813" gradientUnits="userSpaceOnUse"><stop stop-color="#fff" stop-opacity="0"/><stop offset=".99" stop-color="#fff"/></linearGradient><linearGradient id="paint52_linear" x1="2544.34" y1="354.069" x2="2544.3" y2="396.485" gradientUnits="userSpaceOnUse"><stop stop-color="#fff" stop-opacity="0"/><stop offset=".99" stop-color="#fff"/></linearGradient><linearGradient id="paint53_linear" x1="935.979" y1="355.178" x2="935.799" y2="398.413" gradientUnits="userSpaceOnUse"><stop stop-color="#fff" stop-opacity="0"/><stop offset=".99" stop-color="#fff"/></linearGradient><linearGradient id="paint54_linear" x1="9855.95" y1="5078.31" x2="37146.7" y2="5078.31" gradientUnits="userSpaceOnUse"><stop stop-opacity="0"/><stop offset=".99"/></linearGradient><linearGradient id="paint55_linear" x1="20832.2" y1="-1961.36" x2="21521.9" y2="18460.2" gradientUnits="userSpaceOnUse"><stop stop-opacity="0"/><stop offset=".99"/></linearGradient><linearGradient id="paint56_linear" x1="90.451" y1="166.198" x2="90.451" y2="174.871" gradientUnits="userSpaceOnUse"><stop stop-opacity="0"/><stop offset=".41" stop-opacity=".41"/><stop offset=".99"/></linearGradient><linearGradient id="paint57_linear" x1="957.533" y1="470.698" x2="957.789" y2="486.682" gradientUnits="userSpaceOnUse"><stop stop-opacity="0"/><stop offset=".41" stop-opacity=".41"/><stop offset=".99"/></linearGradient><linearGradient id="paint58_linear" x1="363.933" y1="102.236" x2="376.087" y2="102.236" gradientUnits="userSpaceOnUse"><stop stop-color="#010101" stop-opacity="0"/><stop offset=".95" stop-color="#010101"/></linearGradient><linearGradient id="paint59_linear" x1="375.547" y1="161.219" x2="417.436" y2="14.841" gradientUnits="userSpaceOnUse"><stop stop-color="#010101" stop-opacity="0"/><stop offset=".47" stop-color="#010101" stop-opacity=".47"/><stop offset=".95" stop-color="#010101"/></linearGradient><linearGradient id="paint60_linear" x1="6161.9" y1="17837.9" x2="11086.4" y2="17053.2" gradientUnits="userSpaceOnUse"><stop stop-color="#010101" stop-opacity="0"/><stop offset=".47" stop-color="#010101" stop-opacity=".47"/><stop offset=".95" stop-color="#010101"/></linearGradient><linearGradient id="paint61_linear" x1="2692.37" y1="4269.79" x2="1508.67" y2="5554.11" gradientUnits="userSpaceOnUse"><stop stop-color="#010101" stop-opacity="0"/><stop offset=".95" stop-color="#010101"/></linearGradient><linearGradient id="paint62_linear" x1="7826.49" y1="252.27" x2="13978.2" y2="252.27" gradientUnits="userSpaceOnUse"><stop stop-color="#010101" stop-opacity="0"/><stop offset=".95" stop-color="#010101"/></linearGradient><linearGradient id="paint63_linear" x1="7826.49" y1="279.949" x2="13978.2" y2="279.949" gradientUnits="userSpaceOnUse"><stop stop-color="#010101" stop-opacity="0"/><stop offset=".95" stop-color="#010101"/></linearGradient><linearGradient id="paint64_linear" x1="7826.49" y1="307.627" x2="13978.2" y2="307.627" gradientUnits="userSpaceOnUse"><stop stop-color="#010101" stop-opacity="0"/><stop offset=".95" stop-color="#010101"/></linearGradient><linearGradient id="paint65_linear" x1="7826.49" y1="335.291" x2="13978.2" y2="335.291" gradientUnits="userSpaceOnUse"><stop stop-color="#010101" stop-opacity="0"/><stop offset=".95" stop-color="#010101"/></linearGradient><linearGradient id="paint66_linear" x1="7826.49" y1="362.969" x2="13978.2" y2="362.969" gradientUnits="userSpaceOnUse"><stop stop-color="#010101" stop-opacity="0"/><stop offset=".95" stop-color="#010101"/></linearGradient><linearGradient id="paint67_linear" x1="1691.96" y1="738.212" x2="2291.97" y2="764.635" gradientUnits="userSpaceOnUse"><stop stop-color="#010101" stop-opacity="0"/><stop offset=".47" stop-color="#010101" stop-opacity=".47"/><stop offset=".95" stop-color="#010101"/></linearGradient><linearGradient id="paint68_linear" x1="397.379" y1="36.874" x2="396.003" y2="58.861" gradientUnits="userSpaceOnUse"><stop stop-color="#fff" stop-opacity="0"/><stop offset=".95" stop-color="#fff"/></linearGradient><linearGradient id="paint69_linear" x1="701.329" y1="2522.48" x2="1410.87" y2="2587.56" gradientUnits="userSpaceOnUse"><stop stop-color="#010101" stop-opacity="0"/><stop offset=".95" stop-color="#010101"/></linearGradient><linearGradient id="paint70_linear" x1="92.079" y1="387.486" x2="104.233" y2="387.486" gradientUnits="userSpaceOnUse"><stop stop-color="#010101" stop-opacity="0"/><stop offset=".95" stop-color="#010101"/></linearGradient><linearGradient id="paint71_linear" x1="103.694" y1="446.469" x2="145.582" y2="300.091" gradientUnits="userSpaceOnUse"><stop stop-color="#010101" stop-opacity="0"/><stop offset=".47" stop-color="#010101" stop-opacity=".47"/><stop offset=".95" stop-color="#010101"/></linearGradient><linearGradient id="paint72_linear" x1="5890.04" y1="18123.2" x2="10814.6" y2="17338.5" gradientUnits="userSpaceOnUse"><stop stop-color="#010101" stop-opacity="0"/><stop offset=".47" stop-color="#010101" stop-opacity=".47"/><stop offset=".95" stop-color="#010101"/></linearGradient><linearGradient id="paint73_linear" x1="2420.52" y1="4555.04" x2="1236.82" y2="5839.36" gradientUnits="userSpaceOnUse"><stop stop-color="#010101" stop-opacity="0"/><stop offset=".95" stop-color="#010101"/></linearGradient><linearGradient id="paint74_linear" x1="7554.64" y1="537.519" x2="13706.3" y2="537.519" gradientUnits="userSpaceOnUse"><stop stop-color="#010101" stop-opacity="0"/><stop offset=".95" stop-color="#010101"/></linearGradient><linearGradient id="paint75_linear" x1="7554.64" y1="565.199" x2="13706.3" y2="565.199" gradientUnits="userSpaceOnUse"><stop stop-color="#010101" stop-opacity="0"/><stop offset=".95" stop-color="#010101"/></linearGradient><linearGradient id="paint76_linear" x1="7554.64" y1="592.875" x2="13706.3" y2="592.875" gradientUnits="userSpaceOnUse"><stop stop-color="#010101" stop-opacity="0"/><stop offset=".95" stop-color="#010101"/></linearGradient><linearGradient id="paint77_linear" x1="7554.64" y1="620.541" x2="13706.3" y2="620.541" gradientUnits="userSpaceOnUse"><stop stop-color="#010101" stop-opacity="0"/><stop offset=".95" stop-color="#010101"/></linearGradient><linearGradient id="paint78_linear" x1="7554.64" y1="648.22" x2="13706.3" y2="648.22" gradientUnits="userSpaceOnUse"><stop stop-color="#010101" stop-opacity="0"/><stop offset=".95" stop-color="#010101"/></linearGradient><linearGradient id="paint79_linear" x1="1420.1" y1="1023.46" x2="2020.12" y2="1049.88" gradientUnits="userSpaceOnUse"><stop stop-color="#010101" stop-opacity="0"/><stop offset=".47" stop-color="#010101" stop-opacity=".47"/><stop offset=".95" stop-color="#010101"/></linearGradient><linearGradient id="paint80_linear" x1="125.524" y1="322.124" x2="124.149" y2="344.111" gradientUnits="userSpaceOnUse"><stop stop-color="#fff" stop-opacity="0"/><stop offset=".95" stop-color="#fff"/></linearGradient><linearGradient id="paint81_linear" x1="429.475" y1="2807.73" x2="1139.01" y2="2872.81" gradientUnits="userSpaceOnUse"><stop stop-color="#010101" stop-opacity="0"/><stop offset=".95" stop-color="#010101"/></linearGradient><filter id="filter3_d" x="0" y="285.25" width="248.653" height="223.75" filterUnits="userSpaceOnUse" color-interpolation-filters="sRGB"><feFlood flood-opacity="0" result="BackgroundImageFix"/><feColorMatrix in="SourceAlpha" values="0 0 0 0 0 0 0 0 0 0 0 0 0 0 0 0 0 0 127 0"/><feOffset dx="1" dy="2"/><feGaussianBlur stdDeviation="5"/><feColorMatrix values="0 0 0 0 0 0 0 0 0 0 0 0 0 0 0 0 0 0 0.15 0"/><feBlend in2="BackgroundImageFix" result="effect1_dropShadow"/><feBlend in="SourceGraphic" in2="effect1_dropShadow" result="shape"/></filter><filter id="filter0_d" x="268.95" y="244.5" width="248.653" height="223.75" filterUnits="userSpaceOnUse" color-interpolation-filters="sRGB"><feFlood flood-opacity="0" result="BackgroundImageFix"/><feColorMatrix in="SourceAlpha" values="0 0 0 0 0 0 0 0 0 0 0 0 0 0 0 0 0 0 127 0"/><feOffset dx="1" dy="2"/><feGaussianBlur stdDeviation="5"/><feColorMatrix values="0 0 0 0 0 0 0 0 0 0 0 0 0 0 0 0 0 0 0.15 0"/><feBlend in2="BackgroundImageFix" result="effect1_dropShadow"/><feBlend in="SourceGraphic" in2="effect1_dropShadow" result="shape"/></filter><filter id="filter1_d" x="0" y="40.75" width="248.653" height="223.75" filterUnits="userSpaceOnUse" color-interpolation-filters="sRGB"><feFlood flood-opacity="0" result="BackgroundImageFix"/><feColorMatrix in="SourceAlpha" values="0 0 0 0 0 0 0 0 0 0 0 0 0 0 0 0 0 0 127 0"/><feOffset dx="1" dy="2"/><feGaussianBlur stdDeviation="5"/><feColorMatrix values="0 0 0 0 0 0 0 0 0 0 0 0 0 0 0 0 0 0 0.15 0"/><feBlend in2="BackgroundImageFix" result="effect1_dropShadow"/><feBlend in="SourceGraphic" in2="effect1_dropShadow" result="shape"/></filter><filter id="filter2_d" x="268.95" y="0" width="248.653" height="223.75" filterUnits="userSpaceOnUse" color-interpolation-filters="sRGB"><feFlood flood-opacity="0" result="BackgroundImageFix"/><feColorMatrix in="SourceAlpha" values="0 0 0 0 0 0 0 0 0 0 0 0 0 0 0 0 0 0 127 0"/><feOffset dx="1" dy="2"/><feGaussianBlur stdDeviation="5"/><feColorMatrix values="0 0 0 0 0 0 0 0 0 0 0 0 0 0 0 0 0 0 0.15 0"/><feBlend in2="BackgroundImageFix" result="effect1_dropShadow"/><feBlend in="SourceGraphic" in2="effect1_dropShadow" result="shape"/></filter><clipPath id="clip0"><path fill="#fff" d="M66.729 71.389H185.5v113.194H66.729z"/></clipPath><clipPath id="clip1"><path fill="#fff" d="M386.154 85.721h19.131v19.131h-19.131z"/></clipPath><clipPath id="clip2"><path fill="#fff" d="M114.3 370.971h19.131v19.131H114.3z"/></clipPath></defs></svg>