<svg width="114" height="104" fill="none" xmlns="http://www.w3.org/2000/svg"><path d="M57.8 99.758c.075.203.084.424.026.632a1.008 1.008 0 01-.2.306c-.797.899-1.984 1.33-3.118 1.724-.395.147-.8.264-1.213.35a7.18 7.18 0 01-1.335.08 38.858 38.858 0 01-4.38-.278 5.182 5.182 0 013.785-3.184c.801-.158 1.626-.119 2.437-.199a.348.348 0 00.294-.134.364.364 0 000-.257l-.325-1.211a.515.515 0 01-.018-.32c.054-.15.227-.216.379-.257.549-.16.912-1.77 1.5-1.804.587-.033 1.404 1.889 1.507 2.5.123.751.577 1.736.662 2.052z" fill="#00458B"/><path d="M57.8 99.758c.075.203.084.424.026.632a1.008 1.008 0 01-.2.306c-.797.899-1.984 1.33-3.118 1.724-.395.147-.8.264-1.213.35a7.18 7.18 0 01-1.335.08 38.858 38.858 0 01-4.38-.278 5.182 5.182 0 013.785-3.184c.801-.158 1.626-.119 2.437-.199a.348.348 0 00.294-.134.364.364 0 000-.257l-.325-1.211a.515.515 0 01-.018-.32c.054-.15.227-.216.379-.257.549-.16.912-1.77 1.5-1.804.587-.033 1.404 1.889 1.507 2.5.123.751.577 1.736.662 2.052z" fill="url(#paint0_linear)"/><path d="M74.073 101.204c1.525 1.46 3.84 1.762 5.925 1.522.353-.041.755-.126.93-.435.175-.309.044-.698-.144-1-.443-.7-1.162-1.18-1.886-1.587a17.3 17.3 0 00-3.37-1.44 2.061 2.061 0 01-.69-.306c-.456-.361-.5-1.03-.86-1.495-.153-.193-1.871-.654-2.038-.515-.516.397.1 1.649.324 2.236.43 1.09.946 2.193 1.809 3.02z" fill="#00458B"/><path d="M74.073 101.204c1.525 1.46 3.84 1.762 5.925 1.522.353-.041.755-.126.93-.435.175-.309.044-.698-.144-1-.443-.7-1.162-1.18-1.886-1.587a17.3 17.3 0 00-3.37-1.44 2.061 2.061 0 01-.69-.306c-.456-.361-.5-1.03-.86-1.495-.153-.193-1.871-.654-2.038-.515-.516.397.1 1.649.324 2.236.43 1.09.946 2.193 1.809 3.02z" fill="url(#paint1_linear)"/><path d="M110.836 52.102h-12.65v51.536h12.65V52.102zm-92.532 0H5.654v51.536h12.65V52.102z" fill="#00458B"/><path d="M18.304 52.102H5.654v14.392h12.65V52.102z" fill="url(#paint2_linear)"/><path d="M110.803 52.102h-12.65v14.392h12.65V52.102z" fill="url(#paint3_linear)"/><path d="M113.649 47.885H.971v5.153h112.678v-5.153zM57.894 60.066s-17.102 7.497-17.805 8.785c-.703 1.288-.469 4.568.587 5.974 1.057 1.407 12.65 22.607 12.65 22.607l3.864-1.056-7.613-22.957s21.085-1.17 22.607-2.692c1.523-1.523 3.63-6.09 3.63-6.09l-11.01-9.958-6.91 5.387z" fill="#00458B"/><path d="M57.894 60.066s-17.102 7.497-17.805 8.785c-.703 1.288-.469 4.568.587 5.974 1.057 1.407 12.65 22.607 12.65 22.607l3.864-1.056-7.613-22.957s21.085-1.17 22.607-2.692c1.523-1.523 3.63-6.09 3.63-6.09l-11.01-9.958-6.91 5.387z" fill="url(#paint4_linear)"/><path d="M67.714 5.485H18.09a2.713 2.713 0 00-2.713 2.713V37.44a2.713 2.713 0 002.713 2.713h49.624a2.713 2.713 0 002.713-2.713V8.198a2.713 2.713 0 00-2.713-2.713z" fill="#00458B"/><path d="M66.1 6.935H19.565a2.499 2.499 0 00-2.499 2.5v26.447a2.499 2.499 0 002.5 2.5h46.532a2.499 2.499 0 002.5-2.5V9.434a2.499 2.499 0 00-2.5-2.499z" fill="url(#paint5_linear)"/><path d="M66.1 6.935H19.565a2.499 2.499 0 00-2.499 2.5v26.447a2.499 2.499 0 002.5 2.5h46.532a2.499 2.499 0 002.5-2.5V9.434a2.499 2.499 0 00-2.5-2.499z" fill="url(#paint6_linear)"/><path d="M61.67 20.172c-1.288 2.319-3.091 4.308-4.29 6.673-.867 1.729-1.383 3.607-2.166 5.38-.783 1.772-1.904 3.487-3.607 4.42-.693.381-1.52.675-1.878 1.378 3.627.57 7.296.828 10.967.773.235.013.47-.024.688-.11.256-.156.467-.374.614-.634 2.493-3.571 6.618-6.14 7.826-10.323.56-1.925.415-3.976.258-5.975-.19-2.615-.384-5.235-.773-7.832-.289-1.96-.497-4.09-2.576-4.923-1.198-.482-2.878-.515-4.004.19-1.559.962-.806 2.062-.211 3.399 1.16 2.491.433 5.3-.848 7.584z" fill="url(#paint7_linear)"/><path d="M68.943 19.621a.325.325 0 01.217.039.298.298 0 01.077.165c.052.387.077.778.077 1.17.003.393.14.773.39 1.079.386.41 1.012.448 1.573.463.119.009.238 0 .353-.028.155-.07.3-.156.436-.258.399-.229.904-.19 1.314-.399.157-.085.3-.196.422-.327.812-.85.886-2.182.613-3.329-.273-1.146-.827-2.205-1.126-3.349-.257-1.007-.33-2.105-.909-2.97a.712.712 0 00-.544-.377 11.298 11.298 0 00-2.622-.157c-.706 0-1.443.039-2.061.377-.397.213-1.505-1.477-1.783-1.124-.196.258.27 5.568.335 5.977.549 3.465 2.267 3.097 3.238 3.048z" fill="url(#paint8_linear)"/><path d="M60.88 29.614s1.875-6.677 5.799-7.906c3.923-1.23 9.838-1.582 11.186-1.232 1.347.35 5.212 2.52 5.621 8.729.41 6.209.76 9.31.76 9.31l-1.053 26.121s-14.407 2.342-18.271.585l-1.407-6.44-1.404 5.036-4.217-3.748 2.341-7.848s-.35-18.742.645-22.607z" fill="#00458B"/><path d="M60.88 29.614s1.875-6.677 5.799-7.906c3.923-1.23 9.838-1.582 11.186-1.232 1.347.35 5.212 2.52 5.621 8.729.41 6.209.76 9.31.76 9.31l-1.053 26.121s-14.407 2.342-18.271.585l-1.407-6.44-1.404 5.036-4.217-3.748 2.341-7.848s-.35-18.742.645-22.607z" fill="url(#paint9_linear)"/><path opacity=".48" d="M75.963 38.587c-.95 1.572-1.386 3.39-1.803 5.174l-2.74 11.572c-.569 2.412-1.151 4.86-2.334 7.036-1.182 2.177-3.058 4.099-5.44 4.78-1.768.514-3.654.3-5.48.501a12.476 12.476 0 00-9.046 5.668c7.539.1 15.075-.321 22.555-1.262 1.106-.14 2.25-.304 3.192-.9 1.106-.7 1.786-1.9 2.319-3.09 1.162-2.546 1.91-5.259 2.576-7.987a135.27 135.27 0 002.556-13.56c.567-4.155 1.724-9.354 1.013-13.483-2.724.613-5.92 3.171-7.369 5.551z" fill="url(#paint10_linear)"/><path d="M53.194 47.125l6.75-.059.175-3.104-6.925 3.163z" stroke="#3CB6D5" stroke-width="1.28" stroke-miterlimit="10"/><path d="M57.427 73.303l14.054 23.66 3.045-.703-7.028-23.776-10.07.819z" fill="#00458B"/><path d="M57.427 73.303l14.054 23.66 3.045-.703-7.028-23.776-10.07.819z" fill="url(#paint11_linear)"/><path d="M101.35 47.77c-.587 2.346-5.629 21.898-5.629 21.898s-1.288 5.39-5.266 5.39c-2.136 0-12.593-.186-21.829-.361-7.986-.15-15.063-.289-15.063-.289s-.935-3.455 1.986-3.694c2.922-.24 11.243 0 11.243 0s4.107-.224 5.743-4.328c1.347-3.35 4.415-16.95 5.49-21.741a8.759 8.759 0 011.697-3.582c1.848-2.36 5.516-6.103 10.383-6.415 5.054-.337 8.3 1.56 9.973 3.244a5.68 5.68 0 011.272 1.785c.585 1.528.585 5.745 0 8.093z" fill="#00458B"/><path d="M100.078 37.897c0 .15 0 .289-.013.438 0 0-9.847-3.506-17.223 7.562L75.99 69.959s-1.36 4.568-7.363 4.743c-7.986-.15-15.063-.289-15.063-.289s-.935-3.454 1.986-3.694c2.922-.24 11.243 0 11.243 0s4.107-.224 5.743-4.328c1.347-3.35 4.415-16.95 5.49-21.741a8.759 8.759 0 011.697-3.581c1.848-2.36 5.516-6.104 10.383-6.415 5.054-.338 8.3 1.558 9.973 3.243z" fill="url(#paint12_linear)"/><path d="M74.408 74.776h-1.873v28.981h1.873v-28.98z" fill="#00458B"/><path d="M74.408 74.776h-1.873v28.981h1.873v-28.98z" fill="url(#paint13_linear)"/><path d="M80.717 101.467H67.222a1.16 1.16 0 100 2.318h13.495a1.16 1.16 0 100-2.318z" fill="#00458B"/><path d="M80.717 101.467H67.222a1.16 1.16 0 100 2.318h13.495a1.16 1.16 0 100-2.318z" fill="url(#paint14_linear)"/><path d="M52.156 40.138H36.168v6.619h15.988v-6.619z" fill="#00458B"/><path d="M52.156 40.138H36.168v6.619h15.988v-6.619z" fill="url(#paint15_linear)"/><path d="M58.22 45.056H28.94v2.811h29.282v-2.81z" fill="#00458B"/><path d="M58.682 45.263H29.4v2.202h29.282v-2.203z" fill="url(#paint16_linear)"/><path d="M68.454 6.144c-.485.36-.905.807-1.415 1.129a4.553 4.553 0 01-2.318.639c-.554.018-1.232.025-1.497.515-.22.4 0 .904.278 1.26.262.322.584.592.948.793.186.086.36.197.515.33.317.322.32.832.516 1.24.278.571.912.875 1.319 1.364.8.962.605 2.445 1.288 3.486a3.49 3.49 0 001.636 1.211 5.204 5.204 0 002.79.381 3.635 3.635 0 002.38-1.399c.487-.677.683-1.517.822-2.339.276-1.62.371-3.303-.036-4.895-.804-3.13-4.117-6.026-7.226-3.715z" fill="#3F3D56"/><path d="M68.454 6.144c-.485.36-.905.807-1.415 1.129a4.553 4.553 0 01-2.318.639c-.554.018-1.232.025-1.497.515-.22.4 0 .904.278 1.26.262.322.584.592.948.793.186.086.36.197.515.33.317.322.32.832.516 1.24.278.571.912.875 1.319 1.364.8.962.605 2.445 1.288 3.486a3.49 3.49 0 001.636 1.211 5.204 5.204 0 002.79.381 3.635 3.635 0 002.38-1.399c.487-.677.683-1.517.822-2.339.276-1.62.371-3.303-.036-4.895-.804-3.13-4.117-6.026-7.226-3.715z" fill="url(#paint17_linear)"/><path d="M69.273 24.24a4.029 4.029 0 01.634 3.318c-.675 2.93-2.543 9.88-5.689 12.882-4.042 3.864-10.189 7.906-22.928 7.556l.177-3.514s13.791-1.232 15.02-5.8c1.229-4.567 6.062-14.406 7.819-15.372 1.38-.752 3.579-.915 4.967.93z" fill="#00458B"/><path d="M69.273 24.24a4.029 4.029 0 01.634 3.318c-.675 2.93-2.543 9.88-5.689 12.882-4.042 3.864-10.189 7.906-22.928 7.556l.177-3.514s13.791-1.232 15.02-5.8c1.229-4.567 6.062-14.406 7.819-15.372 1.38-.752 3.579-.915 4.967.93z" fill="url(#paint18_linear)"/><path d="M38.587 44.301a5.987 5.987 0 00-5.699 2.015l3.053.299c.198.002.393.055.564.155.131.122.256.251.374.386.263.184.58.274.902.258.955.044 1.914.046 2.87 0a.538.538 0 00.334-.09.515.515 0 00.142-.281c.126-.49.405-1.86-.07-2.203-.221-.157-.901-.137-1.187-.211-.428-.098-.848-.24-1.283-.328z" fill="url(#paint19_linear)"/><path opacity=".18" d="M105.851 3.455V15.42a2.394 2.394 0 01-2.394 2.391h-8.78l-3.725 5.557v-5.557h-6.064a2.392 2.392 0 01-2.394-2.39V3.454a2.391 2.391 0 012.394-2.391h18.569a2.394 2.394 0 012.394 2.39z" fill="#00458B"/><path d="M104.926 2.839v11.967a2.396 2.396 0 01-.701 1.691 2.394 2.394 0 01-1.693.7h-8.777l-3.728 5.557v-5.55h-6.062a2.392 2.392 0 01-2.396-2.39V2.839a2.394 2.394 0 012.396-2.39h18.567a2.388 2.388 0 012.212 1.475c.12.29.182.6.182.915z" fill="#fff"/><path d="M22.588 9.014h-2.174v26.897h2.174V9.014z" fill="url(#paint20_linear)"/><path d="M88.394 9.014l3.767-1.94v.562l-3.174 1.582v.018l3.174 1.59v.561l-3.767-1.94v-.433zm4.292 2.706l2.265-5.887h.55l-2.271 5.886h-.544zm7.093-2.244l-3.764 1.932v-.575l3.197-1.59v-.025l-3.197-1.59v-.554l3.764 1.933v.469z" fill="#00458B"/><path d="M33.723 13.293h-6.99v.513h6.99v-.512z" fill="url(#paint21_linear)"/><path d="M31 14.285h-4.267v.482H31v-.482z" fill="url(#paint22_linear)"/><path d="M46.146 14.285H32.72v.485h13.425v-.485z" fill="url(#paint23_linear)"/><path d="M54.957 14.285H47.4v.485h7.557v-.485z" fill="url(#paint24_linear)"/><path d="M34.818 15.28h-5.866v.507h5.866v-.507z" fill="url(#paint25_linear)"/><path d="M37.824 16.271h-6.989v.513h6.99v-.512z" fill="url(#paint26_linear)"/><path d="M44.139 16.271H38.28v.57h5.859v-.57z" fill="url(#paint27_linear)"/><path d="M36.222 17.263h-5.397v.482h5.397v-.482z" fill="url(#paint28_linear)"/><path d="M57.208 17.263h-5.397v.482h5.397v-.482z" fill="url(#paint29_linear)"/><path d="M47.877 17.263H36.74v.534h11.137v-.534z" fill="url(#paint30_linear)"/><path d="M51.391 17.263h-2.455v.544h2.455v-.544z" fill="url(#paint31_linear)"/><path d="M33.723 18.606h-6.99v.512h6.99v-.512z" fill="url(#paint32_linear)"/><path d="M31 19.598h-4.267v.482H31v-.482z" fill="url(#paint33_linear)"/><path d="M46.146 19.598H32.72v.484h13.425v-.484z" fill="url(#paint34_linear)"/><path d="M54.957 19.598H47.4v.484h7.557v-.484z" fill="url(#paint35_linear)"/><path d="M34.818 20.59h-5.866v.507h5.866v-.507z" fill="url(#paint36_linear)"/><path d="M37.824 21.584h-6.989v.513h6.99v-.513z" fill="url(#paint37_linear)"/><path d="M44.139 21.584H38.28v.57h5.859v-.57z" fill="url(#paint38_linear)"/><path d="M36.222 22.576h-5.397v.482h5.397v-.482z" fill="url(#paint39_linear)"/><path d="M57.208 22.576h-5.397v.482h5.397v-.482z" fill="url(#paint40_linear)"/><path d="M47.877 22.576H36.74v.533h11.137v-.533z" fill="url(#paint41_linear)"/><path d="M51.391 22.576h-2.455v.543h2.455v-.543z" fill="url(#paint42_linear)"/><path d="M33.723 23.918h-6.99v.513h6.99v-.513z" fill="url(#paint43_linear)"/><path d="M31 24.91h-4.267v.482H31v-.482z" fill="url(#paint44_linear)"/><path d="M46.146 24.91H32.72v.484h13.425v-.484z" fill="url(#paint45_linear)"/><path d="M54.957 24.91H47.4v.484h7.557v-.484z" fill="url(#paint46_linear)"/><path d="M34.818 25.902h-5.866v.507h5.866v-.507z" fill="url(#paint47_linear)"/><path d="M37.824 26.894h-6.989v.513h6.99v-.513z" fill="url(#paint48_linear)"/><path d="M44.139 26.894H38.28v.57h5.859v-.57z" fill="url(#paint49_linear)"/><path d="M36.222 27.888h-5.397v.482h5.397v-.482z" fill="url(#paint50_linear)"/><path d="M57.208 27.888h-5.397v.482h5.397v-.482z" fill="url(#paint51_linear)"/><path d="M47.877 27.888H36.74v.533h11.137v-.533z" fill="url(#paint52_linear)"/><path d="M51.391 27.888h-2.455v.543h2.455v-.543z" fill="url(#paint53_linear)"/><defs><linearGradient id="paint0_linear" x1="45.476" y1="95.309" x2="65.03" y2="106.624" gradientUnits="userSpaceOnUse"><stop stop-opacity="0"/><stop offset=".99"/></linearGradient><linearGradient id="paint1_linear" x1="3206.4" y1="2965.42" x2="3059.68" y2="3208.28" gradientUnits="userSpaceOnUse"><stop stop-opacity="0"/><stop offset=".99"/></linearGradient><linearGradient id="paint2_linear" x1="64.728" y1="3730.75" x2="11907.6" y2="5550.48" gradientUnits="userSpaceOnUse"><stop stop-opacity="0"/><stop offset=".99"/></linearGradient><linearGradient id="paint3_linear" x1="4698.78" y1="3730.75" x2="16541.7" y2="5550.48" gradientUnits="userSpaceOnUse"><stop stop-opacity="0"/><stop offset=".99"/></linearGradient><linearGradient id="paint4_linear" x1="5921.19" y1="14706.7" x2="22745.5" y2="14232.4" gradientUnits="userSpaceOnUse"><stop stop-opacity="0"/><stop offset=".99"/></linearGradient><linearGradient id="paint5_linear" x1="10165.5" y1="3800.58" x2="9591" y2="22172.9" gradientUnits="userSpaceOnUse"><stop stop-opacity="0"/><stop offset=".99"/></linearGradient><linearGradient id="paint6_linear" x1="42.258" y1="50.513" x2="43.412" y2="-5.377" gradientUnits="userSpaceOnUse"><stop stop-color="#fff" stop-opacity="0"/><stop offset=".99" stop-color="#fff"/></linearGradient><linearGradient id="paint7_linear" x1="4860.3" y1="4054.12" x2="14911.4" y2="4471.11" gradientUnits="userSpaceOnUse"><stop stop-opacity="0"/><stop offset=".99"/></linearGradient><linearGradient id="paint8_linear" x1="65.321" y1="16.547" x2="74.557" y2="16.547" gradientUnits="userSpaceOnUse"><stop stop-color="#ECC4D7"/><stop offset=".42" stop-color="#EFD4D1"/><stop offset="1" stop-color="#F2EAC9"/></linearGradient><linearGradient id="paint9_linear" x1="7106.2" y1="9411.15" x2="20044.6" y2="10266.3" gradientUnits="userSpaceOnUse"><stop stop-opacity="0"/><stop offset=".99"/></linearGradient><linearGradient id="paint10_linear" x1="8672.25" y1="9244.14" x2="24945.4" y2="17214.6" gradientUnits="userSpaceOnUse"><stop stop-opacity="0"/><stop offset=".99"/></linearGradient><linearGradient id="paint11_linear" x1="4875.68" y1="9840.9" x2="6473.87" y2="2270.73" gradientUnits="userSpaceOnUse"><stop stop-opacity="0"/><stop offset=".99"/></linearGradient><linearGradient id="paint12_linear" x1="13335.8" y1="13773" x2="18694.2" y2="2190.9" gradientUnits="userSpaceOnUse"><stop stop-color="#fff" stop-opacity="0"/><stop offset=".99" stop-color="#fff"/></linearGradient><linearGradient id="paint13_linear" x1="661.107" y1="12234.4" x2="2649.54" y2="8876.03" gradientUnits="userSpaceOnUse"><stop stop-opacity="0"/><stop offset=".99"/></linearGradient><linearGradient id="paint14_linear" x1="4930.99" y1="1095.43" x2="4980.13" y2="1358.67" gradientUnits="userSpaceOnUse"><stop stop-opacity="0"/><stop offset=".99"/></linearGradient><linearGradient id="paint15_linear" x1="3263.26" y1="1452.05" x2="3262.71" y2="1069.63" gradientUnits="userSpaceOnUse"><stop stop-opacity="0"/><stop offset=".99"/></linearGradient><linearGradient id="paint16_linear" x1="5910.97" y1="495.807" x2="5911.25" y2="597.31" gradientUnits="userSpaceOnUse"><stop stop-opacity="0"/><stop offset=".99"/></linearGradient><linearGradient id="paint17_linear" x1="3859.17" y1="1107.04" x2="4373.58" y2="1416.63" gradientUnits="userSpaceOnUse"><stop stop-opacity="0"/><stop offset=".99"/></linearGradient><linearGradient id="paint18_linear" x1="7314.26" y1="4865.42" x2="6591.94" y2="3942.43" gradientUnits="userSpaceOnUse"><stop stop-color="#fff" stop-opacity="0"/><stop offset=".99" stop-color="#fff"/></linearGradient><linearGradient id="paint19_linear" x1="1378.27" y1="766.605" x2="1654.45" y2="766.605" gradientUnits="userSpaceOnUse"><stop stop-color="#ECC4D7"/><stop offset=".42" stop-color="#EFD4D1"/><stop offset="1" stop-color="#F2EAC9"/></linearGradient><linearGradient id="paint20_linear" x1="211.629" y1="3496.93" x2="376.728" y2="3494.66" gradientUnits="userSpaceOnUse"><stop stop-color="#fff" stop-opacity="0"/><stop offset=".99" stop-color="#fff"/></linearGradient><linearGradient id="paint21_linear" x1="1066.48" y1="31.606" x2="1066.43" y2="72.527" gradientUnits="userSpaceOnUse"><stop stop-color="#fff" stop-opacity="0"/><stop offset=".99" stop-color="#fff"/></linearGradient><linearGradient id="paint22_linear" x1="639.163" y1="31.45" x2="639.082" y2="69.899" gradientUnits="userSpaceOnUse"><stop stop-color="#fff" stop-opacity="0"/><stop offset=".99" stop-color="#fff"/></linearGradient><linearGradient id="paint23_linear" x1="2510.3" y1="31.91" x2="2510.27" y2="70.57" gradientUnits="userSpaceOnUse"><stop stop-color="#fff" stop-opacity="0"/><stop offset=".99" stop-color="#fff"/></linearGradient><linearGradient id="paint24_linear" x1="1786.24" y1="32.327" x2="1786.19" y2="70.981" gradientUnits="userSpaceOnUse"><stop stop-color="#fff" stop-opacity="0"/><stop offset=".99" stop-color="#fff"/></linearGradient><linearGradient id="paint25_linear" x1="940.204" y1="33.474" x2="940.138" y2="73.979" gradientUnits="userSpaceOnUse"><stop stop-color="#fff" stop-opacity="0"/><stop offset=".99" stop-color="#fff"/></linearGradient><linearGradient id="paint26_linear" x1="1183.39" y1="34.738" x2="1183.34" y2="75.659" gradientUnits="userSpaceOnUse"><stop stop-color="#fff" stop-opacity="0"/><stop offset=".99" stop-color="#fff"/></linearGradient><linearGradient id="paint27_linear" x1="1160.7" y1="37.064" x2="1160.62" y2="82.509" gradientUnits="userSpaceOnUse"><stop stop-color="#fff" stop-opacity="0"/><stop offset=".99" stop-color="#fff"/></linearGradient><linearGradient id="paint28_linear" x1="904.324" y1="34.593" x2="904.26" y2="73.041" gradientUnits="userSpaceOnUse"><stop stop-color="#fff" stop-opacity="0"/><stop offset=".99" stop-color="#fff"/></linearGradient><linearGradient id="paint29_linear" x1="1364.81" y1="35.325" x2="1364.75" y2="73.778" gradientUnits="userSpaceOnUse"><stop stop-color="#fff" stop-opacity="0"/><stop offset=".99" stop-color="#fff"/></linearGradient><linearGradient id="paint30_linear" x1="2218.86" y1="36.787" x2="2218.82" y2="79.348" gradientUnits="userSpaceOnUse"><stop stop-color="#fff" stop-opacity="0"/><stop offset=".99" stop-color="#fff"/></linearGradient><linearGradient id="paint31_linear" x1="604.815" y1="37.474" x2="604.635" y2="80.856" gradientUnits="userSpaceOnUse"><stop stop-color="#fff" stop-opacity="0"/><stop offset=".99" stop-color="#fff"/></linearGradient><linearGradient id="paint32_linear" x1="1066.48" y1="47.49" x2="1066.43" y2="88.411" gradientUnits="userSpaceOnUse"><stop stop-color="#fff" stop-opacity="0"/><stop offset=".99" stop-color="#fff"/></linearGradient><linearGradient id="paint33_linear" x1="639.163" y1="46.692" x2="639.082" y2="85.145" gradientUnits="userSpaceOnUse"><stop stop-color="#fff" stop-opacity="0"/><stop offset=".99" stop-color="#fff"/></linearGradient><linearGradient id="paint34_linear" x1="2510.3" y1="47.21" x2="2510.27" y2="85.869" gradientUnits="userSpaceOnUse"><stop stop-color="#fff" stop-opacity="0"/><stop offset=".99" stop-color="#fff"/></linearGradient><linearGradient id="paint35_linear" x1="1786.24" y1="47.622" x2="1786.19" y2="86.281" gradientUnits="userSpaceOnUse"><stop stop-color="#fff" stop-opacity="0"/><stop offset=".99" stop-color="#fff"/></linearGradient><linearGradient id="paint36_linear" x1="940.204" y1="49.245" x2="940.138" y2="89.755" gradientUnits="userSpaceOnUse"><stop stop-color="#fff" stop-opacity="0"/><stop offset=".99" stop-color="#fff"/></linearGradient><linearGradient id="paint37_linear" x1="1183.39" y1="50.622" x2="1183.34" y2="91.543" gradientUnits="userSpaceOnUse"><stop stop-color="#fff" stop-opacity="0"/><stop offset=".99" stop-color="#fff"/></linearGradient><linearGradient id="paint38_linear" x1="1160.7" y1="54.117" x2="1160.62" y2="99.562" gradientUnits="userSpaceOnUse"><stop stop-color="#fff" stop-opacity="0"/><stop offset=".99" stop-color="#fff"/></linearGradient><linearGradient id="paint39_linear" x1="904.324" y1="49.839" x2="904.26" y2="88.288" gradientUnits="userSpaceOnUse"><stop stop-color="#fff" stop-opacity="0"/><stop offset=".99" stop-color="#fff"/></linearGradient><linearGradient id="paint40_linear" x1="1364.81" y1="50.572" x2="1364.75" y2="89.021" gradientUnits="userSpaceOnUse"><stop stop-color="#fff" stop-opacity="0"/><stop offset=".99" stop-color="#fff"/></linearGradient><linearGradient id="paint41_linear" x1="2218.86" y1="53.091" x2="2218.82" y2="95.657" gradientUnits="userSpaceOnUse"><stop stop-color="#fff" stop-opacity="0"/><stop offset=".99" stop-color="#fff"/></linearGradient><linearGradient id="paint42_linear" x1="604.815" y1="53.996" x2="604.635" y2="97.378" gradientUnits="userSpaceOnUse"><stop stop-color="#fff" stop-opacity="0"/><stop offset=".99" stop-color="#fff"/></linearGradient><linearGradient id="paint43_linear" x1="1066.48" y1="63.374" x2="1066.43" y2="104.289" gradientUnits="userSpaceOnUse"><stop stop-color="#fff" stop-opacity="0"/><stop offset=".99" stop-color="#fff"/></linearGradient><linearGradient id="paint44_linear" x1="639.163" y1="61.938" x2="639.082" y2="100.392" gradientUnits="userSpaceOnUse"><stop stop-color="#fff" stop-opacity="0"/><stop offset=".99" stop-color="#fff"/></linearGradient><linearGradient id="paint45_linear" x1="2510.3" y1="62.509" x2="2510.27" y2="101.164" gradientUnits="userSpaceOnUse"><stop stop-color="#fff" stop-opacity="0"/><stop offset=".99" stop-color="#fff"/></linearGradient><linearGradient id="paint46_linear" x1="1786.24" y1="62.921" x2="1786.19" y2="101.58" gradientUnits="userSpaceOnUse"><stop stop-color="#fff" stop-opacity="0"/><stop offset=".99" stop-color="#fff"/></linearGradient><linearGradient id="paint47_linear" x1="940.204" y1="65.022" x2="940.138" y2="105.531" gradientUnits="userSpaceOnUse"><stop stop-color="#fff" stop-opacity="0"/><stop offset=".99" stop-color="#fff"/></linearGradient><linearGradient id="paint48_linear" x1="1183.39" y1="66.504" x2="1183.34" y2="107.425" gradientUnits="userSpaceOnUse"><stop stop-color="#fff" stop-opacity="0"/><stop offset=".99" stop-color="#fff"/></linearGradient><linearGradient id="paint49_linear" x1="1160.7" y1="71.167" x2="1160.62" y2="116.611" gradientUnits="userSpaceOnUse"><stop stop-color="#fff" stop-opacity="0"/><stop offset=".99" stop-color="#fff"/></linearGradient><linearGradient id="paint50_linear" x1="904.324" y1="65.08" x2="904.26" y2="103.533" gradientUnits="userSpaceOnUse"><stop stop-color="#fff" stop-opacity="0"/><stop offset=".99" stop-color="#fff"/></linearGradient><linearGradient id="paint51_linear" x1="1364.81" y1="65.817" x2="1364.75" y2="104.266" gradientUnits="userSpaceOnUse"><stop stop-color="#fff" stop-opacity="0"/><stop offset=".99" stop-color="#fff"/></linearGradient><linearGradient id="paint52_linear" x1="2218.86" y1="69.399" x2="2218.82" y2="111.965" gradientUnits="userSpaceOnUse"><stop stop-color="#fff" stop-opacity="0"/><stop offset=".99" stop-color="#fff"/></linearGradient><linearGradient id="paint53_linear" x1="604.815" y1="70.511" x2="604.635" y2="113.899" gradientUnits="userSpaceOnUse"><stop stop-color="#fff" stop-opacity="0"/><stop offset=".99" stop-color="#fff"/></linearGradient></defs></svg>