<svg width="152" height="100" fill="none" xmlns="http://www.w3.org/2000/svg"><path d="M143.79 0H48.25v62.657h95.54V0z" fill="#00458B"/><path d="M143.79 0H48.25v62.657h95.54V0z" fill="url(#paint0_linear)"/><path fill-rule="evenodd" clip-rule="evenodd" d="M118.818 91.394c17.962 0 32.524-14.561 32.524-32.524 0-17.962-14.562-32.524-32.524-32.524-17.963 0-32.525 14.561-32.525 32.524s14.562 32.524 32.525 32.524zm0-18.535c7.726 0 13.989-6.263 13.989-13.989 0-7.726-6.263-13.989-13.989-13.989-7.726 0-13.989 6.263-13.989 13.99 0 7.725 6.263 13.988 13.989 13.988z" fill="#BDC9D5"/><path fill-rule="evenodd" clip-rule="evenodd" d="M118.817 72.976c7.791 0 14.106-6.316 14.106-14.106s-6.315-14.105-14.106-14.105c-7.79 0-14.105 6.315-14.105 14.105s6.315 14.106 14.105 14.106zm0-8.039a6.067 6.067 0 100-12.134 6.067 6.067 0 000 12.134z" fill="#00458B"/><path d="M48.25 12.324h71.581v46.78L47.697 22.067l.553-9.744z" fill="url(#paint1_linear)"/><path d="M121.44 43.163v52.64a4.197 4.197 0 01-4.196 4.197H4.197A4.197 4.197 0 010 95.803V29.507a4.197 4.197 0 014.197-4.196H33.87a4.765 4.765 0 014.751 4.4l.3 3.963a5.736 5.736 0 005.72 5.297h72.61a4.197 4.197 0 014.189 4.192z" fill="#00458B"/><path d="M121.44 43.163v52.64a4.197 4.197 0 01-4.196 4.197H4.197A4.197 4.197 0 010 95.803V29.507a4.197 4.197 0 014.197-4.196H33.87a4.765 4.765 0 014.751 4.4l.3 3.963a5.736 5.736 0 005.72 5.297h72.61a4.197 4.197 0 014.189 4.192z" fill="url(#paint2_linear)"/><path d="M46.292 38.97h-1.65a5.736 5.736 0 01-5.72-5.296l-.3-3.964a4.706 4.706 0 00-.164-.932h2.331a4.763 4.763 0 014.752 4.4l.303 3.963c.047.63.198 1.249.448 1.83z" fill="#222A72"/><path d="M121.44 43.163v52.64a4.197 4.197 0 01-4.196 4.197H6.992a4.286 4.286 0 01-.06-.711V32.974a4.197 4.197 0 014.196-4.196h27.33c.086.304.14.617.163.932l.301 3.964a5.736 5.736 0 005.72 5.297h1.65a5.743 5.743 0 005.274 3.479h69.814c.04.235.06.474.06.713z" fill="#00458B"/><path d="M121.44 41.426v52.633a4.196 4.196 0 01-4.196 4.197H6.992a4.286 4.286 0 01-.06-.711V31.242a4.197 4.197 0 014.196-4.197h27.33c.084.305.14.617.163.933l.301 3.963a5.738 5.738 0 005.72 5.3h1.65a5.743 5.743 0 005.274 3.478h69.814c.04.234.06.47.06.707z" fill="url(#paint3_linear)"/><path d="M36.166 67.07v-3.068h6.038v18.3h-2.86V67.069h-3.178z" fill="#E31E27"/><path d="M39.344 62.732v-3.279h7.097v22.849h-2.86v-19.57h-4.237zm47.882 14.704v-2.962H60.504a3.531 3.531 0 01-3.522-3.53 3.504 3.504 0 013.496-3.505 3.493 3.493 0 013.495 3.491h3.02c0-3.505-2.846-6.4-6.356-6.4h-.212a6.351 6.351 0 00-6.356 6.347v.212a6.351 6.351 0 006.356 6.347h26.8z" fill="#E31E27"/><path d="M87.226 82.302v-3.129H60.504c-4.512 0-8.17-3.652-8.17-8.157 0-4.526 3.716-8.187 8.248-8.157 4.46.029 8.102 3.618 8.158 8.071h3.05c-.057-6.154-5.054-11.183-11.218-11.212-6.245-.03-11.323 5.037-11.323 11.273S54.312 82.3 60.557 82.3h26.669z" fill="#E31E27"/><path d="M115.56 13.793v25.18H44.641a5.738 5.738 0 01-5.72-5.3l-.3-3.963a4.764 4.764 0 00-4.752-4.4H13.454V13.794H115.56z" fill="#68E1FD"/><path d="M115.56 13.793v25.18H44.641a5.738 5.738 0 01-5.72-5.3l-.3-3.963a4.764 4.764 0 00-4.752-4.4H13.454V13.794H115.56z" fill="url(#paint4_linear)"/><path d="M47.756 22.893V38.98h-1.464V22.893a.73.73 0 011.46-.014l.004.014z" fill="url(#paint5_linear)"/><path opacity=".42" d="M54.818 22.893V38.98h-1.464V22.893a.732.732 0 111.464 0zm7.062 0V38.98h-1.466V22.893a.732.732 0 111.464 0h.002zm7.062 0V38.98h-1.464V22.893a.73.73 0 01.727-.732.75.75 0 01.52.212.736.736 0 01.217.52zm7.062 0V38.98H74.54V22.893a.732.732 0 011.464 0zm7.062 0V38.98h-1.464V22.893a.727.727 0 01.727-.732.73.73 0 01.737.732zm7.062 0V38.98h-1.464V22.893a.732.732 0 111.464 0zm7.062 0V38.98h-1.463V22.893a.732.732 0 111.464 0z" fill="#00458B"/><defs><linearGradient id="paint0_linear" x1="79.017" y1="56.492" x2="159.985" y2="-63.333" gradientUnits="userSpaceOnUse"><stop offset=".03" stop-color="#fff"/><stop offset=".09" stop-color="#fff" stop-opacity=".84"/><stop offset=".18" stop-color="#fff" stop-opacity=".64"/><stop offset=".28" stop-color="#fff" stop-opacity=".47"/><stop offset=".37" stop-color="#fff" stop-opacity=".33"/><stop offset=".47" stop-color="#fff" stop-opacity=".21"/><stop offset=".58" stop-color="#fff" stop-opacity=".12"/><stop offset=".69" stop-color="#fff" stop-opacity=".05"/><stop offset=".82" stop-color="#fff" stop-opacity=".01"/><stop offset=".98" stop-color="#fff" stop-opacity="0"/></linearGradient><linearGradient id="paint1_linear" x1="147.802" y1="-52.836" x2="58.954" y2="79.488" gradientUnits="userSpaceOnUse"><stop offset=".01"/><stop offset=".1" stop-opacity=".77"/><stop offset=".97" stop-opacity="0"/></linearGradient><linearGradient id="paint2_linear" x1="83990.6" y1="35057.3" x2="-21214.1" y2="38965.5" gradientUnits="userSpaceOnUse"><stop offset=".01"/><stop offset=".1" stop-opacity=".77"/><stop offset=".97" stop-opacity="0"/></linearGradient><linearGradient id="paint3_linear" x1="49517.1" y1="-1706.46" x2="41063.8" y2="-34188.4" gradientUnits="userSpaceOnUse"><stop offset=".01"/><stop offset=".1" stop-opacity=".77"/><stop offset=".97" stop-opacity="0"/></linearGradient><linearGradient id="paint4_linear" x1="34056.1" y1="5466.03" x2="34012.7" y2="11984.8" gradientUnits="userSpaceOnUse"><stop offset=".03" stop-color="#fff"/><stop offset=".09" stop-color="#fff" stop-opacity=".84"/><stop offset=".18" stop-color="#fff" stop-opacity=".64"/><stop offset=".28" stop-color="#fff" stop-opacity=".47"/><stop offset=".37" stop-color="#fff" stop-opacity=".33"/><stop offset=".47" stop-color="#fff" stop-opacity=".21"/><stop offset=".58" stop-color="#fff" stop-opacity=".12"/><stop offset=".69" stop-color="#fff" stop-opacity=".05"/><stop offset=".82" stop-color="#fff" stop-opacity=".01"/><stop offset=".98" stop-color="#fff" stop-opacity="0"/></linearGradient><linearGradient id="paint5_linear" x1="57.008" y1="29.857" x2="41.417" y2="31.011" gradientUnits="userSpaceOnUse"><stop offset=".01" stop-color="#fff"/><stop offset=".97" stop-color="#fff" stop-opacity="0"/></linearGradient></defs></svg>