<svg width="53" height="75" fill="none" xmlns="http://www.w3.org/2000/svg"><path d="M45.438 0H3.634A3.634 3.634 0 000 3.634v67.732A3.634 3.634 0 003.634 75h41.804a3.634 3.634 0 003.633-3.634V3.634A3.634 3.634 0 0045.438 0z" fill="#00458B"/><path d="M46.832 0H5.028a3.634 3.634 0 00-3.634 3.634v67.732A3.634 3.634 0 005.028 75h41.804a3.634 3.634 0 003.634-3.634V3.634A3.634 3.634 0 0046.832 0z" fill="#00458B"/><path d="M46.832 0H5.028a3.634 3.634 0 00-3.634 3.634v67.732A3.634 3.634 0 005.028 75h41.804a3.634 3.634 0 003.634-3.634V3.634A3.634 3.634 0 0046.832 0z" fill="url(#paint0_linear)"/><path d="M5.143 43.144L6.428 3.643l37.143.784s-4.857 41.002-1.428 51.584c3.429 10.583 4 14.553 4 14.553L6 71.7l-.858-28.557z" fill="url(#paint1_linear)"/><path d="M52.821 67.071l-40.606.43s-4.175-24.255-4.9-32.386C6.603 27.28 6.44 3.643 6.44 3.643h38.775S45.313 26.55 46 34.14c.76 8.375 6.821 32.93 6.821 32.93z" fill="#fff"/><path d="M30 11.642H10.86a.643.643 0 100 1.284H30a.643.643 0 100-1.284zm0 2.214H10.86a.643.643 0 100 1.285H30a.643.643 0 100-1.285zm0 2.215H10.86a.643.643 0 100 1.285H30a.643.643 0 100-1.285zm.117 2.215H17.429a.527.527 0 00-.528.528v.23c0 .29.236.527.528.527h12.688a.527.527 0 00.527-.528v-.23a.528.528 0 00-.527-.527zm.098 7.392H11.074a.643.643 0 100 1.285h19.14a.643.643 0 100-1.285zm0 2.215H11.074a.643.643 0 100 1.285h19.14a.643.643 0 100-1.285zm0 2.212H11.074a.643.643 0 100 1.285h19.14a.643.643 0 100-1.285zm.115 2.215H17.642a.528.528 0 00-.527.528v.23c0 .29.236.527.527.527h12.689a.528.528 0 00.527-.527v-.23a.528.528 0 00-.527-.528zm1.342 8.036H12.53a.76.76 0 01-.728-.643.55.55 0 01.557-.641H31.5a.757.757 0 01.73.64.55.55 0 01-.557.644zm.296 2.21H12.825a.76.76 0 01-.735-.653.551.551 0 01.557-.64h19.144a.76.76 0 01.727.64.551.551 0 01-.55.653zm.295 2.21H13.12a.76.76 0 01-.728-.641.55.55 0 01.557-.644H32.1a.76.76 0 01.728.644.55.55 0 01-.564.641zm.412 2.21H19.987a.623.623 0 01-.598-.525l-.032-.227a.454.454 0 01.455-.528h12.69a.623.623 0 01.598.528l.03.227a.454.454 0 01-.455.525zm1.321 7.434H14.853a.818.818 0 01-.766-.65.522.522 0 01.52-.65h19.144a.82.82 0 01.766.65.52.52 0 01-.52.65zm.425 2.233H15.273a.819.819 0 01-.766-.653.521.521 0 01.519-.65h19.143a.816.816 0 01.766.65.521.521 0 01-.514.653zm.423 2.241H15.701a.819.819 0 01-.766-.65.524.524 0 01.52-.641h19.146a.82.82 0 01.766.652.523.523 0 01-.523.64zm.539 2.243H22.695a.682.682 0 01-.63-.535l-.043-.227a.425.425 0 01.428-.532h12.688a.682.682 0 01.627.532l.045.227a.427.427 0 01-.427.535zm4.293-40.079h-3.815a2.76 2.76 0 01-2.758-2.758v-4.127a2.76 2.76 0 012.758-2.758h3.815a2.76 2.76 0 012.758 2.758v4.136a2.76 2.76 0 01-2.758 2.75zm-3.815-8.893a2 2 0 00-1.999 2V18.3a2 2 0 001.999 1.999h3.815a1.999 1.999 0 001.997-1.999v-4.127a1.999 1.999 0 00-1.997-1.998l-3.815-.01zm4.819 23.093h-3.805a2.756 2.756 0 01-2.756-2.633l-.182-4.052a2.758 2.758 0 012.756-2.884h3.809a2.754 2.754 0 012.74 2.636l.184 4.05a2.758 2.758 0 01-2.756 2.883h.01zm-3.994-8.807a1.996 1.996 0 00-1.996 2.088l.184 4.051a1.992 1.992 0 001.994 1.906h3.811a1.996 1.996 0 001.996-2.087l-.184-4.05a1.996 1.996 0 00-1.996-1.908h-3.809zm1.394 21.941a2.754 2.754 0 01-2.747-2.538l-.325-4.04a2.762 2.762 0 012.653-2.979l3.809-.132a2.782 2.782 0 012.847 2.529l.325 4.04a2.762 2.762 0 01-2.654 2.979l-3.808.132-.1.009zm3.49-8.93h-.073l-3.808.133a2 2 0 00-1.922 2.157l.325 4.041a2.006 2.006 0 002.06 1.837l3.81-.134a1.998 1.998 0 001.92-2.156l-.325-4.04a1.992 1.992 0 00-1.987-1.837zm-.5 22.32a2.765 2.765 0 01-2.729-2.317l-.636-3.938a2.76 2.76 0 012.626-3.2l3.774-.131a2.788 2.788 0 012.82 2.317l.637 3.938a2.76 2.76 0 01-2.627 3.2l-3.776.129-.089.002zm3.138-8.827h-.07l-3.775.132a1.998 1.998 0 00-1.896 2.317l.638 3.938a2.024 2.024 0 002.047 1.678l3.774-.131a1.994 1.994 0 001.901-2.315l-.636-3.94a2.001 2.001 0 00-1.983-1.679z" fill="#00458B"/><path d="M35.826 2.142H17.317c-.747 0-1.353.606-1.353 1.353V5.61c0 .747.606 1.353 1.353 1.353h18.51c.747 0 1.352-.606 1.352-1.353V3.495c0-.747-.605-1.353-1.353-1.353z" fill="#68E1FD"/><path d="M35.826 2.142H17.317c-.747 0-1.353.606-1.353 1.353V5.61c0 .747.606 1.353 1.353 1.353h18.51c.747 0 1.352-.606 1.352-1.353V3.495c0-.747-.605-1.353-1.353-1.353z" fill="url(#paint2_linear)"/><path d="M37.918 19.319l-3.333-3.327a1.142 1.142 0 011.614-1.615l1.592 1.592 5.341-6.178a1.142 1.142 0 111.728 1.494l-6.942 8.034zm1.572 13.856l-3.332-3.331a1.14 1.14 0 111.615-1.614l1.591 1.591 5.342-6.178a1.142 1.142 0 111.728 1.494l-6.944 8.038zm1.144 13.214L37.3 43.05a1.142 1.142 0 011.615-1.615l1.591 1.592 5.341-6.178a1.14 1.14 0 011.726 1.492l-6.94 8.047zm2.96 13.285l-3.331-3.333a1.14 1.14 0 111.614-1.612l1.592 1.591 5.343-6.175a1.142 1.142 0 011.729 1.494l-6.947 8.035z" fill="#E31E27"/><defs><linearGradient id="paint0_linear" x1="22" y1="-25.239" x2="29.715" y2="97.904" gradientUnits="userSpaceOnUse"><stop stop-color="#fff" stop-opacity="0"/><stop offset=".14" stop-color="#fff" stop-opacity=".22"/><stop offset=".3" stop-color="#fff" stop-opacity=".45"/><stop offset=".45" stop-color="#fff" stop-opacity=".65"/><stop offset=".6" stop-color="#fff" stop-opacity=".8"/><stop offset=".73" stop-color="#fff" stop-opacity=".91"/><stop offset=".85" stop-color="#fff" stop-opacity=".98"/><stop offset=".94" stop-color="#fff"/></linearGradient><linearGradient id="paint1_linear" x1="2830.41" y1="26611.6" x2="32213.1" y2="7097.87" gradientUnits="userSpaceOnUse"><stop stop-color="#010101" stop-opacity="0"/><stop offset=".95" stop-color="#010101"/></linearGradient><linearGradient id="paint2_linear" x1="4273.57" y1="431.265" x2="4272.88" y2="282.83" gradientUnits="userSpaceOnUse"><stop stop-color="#fff" stop-opacity="0"/><stop offset=".14" stop-color="#fff" stop-opacity=".22"/><stop offset=".3" stop-color="#fff" stop-opacity=".45"/><stop offset=".45" stop-color="#fff" stop-opacity=".65"/><stop offset=".6" stop-color="#fff" stop-opacity=".8"/><stop offset=".73" stop-color="#fff" stop-opacity=".91"/><stop offset=".85" stop-color="#fff" stop-opacity=".98"/><stop offset=".94" stop-color="#fff"/></linearGradient></defs></svg>