<svg width="117" height="114" fill="none" xmlns="http://www.w3.org/2000/svg"><path d="M98.205 38.922A10.453 10.453 0 0187.757 49.37H66.148a9.576 9.576 0 01-1.417-.102 14.34 14.34 0 01-1.708.102H32.59a14.724 14.724 0 110-29.444h5.996a19.204 19.204 0 0137.872-1.382h1.86a9.65 9.65 0 019.653 9.647v.286a10.443 10.443 0 0110.235 10.445z" fill="url(#paint0_linear)"/><path d="M95.854 36.572a10.453 10.453 0 01-10.447 10.447H63.8a9.603 9.603 0 01-1.417-.101c-.566.068-1.136.102-1.706.101H30.24a14.724 14.724 0 110-29.444h5.995a19.201 19.201 0 0137.872-1.381h1.862a9.65 9.65 0 019.651 9.644v.288a10.446 10.446 0 0110.235 10.445z" fill="#00458B"/><path d="M95.854 36.572a10.453 10.453 0 01-10.448 10.447H63.8a9.603 9.603 0 01-1.417-.101c-.566.068-1.136.102-1.706.101H31.12a14.723 14.723 0 017.344-27.485h5.997A19.206 19.206 0 0163.517 2.755h.236a19.224 19.224 0 0110.36 13.436h1.861a9.65 9.65 0 019.652 9.645v.288a10.445 10.445 0 0110.228 10.448z" fill="url(#paint1_linear)"/><path d="M12.308 86.975h-1.16V42.047a4.23 4.23 0 014.226-4.224h7.323v1.16h-7.323a3.071 3.071 0 00-3.07 3.071l.004 44.92zm95.057 0h-1.158V42.047a3.07 3.07 0 00-3.07-3.07h-7.323v-1.16h7.323a4.23 4.23 0 014.223 4.223l.005 44.935z" fill="#00458B"/><path d="M111.539 65.562H100.6a4.585 4.585 0 00-4.585 4.585v23.212a4.585 4.585 0 004.585 4.585h10.939a4.584 4.584 0 004.584-4.585V70.147a4.584 4.584 0 00-4.584-4.585z" fill="#00458B"/><path d="M114.746 70.095v20.46a2.942 2.942 0 01-2.943 2.944h-11.539a2.943 2.943 0 01-2.945-2.944v-20.46a2.948 2.948 0 012.945-2.948h11.539a2.944 2.944 0 012.943 2.948zm-6.11 24.76h-4.656a.979.979 0 100 1.958h4.656a.98.98 0 100-1.959z" fill="#fff"/><path d="M37.344 74.311H4.135a3.177 3.177 0 00-3.177 3.177v16.365a3.177 3.177 0 003.177 3.177h33.21a3.177 3.177 0 003.176-3.177V77.488a3.177 3.177 0 00-3.177-3.177z" fill="#00458B"/><path d="M36.371 75.424H5.201a2.908 2.908 0 00-2.908 2.907v14.551A2.908 2.908 0 005.2 95.79h31.171a2.908 2.908 0 002.908-2.908v-14.55a2.908 2.908 0 00-2.908-2.908z" fill="#fff"/><path d="M40.52 98.523a1.489 1.489 0 01-1.494 1.493H2.451a1.493 1.493 0 010-2.986h36.575a1.497 1.497 0 011.493 1.493z" fill="#00458B"/><path d="M40.238 97.654a1.491 1.491 0 01-1.212.624H2.451a1.49 1.49 0 01-1.214-.624 1.47 1.47 0 011.214-.624h36.575a1.484 1.484 0 011.212.624z" fill="url(#paint2_linear)"/><path d="M83.763 82.07H64.828c-.32 0-.803-.259-.803-.578 0-.319.484-.581.803-.581h18.934a4.166 4.166 0 004.165-4.162V59.58a2.974 2.974 0 00-2.972-2.972H71.61a3.666 3.666 0 01-3.66-3.66v-4.361a.582.582 0 111.159 0v4.36a2.504 2.504 0 002.501 2.502h13.346a4.136 4.136 0 014.132 4.131v17.168a5.329 5.329 0 01-5.325 5.322z" fill="#00458B"/><path opacity=".18" d="M111.879 74.094h-11.227a.784.784 0 100 1.566h11.227a.784.784 0 100-1.566zm0 3.089h-11.227a.784.784 0 100 1.567h11.227a.784.784 0 100-1.567zm0 3.09h-11.227a.784.784 0 100 1.566h11.227a.784.784 0 100-1.566zm0 3.09h-11.227a.784.784 0 100 1.566h11.227a.784.784 0 100-1.566zm-93.035-3.198H7.617a.784.784 0 100 1.566h11.227a.784.784 0 100-1.566zm0 3.089H7.617a.784.784 0 100 1.566h11.227a.784.784 0 100-1.566zm0 3.092H7.617a.784.784 0 100 1.566h11.227a.784.784 0 100-1.566zm0 3.09H7.617a.784.784 0 100 1.566h11.227a.784.784 0 100-1.566z" fill="#00458B"/><path opacity=".18" d="M38.143 76.028L2.293 88.805V78.334a2.91 2.91 0 012.91-2.91h31.166a2.884 2.884 0 011.774.604zm1.136 11.032v5.82a2.908 2.908 0 01-2.91 2.905H17.5l21.78-8.725z" fill="#00458B"/><path d="M80.229 65.824H60.05a2.577 2.577 0 00-2.577 2.577V93.28a2.577 2.577 0 002.577 2.577h20.18a2.577 2.577 0 002.577-2.577V68.401a2.577 2.577 0 00-2.577-2.577z" fill="#00458B"/><path d="M81.618 69.266V91.77a2.326 2.326 0 01-2.33 2.329H61.045a2.329 2.329 0 01-2.332-2.33V69.267a2.331 2.331 0 012.332-2.33H79.29a2.33 2.33 0 012.329 2.33z" fill="#fff"/><path opacity=".18" d="M61.825 77.576l3.31-1.481 4.004 3.394 4.09-5.395 4.092 5.745v3.97H61.986l-.16-6.233z" fill="#00458B"/><path d="M71.317 94.529h-1.862a.391.391 0 100 .781h1.862a.392.392 0 100-.781z" fill="url(#paint3_linear)"/><path d="M78.582 83.958H61.755v-11.17h.231v10.939h16.596v.231z" fill="#00458B"/><path d="M65.702 75.551h-1.34v8.258h1.34v-8.258zm8.355-2.026h-1.34v10.287h1.34V73.525zm-4.243 5.269h-1.34v5.015h1.34v-5.015zm8.008 0h-1.34v5.015h1.34v-5.015z" fill="#00458B"/><path opacity=".18" d="M81.618 69.266v2.048L58.705 83.807V69.266a2.331 2.331 0 012.331-2.33h18.245a2.328 2.328 0 012.337 2.33zm33.128 9.191v12.099a2.941 2.941 0 01-2.943 2.943h-11.539a2.943 2.943 0 01-2.945-2.944V87.99l17.42-10.688.007 1.155z" fill="#00458B"/><path d="M47.71 113.069l-.929.191V46.972h.928v66.097z" fill="#00458B"/><defs><linearGradient id="paint0_linear" x1="9820.75" y1="5025.41" x2="37208" y2="5025.41" gradientUnits="userSpaceOnUse"><stop stop-opacity="0"/><stop offset=".99"/></linearGradient><linearGradient id="paint1_linear" x1="20835.8" y1="-2039.14" x2="21528" y2="18454.6" gradientUnits="userSpaceOnUse"><stop stop-opacity="0"/><stop offset=".99"/></linearGradient><linearGradient id="paint2_linear" x1="20.739" y1="95.941" x2="20.739" y2="104.646" gradientUnits="userSpaceOnUse"><stop stop-opacity="0"/><stop offset=".41" stop-opacity=".41"/><stop offset=".99"/></linearGradient><linearGradient id="paint3_linear" x1="890.885" y1="401.518" x2="891.142" y2="417.558" gradientUnits="userSpaceOnUse"><stop stop-opacity="0"/><stop offset=".41" stop-opacity=".41"/><stop offset=".99"/></linearGradient></defs></svg>