<svg width="71" height="100" fill="none" xmlns="http://www.w3.org/2000/svg"><path d="M70.005 10.084v82.05A7.858 7.858 0 0162.149 100H10.33a7.858 7.858 0 01-7.855-7.866v-82.05a7.856 7.856 0 017.855-7.855h51.82a7.86 7.86 0 017.856 7.855z" fill="#00458B"/><path d="M63.023 9.226H8.184v82.177h54.839V9.226z" fill="url(#paint0_linear)"/><path d="M63.82 8.576v81.94H15.85s-6.648-1.398-7-12.603c-.351-11.205.352-69.337.352-69.337H63.82z" fill="#fff"/><path d="M19.922 90.438a1.02 1.02 0 00-.095.079h-3.976s-6.648-1.399-7-12.604c0 0 2.392 7.54 10.59 5.928 0 0-4.344 7.078.48 6.597z" fill="#fff"/><path d="M19.922 90.438a1.02 1.02 0 00-.095.079h-3.976s-6.648-1.399-7-12.604c0 0 2.392 7.54 10.59 5.928 0 0-4.344 7.078.48 6.597z" fill="url(#paint1_linear)"/><path d="M56.99 25.87H17.913a.723.723 0 000 1.446H56.99a.723.723 0 100-1.447zm0 4.342H17.913a.723.723 0 000 1.447H56.99a.723.723 0 000-1.447zm0 4.341H17.913a.723.723 0 000 1.446H56.99a.723.723 0 000-1.446zm0 4.342H17.913a.723.723 0 000 1.447H56.99a.723.723 0 100-1.447zm0 4.344H17.913a.723.723 0 000 1.446H56.99a.723.723 0 000-1.447z" fill="#E31E27"/><path d="M48.363 5.27v2.364a5.206 5.206 0 01-5.209 5.209H29.216A5.21 5.21 0 0124 7.633V5.27A5.214 5.214 0 0129.216.061h13.938a5.206 5.206 0 015.21 5.21z" fill="#00458B"/><path d="M24.038 5.209v2.366a5.207 5.207 0 005.209 5.222h1.047a5.206 5.206 0 01-5.21-5.222V5.21A5.208 5.208 0 0130.294 0h-1.047a5.207 5.207 0 00-5.21 5.209z" fill="url(#paint2_linear)"/><path d="M48.363 5.27v2.364a5.204 5.204 0 01-5.209 5.209H30.261a5.21 5.21 0 01-5.217-5.21V5.27A5.214 5.214 0 0130.26.061h12.893a5.206 5.206 0 015.21 5.21z" fill="url(#paint3_linear)"/><path d="M2.555 50.07c-.013.15-.004.3.025.446-.489-.326-1.044-1.388-1.528-2.664C.754 47.07 0 43.291 0 42.454c0-1.928 1.327-3.54 2.723-4.926-.313 2.672.252 8.439-.168 12.542z" fill="url(#paint4_linear)"/><defs><linearGradient id="paint0_linear" x1="14.651" y1="123.528" x2="58.555" y2="-29.891" gradientUnits="userSpaceOnUse"><stop stop-color="#010101" stop-opacity="0"/><stop offset=".47" stop-color="#010101" stop-opacity=".47"/><stop offset=".95" stop-color="#010101"/></linearGradient><linearGradient id="paint1_linear" x1="2442.94" y1="4429.77" x2="1202.29" y2="5775.88" gradientUnits="userSpaceOnUse"><stop stop-color="#010101" stop-opacity="0"/><stop offset=".95" stop-color="#010101"/></linearGradient><linearGradient id="paint2_linear" x1="1394.4" y1="728.281" x2="2023.28" y2="755.975" gradientUnits="userSpaceOnUse"><stop stop-color="#010101" stop-opacity="0"/><stop offset=".47" stop-color="#010101" stop-opacity=".47"/><stop offset=".95" stop-color="#010101"/></linearGradient><linearGradient id="paint3_linear" x1="37.533" y1="-6.798" x2="36.091" y2="16.246" gradientUnits="userSpaceOnUse"><stop stop-color="#fff" stop-opacity="0"/><stop offset=".95" stop-color="#fff"/></linearGradient><linearGradient id="paint4_linear" x1="356.106" y1="2598.39" x2="1099.78" y2="2666.6" gradientUnits="userSpaceOnUse"><stop stop-color="#010101" stop-opacity="0"/><stop offset=".95" stop-color="#010101"/></linearGradient></defs></svg>