<svg width="71" height="100" fill="none" xmlns="http://www.w3.org/2000/svg"><path d="M60.584 0H4.844A4.845 4.845 0 000 4.845v90.31A4.845 4.845 0 004.845 100h55.739a4.845 4.845 0 004.845-4.845V4.845A4.845 4.845 0 0060.584 0z" fill="#00458B"/><path d="M62.443 0H6.703A4.845 4.845 0 001.86 4.845v90.31A4.845 4.845 0 006.704 100h55.739a4.845 4.845 0 004.845-4.845V4.845A4.845 4.845 0 0062.443 0z" fill="#00458B"/><path d="M62.443 0H6.703A4.845 4.845 0 001.86 4.845v90.31A4.845 4.845 0 006.704 100h55.739a4.845 4.845 0 004.845-4.845V4.845A4.845 4.845 0 0062.443 0z" fill="url(#paint0_linear)"/><path d="M6.857 57.525L8.57 4.857l49.524 1.046s-6.476 54.669-1.904 68.779 5.333 19.403 5.333 19.403L8 95.601 6.857 57.525z" fill="url(#paint1_linear)"/><path d="M70.428 89.428l-54.141.573S10.72 57.661 9.753 46.82C8.804 36.375 8.586 4.857 8.586 4.857h51.7s.131 30.545 1.047 40.665c1.012 11.166 9.095 43.906 9.095 43.906z" fill="#fff"/><path d="M40.002 15.523H14.48a.857.857 0 100 1.713h25.521a.857.857 0 100-1.713zm0 2.953H14.48a.857.857 0 100 1.713h25.521a.857.857 0 100-1.713zm0 2.953H14.48a.857.857 0 100 1.713h25.521a.857.857 0 100-1.713zm.154 2.952H23.238a.703.703 0 00-.703.704v.306c0 .389.315.703.703.703h16.918a.703.703 0 00.703-.703v-.306a.703.703 0 00-.703-.704zm.13 9.857H14.765a.857.857 0 100 1.713h25.521a.857.857 0 100-1.713zm0 2.952H14.765a.857.857 0 100 1.714h25.521a.857.857 0 100-1.713zm0 2.95H14.765a.857.857 0 100 1.714h25.521a.857.857 0 100-1.713zm.155 2.954H23.524a.703.703 0 00-.704.703v.306c0 .389.315.703.704.703H40.44a.703.703 0 00.703-.703v-.306a.703.703 0 00-.703-.703zm1.789 10.714H16.705a1.012 1.012 0 01-.97-.858.73.73 0 01.743-.855h25.521a1.01 1.01 0 01.973.855.734.734 0 01-.742.858zm.394 2.947H17.099a1.013 1.013 0 01-.979-.87.734.734 0 01.743-.855h25.524a1.013 1.013 0 01.97.855.733.733 0 01-.733.87zm.394 2.947H17.494a1.012 1.012 0 01-.97-.855.734.734 0 01.742-.858H42.8a1.012 1.012 0 01.97.858.734.734 0 01-.752.855zm.549 2.946H26.649a.83.83 0 01-.797-.7l-.042-.303a.605.605 0 01.606-.703h16.92a.831.831 0 01.798.703l.039.303a.606.606 0 01-.606.7zm1.761 9.912H19.803a1.092 1.092 0 01-1.021-.868.698.698 0 01.694-.867h25.525a1.092 1.092 0 011.021.867.694.694 0 01-.694.867zm.567 2.977h-25.53a1.091 1.091 0 01-1.022-.87.695.695 0 01.691-.868h25.525a1.088 1.088 0 011.021.867.694.694 0 01-.685.87zm.564 2.989H20.934a1.092 1.092 0 01-1.021-.867.698.698 0 01.694-.855h25.527a1.094 1.094 0 011.022.87.697.697 0 01-.697.852zm.719 2.989H30.26a.91.91 0 01-.84-.712l-.057-.303a.567.567 0 01.57-.71H46.85a.91.91 0 01.837.71l.06.303a.57.57 0 01-.57.712zm5.724-53.438h-5.088a3.68 3.68 0 01-3.677-3.677v-5.503a3.68 3.68 0 013.677-3.677h5.088a3.68 3.68 0 013.677 3.677v5.515a3.68 3.68 0 01-3.677 3.665zM47.814 16.22a2.668 2.668 0 00-2.665 2.665V24.4a2.668 2.668 0 002.665 2.665h5.088a2.665 2.665 0 002.661-2.665v-5.503a2.665 2.665 0 00-2.661-2.665l-5.088-.012zm6.425 30.79h-5.073a3.675 3.675 0 01-3.674-3.51l-.243-5.403a3.678 3.678 0 013.675-3.844h5.078a3.67 3.67 0 013.653 3.514l.246 5.4a3.678 3.678 0 01-3.675 3.844h.013zm-5.324-11.74a2.661 2.661 0 00-2.662 2.783l.245 5.402a2.656 2.656 0 002.66 2.541h5.08a2.662 2.662 0 002.663-2.783l-.246-5.4a2.662 2.662 0 00-2.662-2.543h-5.078zm1.858 29.252a3.672 3.672 0 01-3.662-3.383l-.434-5.388a3.682 3.682 0 013.538-3.971l5.078-.176a3.708 3.708 0 013.796 3.371l.434 5.388a3.685 3.685 0 01-3.538 3.971l-5.078.176-.134.012zm4.654-11.906h-.097l-5.078.176a2.67 2.67 0 00-2.562 2.877l.433 5.388a2.673 2.673 0 002.747 2.45l5.078-.18a2.663 2.663 0 002.562-2.873l-.433-5.388a2.656 2.656 0 00-2.65-2.45zm-.667 29.76a3.687 3.687 0 01-3.638-3.09l-.85-5.25a3.677 3.677 0 013.503-4.266l5.032-.176a3.717 3.717 0 013.76 3.09l.849 5.25a3.682 3.682 0 01-3.502 4.266l-5.036.173-.118.003zm4.184-11.769h-.094l-5.033.176a2.666 2.666 0 00-2.529 3.09l.852 5.25a2.699 2.699 0 002.729 2.238l5.033-.176a2.658 2.658 0 002.534-3.087l-.849-5.254a2.668 2.668 0 00-2.643-2.237z" fill="#00458B"/><path d="M47.768 2.856H23.09c-.997 0-1.804.808-1.804 1.804v2.82c0 .996.807 1.803 1.804 1.803h24.678c.996 0 1.804-.807 1.804-1.804V4.66c0-.995-.808-1.803-1.804-1.803z" fill="#68E1FD"/><path d="M47.768 2.856H23.09c-.997 0-1.804.808-1.804 1.804v2.82c0 .996.807 1.803 1.804 1.803h24.678c.996 0 1.804-.807 1.804-1.804V4.66c0-.995-.808-1.803-1.804-1.803z" fill="url(#paint2_linear)"/><path d="M50.558 25.758l-4.445-4.435a1.523 1.523 0 012.153-2.153l2.122 2.122 7.122-8.237a1.523 1.523 0 012.304 1.992l-9.256 10.71zm2.095 18.476l-4.442-4.442a1.522 1.522 0 012.153-2.153l2.122 2.123 7.121-8.238a1.523 1.523 0 112.304 1.992l-9.258 10.718zm1.525 17.617l-4.445-4.45a1.522 1.522 0 012.153-2.153l2.122 2.122 7.122-8.237a1.52 1.52 0 012.301 1.989l-9.253 10.73zm3.947 17.715l-4.441-4.445a1.521 1.521 0 012.152-2.15l2.122 2.123 7.125-8.234a1.523 1.523 0 112.304 1.992l-9.262 10.714z" fill="#E31E27"/><defs><linearGradient id="paint0_linear" x1="29.333" y1="-33.653" x2="39.62" y2="130.539" gradientUnits="userSpaceOnUse"><stop stop-color="#fff" stop-opacity="0"/><stop offset=".14" stop-color="#fff" stop-opacity=".22"/><stop offset=".3" stop-color="#fff" stop-opacity=".45"/><stop offset=".45" stop-color="#fff" stop-opacity=".65"/><stop offset=".6" stop-color="#fff" stop-opacity=".8"/><stop offset=".73" stop-color="#fff" stop-opacity=".91"/><stop offset=".85" stop-color="#fff" stop-opacity=".98"/><stop offset=".94" stop-color="#fff"/></linearGradient><linearGradient id="paint1_linear" x1="3773.88" y1="35482.1" x2="42950.8" y2="9463.83" gradientUnits="userSpaceOnUse"><stop stop-color="#010101" stop-opacity="0"/><stop offset=".95" stop-color="#010101"/></linearGradient><linearGradient id="paint2_linear" x1="5698.09" y1="575.019" x2="5697.17" y2="377.107" gradientUnits="userSpaceOnUse"><stop stop-color="#fff" stop-opacity="0"/><stop offset=".14" stop-color="#fff" stop-opacity=".22"/><stop offset=".3" stop-color="#fff" stop-opacity=".45"/><stop offset=".45" stop-color="#fff" stop-opacity=".65"/><stop offset=".6" stop-color="#fff" stop-opacity=".8"/><stop offset=".73" stop-color="#fff" stop-opacity=".91"/><stop offset=".85" stop-color="#fff" stop-opacity=".98"/><stop offset=".94" stop-color="#fff"/></linearGradient></defs></svg>