<svg width="518" height="509" viewBox="0 0 518 509" fill="none" xmlns="http://www.w3.org/2000/svg">
<g filter="url(#filter0_d)">
<rect x="277.95" y="252.5" width="228.653" height="203.75" rx="10" fill="white"/>
</g>
<path d="M390.89 384.323C390.965 384.524 390.974 384.744 390.916 384.952C390.869 385.065 390.801 385.168 390.716 385.257C389.923 386.153 388.739 386.582 387.61 386.974C387.216 387.121 386.812 387.238 386.4 387.324C385.961 387.391 385.515 387.418 385.071 387.403C383.612 387.393 382.155 387.301 380.706 387.126C381.021 386.325 381.53 385.614 382.189 385.06C382.848 384.506 383.634 384.125 384.478 383.953C385.276 383.796 386.098 383.835 386.906 383.755C386.962 383.758 387.018 383.748 387.069 383.724C387.12 383.701 387.164 383.666 387.199 383.622C387.23 383.539 387.23 383.448 387.199 383.365L386.875 382.158C386.836 382.057 386.829 381.945 386.857 381.84C386.911 381.691 387.083 381.624 387.235 381.583C387.782 381.424 388.144 379.82 388.729 379.786C389.314 379.753 390.128 381.668 390.231 382.276C390.354 383.026 390.806 384.007 390.89 384.323Z" fill="#00458B"/>
<path d="M390.89 384.323C390.965 384.524 390.974 384.744 390.916 384.952C390.869 385.065 390.801 385.168 390.716 385.257C389.923 386.153 388.739 386.582 387.61 386.974C387.216 387.121 386.812 387.238 386.4 387.324C385.961 387.391 385.515 387.418 385.071 387.403C383.612 387.393 382.155 387.301 380.706 387.126C381.021 386.325 381.53 385.614 382.189 385.06C382.848 384.506 383.634 384.125 384.478 383.953C385.276 383.796 386.098 383.835 386.906 383.755C386.962 383.758 387.018 383.748 387.069 383.724C387.12 383.701 387.164 383.666 387.199 383.622C387.23 383.539 387.23 383.448 387.199 383.365L386.875 382.158C386.836 382.057 386.829 381.945 386.857 381.84C386.911 381.691 387.083 381.624 387.235 381.583C387.782 381.424 388.144 379.82 388.729 379.786C389.314 379.753 390.128 381.668 390.231 382.276C390.354 383.026 390.806 384.007 390.89 384.323Z" fill="url(#paint0_linear)"/>
<path d="M407.105 385.762C408.625 387.218 410.933 387.518 413.01 387.28C413.361 387.239 413.762 387.154 413.937 386.846C414.111 386.538 413.98 386.15 413.793 385.85C413.351 385.151 412.635 384.674 411.914 384.268C410.848 383.672 409.723 383.191 408.556 382.833C408.309 382.775 408.076 382.671 407.868 382.528C407.413 382.168 407.37 381.501 407.01 381.039C406.859 380.846 405.146 380.387 404.98 380.525C404.466 380.921 405.08 382.168 405.303 382.754C405.732 383.84 406.245 384.938 407.105 385.762Z" fill="#00458B"/>
<path d="M407.105 385.762C408.625 387.218 410.933 387.518 413.01 387.28C413.361 387.239 413.762 387.154 413.937 386.846C414.111 386.538 413.98 386.15 413.793 385.85C413.351 385.151 412.635 384.674 411.914 384.268C410.848 383.672 409.723 383.191 408.556 382.833C408.309 382.775 408.076 382.671 407.868 382.528C407.413 382.168 407.37 381.501 407.01 381.039C406.859 380.846 405.146 380.387 404.98 380.525C404.466 380.921 405.08 382.168 405.303 382.754C405.732 383.84 406.245 384.938 407.105 385.762Z" fill="url(#paint1_linear)"/>
<path d="M443.739 336.834H431.134V388.188H443.739V336.834Z" fill="#00458B"/>
<path d="M351.533 336.834H338.928V388.188H351.533V336.834Z" fill="#00458B"/>
<path d="M351.533 336.834H338.928V351.175H351.533V336.834Z" fill="url(#paint2_linear)"/>
<path d="M443.706 336.834H431.101V351.175H443.706V336.834Z" fill="url(#paint3_linear)"/>
<path d="M446.542 332.632H334.261V337.766H446.542V332.632Z" fill="#00458B"/>
<path d="M390.983 344.769C390.983 344.769 373.942 352.24 373.241 353.523C372.54 354.807 372.774 358.075 373.826 359.477C374.879 360.878 386.431 382.004 386.431 382.004L390.282 380.951L382.696 358.075C382.696 358.075 403.706 356.91 405.223 355.392C406.741 353.875 408.841 349.323 408.841 349.323L397.868 339.401L390.983 344.769Z" fill="#00458B"/>
<path d="M390.983 344.769C390.983 344.769 373.942 352.24 373.241 353.523C372.54 354.807 372.774 358.075 373.826 359.477C374.879 360.878 386.431 382.004 386.431 382.004L390.282 380.951L382.696 358.075C382.696 358.075 403.706 356.91 405.223 355.392C406.741 353.875 408.841 349.323 408.841 349.323L397.868 339.401L390.983 344.769Z" fill="url(#paint4_linear)"/>
<path d="M400.769 290.381H351.32C349.827 290.381 348.616 291.591 348.616 293.084V322.224C348.616 323.717 349.827 324.927 351.32 324.927H400.769C402.262 324.927 403.472 323.717 403.472 322.224V293.084C403.472 291.591 402.262 290.381 400.769 290.381Z" fill="#00458B"/>
<path d="M399.16 291.826H352.791C351.416 291.826 350.301 292.941 350.301 294.316V320.671C350.301 322.047 351.416 323.161 352.791 323.161H399.16C400.535 323.161 401.65 322.047 401.65 320.671V294.316C401.65 292.941 400.535 291.826 399.16 291.826Z" fill="url(#paint5_linear)"/>
<path d="M399.16 291.826H352.791C351.416 291.826 350.301 292.941 350.301 294.316V320.671C350.301 322.047 351.416 323.161 352.791 323.161H399.16C400.535 323.161 401.65 322.047 401.65 320.671V294.316C401.65 292.941 400.535 291.826 399.16 291.826Z" fill="url(#paint6_linear)"/>
<path d="M394.746 305.016C393.463 307.327 391.666 309.309 390.472 311.665C389.607 313.388 389.093 315.259 388.313 317.026C387.533 318.792 386.416 320.502 384.719 321.431C384.028 321.811 383.204 322.104 382.847 322.804C386.462 323.371 390.118 323.629 393.776 323.575C394.01 323.588 394.244 323.55 394.461 323.464C394.716 323.31 394.926 323.092 395.072 322.833C397.558 319.275 401.668 316.715 402.872 312.546C403.429 310.628 403.285 308.585 403.128 306.593C402.938 303.987 402.746 301.376 402.358 298.788C402.071 296.835 401.863 294.712 399.791 293.882C398.597 293.402 396.923 293.369 395.802 294.072C394.248 295.03 394.998 296.126 395.591 297.458C396.746 299.941 396.022 302.739 394.746 305.016Z" fill="url(#paint7_linear)"/>
<path d="M401.994 304.467C402.068 304.455 402.144 304.468 402.209 304.506C402.252 304.551 402.279 304.609 402.286 304.67C402.338 305.056 402.364 305.446 402.364 305.835C402.367 306.228 402.503 306.607 402.751 306.911C403.136 307.319 403.76 307.358 404.32 307.373C404.438 307.382 404.556 307.372 404.671 307.345C404.825 307.276 404.971 307.19 405.105 307.088C405.503 306.86 406.006 306.898 406.415 306.69C406.572 306.606 406.714 306.495 406.836 306.364C407.644 305.517 407.719 304.19 407.447 303.048C407.174 301.905 406.623 300.85 406.325 299.71C406.068 298.706 405.996 297.613 405.418 296.75C405.365 296.648 405.288 296.561 405.194 296.496C405.099 296.431 404.991 296.389 404.877 296.375C404.015 296.222 403.138 296.169 402.263 296.219C401.56 296.219 400.826 296.257 400.21 296.594C399.814 296.807 398.71 295.123 398.433 295.474C398.238 295.731 398.703 301.022 398.767 301.43C399.314 304.883 401.026 304.516 401.994 304.467Z" fill="url(#paint8_linear)"/>
<path d="M393.958 314.425C393.958 314.425 395.827 307.771 399.737 306.546C403.647 305.322 409.541 304.97 410.884 305.319C412.227 305.668 416.077 307.83 416.486 314.017C416.894 320.204 417.243 323.295 417.243 323.295L416.193 349.323C416.193 349.323 401.837 351.657 397.986 349.906L396.585 343.488L395.186 348.507L390.983 344.772L393.317 336.952C393.317 336.952 392.967 318.276 393.958 314.425Z" fill="#00458B"/>
<path d="M393.958 314.425C393.958 314.425 395.827 307.771 399.737 306.546C403.647 305.322 409.541 304.97 410.884 305.319C412.227 305.668 416.077 307.83 416.486 314.017C416.894 320.204 417.243 323.295 417.243 323.295L416.193 349.323C416.193 349.323 401.837 351.657 397.986 349.906L396.585 343.488L395.186 348.507L390.983 344.772L393.317 336.952C393.317 336.952 392.967 318.276 393.958 314.425Z" fill="url(#paint9_linear)"/>
<path opacity="0.48" d="M408.989 323.367C408.042 324.933 407.608 326.745 407.192 328.522L404.463 340.054C403.896 342.456 403.316 344.895 402.137 347.065C400.959 349.234 399.09 351.149 396.715 351.827C394.954 352.34 393.075 352.127 391.255 352.327C389.428 352.543 387.672 353.162 386.114 354.139C384.555 355.115 383.233 356.426 382.241 357.975C389.753 358.075 397.263 357.655 404.717 356.717C405.819 356.579 406.959 356.414 407.898 355.821C408.999 355.123 409.677 353.927 410.209 352.741C411.366 350.204 412.111 347.501 412.776 344.782C413.854 340.325 414.704 335.815 415.322 331.271C415.887 327.13 417.04 321.95 416.331 317.834C413.618 318.445 410.432 320.995 408.989 323.367Z" fill="url(#paint10_linear)"/>
<path d="M386.3 331.875L393.026 331.816L393.201 328.722L386.3 331.875Z" stroke="#3CB6D5" stroke-width="1.28" stroke-miterlimit="10"/>
<path d="M390.518 357.96L404.523 381.537L407.557 380.836L400.554 357.143L390.518 357.96Z" fill="#00458B"/>
<path d="M390.518 357.96L404.523 381.537L407.557 380.836L400.554 357.143L390.518 357.96Z" fill="url(#paint11_linear)"/>
<path d="M434.287 332.517C433.701 334.855 428.677 354.338 428.677 354.338C428.677 354.338 427.394 359.708 423.43 359.708C421.302 359.708 410.882 359.524 401.678 359.349C393.72 359.2 386.668 359.061 386.668 359.061C386.668 359.061 385.736 355.619 388.647 355.38C391.558 355.141 399.85 355.38 399.85 355.38C399.85 355.38 403.942 355.157 405.573 351.067C406.915 347.73 409.973 334.178 411.043 329.403C411.327 328.099 411.906 326.879 412.735 325.834C414.576 323.483 418.231 319.752 423.081 319.442C428.118 319.105 431.352 320.995 433.019 322.674C433.553 323.179 433.983 323.783 434.287 324.453C434.869 325.975 434.869 330.178 434.287 332.517Z" fill="#00458B"/>
<path d="M433.018 322.679C433.018 322.828 433.018 322.966 433.006 323.115C433.006 323.115 423.194 319.621 415.844 330.65L409.015 354.628C409.015 354.628 407.66 359.179 401.678 359.354C393.72 359.205 386.668 359.066 386.668 359.066C386.668 359.066 385.736 355.624 388.647 355.385C391.558 355.146 399.85 355.385 399.85 355.385C399.85 355.385 403.942 355.162 405.573 351.072C406.915 347.735 409.973 334.182 411.043 329.407C411.327 328.104 411.906 326.884 412.735 325.839C414.576 323.487 418.231 319.757 423.081 319.447C428.118 319.11 431.352 321 433.018 322.679Z" fill="url(#paint12_linear)"/>
<path d="M407.439 359.428H405.573V388.307H407.439V359.428Z" fill="#00458B"/>
<path d="M407.439 359.428H405.573V388.307H407.439V359.428Z" fill="url(#paint13_linear)"/>
<path d="M413.726 386.025H400.279C399.641 386.025 399.124 386.542 399.124 387.18C399.124 387.818 399.641 388.335 400.279 388.335H413.726C414.364 388.335 414.881 387.818 414.881 387.18C414.881 386.542 414.364 386.025 413.726 386.025Z" fill="#00458B"/>
<path d="M413.726 386.025H400.279C399.641 386.025 399.124 386.542 399.124 387.18C399.124 387.818 399.641 388.335 400.279 388.335H413.726C414.364 388.335 414.881 387.818 414.881 387.18C414.881 386.542 414.364 386.025 413.726 386.025Z" fill="url(#paint14_linear)"/>
<path d="M385.266 324.912H369.334V331.507H385.266V324.912Z" fill="#00458B"/>
<path d="M385.266 324.912H369.334V331.507H385.266V324.912Z" fill="url(#paint15_linear)"/>
<path d="M391.309 329.813H362.13V332.614H391.309V329.813Z" fill="#00458B"/>
<path d="M391.769 330.018H362.59V332.213H391.769V330.018Z" fill="url(#paint16_linear)"/>
<path d="M401.506 291.038C401.023 291.397 400.605 291.841 400.097 292.162C399.397 292.578 398.599 292.798 397.786 292.799C397.234 292.817 396.559 292.824 396.295 293.312C396.076 293.71 396.295 294.213 396.572 294.568C396.833 294.889 397.154 295.158 397.517 295.358C397.702 295.444 397.875 295.554 398.03 295.687C398.346 296.008 398.348 296.516 398.543 296.922C398.821 297.492 399.452 297.795 399.858 298.282C400.656 299.24 400.461 300.719 401.141 301.756C401.553 302.311 402.121 302.731 402.772 302.962C403.646 303.342 404.608 303.474 405.552 303.342C406.495 303.208 407.347 302.707 407.924 301.948C408.409 301.273 408.604 300.436 408.743 299.617C409.018 298.003 409.113 296.326 408.707 294.74C407.906 291.62 404.605 288.735 401.506 291.038Z" fill="#3F3D56"/>
<path d="M401.506 291.038C401.023 291.397 400.605 291.841 400.097 292.162C399.397 292.578 398.599 292.798 397.786 292.799C397.234 292.817 396.559 292.824 396.295 293.312C396.076 293.71 396.295 294.213 396.572 294.568C396.833 294.889 397.154 295.158 397.517 295.358C397.702 295.444 397.875 295.554 398.03 295.687C398.346 296.008 398.348 296.516 398.543 296.922C398.821 297.492 399.452 297.795 399.858 298.282C400.656 299.24 400.461 300.719 401.141 301.756C401.553 302.311 402.121 302.731 402.772 302.962C403.646 303.342 404.608 303.474 405.552 303.342C406.495 303.208 407.347 302.707 407.924 301.948C408.409 301.273 408.604 300.436 408.743 299.617C409.018 298.003 409.113 296.326 408.707 294.74C407.906 291.62 404.605 288.735 401.506 291.038Z" fill="url(#paint17_linear)"/>
<path d="M402.323 309.07C402.661 309.542 402.893 310.083 403.002 310.654C403.111 311.224 403.095 311.812 402.954 312.376C402.281 315.295 400.42 322.222 397.286 325.212C393.258 329.063 387.132 333.091 374.438 332.742L374.615 329.24C374.615 329.24 388.357 328.013 389.581 323.461C390.806 318.91 395.622 309.106 397.373 308.143C398.749 307.393 400.939 307.232 402.323 309.07Z" fill="#00458B"/>
<path d="M402.323 309.07C402.661 309.542 402.893 310.083 403.002 310.654C403.111 311.224 403.095 311.812 402.954 312.376C402.281 315.295 400.42 322.222 397.286 325.212C393.258 329.063 387.132 333.091 374.438 332.742L374.615 329.24C374.615 329.24 388.357 328.013 389.581 323.461C390.806 318.91 395.622 309.106 397.373 308.143C398.749 307.393 400.939 307.232 402.323 309.07Z" fill="url(#paint18_linear)"/>
<path d="M371.744 329.06C370.705 328.861 369.631 328.942 368.633 329.295C367.635 329.648 366.749 330.26 366.066 331.068L369.108 331.366C369.305 331.368 369.499 331.421 369.67 331.52C369.801 331.642 369.925 331.77 370.042 331.905C370.305 332.088 370.621 332.178 370.941 332.162C371.893 332.205 372.848 332.208 373.801 332.162C373.919 332.169 374.036 332.138 374.134 332.072C374.21 331.995 374.259 331.898 374.276 331.792C374.401 331.304 374.679 329.938 374.206 329.597C373.986 329.44 373.308 329.461 373.023 329.386C372.597 329.289 372.178 329.148 371.744 329.06Z" fill="url(#paint19_linear)"/>
<path opacity="0.18" d="M438.771 288.357V300.282C438.771 300.914 438.519 301.52 438.072 301.967C437.625 302.413 437.018 302.664 436.386 302.664H427.637L423.925 308.202V302.664H417.882C417.569 302.665 417.259 302.603 416.969 302.484C416.68 302.364 416.417 302.189 416.196 301.967C415.974 301.746 415.798 301.483 415.679 301.194C415.559 300.905 415.497 300.595 415.497 300.282V288.357C415.497 288.044 415.559 287.734 415.679 287.445C415.798 287.156 415.974 286.893 416.196 286.672C416.417 286.45 416.68 286.275 416.969 286.155C417.259 286.036 417.569 285.974 417.882 285.975H436.386C437.018 285.975 437.625 286.226 438.072 286.672C438.519 287.119 438.771 287.725 438.771 288.357V288.357Z" fill="#00458B"/>
<path d="M437.85 287.744V299.669C437.85 299.982 437.788 300.292 437.668 300.581C437.548 300.87 437.373 301.133 437.151 301.354C436.93 301.576 436.667 301.751 436.377 301.871C436.088 301.99 435.778 302.051 435.465 302.051H426.718L423.004 307.589V302.059H416.963C416.65 302.059 416.34 301.998 416.05 301.878C415.761 301.759 415.498 301.583 415.276 301.362C415.054 301.141 414.878 300.878 414.758 300.589C414.638 300.3 414.576 299.99 414.575 299.676V287.744C414.576 287.431 414.638 287.121 414.758 286.832C414.878 286.542 415.054 286.28 415.276 286.058C415.498 285.837 415.761 285.662 416.05 285.542C416.34 285.423 416.65 285.361 416.963 285.362H435.465C435.778 285.361 436.088 285.423 436.377 285.542C436.667 285.662 436.93 285.837 437.151 286.059C437.373 286.28 437.548 286.543 437.668 286.832C437.788 287.121 437.85 287.431 437.85 287.744V287.744Z" fill="white"/>
<path d="M355.802 293.898H353.636V320.7H355.802V293.898Z" fill="url(#paint20_linear)"/>
<path d="M421.376 293.897L425.129 291.964V292.524L421.967 294.1V294.118L425.129 295.702V296.262L421.376 294.329V293.897Z" fill="#00458B"/>
<path d="M425.653 296.593L427.91 290.727H428.459L426.195 296.593H425.653Z" fill="#00458B"/>
<path d="M432.721 294.357L428.97 296.282V295.71L432.156 294.126V294.1L428.97 292.516V291.964L432.721 293.89V294.357Z" fill="#00458B"/>
<path d="M366.897 298.162H359.933V298.673H366.897V298.162Z" fill="url(#paint21_linear)"/>
<path d="M364.184 299.15H359.933V299.63H364.184V299.15Z" fill="url(#paint22_linear)"/>
<path d="M379.277 299.15H365.899V299.633H379.277V299.15Z" fill="url(#paint23_linear)"/>
<path d="M388.056 299.15H380.527V299.633H388.056V299.15Z" fill="url(#paint24_linear)"/>
<path d="M367.989 300.141H362.143V300.647H367.989V300.141Z" fill="url(#paint25_linear)"/>
<path d="M370.985 301.129H364.02V301.64H370.985V301.129Z" fill="url(#paint26_linear)"/>
<path d="M377.277 301.129H371.439V301.697H377.277V301.129Z" fill="url(#paint27_linear)"/>
<path d="M369.388 302.118H364.01V302.598H369.388V302.118Z" fill="url(#paint28_linear)"/>
<path d="M390.3 302.118H384.922V302.598H390.3V302.118Z" fill="url(#paint29_linear)"/>
<path d="M381.002 302.118H369.904V302.649H381.002V302.118Z" fill="url(#paint30_linear)"/>
<path d="M384.503 302.118H382.057V302.66H384.503V302.118Z" fill="url(#paint31_linear)"/>
<path d="M366.897 303.455H359.933V303.966H366.897V303.455Z" fill="url(#paint32_linear)"/>
<path d="M364.184 304.444H359.933V304.924H364.184V304.444Z" fill="url(#paint33_linear)"/>
<path d="M379.277 304.444H365.899V304.926H379.277V304.444Z" fill="url(#paint34_linear)"/>
<path d="M388.056 304.444H380.527V304.926H388.056V304.444Z" fill="url(#paint35_linear)"/>
<path d="M367.989 305.432H362.143V305.938H367.989V305.432Z" fill="url(#paint36_linear)"/>
<path d="M370.985 306.423H364.02V306.934H370.985V306.423Z" fill="url(#paint37_linear)"/>
<path d="M377.277 306.423H371.439V306.99H377.277V306.423Z" fill="url(#paint38_linear)"/>
<path d="M369.388 307.411H364.01V307.891H369.388V307.411Z" fill="url(#paint39_linear)"/>
<path d="M390.3 307.411H384.922V307.891H390.3V307.411Z" fill="url(#paint40_linear)"/>
<path d="M381.002 307.411H369.904V307.943H381.002V307.411Z" fill="url(#paint41_linear)"/>
<path d="M384.503 307.411H382.057V307.953H384.503V307.411Z" fill="url(#paint42_linear)"/>
<path d="M366.897 308.749H359.933V309.26H366.897V308.749Z" fill="url(#paint43_linear)"/>
<path d="M364.184 309.737H359.933V310.218H364.184V309.737Z" fill="url(#paint44_linear)"/>
<path d="M379.277 309.737H365.899V310.22H379.277V309.737Z" fill="url(#paint45_linear)"/>
<path d="M388.056 309.737H380.527V310.22H388.056V309.737Z" fill="url(#paint46_linear)"/>
<path d="M367.989 310.726H362.143V311.231H367.989V310.726Z" fill="url(#paint47_linear)"/>
<path d="M370.985 311.714H364.02V312.225H370.985V311.714Z" fill="url(#paint48_linear)"/>
<path d="M377.277 311.714H371.439V312.281H377.277V311.714Z" fill="url(#paint49_linear)"/>
<path d="M369.388 312.705H364.01V313.185H369.388V312.705Z" fill="url(#paint50_linear)"/>
<path d="M390.3 312.705H384.922V313.185H390.3V312.705Z" fill="url(#paint51_linear)"/>
<path d="M381.002 312.705H369.904V313.236H381.002V312.705Z" fill="url(#paint52_linear)"/>
<path d="M384.503 312.705H382.057V313.246H384.503V312.705Z" fill="url(#paint53_linear)"/>
<path d="M336.398 420.733C336.298 421.795 335.906 422.625 335.223 423.222C334.539 423.814 333.63 424.11 332.495 424.11C331.702 424.11 331.003 423.923 330.397 423.55C329.795 423.171 329.33 422.636 329.002 421.943C328.674 421.251 328.503 420.446 328.489 419.53V418.601C328.489 417.662 328.656 416.835 328.988 416.119C329.321 415.404 329.797 414.852 330.417 414.465C331.041 414.077 331.761 413.884 332.577 413.884C333.675 413.884 334.56 414.182 335.23 414.779C335.899 415.376 336.289 416.219 336.398 417.309H334.676C334.594 416.593 334.384 416.078 334.047 415.764C333.714 415.445 333.224 415.285 332.577 415.285C331.825 415.285 331.246 415.561 330.841 416.112C330.44 416.659 330.235 417.463 330.226 418.525V419.407C330.226 420.483 330.417 421.303 330.8 421.868C331.187 422.433 331.752 422.716 332.495 422.716C333.174 422.716 333.685 422.563 334.026 422.258C334.368 421.952 334.585 421.444 334.676 420.733H336.398ZM337.479 420.207C337.479 419.482 337.622 418.831 337.909 418.252C338.196 417.669 338.6 417.222 339.119 416.912C339.639 416.598 340.236 416.44 340.91 416.44C341.908 416.44 342.717 416.762 343.337 417.404C343.961 418.047 344.299 418.899 344.349 419.961L344.355 420.351C344.355 421.08 344.214 421.731 343.932 422.306C343.654 422.88 343.253 423.324 342.729 423.639C342.209 423.953 341.607 424.11 340.924 424.11C339.88 424.11 339.044 423.764 338.415 423.071C337.791 422.374 337.479 421.447 337.479 420.289V420.207ZM339.14 420.351C339.14 421.112 339.297 421.709 339.611 422.142C339.926 422.57 340.363 422.784 340.924 422.784C341.484 422.784 341.92 422.565 342.23 422.128C342.544 421.69 342.701 421.05 342.701 420.207C342.701 419.46 342.539 418.867 342.216 418.43C341.897 417.992 341.462 417.773 340.91 417.773C340.368 417.773 339.937 417.99 339.618 418.423C339.299 418.851 339.14 419.494 339.14 420.351ZM352.032 423.974H350.371V417.917H347.486V423.974H345.825V416.577H352.032V423.974ZM360.276 420.351C360.276 421.494 360.017 422.408 359.497 423.092C358.978 423.771 358.28 424.11 357.405 424.11C356.594 424.11 355.945 423.844 355.457 423.31V426.817H353.796V416.577H355.327L355.396 417.329C355.883 416.737 356.546 416.44 357.385 416.44C358.287 416.44 358.994 416.778 359.504 417.452C360.019 418.122 360.276 419.054 360.276 420.248V420.351ZM358.622 420.207C358.622 419.469 358.474 418.883 358.178 418.45C357.886 418.017 357.467 417.801 356.92 417.801C356.241 417.801 355.753 418.081 355.457 418.642V421.923C355.758 422.497 356.25 422.784 356.934 422.784C357.462 422.784 357.875 422.572 358.171 422.148C358.472 421.72 358.622 421.073 358.622 420.207ZM361.377 420.207C361.377 419.482 361.521 418.831 361.808 418.252C362.095 417.669 362.498 417.222 363.018 416.912C363.537 416.598 364.134 416.44 364.809 416.44C365.807 416.44 366.616 416.762 367.235 417.404C367.86 418.047 368.197 418.899 368.247 419.961L368.254 420.351C368.254 421.08 368.113 421.731 367.83 422.306C367.552 422.88 367.151 423.324 366.627 423.639C366.107 423.953 365.506 424.11 364.822 424.11C363.779 424.11 362.942 423.764 362.313 423.071C361.689 422.374 361.377 421.447 361.377 420.289V420.207ZM363.038 420.351C363.038 421.112 363.195 421.709 363.51 422.142C363.824 422.57 364.262 422.784 364.822 422.784C365.383 422.784 365.818 422.565 366.128 422.128C366.442 421.69 366.6 421.05 366.6 420.207C366.6 419.46 366.438 418.867 366.114 418.43C365.795 417.992 365.36 417.773 364.809 417.773C364.266 417.773 363.836 417.99 363.517 418.423C363.198 418.851 363.038 419.494 363.038 420.351ZM369.785 423.974V416.577H372.786C373.798 416.577 374.568 416.755 375.097 417.11C375.625 417.461 375.89 417.967 375.89 418.628C375.89 418.97 375.783 419.277 375.568 419.551C375.359 419.82 375.047 420.027 374.632 420.173C375.115 420.273 375.498 420.476 375.78 420.781C376.063 421.087 376.204 421.447 376.204 421.861C376.204 422.549 375.949 423.074 375.438 423.434C374.933 423.794 374.203 423.974 373.251 423.974H369.785ZM371.446 420.822V422.661H373.265C374.117 422.661 374.543 422.356 374.543 421.745C374.543 421.13 374.11 420.822 373.244 420.822H371.446ZM371.446 419.633H372.813C373.757 419.633 374.229 419.355 374.229 418.799C374.229 418.215 373.782 417.915 372.889 417.896H371.446V419.633ZM377.332 420.207C377.332 419.482 377.476 418.831 377.763 418.252C378.05 417.669 378.453 417.222 378.973 416.912C379.492 416.598 380.089 416.44 380.764 416.44C381.762 416.44 382.571 416.762 383.19 417.404C383.815 418.047 384.152 418.899 384.202 419.961L384.209 420.351C384.209 421.08 384.068 421.731 383.785 422.306C383.507 422.88 383.106 423.324 382.582 423.639C382.063 423.953 381.461 424.11 380.777 424.11C379.734 424.11 378.897 423.764 378.269 423.071C377.644 422.374 377.332 421.447 377.332 420.289V420.207ZM378.993 420.351C378.993 421.112 379.15 421.709 379.465 422.142C379.779 422.57 380.217 422.784 380.777 422.784C381.338 422.784 381.773 422.565 382.083 422.128C382.397 421.69 382.555 421.05 382.555 420.207C382.555 419.46 382.393 418.867 382.069 418.43C381.75 417.992 381.315 417.773 380.764 417.773C380.221 417.773 379.791 417.99 379.472 418.423C379.153 418.851 378.993 419.494 378.993 420.351ZM391.975 421H391.093V423.974H389.432V421H388.557L386.855 423.974H384.817L387.272 420.125L384.947 416.577H386.978L388.652 419.482H389.432V416.577H391.093V419.482H391.879L393.561 416.577H395.591L393.273 420.104L395.741 423.974H393.677L391.975 421ZM396.801 422.647C397.261 422.132 397.569 421.645 397.724 421.185C397.883 420.72 397.979 420.127 398.011 419.407L398.106 416.577H403.24V422.647H404.266V426.175H402.611V423.974H397.867V426.175H396.186L396.192 422.647H396.801ZM398.749 422.647H401.586V418.006H399.72L399.672 419.421C399.608 420.779 399.3 421.854 398.749 422.647ZM408.709 424.11C407.656 424.11 406.802 423.78 406.146 423.119C405.494 422.454 405.168 421.57 405.168 420.467V420.262C405.168 419.523 405.309 418.865 405.592 418.286C405.879 417.703 406.28 417.249 406.795 416.926C407.31 416.602 407.884 416.44 408.518 416.44C409.525 416.44 410.302 416.762 410.849 417.404C411.4 418.047 411.676 418.956 411.676 420.132V420.802H406.843C406.893 421.412 407.096 421.895 407.451 422.251C407.811 422.606 408.262 422.784 408.805 422.784C409.566 422.784 410.186 422.477 410.664 421.861L411.56 422.716C411.263 423.158 410.867 423.502 410.37 423.748C409.878 423.99 409.324 424.11 408.709 424.11ZM408.511 417.773C408.055 417.773 407.686 417.933 407.403 418.252C407.125 418.571 406.948 419.015 406.87 419.585H410.035V419.462C409.999 418.906 409.851 418.487 409.591 418.204C409.331 417.917 408.971 417.773 408.511 417.773ZM419.236 423.974H417.575V420.986H414.697V423.974H413.036V416.577H414.697V419.66H417.575V416.577H419.236V423.974ZM425.628 416.577H427.282V423.974H425.628V419.038L422.73 423.974H421.075V416.577H422.73V421.513L425.628 416.577ZM432.307 424.11C431.254 424.11 430.399 423.78 429.743 423.119C429.091 422.454 428.766 421.57 428.766 420.467V420.262C428.766 419.523 428.907 418.865 429.189 418.286C429.477 417.703 429.878 417.249 430.393 416.926C430.908 416.602 431.482 416.44 432.115 416.44C433.122 416.44 433.899 416.762 434.446 417.404C434.998 418.047 435.273 418.956 435.273 420.132V420.802H430.44C430.491 421.412 430.693 421.895 431.049 422.251C431.409 422.606 431.86 422.784 432.402 422.784C433.163 422.784 433.783 422.477 434.262 421.861L435.157 422.716C434.861 423.158 434.465 423.502 433.968 423.748C433.476 423.99 432.922 424.11 432.307 424.11ZM432.108 417.773C431.653 417.773 431.284 417.933 431.001 418.252C430.723 418.571 430.545 419.015 430.468 419.585H433.633V419.462C433.596 418.906 433.448 418.487 433.188 418.204C432.929 417.917 432.569 417.773 432.108 417.773ZM444.447 423.974H442.793V415.982L440.353 416.816V415.415L444.235 413.986H444.447V423.974ZM455.768 420.733C455.667 421.795 455.275 422.625 454.592 423.222C453.908 423.814 452.999 424.11 451.864 424.11C451.071 424.11 450.372 423.923 449.766 423.55C449.164 423.171 448.699 422.636 448.371 421.943C448.043 421.251 447.872 420.446 447.858 419.53V418.601C447.858 417.662 448.025 416.835 448.357 416.119C448.69 415.404 449.166 414.852 449.786 414.465C450.411 414.077 451.131 413.884 451.946 413.884C453.045 413.884 453.929 414.182 454.599 414.779C455.269 415.376 455.658 416.219 455.768 417.309H454.045C453.963 416.593 453.753 416.078 453.416 415.764C453.083 415.445 452.593 415.285 451.946 415.285C451.194 415.285 450.616 415.561 450.21 416.112C449.809 416.659 449.604 417.463 449.595 418.525V419.407C449.595 420.483 449.786 421.303 450.169 421.868C450.556 422.433 451.121 422.716 451.864 422.716C452.543 422.716 453.054 422.563 453.396 422.258C453.737 421.952 453.954 421.444 454.045 420.733H455.768Z" fill="#00458B"/>
<g filter="url(#filter1_d)">
<rect x="9" y="48.75" width="228.653" height="203.75" rx="10" fill="white"/>
</g>
<g clip-path="url(#clip0)">
<path d="M167.644 109.379C167.642 112.14 166.545 114.787 164.593 116.739C162.641 118.691 159.994 119.789 157.233 119.79H135.7C135.228 119.791 134.756 119.757 134.288 119.689C133.723 119.757 133.155 119.791 132.586 119.79H102.26C100.318 119.815 98.3899 119.453 96.5885 118.727C94.7871 118.001 93.1478 116.924 91.7657 115.56C90.3836 114.195 89.2863 112.569 88.5373 110.777C87.7883 108.985 87.4027 107.062 87.4027 105.12C87.4027 103.178 87.7883 101.255 88.5373 99.4625C89.2863 97.6705 90.3836 96.0449 91.7657 94.6802C93.1478 93.3156 94.7871 92.2389 96.5885 91.5127C98.3899 90.7865 100.318 90.4252 102.26 90.4498H108.234C108.807 85.9503 110.961 81.8009 114.31 78.7416C117.659 75.6823 121.986 73.9121 126.519 73.7467C131.052 73.5813 135.496 75.0315 139.059 77.8386C142.622 80.6456 145.072 84.6271 145.972 89.0728H147.827C149.09 89.0725 150.34 89.3209 151.507 89.8039C152.674 90.2868 153.734 90.9948 154.627 91.8874C155.52 92.7801 156.228 93.8399 156.712 95.0063C157.195 96.1728 157.444 97.4231 157.445 98.6858C157.445 98.7823 157.445 98.8788 157.445 98.9706C160.169 99.0248 162.763 100.145 164.67 102.092C166.577 104.038 167.645 106.654 167.644 109.379V109.379Z" fill="url(#paint54_linear)"/>
<path d="M165.302 107.037C165.3 109.798 164.203 112.445 162.251 114.397C160.299 116.349 157.652 117.447 154.891 117.448H133.361C132.888 117.449 132.416 117.415 131.948 117.347C131.384 117.415 130.817 117.449 130.249 117.448H99.9177C97.9756 117.472 96.0479 117.111 94.2465 116.385C92.445 115.659 90.8057 114.582 89.4236 113.217C88.0416 111.853 86.9442 110.227 86.1953 108.435C85.4463 106.643 85.0606 104.72 85.0606 102.778C85.0606 100.836 85.4463 98.9125 86.1953 97.1205C86.9442 95.3284 88.0416 93.7028 89.4236 92.3382C90.8057 90.9735 92.445 89.8968 94.2465 89.1706C96.0479 88.4444 97.9756 88.0831 99.9177 88.1077H105.892C106.462 83.6059 108.614 79.4534 111.964 76.3916C115.313 73.3298 119.641 71.558 124.176 71.3925C128.711 71.227 133.157 72.6787 136.721 75.4883C140.284 78.2978 142.733 82.2825 143.63 86.7307H145.485C148.035 86.7301 150.48 87.7422 152.284 89.5445C154.087 91.3468 155.101 93.7916 155.103 96.3413C155.103 96.4402 155.103 96.5367 155.103 96.6285C157.827 96.6833 160.421 97.8041 162.328 99.7502C164.234 101.696 165.302 104.312 165.302 107.037V107.037Z" fill="#00458B"/>
<path d="M165.302 107.037C165.3 109.798 164.203 112.445 162.251 114.397C160.299 116.349 157.652 117.447 154.891 117.448H133.361C132.888 117.449 132.416 117.415 131.948 117.347C131.384 117.415 130.817 117.449 130.249 117.448H100.796C97.9942 115.836 95.8031 113.345 94.5628 110.36C93.3225 107.376 93.1024 104.065 93.9366 100.943C94.7709 97.8206 96.6129 95.0611 99.1764 93.093C101.74 91.1248 104.882 90.0583 108.114 90.0589H114.09C114.679 85.439 116.932 81.1922 120.428 78.1145C123.923 75.0367 128.421 73.3391 133.078 73.3399H133.314C135.944 74.633 138.242 76.5125 140.032 78.8337C141.822 81.1548 143.055 83.8556 143.637 86.7283H145.492C148.042 86.7277 150.487 87.7398 152.291 89.5421C154.095 91.3443 155.108 93.7892 155.11 96.3389C155.11 96.4377 155.11 96.5342 155.11 96.626C157.833 96.6827 160.425 97.8046 162.331 99.751C164.236 101.697 165.303 104.313 165.302 107.037Z" fill="url(#paint55_linear)"/>
<path d="M82.05 157.262H80.8943V112.493C80.8961 111.377 81.3405 110.307 82.1298 109.518C82.9192 108.729 83.9892 108.286 85.1052 108.285H92.402V109.44H85.1052C84.2937 109.44 83.5154 109.763 82.9415 110.336C82.3677 110.91 82.0453 111.689 82.0453 112.5L82.05 157.262Z" fill="#00458B"/>
<path d="M176.772 157.262H175.618V112.493C175.618 111.682 175.296 110.903 174.722 110.329C174.148 109.756 173.37 109.433 172.559 109.433H165.262V108.277H172.559C173.674 108.279 174.744 108.722 175.533 109.511C176.322 110.3 176.766 111.37 176.767 112.486L176.772 157.262Z" fill="#00458B"/>
<path d="M180.931 135.925H170.031C167.507 135.925 165.462 137.971 165.462 140.494V163.625C165.462 166.148 167.507 168.194 170.031 168.194H180.931C183.454 168.194 185.5 166.148 185.5 163.625V140.494C185.5 137.971 183.454 135.925 180.931 135.925Z" fill="#00458B"/>
<path d="M184.127 140.442V160.831C184.127 161.216 184.052 161.598 183.904 161.953C183.757 162.309 183.541 162.633 183.268 162.905C182.996 163.177 182.673 163.393 182.317 163.541C181.961 163.688 181.58 163.764 181.195 163.764H169.696C169.311 163.764 168.929 163.689 168.573 163.541C168.217 163.394 167.894 163.178 167.621 162.906C167.348 162.633 167.132 162.31 166.985 161.954C166.837 161.598 166.761 161.216 166.761 160.831V140.442C166.761 139.664 167.07 138.917 167.621 138.366C168.171 137.815 168.918 137.505 169.696 137.505H181.195C181.58 137.505 181.962 137.581 182.318 137.729C182.674 137.877 182.997 138.093 183.269 138.366C183.542 138.639 183.758 138.963 183.905 139.319C184.052 139.675 184.128 140.057 184.127 140.442V140.442Z" fill="white"/>
<path d="M178.038 165.115H173.399C172.859 165.115 172.422 165.552 172.422 166.09C172.422 166.629 172.859 167.066 173.399 167.066H178.038C178.578 167.066 179.015 166.629 179.015 166.09C179.015 165.552 178.578 165.115 178.038 165.115Z" fill="white"/>
<path d="M106.998 144.644H73.9059C72.1574 144.644 70.74 146.061 70.74 147.81V164.117C70.74 165.865 72.1574 167.283 73.9059 167.283H106.998C108.746 167.283 110.164 165.865 110.164 164.117V147.81C110.164 146.061 108.746 144.644 106.998 144.644Z" fill="#00458B"/>
<path d="M106.028 145.752H74.9674C73.3671 145.752 72.0699 147.05 72.0699 148.65V163.149C72.0699 164.75 73.3671 166.047 74.9674 166.047H106.028C107.628 166.047 108.926 164.75 108.926 163.149V148.65C108.926 147.05 107.628 145.752 106.028 145.752Z" fill="white"/>
<path d="M110.161 168.77C110.162 168.966 110.124 169.16 110.05 169.34C109.975 169.521 109.865 169.685 109.727 169.824C109.589 169.962 109.425 170.071 109.244 170.146C109.063 170.22 108.869 170.259 108.674 170.258H72.2276C71.833 170.258 71.4547 170.101 71.1757 169.822C70.8967 169.543 70.74 169.165 70.74 168.77C70.74 168.376 70.8967 167.997 71.1757 167.718C71.4547 167.439 71.833 167.283 72.2276 167.283H108.674C109.068 167.284 109.446 167.441 109.724 167.72C110.003 167.999 110.16 168.376 110.161 168.77V168.77Z" fill="#00458B"/>
<path d="M109.881 167.904C109.836 167.97 109.785 168.031 109.728 168.088C109.59 168.227 109.426 168.337 109.245 168.412C109.064 168.487 108.87 168.526 108.674 168.525H72.2276C71.991 168.526 71.7578 168.469 71.5473 168.361C71.3369 168.253 71.1553 168.096 71.0177 167.904C71.154 167.71 71.3354 167.553 71.5461 167.444C71.7568 167.336 71.9907 167.281 72.2276 167.283H108.674C108.91 167.282 109.143 167.338 109.353 167.446C109.563 167.555 109.744 167.711 109.881 167.904V167.904Z" fill="url(#paint56_linear)"/>
<path d="M153.253 152.376H134.384C134.067 152.376 133.584 152.117 133.584 151.799C133.584 151.482 134.067 151.22 134.384 151.22H153.253C154.353 151.22 155.407 150.783 156.185 150.005C156.963 149.228 157.401 148.173 157.402 147.073V129.966C157.402 129.18 157.089 128.428 156.534 127.872C155.979 127.317 155.226 127.005 154.441 127.004H141.142C140.175 127.003 139.248 126.618 138.564 125.934C137.88 125.251 137.495 124.323 137.494 123.356V119.011C137.489 118.932 137.5 118.853 137.527 118.778C137.553 118.704 137.595 118.636 137.649 118.578C137.704 118.52 137.769 118.474 137.842 118.443C137.914 118.411 137.993 118.395 138.072 118.395C138.151 118.395 138.229 118.411 138.302 118.443C138.374 118.474 138.44 118.52 138.494 118.578C138.548 118.636 138.59 118.704 138.617 118.778C138.643 118.853 138.655 118.932 138.65 119.011V123.356C138.65 124.017 138.913 124.651 139.38 125.118C139.848 125.585 140.481 125.848 141.142 125.849H154.441C155.533 125.85 156.579 126.284 157.351 127.056C158.123 127.828 158.557 128.874 158.558 129.966V147.073C158.556 148.479 157.996 149.827 157.002 150.822C156.007 151.816 154.659 152.375 153.253 152.376V152.376Z" fill="#00458B"/>
<path opacity="0.18" d="M181.27 144.427H170.082C169.651 144.427 169.301 144.776 169.301 145.207C169.301 145.638 169.651 145.988 170.082 145.988H181.27C181.701 145.988 182.051 145.638 182.051 145.207C182.051 144.776 181.701 144.427 181.27 144.427Z" fill="#00458B"/>
<path opacity="0.18" d="M181.27 147.506H170.082C169.651 147.506 169.301 147.855 169.301 148.286C169.301 148.717 169.651 149.066 170.082 149.066H181.27C181.701 149.066 182.051 148.717 182.051 148.286C182.051 147.855 181.701 147.506 181.27 147.506Z" fill="#00458B"/>
<path opacity="0.18" d="M181.27 150.585H170.082C169.651 150.585 169.301 150.934 169.301 151.365C169.301 151.796 169.651 152.145 170.082 152.145H181.27C181.701 152.145 182.051 151.796 182.051 151.365C182.051 150.934 181.701 150.585 181.27 150.585Z" fill="#00458B"/>
<path opacity="0.18" d="M181.27 153.663H170.082C169.651 153.663 169.301 154.013 169.301 154.444C169.301 154.875 169.651 155.224 170.082 155.224H181.27C181.701 155.224 182.051 154.875 182.051 154.444C182.051 154.013 181.701 153.663 181.27 153.663Z" fill="#00458B"/>
<path opacity="0.18" d="M88.563 150.476H77.3753C76.9437 150.476 76.5939 150.826 76.5939 151.257C76.5939 151.688 76.9437 152.037 77.3753 152.037H88.563C88.9946 152.037 89.3444 151.688 89.3444 151.257C89.3444 150.826 88.9946 150.476 88.563 150.476Z" fill="#00458B"/>
<path opacity="0.18" d="M88.563 153.555H77.3753C76.9437 153.555 76.5939 153.905 76.5939 154.335C76.5939 154.766 76.9437 155.116 77.3753 155.116H88.563C88.9946 155.116 89.3444 154.766 89.3444 154.335C89.3444 153.905 88.9946 153.555 88.563 153.555Z" fill="#00458B"/>
<path opacity="0.18" d="M88.563 156.636H77.3753C76.9437 156.636 76.5939 156.986 76.5939 157.417C76.5939 157.848 76.9437 158.197 77.3753 158.197H88.563C88.9946 158.197 89.3444 157.848 89.3444 157.417C89.3444 156.986 88.9946 156.636 88.563 156.636Z" fill="#00458B"/>
<path opacity="0.18" d="M88.563 159.715H77.3753C76.9437 159.715 76.5939 160.065 76.5939 160.495C76.5939 160.926 76.9437 161.276 77.3753 161.276H88.563C88.9946 161.276 89.3444 160.926 89.3444 160.495C89.3444 160.065 88.9946 159.715 88.563 159.715Z" fill="#00458B"/>
<path opacity="0.18" d="M107.794 146.355L72.0699 159.087V148.652C72.0699 147.883 72.3754 147.146 72.9192 146.602C73.4631 146.058 74.2007 145.752 74.9698 145.752H106.026C106.666 145.751 107.288 145.963 107.794 146.355V146.355Z" fill="#00458B"/>
<path opacity="0.18" d="M108.926 157.347V163.147C108.925 163.527 108.85 163.904 108.704 164.256C108.558 164.607 108.345 164.926 108.075 165.195C107.806 165.464 107.486 165.677 107.135 165.822C106.783 165.968 106.406 166.042 106.026 166.042H87.2236L108.926 157.347Z" fill="#00458B"/>
<path d="M149.731 136.187H129.625C128.207 136.187 127.057 137.336 127.057 138.755V163.545C127.057 164.963 128.207 166.113 129.625 166.113H149.731C151.15 166.113 152.299 164.963 152.299 163.545V138.755C152.299 137.336 151.15 136.187 149.731 136.187Z" fill="#00458B"/>
<path d="M151.115 139.616V162.041C151.116 162.346 151.056 162.648 150.939 162.929C150.823 163.211 150.652 163.467 150.436 163.682C150.221 163.898 149.965 164.069 149.683 164.186C149.401 164.302 149.099 164.362 148.794 164.362H130.614C130.309 164.362 130.007 164.302 129.725 164.186C129.443 164.069 129.187 163.898 128.971 163.683C128.755 163.467 128.584 163.211 128.467 162.929C128.351 162.648 128.29 162.346 128.29 162.041V139.616C128.291 139 128.536 138.41 128.972 137.975C129.407 137.54 129.998 137.295 130.614 137.295H148.794C149.099 137.295 149.401 137.355 149.683 137.472C149.964 137.588 150.22 137.759 150.436 137.975C150.651 138.19 150.822 138.446 150.939 138.728C151.055 139.009 151.115 139.311 151.115 139.616V139.616Z" fill="white"/>
<path opacity="0.18" d="M131.393 147.897L134.69 146.421L138.68 149.803L142.757 144.427L146.834 150.152V154.109H131.553L131.393 147.897Z" fill="#00458B"/>
<path d="M140.85 164.79H138.996C138.78 164.79 138.605 164.964 138.605 165.18C138.605 165.395 138.78 165.569 138.996 165.569H140.85C141.066 165.569 141.241 165.395 141.241 165.18C141.241 164.964 141.066 164.79 140.85 164.79Z" fill="url(#paint57_linear)"/>
<path d="M148.091 154.257H131.322V143.126H131.553V154.026H148.091V154.257Z" fill="#00458B"/>
<path d="M135.255 145.88H133.921V154.109H135.255V145.88Z" fill="#00458B"/>
<path d="M143.581 143.86H142.246V154.111H143.581V143.86Z" fill="#00458B"/>
<path d="M139.353 149.111H138.019V154.109H139.353V149.111Z" fill="#00458B"/>
<path d="M147.333 149.111H145.998V154.109H147.333V149.111Z" fill="#00458B"/>
<path opacity="0.18" d="M151.115 139.616V141.657L128.283 154.106V139.616C128.284 139 128.529 138.41 128.965 137.975C129.4 137.54 129.991 137.295 130.607 137.295H148.787C149.093 137.294 149.395 137.354 149.678 137.47C149.96 137.586 150.217 137.757 150.433 137.972C150.649 138.188 150.821 138.444 150.938 138.726C151.055 139.008 151.115 139.311 151.115 139.616V139.616Z" fill="#00458B"/>
<path opacity="0.18" d="M184.127 148.775V160.831C184.127 161.216 184.052 161.597 183.904 161.953C183.757 162.309 183.541 162.632 183.268 162.905C182.996 163.177 182.673 163.393 182.317 163.541C181.961 163.688 181.58 163.764 181.195 163.764H169.696C169.311 163.764 168.929 163.688 168.573 163.541C168.217 163.394 167.894 163.178 167.621 162.906C167.348 162.633 167.132 162.31 166.985 161.954C166.837 161.598 166.761 161.216 166.761 160.831V158.275L184.12 147.624L184.127 148.775Z" fill="#00458B"/>
<path d="M117.326 183.265L116.401 183.456V117.401H117.326V183.265Z" fill="#00458B"/>
</g>
<path d="M90.7862 216.982C90.6859 218.044 90.294 218.873 89.6104 219.47C88.9268 220.063 88.0176 220.359 86.8829 220.359C86.0899 220.359 85.3903 220.172 84.7842 219.798C84.1827 219.42 83.7178 218.885 83.3897 218.192C83.0616 217.499 82.8907 216.695 82.877 215.779V214.849C82.877 213.91 83.0433 213.083 83.376 212.368C83.7087 211.652 84.1849 211.101 84.8047 210.713C85.4291 210.326 86.1491 210.132 86.9649 210.132C88.0632 210.132 88.9473 210.431 89.6172 211.028C90.2872 211.625 90.6768 212.468 90.7862 213.557H89.0635C88.9815 212.842 88.7719 212.327 88.4346 212.012C88.1019 211.693 87.612 211.534 86.9649 211.534C86.2129 211.534 85.6342 211.81 85.2286 212.361C84.8275 212.908 84.6224 213.712 84.6133 214.774V215.656C84.6133 216.731 84.8047 217.552 85.1875 218.117C85.5749 218.682 86.14 218.964 86.8829 218.964C87.5619 218.964 88.0723 218.812 88.4141 218.506C88.7559 218.201 88.9724 217.693 89.0635 216.982H90.7862ZM95.4346 220.359C94.3819 220.359 93.5274 220.029 92.8711 219.368C92.2195 218.702 91.8936 217.818 91.8936 216.715V216.51C91.8936 215.772 92.0349 215.114 92.3174 214.535C92.6045 213.951 93.0056 213.498 93.5206 213.174C94.0355 212.851 94.6098 212.689 95.2432 212.689C96.2504 212.689 97.0274 213.01 97.5743 213.653C98.1257 214.296 98.4014 215.205 98.4014 216.38V217.05H93.5684C93.6185 217.661 93.8213 218.144 94.1768 218.5C94.5368 218.855 94.988 219.033 95.5303 219.033C96.2914 219.033 96.9112 218.725 97.3897 218.11L98.2852 218.964C97.989 219.407 97.5925 219.751 97.0958 219.997C96.6036 220.238 96.0499 220.359 95.4346 220.359ZM95.2364 214.022C94.7806 214.022 94.4115 214.182 94.129 214.501C93.851 214.82 93.6732 215.264 93.5958 215.834H96.7608V215.711C96.7243 215.155 96.5762 214.735 96.3165 214.453C96.0567 214.166 95.6967 214.022 95.2364 214.022ZM106.174 216.599C106.174 217.743 105.914 218.657 105.395 219.34C104.875 220.019 104.178 220.359 103.303 220.359C102.492 220.359 101.842 220.092 101.355 219.559V223.066H99.6934V212.826H101.225L101.293 213.578C101.781 212.985 102.444 212.689 103.282 212.689C104.185 212.689 104.891 213.026 105.401 213.701C105.916 214.371 106.174 215.303 106.174 216.497V216.599ZM104.52 216.456C104.52 215.717 104.371 215.132 104.075 214.699C103.784 214.266 103.364 214.049 102.817 214.049C102.138 214.049 101.651 214.33 101.355 214.89V218.171C101.655 218.746 102.148 219.033 102.831 219.033C103.36 219.033 103.772 218.821 104.068 218.397C104.369 217.969 104.52 217.322 104.52 216.456ZM107.712 220.222V212.826H110.713C111.725 212.826 112.495 213.004 113.023 213.359C113.552 213.71 113.816 214.216 113.816 214.877C113.816 215.218 113.709 215.526 113.495 215.799C113.286 216.068 112.973 216.276 112.559 216.421C113.042 216.522 113.425 216.725 113.707 217.03C113.99 217.335 114.131 217.695 114.131 218.11C114.131 218.798 113.876 219.322 113.365 219.682C112.859 220.042 112.13 220.222 111.178 220.222H107.712ZM109.373 217.071V218.91H111.191C112.044 218.91 112.47 218.604 112.47 217.994C112.47 217.379 112.037 217.071 111.171 217.071H109.373ZM109.373 215.881H110.74C111.684 215.881 112.155 215.603 112.155 215.047C112.155 214.464 111.709 214.163 110.815 214.145H109.373V215.881ZM120.188 212.826H121.842V220.222H120.188V215.287L117.289 220.222H115.635V212.826H117.289V217.761L120.188 212.826ZM126.648 219.033C127.062 219.033 127.406 218.912 127.68 218.671C127.953 218.429 128.099 218.13 128.117 217.775H129.683C129.664 218.235 129.521 218.666 129.252 219.067C128.983 219.463 128.619 219.778 128.158 220.01C127.698 220.243 127.201 220.359 126.668 220.359C125.634 220.359 124.813 220.024 124.207 219.354C123.601 218.684 123.298 217.759 123.298 216.579V216.408C123.298 215.282 123.599 214.382 124.2 213.708C124.802 213.029 125.622 212.689 126.661 212.689C127.541 212.689 128.256 212.947 128.808 213.462C129.364 213.972 129.655 214.644 129.683 215.478H128.117C128.099 215.054 127.953 214.706 127.68 214.432C127.411 214.159 127.067 214.022 126.648 214.022C126.11 214.022 125.695 214.218 125.403 214.61C125.112 214.997 124.964 215.588 124.959 216.38V216.647C124.959 217.449 125.103 218.048 125.39 218.445C125.681 218.837 126.101 219.033 126.648 219.033ZM132.725 215.177H134.352C134.958 215.177 135.486 215.282 135.938 215.492C136.389 215.701 136.731 215.995 136.963 216.374C137.2 216.752 137.318 217.192 137.318 217.693C137.318 218.454 137.05 219.065 136.512 219.525C135.974 219.985 135.259 220.218 134.365 220.222H131.064V212.826H132.725V215.177ZM140.21 220.222H138.549V212.826H140.21V220.222ZM132.725 216.51V218.896H134.345C134.75 218.896 135.069 218.796 135.302 218.595C135.539 218.39 135.657 218.101 135.657 217.727C135.657 217.353 135.541 217.06 135.309 216.845C135.081 216.627 134.771 216.515 134.379 216.51H132.725ZM150.081 220.222H148.427V212.231L145.986 213.065V211.664L149.869 210.235H150.081V220.222ZM161.401 216.982C161.301 218.044 160.909 218.873 160.226 219.47C159.542 220.063 158.633 220.359 157.498 220.359C156.705 220.359 156.006 220.172 155.399 219.798C154.798 219.42 154.333 218.885 154.005 218.192C153.677 217.499 153.506 216.695 153.492 215.779V214.849C153.492 213.91 153.659 213.083 153.991 212.368C154.324 211.652 154.8 211.101 155.42 210.713C156.044 210.326 156.764 210.132 157.58 210.132C158.678 210.132 159.563 210.431 160.232 211.028C160.902 211.625 161.292 212.468 161.401 213.557H159.679C159.597 212.842 159.387 212.327 159.05 212.012C158.717 211.693 158.227 211.534 157.58 211.534C156.828 211.534 156.249 211.81 155.844 212.361C155.443 212.908 155.238 213.712 155.229 214.774V215.656C155.229 216.731 155.42 217.552 155.803 218.117C156.19 218.682 156.755 218.964 157.498 218.964C158.177 218.964 158.688 218.812 159.029 218.506C159.371 218.201 159.588 217.693 159.679 216.982H161.401Z" fill="#00458B"/>
<g filter="url(#filter2_d)">
<rect x="277.95" y="8" width="228.653" height="203.75" rx="10" fill="white"/>
</g>
<path d="M428.36 52.9823V131.266C428.36 132.251 428.167 133.226 427.791 134.136C427.414 135.047 426.862 135.874 426.166 136.571C425.47 137.267 424.644 137.82 423.734 138.198C422.825 138.575 421.85 138.77 420.865 138.771H371.423C370.438 138.77 369.463 138.576 368.553 138.198C367.643 137.821 366.817 137.268 366.121 136.571C365.425 135.874 364.873 135.047 364.497 134.137C364.121 133.226 363.927 132.251 363.928 131.266V52.9823C363.928 50.9945 364.718 49.0881 366.124 47.6825C367.529 46.277 369.436 45.4873 371.423 45.4873H420.865C422.852 45.4886 424.758 46.2787 426.163 47.684C427.568 49.0893 428.358 50.9949 428.36 52.9823Z" fill="#00458B"/>
<path d="M376.087 97.9907C374.6 101.636 371.37 104.103 368.575 106.711C367.136 108.052 366.026 109.549 364.743 111.002C364.51 111.254 364.236 111.464 363.933 111.625V96.7319C364.331 95.4681 364.586 94.1639 364.694 92.8434C365.18 94.445 364.961 96.3989 366.196 97.5363C366.991 98.2799 368.159 98.4112 369.246 98.4598C371.536 98.553 373.83 98.3957 376.087 97.9907V97.9907Z" fill="url(#paint58_linear)"/>
<path d="M421.698 52.1631H369.377V130.568H421.698V52.1631Z" fill="url(#paint59_linear)"/>
<path d="M422.459 51.5435V129.723H376.692C376.692 129.723 370.349 128.389 370.014 117.698C369.678 107.007 370.349 51.5435 370.349 51.5435H422.459Z" fill="white"/>
<g clip-path="url(#clip1)">
<path d="M403.484 87.5238C401.08 85.1198 397.168 85.1198 394.764 87.5238C393.122 89.1659 392.552 91.5857 393.263 93.7812L386.32 100.725C386.215 100.83 386.155 100.972 386.155 101.121V104.292C386.155 104.602 386.406 104.852 386.716 104.852H389.887C390.036 104.852 390.178 104.793 390.283 104.688L391.076 103.895C391.196 103.774 391.256 103.604 391.236 103.434L391.137 102.582L392.317 102.471C392.586 102.446 392.798 102.234 392.823 101.966L392.934 100.786L393.786 100.885C393.944 100.906 394.103 100.853 394.223 100.747C394.342 100.64 394.411 100.488 394.411 100.328V99.2847H395.435C395.584 99.2847 395.726 99.2256 395.832 99.1205L397.269 97.7022C399.464 98.4137 401.842 97.8863 403.484 96.2432C405.888 93.8392 405.888 89.9278 403.484 87.5238ZM401.898 91.4872C401.242 92.1429 400.176 92.1429 399.52 91.4872C398.865 90.8315 398.865 89.7652 399.52 89.1095C400.176 88.4537 401.242 88.4537 401.898 89.1095C402.554 89.7652 402.554 90.8315 401.898 91.4872Z" fill="#00458B"/>
</g>
<path d="M421.317 138.146C421.151 130.491 420.959 122.67 418.337 115.474C416.847 111.384 414.599 107.58 413.384 103.4C412.427 100.107 412.655 96.6103 412.684 93.1787C412.699 91.3609 412.711 89.5042 412.147 87.7763C411.661 86.2671 410.73 84.8843 410.529 83.3094C412.653 84.8575 414.903 86.5781 415.674 89.091C416.048 90.3062 416.033 91.6137 416.235 92.8725C416.886 96.9457 419.725 100.263 421.747 103.857C426.189 111.761 426.744 121.214 426.7 130.279C426.7 132.243 426.641 134.282 425.779 136.049C424.916 137.815 423.251 138.501 421.317 138.146Z" fill="url(#paint60_linear)"/>
<path d="M380.576 129.647C380.544 129.671 380.514 129.696 380.486 129.723H376.692C376.692 129.723 370.349 128.388 370.014 117.698C370.014 117.698 372.296 124.891 380.116 123.353C380.116 123.353 375.973 130.107 380.576 129.647Z" fill="white"/>
<path d="M380.576 129.647C380.544 129.671 380.514 129.696 380.486 129.723H376.692C376.692 129.723 370.349 128.388 370.014 117.698C370.014 117.698 372.296 124.891 380.116 123.353C380.116 123.353 375.973 130.107 380.576 129.647Z" fill="url(#paint61_linear)"/>
<path d="M415.943 68.0425H378.658C378.277 68.0425 377.968 68.3515 377.968 68.7327C377.968 69.1139 378.277 69.4229 378.658 69.4229H415.943C416.325 69.4229 416.634 69.1139 416.634 68.7327C416.634 68.3515 416.325 68.0425 415.943 68.0425Z" fill="url(#paint62_linear)"/>
<path d="M415.943 72.1861H378.658C378.277 72.1861 377.968 72.4951 377.968 72.8762C377.968 73.2574 378.277 73.5664 378.658 73.5664H415.943C416.325 73.5664 416.634 73.2574 416.634 72.8762C416.634 72.4951 416.325 72.1861 415.943 72.1861Z" fill="url(#paint63_linear)"/>
<path d="M415.943 76.3273H378.658C378.277 76.3273 377.968 76.6363 377.968 77.0175C377.968 77.3987 378.277 77.7077 378.658 77.7077H415.943C416.325 77.7077 416.634 77.3987 416.634 77.0175C416.634 76.6363 416.325 76.3273 415.943 76.3273Z" fill="url(#paint64_linear)"/>
<path d="M415.943 80.471H378.658C378.277 80.471 377.968 80.78 377.968 81.1612C377.968 81.5424 378.277 81.8514 378.658 81.8514H415.943C416.325 81.8514 416.634 81.5424 416.634 81.1612C416.634 80.78 416.325 80.471 415.943 80.471Z" fill="url(#paint65_linear)"/>
<path d="M415.943 84.6145H378.658C378.277 84.6145 377.968 84.9235 377.968 85.3047C377.968 85.6859 378.277 85.9949 378.658 85.9949H415.943C416.325 85.9949 416.634 85.6859 416.634 85.3047C416.634 84.9235 416.325 84.6145 415.943 84.6145Z" fill="url(#paint66_linear)"/>
<path d="M407.712 48.389V50.6443C407.713 51.2971 407.585 51.9437 407.335 52.547C407.086 53.1502 406.719 53.6983 406.258 54.16C405.796 54.6216 405.248 54.9877 404.645 55.2372C404.042 55.4867 403.395 55.6148 402.742 55.6142H389.444C388.791 55.6148 388.144 55.4868 387.54 55.2373C386.936 54.9879 386.388 54.6219 385.925 54.1604C385.463 53.6989 385.097 53.1508 384.846 52.5475C384.596 51.9442 384.467 51.2975 384.467 50.6443V48.389C384.468 47.0701 384.993 45.8056 385.926 44.8736C386.86 43.9417 388.125 43.4185 389.444 43.4191H402.742C403.395 43.4188 404.041 43.5471 404.644 43.7968C405.248 44.0464 405.796 44.4125 406.257 44.8741C406.719 45.3356 407.085 45.8836 407.334 46.4867C407.584 47.0899 407.712 47.7363 407.712 48.389V48.389Z" fill="#00458B"/>
<path d="M384.503 48.3306V50.5883C384.501 51.2421 384.628 51.8898 384.877 52.4943C385.126 53.0988 385.492 53.6483 385.954 54.1111C386.415 54.574 386.964 54.9411 387.568 55.1915C388.172 55.4419 388.819 55.5707 389.473 55.5704H390.472C389.818 55.5707 389.171 55.4419 388.567 55.1915C387.963 54.9411 387.414 54.574 386.953 54.1111C386.491 53.6483 386.125 53.0988 385.876 52.4943C385.627 51.8898 385.5 51.2421 385.502 50.5883V48.3306C385.502 47.6778 385.63 47.0314 385.88 46.4283C386.129 45.8252 386.495 45.2772 386.957 44.8156C387.418 44.3541 387.966 43.988 388.57 43.7384C389.173 43.4887 389.819 43.3604 390.472 43.3607H389.473C388.82 43.3604 388.174 43.4887 387.571 43.7384C386.968 43.988 386.42 44.3541 385.958 44.8156C385.496 45.2772 385.13 45.8252 384.881 46.4283C384.631 47.0314 384.503 47.6778 384.503 48.3306V48.3306Z" fill="url(#paint67_linear)"/>
<path d="M407.712 48.389V50.6443C407.713 51.2971 407.585 51.9437 407.335 52.547C407.086 53.1502 406.719 53.6983 406.258 54.16C405.796 54.6216 405.248 54.9877 404.645 55.2372C404.042 55.4867 403.395 55.6148 402.742 55.6142H390.44C389.787 55.6148 389.14 55.4868 388.536 55.2373C387.933 54.9879 387.384 54.6219 386.922 54.1604C386.46 53.6989 386.093 53.1508 385.843 52.5475C385.592 51.9442 385.463 51.2975 385.463 50.6443V48.389C385.464 47.0701 385.989 45.8056 386.923 44.8736C387.856 43.9417 389.121 43.4185 390.44 43.4191H402.742C403.395 43.4188 404.041 43.5471 404.644 43.7968C405.248 44.0464 405.796 44.4125 406.257 44.8741C406.719 45.3356 407.085 45.8836 407.334 46.4867C407.584 47.0899 407.712 47.7363 407.712 48.389V48.389Z" fill="url(#paint68_linear)"/>
<path d="M364.006 91.1324C363.994 91.2746 364.002 91.4178 364.03 91.5577C363.564 91.2466 363.034 90.2332 362.572 89.0156C362.288 88.2696 361.569 84.6655 361.569 83.8659C361.569 82.0262 362.835 80.4879 364.167 79.1658C363.868 81.7151 364.407 87.2173 364.006 91.1324Z" fill="url(#paint69_linear)"/>
<path d="M368.297 175.179V185.132H366.574V176.574H363.525L363.348 180.422C363.279 181.625 363.131 182.56 362.903 183.225C362.68 183.886 362.354 184.369 361.926 184.674C361.497 184.979 360.923 185.132 360.203 185.132H359.766V183.751L360.039 183.731C360.436 183.694 360.741 183.555 360.955 183.314C361.174 183.072 361.338 182.708 361.447 182.22C361.561 181.728 361.641 181.006 361.687 180.053L361.878 175.179H368.297ZM374.839 177.736H376.493V185.132H374.839V180.197L371.94 185.132H370.286V177.736H371.94V182.671L374.839 177.736ZM378.325 177.736H379.986V183.806H382.871V177.736H384.532V183.806H385.537L385.4 187.326H383.89V185.132H378.325V177.736ZM389.967 185.269C388.914 185.269 388.06 184.938 387.403 184.278C386.752 183.612 386.426 182.728 386.426 181.625V181.42C386.426 180.682 386.567 180.023 386.85 179.445C387.137 178.861 387.538 178.408 388.053 178.084C388.568 177.761 389.142 177.599 389.775 177.599C390.783 177.599 391.56 177.92 392.106 178.563C392.658 179.205 392.934 180.115 392.934 181.29V181.96H388.101C388.151 182.571 388.354 183.054 388.709 183.409C389.069 183.765 389.52 183.943 390.062 183.943C390.824 183.943 391.443 183.635 391.922 183.02L392.817 183.874C392.521 184.316 392.125 184.66 391.628 184.907C391.136 185.148 390.582 185.269 389.967 185.269ZM389.769 178.932C389.313 178.932 388.944 179.091 388.661 179.41C388.383 179.729 388.205 180.174 388.128 180.743H391.293V180.62C391.256 180.064 391.108 179.645 390.849 179.363C390.589 179.076 390.229 178.932 389.769 178.932ZM400.494 185.132H398.833V182.145H395.955V185.132H394.294V177.736H395.955V180.819H398.833V177.736H400.494V185.132ZM407.87 179.759C407.87 180.087 407.77 180.39 407.569 180.668C407.373 180.942 407.095 181.16 406.735 181.325C407.583 181.621 408.007 182.193 408.007 183.04C408.007 183.719 407.731 184.262 407.18 184.667C406.628 185.068 405.89 185.269 404.965 185.269C404.4 185.269 403.885 185.175 403.42 184.989C402.955 184.797 402.593 184.528 402.333 184.182C402.073 183.831 401.943 183.416 401.943 182.938H403.598C403.598 183.239 403.732 183.492 404.001 183.697C404.27 183.897 404.609 183.997 405.02 183.997C405.425 183.997 405.746 183.904 405.983 183.717C406.225 183.526 406.346 183.277 406.346 182.972C406.346 182.612 406.241 182.352 406.031 182.193C405.822 182.033 405.498 181.953 405.061 181.953H403.871V180.757H405.102C405.844 180.748 406.216 180.443 406.216 179.841C406.216 179.54 406.109 179.306 405.895 179.137C405.68 178.968 405.386 178.884 405.013 178.884C404.648 178.884 404.34 178.975 404.09 179.158C403.839 179.335 403.714 179.561 403.714 179.834H402.06C402.06 179.183 402.333 178.649 402.88 178.235C403.427 177.815 404.122 177.606 404.965 177.606C405.881 177.606 406.594 177.793 407.104 178.166C407.615 178.54 407.87 179.071 407.87 179.759ZM414.036 177.736H415.69V185.132H414.036V180.197L411.138 185.132H409.483V177.736H411.138V182.671L414.036 177.736ZM422.075 177.736H423.729V185.132H422.075V180.197L419.177 185.132H417.522V177.736H419.177V182.671L422.075 177.736Z" fill="#00458B"/>
<g filter="url(#filter3_d)">
<rect x="9" y="293.25" width="228.653" height="203.75" rx="10" fill="white"/>
</g>
<path d="M156.505 338.232V416.516C156.506 417.501 156.313 418.476 155.936 419.386C155.56 420.296 155.008 421.124 154.312 421.82C153.616 422.517 152.79 423.07 151.88 423.448C150.97 423.825 149.995 424.02 149.01 424.02H99.5691C98.5841 424.02 97.6088 423.826 96.699 423.448C95.7892 423.071 94.9627 422.518 94.2666 421.821C93.5706 421.124 93.0187 420.297 92.6425 419.387C92.2663 418.476 92.0732 417.501 92.0741 416.516V338.232C92.0741 336.244 92.8638 334.338 94.2693 332.932C95.6749 331.527 97.5813 330.737 99.5691 330.737H149.01C150.998 330.738 152.903 331.529 154.309 332.934C155.714 334.339 156.504 336.245 156.505 338.232Z" fill="#00458B"/>
<path d="M104.233 383.241C102.745 386.886 99.5156 389.353 96.7208 391.96C95.2821 393.302 94.1714 394.799 92.8883 396.252C92.6553 396.503 92.3817 396.714 92.079 396.874V381.982C92.4765 380.718 92.7317 379.414 92.8397 378.093C93.3257 379.695 93.107 381.649 94.3416 382.786C95.1363 383.53 96.3052 383.661 97.3915 383.71C99.6822 383.803 101.976 383.646 104.233 383.241V383.241Z" fill="url(#paint70_linear)"/>
<path d="M149.844 337.413H97.5231V415.818H149.844V337.413Z" fill="url(#paint71_linear)"/>
<path d="M150.605 336.793V414.973H104.838C104.838 414.973 98.4949 413.638 98.1596 402.948C97.8242 392.257 98.4949 336.793 98.4949 336.793H150.605Z" fill="white"/>
<g clip-path="url(#clip2)">
<path d="M131.63 372.773C129.226 370.369 125.314 370.37 122.91 372.773C121.268 374.416 120.698 376.835 121.409 379.031L114.465 385.974C114.36 386.079 114.301 386.222 114.301 386.371V389.541C114.301 389.851 114.552 390.102 114.862 390.102H118.033C118.181 390.102 118.324 390.043 118.429 389.938L119.221 389.145C119.342 389.024 119.401 388.854 119.382 388.684L119.283 387.832L120.463 387.721C120.732 387.696 120.943 387.484 120.969 387.216L121.08 386.036L121.931 386.135C122.09 386.156 122.249 386.103 122.369 385.997C122.488 385.89 122.556 385.738 122.556 385.578V384.534H123.581C123.73 384.534 123.872 384.475 123.977 384.37L125.415 382.952C127.61 383.663 129.988 383.136 131.63 381.493C134.034 379.089 134.034 375.177 131.63 372.773ZM130.044 376.737C129.388 377.393 128.322 377.393 127.666 376.737C127.011 376.081 127.011 375.015 127.666 374.359C128.322 373.703 129.388 373.703 130.044 374.359C130.7 375.015 130.7 376.081 130.044 376.737Z" fill="#00458B"/>
</g>
<path d="M149.463 423.396C149.297 415.74 149.105 407.92 146.483 400.724C144.993 396.634 142.745 392.83 141.53 388.65C140.573 385.357 140.801 381.86 140.83 378.428C140.845 376.611 140.857 374.754 140.293 373.026C139.807 371.517 138.876 370.134 138.675 368.559C140.799 370.107 143.049 371.828 143.819 374.341C144.194 375.556 144.179 376.863 144.381 378.122C145.032 382.195 147.871 385.513 149.893 389.107C154.335 397.01 154.889 406.464 154.846 415.529C154.846 417.493 154.787 419.531 153.924 421.298C153.062 423.065 151.397 423.75 149.463 423.396Z" fill="url(#paint72_linear)"/>
<path d="M108.721 414.897C108.69 414.92 108.66 414.946 108.632 414.972H104.838C104.838 414.972 98.4949 413.638 98.1596 402.947C98.1596 402.947 100.442 410.141 108.262 408.603C108.262 408.603 104.119 415.356 108.721 414.897Z" fill="white"/>
<path d="M108.721 414.897C108.69 414.92 108.66 414.946 108.632 414.972H104.838C104.838 414.972 98.4949 413.638 98.1596 402.947C98.1596 402.947 100.442 410.141 108.262 408.603C108.262 408.603 104.119 415.356 108.721 414.897Z" fill="url(#paint73_linear)"/>
<path d="M144.089 353.292H106.804C106.423 353.292 106.114 353.601 106.114 353.982C106.114 354.364 106.423 354.673 106.804 354.673H144.089C144.47 354.673 144.779 354.364 144.779 353.982C144.779 353.601 144.47 353.292 144.089 353.292Z" fill="url(#paint74_linear)"/>
<path d="M144.089 357.436H106.804C106.423 357.436 106.114 357.745 106.114 358.126C106.114 358.507 106.423 358.816 106.804 358.816H144.089C144.47 358.816 144.779 358.507 144.779 358.126C144.779 357.745 144.47 357.436 144.089 357.436Z" fill="url(#paint75_linear)"/>
<path d="M144.089 361.577H106.804C106.423 361.577 106.114 361.886 106.114 362.267C106.114 362.648 106.423 362.957 106.804 362.957H144.089C144.47 362.957 144.779 362.648 144.779 362.267C144.779 361.886 144.47 361.577 144.089 361.577Z" fill="url(#paint76_linear)"/>
<path d="M144.089 365.72H106.804C106.423 365.72 106.114 366.03 106.114 366.411C106.114 366.792 106.423 367.101 106.804 367.101H144.089C144.47 367.101 144.779 366.792 144.779 366.411C144.779 366.03 144.47 365.72 144.089 365.72Z" fill="url(#paint77_linear)"/>
<path d="M144.089 369.864H106.804C106.423 369.864 106.114 370.173 106.114 370.554C106.114 370.935 106.423 371.244 106.804 371.244H144.089C144.47 371.244 144.779 370.935 144.779 370.554C144.779 370.173 144.47 369.864 144.089 369.864Z" fill="url(#paint78_linear)"/>
<path d="M135.858 333.639V335.894C135.859 336.547 135.73 337.193 135.481 337.797C135.231 338.4 134.865 338.948 134.404 339.41C133.942 339.871 133.394 340.237 132.791 340.487C132.187 340.736 131.541 340.865 130.888 340.864H117.59C116.936 340.865 116.289 340.736 115.686 340.487C115.082 340.238 114.534 339.872 114.071 339.41C113.609 338.949 113.242 338.401 112.992 337.797C112.742 337.194 112.613 336.547 112.612 335.894V333.639C112.614 332.32 113.139 331.055 114.072 330.123C115.005 329.191 116.271 328.668 117.59 328.669H130.888C131.541 328.669 132.187 328.797 132.79 329.046C133.393 329.296 133.941 329.662 134.403 330.124C134.864 330.585 135.231 331.133 135.48 331.736C135.73 332.34 135.858 332.986 135.858 333.639V333.639Z" fill="#00458B"/>
<path d="M112.649 333.58V335.838C112.647 336.492 112.774 337.14 113.023 337.744C113.272 338.349 113.638 338.898 114.1 339.361C114.561 339.824 115.11 340.191 115.714 340.441C116.318 340.692 116.965 340.82 117.619 340.82H118.618C117.964 340.82 117.316 340.692 116.713 340.441C116.109 340.191 115.56 339.824 115.098 339.361C114.637 338.898 114.271 338.349 114.022 337.744C113.773 337.14 113.646 336.492 113.648 335.838V333.58C113.647 332.928 113.776 332.281 114.025 331.678C114.275 331.075 114.641 330.527 115.103 330.065C115.564 329.604 116.112 329.238 116.715 328.988C117.318 328.738 117.965 328.61 118.618 328.61H117.619C116.966 328.61 116.32 328.738 115.717 328.988C115.113 329.238 114.565 329.604 114.104 330.065C113.642 330.527 113.276 331.075 113.027 331.678C112.777 332.281 112.649 332.928 112.649 333.58V333.58Z" fill="url(#paint79_linear)"/>
<path d="M135.858 333.639V335.894C135.859 336.547 135.73 337.193 135.481 337.797C135.231 338.4 134.865 338.948 134.404 339.41C133.942 339.871 133.394 340.237 132.791 340.487C132.187 340.736 131.541 340.865 130.888 340.864H118.586C117.933 340.865 117.286 340.736 116.682 340.487C116.079 340.238 115.53 339.872 115.068 339.41C114.606 338.949 114.239 338.401 113.989 337.797C113.738 337.194 113.609 336.547 113.609 335.894V333.639C113.61 332.32 114.135 331.055 115.069 330.123C116.002 329.191 117.267 328.668 118.586 328.669H130.888C131.541 328.669 132.187 328.797 132.79 329.046C133.393 329.296 133.941 329.662 134.403 330.124C134.865 330.585 135.231 331.133 135.48 331.736C135.73 332.34 135.858 332.986 135.858 333.639V333.639Z" fill="url(#paint80_linear)"/>
<path d="M92.1523 376.382C92.1403 376.524 92.1485 376.668 92.1766 376.807C91.71 376.496 91.1802 375.483 90.7185 374.265C90.4341 373.519 89.7148 369.915 89.7148 369.116C89.7148 367.276 90.981 365.738 92.3127 364.416C92.0138 366.965 92.5533 372.467 92.1523 376.382Z" fill="url(#paint81_linear)"/>
<path d="M98.649 460.429V470.382H96.9264V461.823H93.8775L93.6998 465.672C93.6315 466.875 93.4833 467.809 93.2555 468.474C93.0322 469.135 92.7063 469.618 92.2779 469.924C91.8496 470.229 91.2753 470.382 90.5553 470.382H90.1178V469.001L90.3912 468.98C90.7877 468.944 91.093 468.805 91.3072 468.563C91.526 468.322 91.69 467.957 91.7994 467.47C91.9134 466.977 91.9931 466.255 92.0387 465.303L92.2301 460.429H98.649ZM105.191 462.985H106.845V470.382H105.191V465.446L102.293 470.382H100.638V462.985H102.293V467.921L105.191 462.985ZM108.677 462.985H110.338V469.055H113.223V462.985H114.884V469.055H115.889L115.753 472.576H114.242V470.382H108.677V462.985ZM120.319 470.518C119.266 470.518 118.412 470.188 117.755 469.527C117.104 468.862 116.778 467.978 116.778 466.875V466.67C116.778 465.931 116.919 465.273 117.202 464.694C117.489 464.111 117.89 463.657 118.405 463.334C118.92 463.01 119.494 462.848 120.128 462.848C121.135 462.848 121.912 463.17 122.459 463.812C123.01 464.455 123.286 465.364 123.286 466.54V467.21H118.453C118.503 467.82 118.706 468.304 119.061 468.659C119.421 469.014 119.872 469.192 120.415 469.192C121.176 469.192 121.796 468.885 122.274 468.269L123.17 469.124C122.873 469.566 122.477 469.91 121.98 470.156C121.488 470.398 120.934 470.518 120.319 470.518ZM120.121 464.181C119.665 464.181 119.296 464.341 119.013 464.66C118.735 464.979 118.558 465.423 118.48 465.993H121.645V465.87C121.609 465.314 121.461 464.895 121.201 464.612C120.941 464.325 120.581 464.181 120.121 464.181ZM130.846 470.382H129.185V467.394H126.307V470.382H124.646V462.985H126.307V466.068H129.185V462.985H130.846V470.382ZM138.222 465.009C138.222 465.337 138.122 465.64 137.921 465.918C137.726 466.191 137.448 466.41 137.088 466.574C137.935 466.87 138.359 467.442 138.359 468.29C138.359 468.969 138.083 469.511 137.532 469.917C136.98 470.318 136.242 470.518 135.317 470.518C134.752 470.518 134.237 470.425 133.772 470.238C133.307 470.047 132.945 469.778 132.685 469.431C132.425 469.081 132.296 468.666 132.296 468.187H133.95C133.95 468.488 134.084 468.741 134.353 468.946C134.622 469.147 134.962 469.247 135.372 469.247C135.777 469.247 136.099 469.153 136.336 468.967C136.577 468.775 136.698 468.527 136.698 468.221C136.698 467.861 136.593 467.602 136.383 467.442C136.174 467.283 135.85 467.203 135.413 467.203H134.223V466.007H135.454C136.197 465.998 136.568 465.692 136.568 465.091C136.568 464.79 136.461 464.555 136.247 464.387C136.032 464.218 135.739 464.134 135.365 464.134C135 464.134 134.693 464.225 134.442 464.407C134.191 464.585 134.066 464.81 134.066 465.084H132.412C132.412 464.432 132.685 463.899 133.232 463.484C133.779 463.065 134.474 462.855 135.317 462.855C136.233 462.855 136.946 463.042 137.457 463.416C137.967 463.79 138.222 464.32 138.222 465.009ZM144.388 462.985H146.043V470.382H144.388V465.446L141.49 470.382H139.836V462.985H141.49V467.921L144.388 462.985ZM152.427 462.985H154.082V470.382H152.427V465.446L149.529 470.382H147.875V462.985H149.529V467.921L152.427 462.985Z" fill="#00458B"/>
<defs>
<filter id="filter0_d" x="268.95" y="244.5" width="248.653" height="223.75" filterUnits="userSpaceOnUse" color-interpolation-filters="sRGB">
<feFlood flood-opacity="0" result="BackgroundImageFix"/>
<feColorMatrix in="SourceAlpha" type="matrix" values="0 0 0 0 0 0 0 0 0 0 0 0 0 0 0 0 0 0 127 0"/>
<feOffset dx="1" dy="2"/>
<feGaussianBlur stdDeviation="5"/>
<feColorMatrix type="matrix" values="0 0 0 0 0 0 0 0 0 0 0 0 0 0 0 0 0 0 0.15 0"/>
<feBlend mode="normal" in2="BackgroundImageFix" result="effect1_dropShadow"/>
<feBlend mode="normal" in="SourceGraphic" in2="effect1_dropShadow" result="shape"/>
</filter>
<filter id="filter1_d" x="0" y="40.75" width="248.653" height="223.75" filterUnits="userSpaceOnUse" color-interpolation-filters="sRGB">
<feFlood flood-opacity="0" result="BackgroundImageFix"/>
<feColorMatrix in="SourceAlpha" type="matrix" values="0 0 0 0 0 0 0 0 0 0 0 0 0 0 0 0 0 0 127 0"/>
<feOffset dx="1" dy="2"/>
<feGaussianBlur stdDeviation="5"/>
<feColorMatrix type="matrix" values="0 0 0 0 0 0 0 0 0 0 0 0 0 0 0 0 0 0 0.15 0"/>
<feBlend mode="normal" in2="BackgroundImageFix" result="effect1_dropShadow"/>
<feBlend mode="normal" in="SourceGraphic" in2="effect1_dropShadow" result="shape"/>
</filter>
<filter id="filter2_d" x="268.95" y="0" width="248.653" height="223.75" filterUnits="userSpaceOnUse" color-interpolation-filters="sRGB">
<feFlood flood-opacity="0" result="BackgroundImageFix"/>
<feColorMatrix in="SourceAlpha" type="matrix" values="0 0 0 0 0 0 0 0 0 0 0 0 0 0 0 0 0 0 127 0"/>
<feOffset dx="1" dy="2"/>
<feGaussianBlur stdDeviation="5"/>
<feColorMatrix type="matrix" values="0 0 0 0 0 0 0 0 0 0 0 0 0 0 0 0 0 0 0.15 0"/>
<feBlend mode="normal" in2="BackgroundImageFix" result="effect1_dropShadow"/>
<feBlend mode="normal" in="SourceGraphic" in2="effect1_dropShadow" result="shape"/>
</filter>
<filter id="filter3_d" x="0" y="285.25" width="248.653" height="223.75" filterUnits="userSpaceOnUse" color-interpolation-filters="sRGB">
<feFlood flood-opacity="0" result="BackgroundImageFix"/>
<feColorMatrix in="SourceAlpha" type="matrix" values="0 0 0 0 0 0 0 0 0 0 0 0 0 0 0 0 0 0 127 0"/>
<feOffset dx="1" dy="2"/>
<feGaussianBlur stdDeviation="5"/>
<feColorMatrix type="matrix" values="0 0 0 0 0 0 0 0 0 0 0 0 0 0 0 0 0 0 0.15 0"/>
<feBlend mode="normal" in2="BackgroundImageFix" result="effect1_dropShadow"/>
<feBlend mode="normal" in="SourceGraphic" in2="effect1_dropShadow" result="shape"/>
</filter>
<linearGradient id="paint0_linear" x1="378.609" y1="379.889" x2="398.094" y2="391.164" gradientUnits="userSpaceOnUse">
<stop stop-opacity="0"/>
<stop offset="0.99"/>
</linearGradient>
<linearGradient id="paint1_linear" x1="3528.4" y1="3239.89" x2="3382.19" y2="3481.9" gradientUnits="userSpaceOnUse">
<stop stop-opacity="0"/>
<stop offset="0.99"/>
</linearGradient>
<linearGradient id="paint2_linear" x1="397.793" y1="4002.53" x2="12199" y2="5815.85" gradientUnits="userSpaceOnUse">
<stop stop-opacity="0"/>
<stop offset="0.99"/>
</linearGradient>
<linearGradient id="paint3_linear" x1="5015.53" y1="4002.53" x2="16816.7" y2="5815.85" gradientUnits="userSpaceOnUse">
<stop stop-opacity="0"/>
<stop offset="0.99"/>
</linearGradient>
<linearGradient id="paint4_linear" x1="6233.63" y1="14939.8" x2="22998.7" y2="14467.2" gradientUnits="userSpaceOnUse">
<stop stop-opacity="0"/>
<stop offset="0.99"/>
</linearGradient>
<linearGradient id="paint5_linear" x1="10463" y1="4072.12" x2="9890.52" y2="22379.8" gradientUnits="userSpaceOnUse">
<stop stop-opacity="0"/>
<stop offset="0.99"/>
</linearGradient>
<linearGradient id="paint6_linear" x1="375.403" y1="335.25" x2="376.553" y2="279.558" gradientUnits="userSpaceOnUse">
<stop stop-color="white" stop-opacity="0"/>
<stop offset="0.99" stop-color="white"/>
</linearGradient>
<linearGradient id="paint7_linear" x1="5176.48" y1="4324.76" x2="15192.2" y2="4740.28" gradientUnits="userSpaceOnUse">
<stop stop-opacity="0"/>
<stop offset="0.99"/>
</linearGradient>
<linearGradient id="paint8_linear" x1="398.384" y1="301.404" x2="407.588" y2="301.404" gradientUnits="userSpaceOnUse">
<stop stop-color="#ECC4D7"/>
<stop offset="0.42" stop-color="#EFD4D1"/>
<stop offset="1" stop-color="#F2EAC9"/>
</linearGradient>
<linearGradient id="paint9_linear" x1="7414.46" y1="9662.92" x2="20307.3" y2="10515" gradientUnits="userSpaceOnUse">
<stop stop-opacity="0"/>
<stop offset="0.99"/>
</linearGradient>
<linearGradient id="paint10_linear" x1="8975" y1="9496.5" x2="25190.8" y2="17438.9" gradientUnits="userSpaceOnUse">
<stop stop-opacity="0"/>
<stop offset="0.99"/>
</linearGradient>
<linearGradient id="paint11_linear" x1="5191.8" y1="10091.2" x2="6784.37" y2="2547.65" gradientUnits="userSpaceOnUse">
<stop stop-opacity="0"/>
<stop offset="0.99"/>
</linearGradient>
<linearGradient id="paint12_linear" x1="13622.1" y1="14009.4" x2="18961.7" y2="2468.1" gradientUnits="userSpaceOnUse">
<stop stop-color="white" stop-opacity="0"/>
<stop offset="0.99" stop-color="white"/>
</linearGradient>
<linearGradient id="paint13_linear" x1="992.072" y1="12476.3" x2="2973.51" y2="9129.69" gradientUnits="userSpaceOnUse">
<stop stop-opacity="0"/>
<stop offset="0.99"/>
</linearGradient>
<linearGradient id="paint14_linear" x1="5246.92" y1="1376.49" x2="5295.89" y2="1638.8" gradientUnits="userSpaceOnUse">
<stop stop-opacity="0"/>
<stop offset="0.99"/>
</linearGradient>
<linearGradient id="paint15_linear" x1="3585.06" y1="1731.85" x2="3584.52" y2="1350.78" gradientUnits="userSpaceOnUse">
<stop stop-opacity="0"/>
<stop offset="0.99"/>
</linearGradient>
<linearGradient id="paint16_linear" x1="6223.45" y1="778.976" x2="6223.73" y2="880.122" gradientUnits="userSpaceOnUse">
<stop stop-opacity="0"/>
<stop offset="0.99"/>
</linearGradient>
<linearGradient id="paint17_linear" x1="4178.87" y1="1388.05" x2="4691.47" y2="1696.56" gradientUnits="userSpaceOnUse">
<stop stop-opacity="0"/>
<stop offset="0.99"/>
</linearGradient>
<linearGradient id="paint18_linear" x1="7621.8" y1="5133.2" x2="6902.02" y2="4213.46" gradientUnits="userSpaceOnUse">
<stop stop-color="white" stop-opacity="0"/>
<stop offset="0.99" stop-color="white"/>
</linearGradient>
<linearGradient id="paint19_linear" x1="1706.71" y1="1048.82" x2="1981.92" y2="1048.82" gradientUnits="userSpaceOnUse">
<stop stop-color="#ECC4D7"/>
<stop offset="0.42" stop-color="#EFD4D1"/>
<stop offset="1" stop-color="#F2EAC9"/>
</linearGradient>
<linearGradient id="paint20_linear" x1="544.177" y1="3769.53" x2="708.695" y2="3767.27" gradientUnits="userSpaceOnUse">
<stop stop-color="white" stop-opacity="0"/>
<stop offset="0.99" stop-color="white"/>
</linearGradient>
<linearGradient id="paint21_linear" x1="1396.02" y1="316.41" x2="1395.96" y2="357.187" gradientUnits="userSpaceOnUse">
<stop stop-color="white" stop-opacity="0"/>
<stop offset="0.99" stop-color="white"/>
</linearGradient>
<linearGradient id="paint22_linear" x1="970.205" y1="316.255" x2="970.125" y2="354.568" gradientUnits="userSpaceOnUse">
<stop stop-color="white" stop-opacity="0"/>
<stop offset="0.99" stop-color="white"/>
</linearGradient>
<linearGradient id="paint23_linear" x1="2834.75" y1="316.713" x2="2834.73" y2="355.236" gradientUnits="userSpaceOnUse">
<stop stop-color="white" stop-opacity="0"/>
<stop offset="0.99" stop-color="white"/>
</linearGradient>
<linearGradient id="paint24_linear" x1="2113.24" y1="317.128" x2="2113.19" y2="355.646" gradientUnits="userSpaceOnUse">
<stop stop-color="white" stop-opacity="0"/>
<stop offset="0.99" stop-color="white"/>
</linearGradient>
<linearGradient id="paint25_linear" x1="1270.19" y1="318.272" x2="1270.12" y2="358.634" gradientUnits="userSpaceOnUse">
<stop stop-color="white" stop-opacity="0"/>
<stop offset="0.99" stop-color="white"/>
</linearGradient>
<linearGradient id="paint26_linear" x1="1512.52" y1="319.531" x2="1512.46" y2="360.308" gradientUnits="userSpaceOnUse">
<stop stop-color="white" stop-opacity="0"/>
<stop offset="0.99" stop-color="white"/>
</linearGradient>
<linearGradient id="paint27_linear" x1="1489.91" y1="321.849" x2="1489.82" y2="367.133" gradientUnits="userSpaceOnUse">
<stop stop-color="white" stop-opacity="0"/>
<stop offset="0.99" stop-color="white"/>
</linearGradient>
<linearGradient id="paint28_linear" x1="1234.43" y1="319.386" x2="1234.37" y2="357.699" gradientUnits="userSpaceOnUse">
<stop stop-color="white" stop-opacity="0"/>
<stop offset="0.99" stop-color="white"/>
</linearGradient>
<linearGradient id="paint29_linear" x1="1693.3" y1="320.116" x2="1693.24" y2="358.433" gradientUnits="userSpaceOnUse">
<stop stop-color="white" stop-opacity="0"/>
<stop offset="0.99" stop-color="white"/>
</linearGradient>
<linearGradient id="paint30_linear" x1="2544.34" y1="321.573" x2="2544.3" y2="363.984" gradientUnits="userSpaceOnUse">
<stop stop-color="white" stop-opacity="0"/>
<stop offset="0.99" stop-color="white"/>
</linearGradient>
<linearGradient id="paint31_linear" x1="935.979" y1="322.258" x2="935.799" y2="365.487" gradientUnits="userSpaceOnUse">
<stop stop-color="white" stop-opacity="0"/>
<stop offset="0.99" stop-color="white"/>
</linearGradient>
<linearGradient id="paint32_linear" x1="1396.02" y1="332.238" x2="1395.96" y2="373.014" gradientUnits="userSpaceOnUse">
<stop stop-color="white" stop-opacity="0"/>
<stop offset="0.99" stop-color="white"/>
</linearGradient>
<linearGradient id="paint33_linear" x1="970.205" y1="331.443" x2="970.125" y2="369.76" gradientUnits="userSpaceOnUse">
<stop stop-color="white" stop-opacity="0"/>
<stop offset="0.99" stop-color="white"/>
</linearGradient>
<linearGradient id="paint34_linear" x1="2834.75" y1="331.959" x2="2834.73" y2="370.482" gradientUnits="userSpaceOnUse">
<stop stop-color="white" stop-opacity="0"/>
<stop offset="0.99" stop-color="white"/>
</linearGradient>
<linearGradient id="paint35_linear" x1="2113.24" y1="332.369" x2="2113.19" y2="370.892" gradientUnits="userSpaceOnUse">
<stop stop-color="white" stop-opacity="0"/>
<stop offset="0.99" stop-color="white"/>
</linearGradient>
<linearGradient id="paint36_linear" x1="1270.19" y1="333.987" x2="1270.12" y2="374.354" gradientUnits="userSpaceOnUse">
<stop stop-color="white" stop-opacity="0"/>
<stop offset="0.99" stop-color="white"/>
</linearGradient>
<linearGradient id="paint37_linear" x1="1512.52" y1="335.359" x2="1512.46" y2="376.136" gradientUnits="userSpaceOnUse">
<stop stop-color="white" stop-opacity="0"/>
<stop offset="0.99" stop-color="white"/>
</linearGradient>
<linearGradient id="paint38_linear" x1="1489.91" y1="338.841" x2="1489.82" y2="384.126" gradientUnits="userSpaceOnUse">
<stop stop-color="white" stop-opacity="0"/>
<stop offset="0.99" stop-color="white"/>
</linearGradient>
<linearGradient id="paint39_linear" x1="1234.43" y1="334.579" x2="1234.37" y2="372.892" gradientUnits="userSpaceOnUse">
<stop stop-color="white" stop-opacity="0"/>
<stop offset="0.99" stop-color="white"/>
</linearGradient>
<linearGradient id="paint40_linear" x1="1693.3" y1="335.308" x2="1693.24" y2="373.622" gradientUnits="userSpaceOnUse">
<stop stop-color="white" stop-opacity="0"/>
<stop offset="0.99" stop-color="white"/>
</linearGradient>
<linearGradient id="paint41_linear" x1="2544.34" y1="337.819" x2="2544.3" y2="380.235" gradientUnits="userSpaceOnUse">
<stop stop-color="white" stop-opacity="0"/>
<stop offset="0.99" stop-color="white"/>
</linearGradient>
<linearGradient id="paint42_linear" x1="935.979" y1="338.721" x2="935.799" y2="381.951" gradientUnits="userSpaceOnUse">
<stop stop-color="white" stop-opacity="0"/>
<stop offset="0.99" stop-color="white"/>
</linearGradient>
<linearGradient id="paint43_linear" x1="1396.02" y1="348.066" x2="1395.96" y2="388.837" gradientUnits="userSpaceOnUse">
<stop stop-color="white" stop-opacity="0"/>
<stop offset="0.99" stop-color="white"/>
</linearGradient>
<linearGradient id="paint44_linear" x1="970.205" y1="346.636" x2="970.125" y2="384.954" gradientUnits="userSpaceOnUse">
<stop stop-color="white" stop-opacity="0"/>
<stop offset="0.99" stop-color="white"/>
</linearGradient>
<linearGradient id="paint45_linear" x1="2834.75" y1="347.204" x2="2834.73" y2="385.723" gradientUnits="userSpaceOnUse">
<stop stop-color="white" stop-opacity="0"/>
<stop offset="0.99" stop-color="white"/>
</linearGradient>
<linearGradient id="paint46_linear" x1="2113.24" y1="347.615" x2="2113.19" y2="386.137" gradientUnits="userSpaceOnUse">
<stop stop-color="white" stop-opacity="0"/>
<stop offset="0.99" stop-color="white"/>
</linearGradient>
<linearGradient id="paint47_linear" x1="1270.19" y1="349.708" x2="1270.12" y2="390.075" gradientUnits="userSpaceOnUse">
<stop stop-color="white" stop-opacity="0"/>
<stop offset="0.99" stop-color="white"/>
</linearGradient>
<linearGradient id="paint48_linear" x1="1512.52" y1="351.184" x2="1512.46" y2="391.961" gradientUnits="userSpaceOnUse">
<stop stop-color="white" stop-opacity="0"/>
<stop offset="0.99" stop-color="white"/>
</linearGradient>
<linearGradient id="paint49_linear" x1="1489.91" y1="355.831" x2="1489.82" y2="401.115" gradientUnits="userSpaceOnUse">
<stop stop-color="white" stop-opacity="0"/>
<stop offset="0.99" stop-color="white"/>
</linearGradient>
<linearGradient id="paint50_linear" x1="1234.43" y1="349.766" x2="1234.37" y2="388.084" gradientUnits="userSpaceOnUse">
<stop stop-color="white" stop-opacity="0"/>
<stop offset="0.99" stop-color="white"/>
</linearGradient>
<linearGradient id="paint51_linear" x1="1693.3" y1="350.5" x2="1693.24" y2="388.813" gradientUnits="userSpaceOnUse">
<stop stop-color="white" stop-opacity="0"/>
<stop offset="0.99" stop-color="white"/>
</linearGradient>
<linearGradient id="paint52_linear" x1="2544.34" y1="354.069" x2="2544.3" y2="396.485" gradientUnits="userSpaceOnUse">
<stop stop-color="white" stop-opacity="0"/>
<stop offset="0.99" stop-color="white"/>
</linearGradient>
<linearGradient id="paint53_linear" x1="935.979" y1="355.178" x2="935.799" y2="398.413" gradientUnits="userSpaceOnUse">
<stop stop-color="white" stop-opacity="0"/>
<stop offset="0.99" stop-color="white"/>
</linearGradient>
<linearGradient id="paint54_linear" x1="9855.95" y1="5078.31" x2="37146.7" y2="5078.31" gradientUnits="userSpaceOnUse">
<stop stop-opacity="0"/>
<stop offset="0.99"/>
</linearGradient>
<linearGradient id="paint55_linear" x1="20832.2" y1="-1961.36" x2="21521.9" y2="18460.2" gradientUnits="userSpaceOnUse">
<stop stop-opacity="0"/>
<stop offset="0.99"/>
</linearGradient>
<linearGradient id="paint56_linear" x1="90.4507" y1="166.198" x2="90.4507" y2="174.871" gradientUnits="userSpaceOnUse">
<stop stop-opacity="0"/>
<stop offset="0.41" stop-opacity="0.41"/>
<stop offset="0.99"/>
</linearGradient>
<linearGradient id="paint57_linear" x1="957.533" y1="470.698" x2="957.789" y2="486.682" gradientUnits="userSpaceOnUse">
<stop stop-opacity="0"/>
<stop offset="0.41" stop-opacity="0.41"/>
<stop offset="0.99"/>
</linearGradient>
<linearGradient id="paint58_linear" x1="363.933" y1="102.236" x2="376.087" y2="102.236" gradientUnits="userSpaceOnUse">
<stop stop-color="#010101" stop-opacity="0"/>
<stop offset="0.95" stop-color="#010101"/>
</linearGradient>
<linearGradient id="paint59_linear" x1="375.547" y1="161.219" x2="417.436" y2="14.8415" gradientUnits="userSpaceOnUse">
<stop stop-color="#010101" stop-opacity="0"/>
<stop offset="0.47" stop-color="#010101" stop-opacity="0.47"/>
<stop offset="0.95" stop-color="#010101"/>
</linearGradient>
<linearGradient id="paint60_linear" x1="6161.9" y1="17837.9" x2="11086.4" y2="17053.2" gradientUnits="userSpaceOnUse">
<stop stop-color="#010101" stop-opacity="0"/>
<stop offset="0.47" stop-color="#010101" stop-opacity="0.47"/>
<stop offset="0.95" stop-color="#010101"/>
</linearGradient>
<linearGradient id="paint61_linear" x1="2692.37" y1="4269.79" x2="1508.67" y2="5554.11" gradientUnits="userSpaceOnUse">
<stop stop-color="#010101" stop-opacity="0"/>
<stop offset="0.95" stop-color="#010101"/>
</linearGradient>
<linearGradient id="paint62_linear" x1="7826.49" y1="252.27" x2="13978.2" y2="252.27" gradientUnits="userSpaceOnUse">
<stop stop-color="#010101" stop-opacity="0"/>
<stop offset="0.95" stop-color="#010101"/>
</linearGradient>
<linearGradient id="paint63_linear" x1="7826.49" y1="279.949" x2="13978.2" y2="279.949" gradientUnits="userSpaceOnUse">
<stop stop-color="#010101" stop-opacity="0"/>
<stop offset="0.95" stop-color="#010101"/>
</linearGradient>
<linearGradient id="paint64_linear" x1="7826.49" y1="307.627" x2="13978.2" y2="307.627" gradientUnits="userSpaceOnUse">
<stop stop-color="#010101" stop-opacity="0"/>
<stop offset="0.95" stop-color="#010101"/>
</linearGradient>
<linearGradient id="paint65_linear" x1="7826.49" y1="335.291" x2="13978.2" y2="335.291" gradientUnits="userSpaceOnUse">
<stop stop-color="#010101" stop-opacity="0"/>
<stop offset="0.95" stop-color="#010101"/>
</linearGradient>
<linearGradient id="paint66_linear" x1="7826.49" y1="362.969" x2="13978.2" y2="362.969" gradientUnits="userSpaceOnUse">
<stop stop-color="#010101" stop-opacity="0"/>
<stop offset="0.95" stop-color="#010101"/>
</linearGradient>
<linearGradient id="paint67_linear" x1="1691.96" y1="738.212" x2="2291.97" y2="764.635" gradientUnits="userSpaceOnUse">
<stop stop-color="#010101" stop-opacity="0"/>
<stop offset="0.47" stop-color="#010101" stop-opacity="0.47"/>
<stop offset="0.95" stop-color="#010101"/>
</linearGradient>
<linearGradient id="paint68_linear" x1="397.379" y1="36.8744" x2="396.003" y2="58.861" gradientUnits="userSpaceOnUse">
<stop stop-color="white" stop-opacity="0"/>
<stop offset="0.95" stop-color="white"/>
</linearGradient>
<linearGradient id="paint69_linear" x1="701.329" y1="2522.48" x2="1410.87" y2="2587.56" gradientUnits="userSpaceOnUse">
<stop stop-color="#010101" stop-opacity="0"/>
<stop offset="0.95" stop-color="#010101"/>
</linearGradient>
<linearGradient id="paint70_linear" x1="92.079" y1="387.486" x2="104.233" y2="387.486" gradientUnits="userSpaceOnUse">
<stop stop-color="#010101" stop-opacity="0"/>
<stop offset="0.95" stop-color="#010101"/>
</linearGradient>
<linearGradient id="paint71_linear" x1="103.694" y1="446.469" x2="145.582" y2="300.091" gradientUnits="userSpaceOnUse">
<stop stop-color="#010101" stop-opacity="0"/>
<stop offset="0.47" stop-color="#010101" stop-opacity="0.47"/>
<stop offset="0.95" stop-color="#010101"/>
</linearGradient>
<linearGradient id="paint72_linear" x1="5890.04" y1="18123.2" x2="10814.6" y2="17338.5" gradientUnits="userSpaceOnUse">
<stop stop-color="#010101" stop-opacity="0"/>
<stop offset="0.47" stop-color="#010101" stop-opacity="0.47"/>
<stop offset="0.95" stop-color="#010101"/>
</linearGradient>
<linearGradient id="paint73_linear" x1="2420.52" y1="4555.04" x2="1236.82" y2="5839.36" gradientUnits="userSpaceOnUse">
<stop stop-color="#010101" stop-opacity="0"/>
<stop offset="0.95" stop-color="#010101"/>
</linearGradient>
<linearGradient id="paint74_linear" x1="7554.64" y1="537.519" x2="13706.3" y2="537.519" gradientUnits="userSpaceOnUse">
<stop stop-color="#010101" stop-opacity="0"/>
<stop offset="0.95" stop-color="#010101"/>
</linearGradient>
<linearGradient id="paint75_linear" x1="7554.64" y1="565.199" x2="13706.3" y2="565.199" gradientUnits="userSpaceOnUse">
<stop stop-color="#010101" stop-opacity="0"/>
<stop offset="0.95" stop-color="#010101"/>
</linearGradient>
<linearGradient id="paint76_linear" x1="7554.64" y1="592.875" x2="13706.3" y2="592.875" gradientUnits="userSpaceOnUse">
<stop stop-color="#010101" stop-opacity="0"/>
<stop offset="0.95" stop-color="#010101"/>
</linearGradient>
<linearGradient id="paint77_linear" x1="7554.64" y1="620.541" x2="13706.3" y2="620.541" gradientUnits="userSpaceOnUse">
<stop stop-color="#010101" stop-opacity="0"/>
<stop offset="0.95" stop-color="#010101"/>
</linearGradient>
<linearGradient id="paint78_linear" x1="7554.64" y1="648.22" x2="13706.3" y2="648.22" gradientUnits="userSpaceOnUse">
<stop stop-color="#010101" stop-opacity="0"/>
<stop offset="0.95" stop-color="#010101"/>
</linearGradient>
<linearGradient id="paint79_linear" x1="1420.1" y1="1023.46" x2="2020.12" y2="1049.88" gradientUnits="userSpaceOnUse">
<stop stop-color="#010101" stop-opacity="0"/>
<stop offset="0.47" stop-color="#010101" stop-opacity="0.47"/>
<stop offset="0.95" stop-color="#010101"/>
</linearGradient>
<linearGradient id="paint80_linear" x1="125.524" y1="322.124" x2="124.149" y2="344.111" gradientUnits="userSpaceOnUse">
<stop stop-color="white" stop-opacity="0"/>
<stop offset="0.95" stop-color="white"/>
</linearGradient>
<linearGradient id="paint81_linear" x1="429.475" y1="2807.73" x2="1139.01" y2="2872.81" gradientUnits="userSpaceOnUse">
<stop stop-color="#010101" stop-opacity="0"/>
<stop offset="0.95" stop-color="#010101"/>
</linearGradient>
<clipPath id="clip0">
<rect x="66.7291" y="71.3887" width="118.771" height="113.194" fill="white"/>
</clipPath>
<clipPath id="clip1">
<rect x="386.154" y="85.7213" width="19.1315" height="19.1315" fill="white"/>
</clipPath>
<clipPath id="clip2">
<rect x="114.3" y="370.971" width="19.1315" height="19.1315" fill="white"/>
</clipPath>
</defs>
</svg>
