<svg width="694" height="528" fill="none" xmlns="http://www.w3.org/2000/svg"><path d="M339.223 406.108l-9.71-47.127a1.885 1.885 0 01.388-1.576 1.89 1.89 0 011.467-.697h49.351a1.893 1.893 0 011.855 1.522l9.558 47.878h-52.909z" fill="#7FB6DD"/><path d="M422.794 409.168h-81.132a2.436 2.436 0 01-2.438-2.439 2.438 2.438 0 012.438-2.439h81.132c.647 0 1.267.257 1.724.715a2.435 2.435 0 010 3.448 2.435 2.435 0 01-1.724.715z" fill="#6AA8CE"/><path d="M335.003 360.294l9.041 42.75h44.755l-9.043-42.75h-44.753z" fill="#F3F9FF"/><path d="M351.274 110.229c15.186 0 27.496-12.464 27.496-27.839 0-15.375-12.31-27.839-27.496-27.839-15.186 0-27.496 12.464-27.496 27.84 0 15.374 12.31 27.838 27.496 27.838z" fill="#BFDBF5"/><path d="M351.274 107.209c13.539 0 24.513-11.112 24.513-24.819 0-13.707-10.974-24.819-24.513-24.819-13.538 0-24.513 11.112-24.513 24.82 0 13.706 10.975 24.818 24.513 24.818z" fill="#F9FAFA"/><path d="M353.329 82.39a2.06 2.06 0 01-1.285 1.88 2.054 2.054 0 11-.77-3.959 2.063 2.063 0 011.902 1.287c.103.252.154.52.153.792zm-1.532-23.912h-.986v4.54h.986v-4.54zm0 43.312h-.986v4.54h.986v-4.54zm23.138-18.887v-.998h-4.483v.998h4.483zm-42.779 0v-.998h-4.483v.998h4.483z" fill="#BFDBF5"/><path d="M350.76 81.671l.551-15.738.555 15.738h-1.106z" fill="#BFDBF5"/><path d="M350.673 82.671l-10.592-11.533 11.373 10.745-.781.788z" fill="#BFDBF5"/><path d="M122.608 46.364H6.544v291.9h116.064v-291.9zm150.107 0H139.628v291.9h133.087v-291.9zm265.845 0H422.496v291.9H538.56v-291.9zm150.107 0H555.58v291.9h133.087v-291.9z" fill="#fff"/><path opacity=".5" d="M693.601 419.307c0-.076-.02-.145-.03-.219a5.068 5.068 0 00-.773-2.143l-.015-.025-.015-.024a7.467 7.467 0 00-.557-.685 7.13 7.13 0 00-1.199-1.062l-.202-.135a7.457 7.457 0 00-1.671-.798l-.246-.077a9.702 9.702 0 00-2.493-.394h-.278c-.494-.006-.987.017-1.478.069-.296.03-.596.062-.897.099l-.281.036a23.76 23.76 0 00-2.51.459l-.298.078c-.734.191-1.45.45-2.136.774-.093.047-.189.094-.281.143a7.282 7.282 0 00-2.394 1.946 6.832 6.832 0 00-.544.825c-1.446 2.616-1.895 5.984-1.375 8.91-.456.38-.897.774-1.315 1.193a19.046 19.046 0 00-1.666 1.901l-.916-7.846c-.182-1.571-.365-3.18 0-4.717.126-.53.315-1.057.461-1.586l.086.076a3.717 3.717 0 002.574.704c2.52-.155 8.868-7.284 9.435-11.752.209-1.673.266-3.663-.865-5.021-.154-.177-.36-.3-.589-.352-.822-.204-2.022.246-2.722.51a10.837 10.837 0 00-2.887 1.771c-2.128 1.779-3.724 4.124-4.926 6.516-.661 1.315-1.809 3.362-1.54 4.85.118.748.407 1.459.845 2.077a4.639 4.639 0 00-.421 2.177c-.552-2.079-.794-4.217-1.323-6.303-.673-2.658-1.197-6.491-1.604-10.928 2.956-4.481 5.237-5.979 6.405-6.479l.034.052a7.07 7.07 0 001.68 1.697c4.636 3.343 11.408 2.173 14.815-2.355 2.56-3.399 2.885-9.723.825-14.226-.044-.096-.088-.192-.135-.285a15.052 15.052 0 00-.493-.919v-.013c-1.207-1.987-2.973-3.448-5.311-3.845.157-.413.29-.835.397-1.264.022-.086.044-.17.061-.246.212-.949.315-1.919.306-2.892v-.246a14.842 14.842 0 00-.278-2.496l-.052-.246a15.224 15.224 0 00-.811-2.599 13.396 13.396 0 00-.951-1.86 9.808 9.808 0 00-.83-1.165 4.548 4.548 0 00-.739-.702l-.027-.022a6.98 6.98 0 00-1.214-.722c-.059-.032-.123-.059-.187-.089l-.134-.059-.231-.093a9.686 9.686 0 00-.985-.34l-.234-.062a12.75 12.75 0 00-1.956-.36l-.247-.024a14.313 14.313 0 00-2.769.017l-.246.025a12.92 12.92 0 00-2.293.492 11.109 11.109 0 00-2.535 1.111l-.222.136a9.382 9.382 0 00-1.764 1.446 2.538 2.538 0 00-.194.207 8.979 8.979 0 00-1.057 1.433 823.597 823.597 0 010-8.015l.168.024c.62.094 1.007.111 1.007.111 3.464.572 6.425-1.377 8.09-4.321.074-.128.145-.246.212-.389a5.87 5.87 0 01.18-.357 10.158 10.158 0 001.019-3.804c0-.103 0-.211.015-.32a9.168 9.168 0 00-.374-2.796c-.3-.997-.745-1.945-1.321-2.813-.044-.071-.091-.135-.143-.207-.051-.071-.098-.148-.152-.222a22.168 22.168 0 00-1.244-1.591 12.415 12.415 0 00-1.693-1.636l-.192-.147a8.57 8.57 0 00-.409-.294 5.055 5.055 0 00-1.14-.573l-.178-.06a5.28 5.28 0 00-1.162-.216h-.035a5.79 5.79 0 00-.618 0h-.118a7.245 7.245 0 00-1.712.315c-.625.191-1.231.439-1.811.739l-.197.103c-.694.375-1.36.8-1.993 1.272l-.204.152-.36.279c-.408.324-.797.673-1.163 1.044a7.219 7.219 0 00-.175.175c-.509.533-.971 1.11-1.379 1.724-.049.077-.099.151-.146.227-.37.588-.683 1.211-.933 1.86-.032.084-.064.167-.091.246a9.176 9.176 0 00-.493 2.131c0 .099-.02.195-.027.293a8.71 8.71 0 00.202 2.589c.027.121.059.247.091.355 1.21 4.161 5.548 5.557 7.977 6.02l.11.02c-.075.307-.11.623-.103.939-.028 2.744-.055 5.492-.081 8.245l-2.555-2.18c.393-.98.512-2.048.345-3.09-.232-1.724-2.087-3.549-3.202-4.747-2.023-2.182-4.435-4.17-7.186-5.343a10.729 10.729 0 00-3.52-.886c-.798-.05-2.163-.096-2.932.428l-.081.062c-.18.139-.316.326-.394.539-.69 1.895.037 4.053.81 5.809a11.707 11.707 0 002.232 3.156c-.246 0-.544.014-.911.054-1.592.155-4.154.754-5.388 2.887v.015a5.063 5.063 0 00-.552 1.436c-1.037 4.628-1.219 12.543 5.967 13.881 5.082.948 8.824-1.426 10.592-3.843l.025-.037.172-.246a34.487 34.487 0 012.91 2.988 29.737 29.737 0 013.793 5.291c.123 7.445.362 15.049.796 20.557a42.818 42.818 0 00-2.513-3.734.658.658 0 00.091-.119c3.05-3.842 1.496-12.563-2.074-15.088a3.654 3.654 0 00-.246-.167 10.942 10.942 0 00-2.505-1.136c-.084-.027-.165-.054-.247-.076a11.9 11.9 0 00-2.663-.451h-.246c-.777-.03-1.556.012-2.325.125-.084 0-.165.02-.247.035a13.377 13.377 0 00-2.261.569c-.455.156-.901.335-1.338.537-.111.052-.217.106-.325.16-.057.025-.111.054-.167.084a.695.695 0 00-1.35.813l-.116.079c-.2.138-.389.285-.569.436l-.153.13a7.01 7.01 0 00-1.168 1.335l-.135.212a7.185 7.185 0 00-.84 1.971 9.578 9.578 0 00-.266 3.165c0 .084 0 .163.017.247.077.766.221 1.523.431 2.264.025.083.047.165.072.246.161.532.351 1.055.569 1.567a8.324 8.324 0 00-3.412 2.695l-.03.039a.187.187 0 01-.022.039 7.387 7.387 0 00-.153.225c-.017.027-.034.054-.046.078-.897 1.444-1.202 3.178-1.183 4.861.082 6.818 6.651 14.287 11.608 13.637 2.956-.387 5.641-1.409 7.577-3.579.072-.079.14-.161.205-.247l.022-.024c.106.162.224.317.352.463a95.021 95.021 0 017.284 9.607c.645.9 1.174 1.878 1.577 2.909.372 1.067.492 2.217.593 3.333.56 5.826 1.018 11.805-.162 17.502h-16.847a2.35 2.35 0 00-1.659.687 2.35 2.35 0 00-.686 1.659v7.353a1.361 1.361 0 001.362 1.362v14.702c0 1.019.362 1.862.586 2.82-1.658.766-3.862.958-5.666 1.274-2.158.377-4.325.692-6.496.985-2.288.301-4.581.567-6.877.813-2.922.31-5.969.85-8.905.85h45.079c2.429 0 5.043.337 7.319-.724a6.748 6.748 0 003.777-6.009v-14.703a1.362 1.362 0 001.362-1.363v-7.355a2.347 2.347 0 00-1.448-2.165 2.345 2.345 0 00-.897-.178h-7.494l-.515-13.113a3.817 3.817 0 01.074-1.143 3.18 3.18 0 01.512-.97 11.042 11.042 0 012.02-2.166c.146-.114.286-.235.419-.364 1.059 3.648 5.154 5.666 8.701 5.666a7.872 7.872 0 003.599-.887l.286-.15a10.688 10.688 0 002.015-1.478c.069-.065.138-.126.202-.19a14.358 14.358 0 001.855-2.217c.049-.072.096-.146.142-.219.476-.72.895-1.476 1.252-2.262.034-.079.071-.153.106-.231.327-.746.602-1.513.823-2.296l.066-.247c.136-.52.243-1.047.323-1.579a6.8 6.8 0 00.032-.246c.05-.376.081-.754.091-1.133v-.229a9.35 9.35 0 00-.076-1.183zm-35.441-47.201l.054-.078c.44-.662.705-1.425.769-2.217 0-.36.049-.811.086-1.326.086-1.118.15-2.537-.212-3.966.186.003.372-.02.552-.066a3.973 3.973 0 002.372-1.712l2.168 2.82.165.22a12.983 12.983 0 00-.473 2.421 9.724 9.724 0 001.01 5.459c.01 1.527.019 3.055.027 4.584-1.983-2.259-4.033-4.564-6.528-6.139h.01zm10.905 6.014c.08.041.162.076.247.106a17.768 17.768 0 004.453 1.411l-.11.214c-1.895 3.789-3.257 9.544-1.06 13.438-1.943 1.303-4.899 4.345-6.158 5.666.31-.328-.232-2.993-.269-3.513a410.3 410.3 0 01-.246-3.862c-.145-2.607-.786-5.228.054-7.74a24.846 24.846 0 012.868-5.856.98.98 0 00.211.136h.01zm-3.761-3.346a11.212 11.212 0 002.956 2.875l.091.185.108-.054.091.056a126.426 126.426 0 00-3.02 5.117c-.093-2.73-.169-5.456-.226-8.179zm-5.245 36.503c.902-1.338 1.569-3.018 1.929-5.117a26.8 26.8 0 00.357-2.975c.096-1.821-.093-3.356-.687-4.649.359-.197.691-.441.985-.727l.064-.061c.816 1.325 2.102 3.53 2.956 4.991.052.576.109 1.128.168 1.643.67 5.821 1.7 11.624 2.574 17.423-2.787-3.514-5.569-7.026-8.346-10.536v.008z" fill="#B4CDD6"/><path d="M630.994 417.24a22.652 22.652 0 00-3.882 3.964l-1.087-9.307c-.217-1.862-.431-3.769 0-5.594.316-1.328.971-2.643.739-3.993a5.52 5.52 0 00-1.399 3.961c-.658-2.464-.941-5.003-1.569-7.479-.801-3.151-1.421-7.696-1.904-12.958 5.19-7.84 8.594-7.981 8.594-7.981s2.351-1.517 0-1.084c-1.894.35-6.875 5.466-8.737 7.44.367-.392-.276-3.553-.318-4.168a393.383 393.383 0 01-.283-4.58c-.173-3.094-.931-6.2.066-9.181a29.346 29.346 0 014.481-8.474c-.263-.231-.638.099-.825.392a145.298 145.298 0 00-4.173 7.013 817.2 817.2 0 01-.443-33.615c-.53.416-.582 1.185-.587 1.86l-.093 9.779-3.474-2.956-.285.426 2.985 3.888c.245.288.448.61.604.955.153.477.217.978.189 1.478l.069 12.601c-2.975-3.407-6.114-6.935-10.316-8.608 2.148.855 4.36 3.449 5.882 5.124a35.183 35.183 0 014.501 6.277c.145 8.826.428 17.847.941 24.387a54.424 54.424 0 00-3.404-4.993s-1.397-1.059-.772-.337c.441.51 2.915 4.749 4.336 7.208.064.684.131 1.337.202 1.948.796 6.898 2.015 13.795 3.052 20.663l-10.78-13.627c-.677.719 0 1.867.636 2.616a112.696 112.696 0 018.639 11.383c.724 1.091 1.436 2.217 1.87 3.449.433 1.231.576 2.616.704 3.953.761 7.937 1.367 16.116-.951 23.747l3.856-.017c-.244-6.176-.486-12.351-.727-18.524a4.436 4.436 0 01.086-1.355c.135-.416.34-.806.606-1.153a13.236 13.236 0 012.397-2.567c.337-.226.618-.526.823-.877.18-.382.111-.899-.249-1.084z" fill="#6198BA"/><path d="M616.93 389.2a31.694 31.694 0 01-.426 3.527c-.428 2.513-1.232 4.52-2.313 6.114a9.79 9.79 0 01-.404.564l-.022.028-.246.317a5.974 5.974 0 01-.247.284c-2.296 2.574-5.488 3.786-8.989 4.246-5.87.771-13.669-8.087-13.763-16.174-.024-1.995.338-4.052 1.4-5.762a.95.95 0 01.059-.096c.056-.089.118-.177.177-.266l.032-.042.032-.049a9.862 9.862 0 014.047-3.203c.052-.027.102-.046.153-.069 3.678-1.579 8.312-1.451 11.81-.433 4.306 1.251 6.737 2.998 7.883 5.496.706 1.539.933 3.357.817 5.518z" fill="#A4CFEA"/><path d="M614.191 398.841a9.814 9.814 0 01-.404.565l-.022.027-.246.317-21.387-17.719a.467.467 0 01.056-.093l22.003 16.903z" fill="#6198BA"/><path d="M643.914 349.32a15.238 15.238 0 01-.364 3.432c-.02.103-.047.204-.072.308a12.738 12.738 0 01-1.436 3.485 11.997 11.997 0 01-1.596 2.101c-5.555 5.873-15.273.964-15.273.964a2.035 2.035 0 01-.281-.128 4.045 4.045 0 01-.273-.148l-.05-.03-.034-.02-.247-.142-.105-.069c-.077-.047-.158-.096-.247-.156-2.099-1.394-6.082-4.971-5.498-11.205.017-.175.037-.355.061-.535.124-.909.325-1.806.602-2.68.12-.393.262-.779.426-1.156.051-.125.108-.246.167-.376a10.893 10.893 0 012.04-2.984 11.197 11.197 0 012.352-1.887 13.108 13.108 0 012.71-1.231c.091-.037.187-.064.279-.091a15.403 15.403 0 012.722-.569l.288-.032a16.987 16.987 0 013.283-.02l.284.029a15.348 15.348 0 012.596.503 11.958 11.958 0 011.456.515l.158.069c.076.034.15.066.224.103a8.17 8.17 0 011.436.857l.032.028c.324.242.619.521.879.83.36.437.69.899.986 1.382.049.074.093.152.138.231.374.633.703 1.292.985 1.971l.109.268c.359.913.644 1.853.852 2.811.02.099.042.195.061.293.193.975.305 1.963.333 2.956.015.126.017.227.017.323z" fill="#BBF2FF"/><path d="M617.81 382.224a1.223 1.223 0 01-.109.14l-.34.377h-.012c-.027.027-.052.052-.079.074a5.238 5.238 0 01-1.155.862c-2.399 1.335-5.419 1.456-8.201 1.148-.209-.025-.416-.047-.623-.076a28.35 28.35 0 01-1.424-.225 32.668 32.668 0 01-2.847-.628 21.535 21.535 0 01-.535-.155 12.349 12.349 0 01-3.537-1.631 2.994 2.994 0 01-.323-.246 6.99 6.99 0 01-1.811-2.059 5.09 5.09 0 01-.179-.34c-.128-.247-.247-.525-.37-.799a17.592 17.592 0 01-.677-1.852l-.084-.288a15.53 15.53 0 01-.51-2.685c0-.099-.017-.195-.022-.293a11.315 11.315 0 01.246-3.486c.022-.094.044-.182.069-.269a8.53 8.53 0 011.143-2.571 8.394 8.394 0 011.387-1.582l.18-.158c.214-.177.438-.352.675-.517l.14-.091a.658.658 0 01.109-.071c.474-.32.968-.61 1.478-.87a.077.077 0 01.029-.017l.2-.101c.125-.064.246-.128.384-.19.517-.24 1.047-.453 1.586-.638.092-.032.183-.062.276-.089a15.869 15.869 0 015.452-.771l.298.015c1.07.057 2.131.236 3.16.535.101.024.2.056.296.088 1.044.323 2.043.777 2.973 1.35.099.059.195.123.291.192 4.239 3.028 6.08 13.359 2.466 17.917z" fill="#4987A5"/><path d="M613.024 348.051c-.045.611-.097 1.146-.106 1.569a5.559 5.559 0 01-.909 2.631c-.032.059-.069.114-.104.173l-.032.049-.288.414-.03.044c-2.106 2.868-6.545 5.683-12.563 4.56-8.518-1.589-8.301-10.974-7.075-16.463a6.024 6.024 0 01.656-1.702c-.003-.006-.003-.012 0-.017 1.463-2.53 4.5-3.242 6.387-3.427.471-.049.867-.061 1.153-.064.246 0 .402 0 .448.012 8.524.739 11.349 4.154 12.197 7.516.44 1.695.367 3.378.266 4.705z" fill="#A4CFEA"/><path d="M616.551 340.649a4.217 4.217 0 01-.303.576 4.706 4.706 0 01-2.816 2.03c-3.089.887-13.575-5.631-16.029-11.191-.919-2.082-1.781-4.641-.963-6.897.092-.254.255-.476.468-.641.032-.025.064-.052.099-.074.906-.618 2.525-.564 3.471-.493a12.8 12.8 0 014.187 1.05c3.267 1.394 6.122 3.749 8.519 6.338 1.318 1.421 3.515 3.587 3.791 5.631a6.904 6.904 0 01-.424 3.671z" fill="#8AB8DA"/><path d="M640.916 391.41c-.662 5.301-8.203 13.755-11.188 13.937-1.291.079-2.296-.246-3.052-.832a4.285 4.285 0 01-.597-.569 5.65 5.65 0 01-1.209-2.722c-.318-1.764 1.044-4.188 1.828-5.752 1.424-2.838 3.318-5.619 5.843-7.728a12.714 12.714 0 013.422-2.099c.83-.325 2.254-.85 3.229-.606.272.062.517.209.7.419 1.34 1.609 1.273 3.968 1.024 5.952z" fill="#4987A5"/><path d="M632.94 321.681c0 .128 0 .246-.017.379a12.073 12.073 0 01-1.212 4.51l-.21.419c-.08.153-.162.306-.246.458-1.971 3.493-5.489 5.804-9.595 5.124 0 0-.458-.02-1.195-.13-.091 0-.182-.025-.278-.042l-.118-.017-.397-.074c-2.88-.547-8.026-2.203-9.457-7.144a9.651 9.651 0 01-.325-1.695 10.46 10.46 0 01-.025-1.796c0-.116.02-.231.032-.347.09-.863.283-1.711.574-2.528.032-.098.069-.199.106-.298a12.98 12.98 0 011.106-2.204l.175-.271a14.77 14.77 0 011.636-2.045 8.08 8.08 0 01.207-.207 15.79 15.79 0 011.379-1.232c.138-.11.281-.219.424-.33.081-.059.16-.12.246-.179a19.912 19.912 0 012.365-1.506c.079-.039.158-.078.234-.12a12.8 12.8 0 012.424-.961 8.464 8.464 0 011.759-.301h.14a7.59 7.59 0 01.739 0h.042c.467.03.929.113 1.377.247l.212.071c.477.169.931.397 1.35.68.165.111.328.227.493.347.079.057.153.116.229.175.65.523 1.255 1.1 1.808 1.725l.2.224a25.141 25.141 0 011.478 1.887c.064.086.123.175.182.263.059.089.116.161.167.247a12.626 12.626 0 011.56 3.352c.029.106.059.207.083.308.256.983.373 1.996.348 3.011z" fill="#A4CFEA"/><path d="M654.051 409.631v.271c-.015.436-.049.884-.111 1.343-.012.096-.022.192-.037.288a17.2 17.2 0 01-.384 1.869c-.027.097-.052.193-.079.286a20.41 20.41 0 01-.985 2.725c-.04.091-.084.182-.124.273a19.882 19.882 0 01-1.478 2.683c-.054.086-.113.172-.17.258a16.98 16.98 0 01-2.197 2.626l-.246.225a12.634 12.634 0 01-2.39 1.751c-.111.059-.221.118-.335.175a9.292 9.292 0 01-4.266 1.054c-4.225 0-9.1-2.397-10.334-6.752l-.044-.155a.205.205 0 000-.035 58.915 58.915 0 00-.087-.347.14.14 0 000-.029 7.308 7.308 0 01-.086-.417v-.061c-.653-3.501-.126-7.556 1.609-10.696.19-.345.405-.674.645-.986.112-.147.231-.289.357-.423a8.66 8.66 0 012.481-1.885c.111-.061.222-.116.335-.17a14.322 14.322 0 012.532-.919l.352-.093a28.142 28.142 0 012.979-.542l.332-.045c.357-.041.715-.083 1.062-.118a15.78 15.78 0 011.766-.081h.33a11.428 11.428 0 013.237.557 8.793 8.793 0 011.971.948l.246.16a8.319 8.319 0 011.427 1.256c.236.258.457.531.66.816v.012l.017.027a6.036 6.036 0 01.936 2.572l.035.259c.041.439.055.879.044 1.32z" fill="#8AB8DA"/><path d="M616.551 340.649l-.303.576-19.34-16.689c.032-.025.064-.052.099-.074l19.544 16.187z" fill="#F3F9FF"/><path d="M639.746 385.458l-13.184 18.938a5.52 5.52 0 01-.689-.712l13.873-18.226z" fill="#6198BA"/><path d="M612.021 352.259l-.116.165-.032.049-.288.414-.03.044-18.992-13.605a.025.025 0 010-.017l19.436 12.942.022.008zm13.282 5.661l-.266.108c-.051-.121-3.665-9.77-5.505-14.689.051-.126.108-.247.167-.377 1.796 4.799 5.543 14.815 5.604 14.958zm1.047-1.621l-.123.635-4.71-16.699c.072-.084.148-.163.232-.246l4.601 16.31zm1.146-1.478l-.118-.086-.151.44c0-.413-2.155-10.967-3.397-16.906.087-.056.173-.111.261-.162 3.528 16.544 3.454 16.645 3.405 16.714zm-3.188 4.187l-.128.062-.13.064-.109-.219-5.498-11.206c.017-.175.037-.355.061-.535l5.804 11.834zm4.663-6.094l-.285.035-1.877-16.069c.091-.037.187-.064.278-.091l1.884 16.125zm1.414-2.064l-.307.413c-.116-4.596-.269-11.866-.269-15.043l.288-.032c.015 2.938.165 9.777.288 14.662zm3.279-14.652l-1.685 12.809-.246.2 1.653-13.056.278.047zm2.597.502l-1.873 8.747-.389.434 1.971-9.257c.108.024.202.049.291.076zm1.837.687a951.244 951.244 0 01-1.244 4.72l-.226.168c.394-1.478.884-3.474 1.246-4.991.077.047.15.066.224.103zm4.129 18.843c-.059.106-.121.209-.185.315l-16.854 2.131-.037-.286 17.076-2.16zm1.323-3.479c-.02.104-.047.205-.072.308l-16.694 3.178-.054-.283 16.82-3.203zm.364-3.431l-15.815 4.89-.083-.274 15.896-4.912.002.296zm-.335-3.257c-4.948 2.089-13.208 5.568-13.479 5.575l-.022-.286c.377-.076 8.351-3.429 13.44-5.582.02.099.042.195.061.293zm-.914-3.103l-9.969 5.082-.133-.247 9.994-5.094c.037.079.071.167.108.259zm-1.096-2.245l-6.195 3.449.216-.384 5.841-3.309.138.244z" fill="#F3F9FF"/><path d="M633.28 405.566a6980.62 6980.62 0 00-1.821 12.086l-.288-.032s0-.069.027-.175c.158-1.067 1.01-6.708 1.725-11.45.111-.149.23-.292.357-.429zm2.815-2.054l-3.064 12.923v.047l-.411.492.086-.362 3.067-12.937a5.66 5.66 0 01.322-.163zm2.885-1.012c-2.875 9.341-3.766 12.085-4.069 12.903-.121.335-.146.345-.168.357l-.059-.133-.347.313c.014-.03.051-.126.106-.281.492-1.429 2.554-7.868 4.187-13.056l.35-.103zm3.311-.587l-5.043 12.206-.182.446-.039.096-.064.15-.197-.078-.069-.03.15-.362 5.114-12.384.33-.044zm3.16-.192c-1.505 2.779-3.971 7.454-5.912 11.137l-.221.421-.121.247-.471.214c.027-.054.055-.108.084-.16.074-.14.148-.288.227-.436 1.845-3.518 4.449-8.437 6.074-11.418l.34-.005zm3.235.557l-6.964 9.383-.325.441-.037.046-.072.013-.246.044.209-.283 7.144-9.733c.106.027.197.057.291.089zm2.219 1.108l-5.437 6.22-.317.362-.33.377-.552.19.116-.133.342-.389 5.939-6.787c.072.052.163.106.239.16zm1.424 1.257l-2.008 2.293-.155.18-.133.152-.352.124-.2.071.106-.123 2.548-2.907c.081.069.135.148.194.21zm-6.481 19.588c-.111.059-.222.119-.335.175l-14.613-5.87-.042-.017c-.027-.114-.056-.229-.086-.348l.443.175 14.633 5.885zm2.636-1.975l-.247.224-15.386-5.089-.392-.131.03-.091.059-.182.165.054.471.155 15.3 5.06zm2.367-2.895c-.054.086-.113.173-.17.259l-15.923-3.363-.217-.044.057-.259v-.024h.032l.493.103 15.728 3.328z" fill="#86A065"/><path d="M652.462 416.405c-.039.091-.084.182-.123.274-4.619-.493-13.531-1.466-15.327-1.742a2.395 2.395 0 01-.315-.059l.069-.15.049-.111.106.022.106.017.374.054c2.264.308 10.403 1.202 15.061 1.695zm1.052-3.003c-.027.096-.052.193-.079.286l-13.452-.493h-.215v-.29h.197l.468.017 13.081.48zm.426-2.157c-.012.096-.022.192-.037.288l-10.866-.128h-.438l.374-.232h.461l10.506.072zm.111-1.614v.271l-8.294-.094h-.261l.372-.229h.283l7.9.052zm-.066-1.303l-5.61-.064h-.211l.12-.074.247-.155h.246l5.173.034.035.259z" fill="#86A065"/><path d="M620.712 330.167l-.175.232c-.091-.069-6.417-5.235-10.676-8.711 0-.116.019-.231.032-.347 4.242 3.463 10.708 8.74 10.819 8.826zm.15-1.318l-.207-.2-10.188-9.836c.032-.098.069-.199.105-.298l10.073 9.723.114.323.103.288zm.18-2.463l-.141-.015.089.458c-.177-.295-5.277-6.023-9.312-10.518l.175-.271c9.211 10.154 9.199 10.267 9.189 10.346zm-.641 5.222l-.061.091-.096.151-.052-.035-.148-.098-9.834-6.538a5.518 5.518 0 01-.111-.421l10.078 6.7.224.15zm.958-7.609l-.229.172-7.636-10.176a8.08 8.08 0 01.207-.207l7.658 10.211zm.18-2.501l-.054.515a1343.624 1343.624 0 01-5.986-9.794c.081-.059.16-.121.246-.18 1.722 2.84 4.003 6.57 5.794 9.459zm.456-2.384l-.111.301-3.776-8.886c.079-.039.158-.079.234-.121l3.653 8.706zm.631-4.003l-.119.574-2.02-6.158a2.94 2.94 0 01.279-.082l1.86 5.666zm.522-4.217l-.044.288c-.17-.616-.37-1.318-.574-2.035h.14c.18.66.345 1.274.478 1.747z" fill="#F3F9FF"/><path d="M632.94 321.683c0 .128 0 .246-.017.379l-12.583 9.637-.148.116-.047.034-.101-.133-.076-.096.209-.162 12.763-9.775zm-1.229 4.895l-.21.419-11.309 5.407-.089.042-.029-.059-.096-.2 11.733-5.609zm.869-7.92l-11.942 10.391-.19-.22.207-.182.103-.089 11.751-10.195c.017.093.047.194.071.295zm-1.65-3.643l-9.807 10.674-.209-.197 9.853-10.723c.054.086.111.162.163.246zm-1.826-2.394c-3.175 4.229-7.212 9.58-7.412 9.705l-.165-.246c.246-.222 4.188-5.432 7.378-9.693l.199.234zm-2.015-1.942l-4.857 7.558-.247-.158 4.873-7.575c.089.057.162.116.231.175zm-2.057-1.202l-2.217 3.745.057-.424 1.946-3.392.214.071zm-9.814 71.113c-.101.032-6.966 1.894-12.198 3.316a20.355 20.355 0 01-.535-.155l12.652-3.434.081.273zm-.987-1.281l-15.288 2.811a2.974 2.974 0 01-.323-.247l14.99-2.756.621.192zm-1.397-1.165c-.385-.027-9.876.985-16.025 1.683a5.09 5.09 0 01-.15-.284c15.694-1.835 15.783-1.754 15.847-1.699l-.096.108.424.192zm3.394 3.528l-8.314 3.158c-.209-.025-.416-.047-.623-.077l8.834-3.352.103.271zm-5.37-5.174l-15.273.35a14.705 14.705 0 00-.084-.288l15.355-.35.002.288zm-1.505-1.557c-4.304-.29-10.947-.771-14.367-1.079 0-.098-.017-.194-.022-.293 3.186.269 9.447.717 14.005 1.025l.384.347zm-2.217-2.197l-11.923-2.65c.022-.094.044-.183.069-.269l11.684 2.661.17.258zm-2.788-2.722l-8.068-2.532c.052-.084.104-.168.158-.246l7.511 2.357.399.421zm-3.432-3.266c-.916-.338-2.025-.739-3.092-1.099l.18-.157 2.767 1.017.145.239zm14.96 13.746h-.288l-.532-16.377c.098.059.194.123.29.192l.53 16.185zm-2.278-1.821l-.288.03-1.523-16.012c.101.024.2.056.296.088l1.515 15.894zm-1.895-1.845l-.283.059-3.092-14.751.298.015 3.077 14.677zm-2.375-2.308h-.288c-.037-.34-2.126-7.006-3.759-12.179.096-.017.192-.032.291-.042 1.613 5.097 3.781 11.974 3.756 12.221zm-2.897-2.663l-.268.108-3.562-8.969a4.93 4.93 0 01.276-.088l3.554 8.949zm-3.85-3.621l-.364-.247-1.816-4.045a.11.11 0 01.03-.017l.199-.101 1.951 4.41zm36.985-29.972l-14.676 21.209a4.234 4.234 0 01-.274-.147l-.049-.03-.035-.02-.246-.143-.106-.068 15.354-20.826.032.025z" fill="#F3F9FF"/><path d="M649.093 377.432c-4.04 5.368-12.071 6.757-17.569 2.791a8.352 8.352 0 01-1.993-2.012l-.042-.06a.419.419 0 01-.04-.054c-.022-.029-.044-.064-.068-.101a6.5 6.5 0 01-.299-.492l-.017-.03c-2.604-4.621-.985-11.445 1.257-15.938 2.217-4.414 6.848-7.481 11.868-7.085 3.185.247 5.548 2.082 7.119 4.666v.015c.215.349.412.714.596 1.088l.158.34c2.449 5.346 2.064 12.84-.97 16.872z" fill="#8AB8DA"/><path d="M649.314 359.132l-19.783 19.091-.042-.059a.419.419 0 01-.04-.054c-.022-.03-.044-.064-.069-.101a6.716 6.716 0 01-.298-.493l20.225-18.392.007.008zm-31.504 23.091c-.032.05-.069.097-.108.141l-.34.377h-.013a1.042 1.042 0 01-.078.073l-18.451-17.933a.694.694 0 01.108-.071l18.882 17.413zm5.634-73.074l-2.983 23.302a18.275 18.275 0 01-.794-.133l3.735-23.171.042.002z" fill="#F3F9FF"/><path opacity=".45" d="M616.93 389.199c-18.94 5.324-20.633-10.139-20.67-10.506.118.271.247.54.367.793a.31.31 0 00.03.057c.049.099.096.19.15.283.462.8 1.077 1.5 1.811 2.06.103.078.212.16.322.246a12.367 12.367 0 003.538 1.631c.177.054.357.106.534.155a32.77 32.77 0 002.848.628c.463.084.939.16 1.424.224.207.03.414.052.623.077 2.776.308 5.801.187 8.201-1.148.712 1.522.938 3.34.822 5.5z" fill="#4987A5"/><path opacity=".5" d="M613.023 348.051c-5.678-.534-11.688-8.622-14.063-12.169l1.153-.064c3.729 3.954 9.784 7.464 12.644 7.528.441 1.695.367 3.378.266 4.705z" fill="#4987A5"/><path d="M653.034 405.527l-22.171 13.026a16.526 16.526 0 01-.101-.411 8.963 8.963 0 01-.086-.414l22.316-12.258.017.027c.01.009.019.019.025.03z" fill="#6198BA"/><path d="M644.579 442.591v8.723a1.619 1.619 0 01-1.613 1.616v17.438a7.979 7.979 0 01-2.339 5.645 7.98 7.98 0 01-5.645 2.339h-18.214a7.99 7.99 0 01-7.987-7.986V452.93a1.618 1.618 0 01-1.613-1.616v-8.721a2.774 2.774 0 01.814-1.967 2.79 2.79 0 011.967-.814h31.847a2.8 2.8 0 011.065.21 2.79 2.79 0 011.718 2.569z" fill="#8AB8DA"/><path d="M642.961 452.93v17.438a7.984 7.984 0 01-7.984 7.984h-7.57c5.614-.377 7.474-4.927 7.752-9.928.247-4.301.986-12.44-4.564-13.654l-8.408-1.84h20.774z" fill="#6198BA"/><path opacity=".5" d="M103.071 424.508c0-.077-.02-.146-.029-.22a5.089 5.089 0 00-.789-2.167l-.014-.025a7.06 7.06 0 00-.555-.687 2.158 2.158 0 00-.167-.178 6.864 6.864 0 00-1.035-.882c-.066-.046-.133-.093-.202-.138a7.479 7.479 0 00-1.67-.798l-.246-.076a9.733 9.733 0 00-2.49-.394h-.282a12.58 12.58 0 00-1.478.069c-.295.029-.593.064-.896.098l-.281.037c-.845.108-1.683.261-2.51.458l-.296.079c-.735.19-1.45.449-2.136.774-.096.047-.192.093-.283.145a7.267 7.267 0 00-2.394 1.944 6.614 6.614 0 00-.542.825c-1.446 2.616-1.895 5.983-1.375 8.91-.456.379-.9.774-1.318 1.192a19.175 19.175 0 00-1.665 1.902l-.917-7.846c-.182-1.572-.364-3.18 0-4.717.126-.53.316-1.057.461-1.584.03.024.057.052.089.074.74.546 1.658.797 2.574.704 2.518-.153 8.868-7.284 9.435-11.753.21-1.672.263-3.663-.865-5.02a1.12 1.12 0 00-.591-.352c-.823-.205-2.022.246-2.722.512a10.766 10.766 0 00-2.885 1.769c-2.128 1.778-3.727 4.124-4.926 6.516-.66 1.315-1.811 3.362-1.543 4.85.12.748.409 1.458.845 2.077a4.642 4.642 0 00-.418 2.177c-.555-2.079-.796-4.217-1.326-6.304-.672-2.658-1.197-6.491-1.603-10.925 2.956-4.483 5.24-5.978 6.404-6.481 0 .017.025.035.035.052a7.08 7.08 0 001.682 1.697c4.634 3.343 11.406 2.173 14.813-2.355 2.559-3.399 2.884-9.72.825-14.223a14.16 14.16 0 00-.628-1.207c-1.207-1.988-2.974-3.449-5.311-3.846.157-.413.29-.835.396-1.264.023-.083.045-.169.062-.246.213-.949.316-1.919.308-2.892v-.246a14.952 14.952 0 00-.28-2.496l-.053-.246a15.498 15.498 0 00-.716-2.372l-.094-.227a13.141 13.141 0 00-.948-1.86 10.15 10.15 0 00-.833-1.165 4.49 4.49 0 00-.74-.702l-.026-.02a6.8 6.8 0 00-1.212-.724c-.062-.032-.126-.059-.187-.089l-.136-.056a10.366 10.366 0 00-1.451-.498 12.607 12.607 0 00-1.956-.359l-.246-.025a14.31 14.31 0 00-2.769.017l-.246.027a12.817 12.817 0 00-2.54.555c-.8.257-1.567.604-2.288 1.034l-.222.136a9.554 9.554 0 00-1.764 1.446 9.05 9.05 0 00-1.249 1.64 723.612 723.612 0 010-8.016c.057 0 .113.02.168.025.62.094 1.01.111 1.01.111 3.46.571 6.422-1.377 8.09-4.321.07-.128.142-.246.211-.389l.177-.355c.585-1.19.931-2.483 1.02-3.806 0-.103 0-.212.015-.32a9.169 9.169 0 00-.372-2.796 10.702 10.702 0 00-1.323-2.813 5.407 5.407 0 00-.14-.207c-.05-.071-.101-.148-.155-.222a21.1 21.1 0 00-1.244-1.589l-.168-.192a12.278 12.278 0 00-1.525-1.446l-.192-.148a8.249 8.249 0 00-.409-.293 5.02 5.02 0 00-1.14-.574l-.178-.059a5.226 5.226 0 00-1.162-.217h-.032a5.796 5.796 0 00-.619 0h-.12a7.33 7.33 0 00-1.478.247c-.08.019-.156.042-.247.069-.624.191-1.229.438-1.808.739l-.2.103c-.694.375-1.36.8-1.992 1.271l-.205.153-.36.278c-.408.325-.796.674-1.162 1.045a12.511 12.511 0 00-1.554 1.899l-.146.227c-.37.589-.682 1.211-.933 1.86-.032.083-.062.17-.09.246a9.215 9.215 0 00-.492 2.131c0 .098-.02.194-.027.293a8.661 8.661 0 00.202 2.589c.027.121.06.246.094.355 1.207 4.163 5.547 5.557 7.974 6.02l.113.02a3.63 3.63 0 00-.106.938c-.025 2.748-.052 5.496-.081 8.245l-2.552-2.18c.392-.978.51-2.045.342-3.086-.231-1.725-2.084-3.553-3.202-4.75-2.023-2.182-4.434-4.17-7.184-5.343a10.82 10.82 0 00-3.522-.887c-.798-.049-2.163-.096-2.93.429-.029.02-.056.042-.083.064-.18.138-.316.324-.394.537-.69 1.894.037 4.052.81 5.809a11.81 11.81 0 002.232 3.158c-.234 0-.544 0-.911.051-1.592.156-4.153.754-5.388 2.888v.014a5.054 5.054 0 00-.551 1.439c-1.035 4.626-1.217 12.541 5.966 13.881 5.082.946 8.826-1.429 10.593-3.845l.024-.037.173-.246c1.028.936 2 1.934 2.909 2.988a29.548 29.548 0 013.793 5.291c.124 7.444.363 15.051.796 20.559a42.245 42.245 0 00-2.513-3.734.912.912 0 00.094-.121c3.047-3.843 1.495-12.563-2.077-15.088a2.986 2.986 0 00-.246-.165 11.01 11.01 0 00-2.508-1.138 5.77 5.77 0 00-.246-.077 11.847 11.847 0 00-2.663-.45h-.246a12.65 12.65 0 00-2.326.125c-.083 0-.162.022-.246.037-.688.11-1.366.275-2.027.493a13.98 13.98 0 00-1.572.613c-.11.052-.217.106-.325.16l-.168.084a.825.825 0 00-1.347.813l-.118.079c-.2.138-.39.286-.57.436l-.152.13a7.14 7.14 0 00-1.168 1.336 7.127 7.127 0 00-.973 2.182 3.057 3.057 0 00-.059.227 9.586 9.586 0 00-.21 2.939c0 .083 0 .162.02.246.075.766.22 1.524.431 2.264.025.084.045.165.07.246.162.532.353 1.055.57 1.567a8.315 8.315 0 00-3.41 2.695l-.03.039-.025.04c-.052.074-.104.147-.15.224a1.404 1.404 0 00-.05.081c-.896 1.441-1.202 3.175-1.182 4.858.081 6.819 6.651 14.288 11.607 13.637 2.956-.387 5.644-1.409 7.58-3.579.07-.079.138-.158.205-.246l.02-.025c.107.162.225.316.352.463a94.652 94.652 0 017.284 9.607 13.328 13.328 0 011.576 2.909c.373 1.07.493 2.217.594 3.333.56 5.826 1.017 11.807-.162 17.49H61.78a2.347 2.347 0 00-2.348 2.346v7.276a1.365 1.365 0 001.363 1.363v14.701c0 1.02.362 1.862.586 2.821-1.658.768-3.86.958-5.666 1.273a171.61 171.61 0 01-6.496.986c-2.288.3-4.582.566-6.878.812-2.921.311-5.968.85-8.905.85h45.08c2.43 0 5.045.338 7.319-.724a6.736 6.736 0 003.776-6.008v-14.704a1.352 1.352 0 00.963-.399 1.36 1.36 0 00.4-.963v-7.356a2.342 2.342 0 00-2.346-2.343h-7.493c-.165-4.37-.335-8.74-.513-13.112a3.779 3.779 0 01.072-1.143c.114-.351.287-.679.512-.971a11.035 11.035 0 012.02-2.165c.147-.114.286-.235.419-.365 1.06 3.649 5.153 5.666 8.7 5.666a7.858 7.858 0 003.6-.889l.285-.15c.73-.411 1.407-.907 2.018-1.478l.202-.19a14.193 14.193 0 001.995-2.436c.476-.721.894-1.478 1.252-2.264.034-.077.071-.153.106-.232.327-.745.602-1.512.822-2.296l.067-.246c.137-.52.244-1.047.323-1.579 0-.079.022-.16.032-.246.051-.39.081-.766.093-1.134v-.229a8.991 8.991 0 00-.069-1.088zm-35.44-47.201l.056-.079a4.714 4.714 0 00.766-2.217c0-.36.052-.808.089-1.325.084-1.119.148-2.538-.214-3.964.186 0 .371-.023.551-.069a3.979 3.979 0 002.375-1.724l2.168 2.823.163.216a13.466 13.466 0 00-.473 2.422 9.699 9.699 0 001.012 5.459c0 1.527.008 3.055.025 4.584-1.974-2.254-4.03-4.552-6.519-6.126zm10.907 6.013c.079.043.161.079.247.106a17.726 17.726 0 004.454 1.411c-.04.072-.077.143-.114.215-1.894 3.788-3.254 9.543-1.06 13.44-1.943 1.3-4.896 4.343-6.157 5.666.31-.331-.232-2.996-.269-3.516-.089-1.286-.165-2.574-.246-3.862-.143-2.606-.784-5.228.056-7.74a24.736 24.736 0 012.865-5.856c.084.062.16.104.224.136zm-3.74-3.353a11.232 11.232 0 002.957 2.875l.091.185.111-.055.089.057a125.5 125.5 0 00-3.02 5.117 453.81 453.81 0 01-.227-8.179zm-5.246 36.505c.901-1.34 1.57-3.02 1.929-5.119.174-.984.293-1.976.357-2.973.099-1.823-.091-3.358-.687-4.651.36-.196.691-.441.985-.727a.48.48 0 00.064-.061c.815 1.325 2.099 3.53 2.956 4.99.054.577.108 1.129.17 1.644.67 5.821 1.697 11.624 2.574 17.423l-8.348-10.526z" fill="#B4CDD6"/><path d="M40.474 422.443a22.53 22.53 0 00-3.877 3.961l-1.086-9.306c-.217-1.863-.431-3.769 0-5.595.315-1.328.985-2.643.739-3.991a5.52 5.52 0 00-1.4 3.959c-.655-2.463-.94-5.003-1.569-7.479-.798-3.15-1.419-7.695-1.904-12.957 5.19-7.841 8.597-7.981 8.597-7.981s2.348-1.518 0-1.084c-1.894.349-6.877 5.466-8.74 7.439.37-.389-.273-3.552-.315-4.168a304.828 304.828 0 01-.286-4.579c-.17-3.094-.929-6.201.067-9.181a29.313 29.313 0 014.48-8.474c-.26-.232-.638.098-.825.394a149.483 149.483 0 00-4.173 7.01 819.239 819.239 0 01-.443-33.615c-.53.416-.579 1.188-.586 1.86l-.094 9.78-3.473-2.956-.286.426 2.985 3.887a3.046 3.046 0 01.794 2.434l.069 12.6c-2.974-3.407-6.114-6.932-10.317-8.607 2.148.855 4.36 3.449 5.883 5.126a34.978 34.978 0 014.5 6.274c.146 8.827.429 17.85.944 24.388a53.963 53.963 0 00-3.407-4.993s-1.397-1.06-.771-.335c.44.507 2.916 4.747 4.338 7.205.064.685.13 1.338.2 1.949.795 6.897 2.014 13.795 3.054 20.662l-10.775-13.639c-.677.721-.015 1.869.633 2.616a112.757 112.757 0 018.64 11.383c.724 1.091 1.435 2.217 1.869 3.449.434 1.232.576 2.618.705 3.941.76 7.94 1.367 16.116-.949 23.747l3.853-.017c-.242-6.175-.488-12.349-.74-18.522a4.451 4.451 0 01.087-1.355c.135-.417.34-.807.608-1.153a13.06 13.06 0 012.397-2.567c.336-.228.617-.528.82-.879.185-.357.117-.875-.246-1.057z" fill="#6198BA"/><path d="M26.41 394.4a31.773 31.773 0 01-.423 3.528c-.43 2.512-1.231 4.52-2.313 6.114-.13.194-.266.382-.404.564l-.025.027-.246.318c-.079.096-.16.192-.246.283-2.296 2.574-5.486 3.786-8.987 4.247-5.872.771-13.669-8.087-13.765-16.175-.022-1.995.337-4.052 1.402-5.762.017-.032.037-.064.056-.096a6.52 6.52 0 01.212-.308.529.529 0 01.03-.049 9.886 9.886 0 014.047-3.202l.153-.069c3.678-1.579 8.314-1.451 11.81-.434 4.308 1.252 6.739 2.998 7.882 5.496.71 1.54.924 3.358.818 5.518z" fill="#A4CFEA"/><path d="M23.674 404.042c-.13.194-.266.382-.404.564l-.024.027-.247.318-21.387-17.719a.225.225 0 01.03-.047l.027-.047 22.005 16.904z" fill="#6198BA"/><path d="M53.395 354.522a15.058 15.058 0 01-.365 3.429 12.67 12.67 0 01-1.508 3.794 12.003 12.003 0 01-1.595 2.101c-5.555 5.873-15.273.964-15.273.964a1.93 1.93 0 01-.281-.129 4.875 4.875 0 01-.274-.147l-.049-.027-.034-.023-.247-.143-.106-.066-.246-.158c-2.101-1.394-6.082-4.968-5.5-11.206l.06-.534a16.07 16.07 0 01.602-2.68c.12-.393.263-.779.426-1.156a10.886 10.886 0 012.207-3.357 11.137 11.137 0 012.355-1.875 13.027 13.027 0 012.71-1.232 15.465 15.465 0 012.99-.66c.097 0 .19-.022.289-.029 1.091-.112 2.19-.12 3.283-.022l.284.029a15.11 15.11 0 012.32.429 12.038 12.038 0 011.732.588l.16.069c.074.035.15.067.222.104.508.235.99.522 1.438.857l.032.027c.323.244.617.522.877.83a12.05 12.05 0 011.124 1.614c.375.632.704 1.291.985 1.971l.11.268c.36.913.646 1.854.853 2.813l.06.291c.194.974.305 1.963.332 2.956.024.116.027.212.027.31z" fill="#BBF2FF"/><path d="M27.293 387.424a.975.975 0 01-.111.14l-.34.377a.558.558 0 01-.079.074 5.323 5.323 0 01-1.153.862c-2.402 1.335-5.42 1.456-8.203 1.148-.21-.025-.416-.047-.62-.076a29.146 29.146 0 01-1.424-.225 32.482 32.482 0 01-2.848-.628c-.18-.049-.36-.101-.535-.155a12.298 12.298 0 01-3.537-1.631 2.909 2.909 0 01-.323-.246 6.985 6.985 0 01-1.81-2.059 7.626 7.626 0 01-.18-.338c-.126-.246-.247-.527-.37-.801a17.575 17.575 0 01-.758-2.14 15.326 15.326 0 01-.513-2.685c0-.099-.017-.195-.022-.293a11.332 11.332 0 01.246-3.486c.02-.091.042-.182.07-.269a8.55 8.55 0 01.985-2.325 8.23 8.23 0 011.547-1.828l.177-.158c.214-.177.438-.352.677-.514l.138-.094a.96.96 0 01.109-.071 14.388 14.388 0 011.507-.887l.2-.101c.128-.064.246-.128.384-.188.518-.24 1.049-.454 1.59-.64l.273-.089a15.64 15.64 0 012.406-.579 3.7 3.7 0 01.288-.044 15.247 15.247 0 012.76-.148l.295.015c1.07.058 2.13.237 3.16.535.102.024.2.056.299.088a13.02 13.02 0 012.97 1.35c.097.062.193.123.289.192 4.23 3.028 6.072 13.359 2.456 17.917z" fill="#4987A5"/><path d="M22.504 353.251c-.045.611-.096 1.146-.104 1.57-.017.739-.33 1.68-.911 2.633-.032.057-.07.111-.104.17l-.032.049-.288.414-.03.044c-2.103 2.868-6.542 5.683-12.563 4.56-8.52-1.586-8.304-10.974-7.077-16.463a6.052 6.052 0 01.655-1.702v-.017c1.464-2.53 4.503-3.242 6.388-3.427.47-.049.867-.059 1.153-.064h.458c8.523.739 11.349 4.154 12.198 7.516.432 1.707.358 3.39.257 4.717z" fill="#A4CFEA"/><path d="M26.024 345.849v.015c-.087.198-.188.39-.303.574a4.703 4.703 0 01-2.816 2.03c-3.089.886-13.575-5.632-16.029-11.191-.919-2.082-1.778-4.642-.963-6.898a1.44 1.44 0 01.468-.638.864.864 0 01.099-.076c.909-.619 2.525-.564 3.473-.505 1.446.109 2.862.465 4.188 1.052 3.266 1.391 6.124 3.746 8.52 6.335 1.316 1.422 3.513 3.587 3.79 5.632a6.91 6.91 0 01-.427 3.67z" fill="#8AB8DA"/><path d="M50.397 396.609c-.66 5.302-8.203 13.758-11.189 13.941-1.29.076-2.296-.247-3.052-.835a4.267 4.267 0 01-.596-.569 5.651 5.651 0 01-1.21-2.722c-.317-1.764 1.047-4.188 1.828-5.752 1.424-2.838 3.318-5.619 5.843-7.726a12.73 12.73 0 013.422-2.101c.83-.325 2.254-.85 3.23-.606.271.061.517.208.7.419 1.34 1.606 1.285 3.968 1.024 5.951z" fill="#4987A5"/><path d="M42.42 326.881c0 .126 0 .246-.017.377a12.07 12.07 0 01-1.21 4.513l-.211.419c-.08.152-.163.305-.246.458-1.971 3.493-5.489 5.804-9.608 5.124 0 0-.458-.02-1.194-.131-.092 0-.183-.025-.279-.042l-.118-.017-.394-.074c-2.88-.547-8.028-2.202-9.46-7.144a9.226 9.226 0 01-.323-1.695 10.19 10.19 0 01-.026-1.795c0-.116.02-.232.032-.348.09-.862.282-1.711.574-2.527a12.719 12.719 0 011.215-2.515c.056-.091.115-.18.172-.269a14.778 14.778 0 011.842-2.254c.436-.437.896-.848 1.38-1.231.14-.109.28-.22.426-.328.081-.062.157-.123.246-.182a19.574 19.574 0 012.365-1.503l.246-.123a12.81 12.81 0 012.148-.88c.091-.032.185-.059.276-.081a8.392 8.392 0 011.76-.3h.142c.246-.014.493-.014.739 0h.04c.467.028.929.111 1.377.246l.211.069c.477.17.93.398 1.35.68.165.111.328.226.493.347a14.278 14.278 0 012.037 1.902l.2.224a24.145 24.145 0 011.478 1.887c.064.086.123.177.182.264.06.086.116.16.167.246a12.568 12.568 0 011.57 3.333l.083.305c.254.994.367 2.019.335 3.045z" fill="#A4CFEA"/><path d="M63.532 414.831v.271c-.015.436-.05.885-.111 1.345 0 .094-.022.19-.037.286-.093.63-.222 1.254-.385 1.87-.024.096-.051.192-.076.285a20.609 20.609 0 01-.985 2.725c-.04.094-.084.182-.123.273a19.755 19.755 0 01-1.478 2.681 3.322 3.322 0 01-.17.246 17.015 17.015 0 01-2.198 2.626l-.246.224a12.593 12.593 0 01-2.392 1.752l-.335.174a9.308 9.308 0 01-4.269 1.055c-4.222 0-9.097-2.397-10.346-6.752l-.045-.156v-.034c-.03-.113-.059-.229-.086-.347v-.03a9.902 9.902 0 01-.098-.478c-.653-3.5-.126-7.555 1.608-10.696.19-.344.406-.674.646-.985a8.638 8.638 0 012.838-2.308c.11-.062.224-.116.334-.17a14.273 14.273 0 012.535-.919l.353-.094a28.059 28.059 0 012.975-.542l.333-.044c.36-.042.714-.084 1.064-.118a15.056 15.056 0 011.764-.079h.33c1.002.026 1.995.183 2.956.468.096.029.187.056.28.088a8.79 8.79 0 011.971.949l.247.16a8.55 8.55 0 012.104 2.099.162.162 0 01.022.029 6.01 6.01 0 01.914 2.543c.012.086.024.17.034.258.053.447.076.896.072 1.345z" fill="#8AB8DA"/><path d="M26.024 345.849v.015l-.303.574-19.34-16.687a.865.865 0 01.099-.076l19.544 16.174z" fill="#F3F9FF"/><path d="M49.227 390.658l-13.184 18.939a5.708 5.708 0 01-.69-.712l13.873-18.227z" fill="#6198BA"/><path d="M21.502 357.459l-.116.165-.032.049-.289.414-.03.045-18.992-13.606v-.017l19.436 12.945.023.005zm13.282 5.661l-.266.108c-.052-.121-3.666-9.77-5.506-14.689.054-.126.108-.246.168-.377 1.798 4.799 5.542 14.807 5.604 14.958zm1.036-1.629l-.12.636-4.712-16.7c.074-.083.148-.165.231-.246l4.602 16.31zm1.156-1.47l-.118-.086-.15.441c0-.414-2.156-10.967-3.397-16.907.086-.056.172-.11.263-.162 3.535 16.544 3.452 16.645 3.402 16.714zm-3.185 4.188l-.13.064-.13.061-.107-.219-5.5-11.206c.02-.175.039-.355.061-.534l5.806 11.834zm4.661-6.094l-.286.034-1.877-16.069a3.91 3.91 0 01.28-.091l1.883 16.126zm1.414-2.063l-.308.417c-.116-4.599-.269-11.869-.269-15.047.096 0 .19-.022.288-.029.015 2.934.166 9.772.289 14.659zm3.279-14.654l-1.683 12.809-.246.2 1.65-13.056.279.047zm2.586.502l-1.872 8.748-.39.433 1.986-9.255c.104.022.197.047.276.074zm1.848.688c-.412 1.579-.939 3.571-1.232 4.719l-.23.168a213.96 213.96 0 001.25-4.991c.064.035.14.067.212.104zm4.129 18.842c-.06.106-.121.212-.185.315l-16.855 2.131-.037-.286 17.077-2.16zm1.322-3.479c-.02.106-.044.207-.071.308l-16.695 3.181-.054-.284 16.82-3.205zm.365-3.428L37.58 359.41l-.084-.273 15.896-4.912c0 .103.003.199.003.298zm-.335-3.26c-4.947 2.089-13.206 5.568-13.48 5.575l-.022-.286c.38-.076 8.353-3.429 13.443-5.579l.059.29zm-.912-3.093l-9.972 5.082-.133-.247 9.994-5.094c.037.069.072.158.111.259zm-1.098-2.254l-6.196 3.461.217-.385 5.84-3.308c.05.074.096.153.138.232z" fill="#F3F9FF"/><path d="M42.76 410.769c-.692 4.577-1.54 10.196-1.761 11.699l-.057.384-.29-.032s0-.069.027-.175c.157-1.067 1.01-6.708 1.724-11.45.126-.153.232-.29.357-.426zm2.816-2.057l-3.065 12.923v.047l-.413.492.086-.362 3.067-12.938c.1-.054.214-.105.325-.162zm2.887-1.012c-2.877 9.341-3.766 12.085-4.07 12.903-.123.335-.147.345-.167.357l-.062-.133-.347.313c.015-.03.052-.126.108-.281.493-1.429 2.553-7.868 4.188-13.056l.35-.103zm3.308-.586L46.73 419.32l-.182.445-.04.099-.064.15-.197-.081-.069-.03.15-.362 5.114-12.383.33-.044zm3.161-.193c-1.506 2.779-3.971 7.455-5.913 11.137-.073.141-.145.284-.221.422l-.121.234-.47.214c.03-.052.054-.108.083-.16l.227-.436c1.847-3.518 4.449-8.435 6.075-11.415l.34.004zm3.234.557l-6.964 9.383-.325.441-.035.049h-.073l-.247.045.207-.284 7.144-9.732c.108.039.2.066.293.098zm2.222 1.109l-5.44 6.22-.317.362-.33.377-.552.189.116-.133.345-.389 5.937-6.786.241.16zm1.424 1.256l-2.008 2.293-.157.18-.13.153-.356.125-.197.069.104-.123 2.547-2.907c.069.069.128.138.197.21zm-6.474 19.588l-.335.175-14.615-5.87-.04-.017c-.029-.113-.059-.229-.085-.347l.44.177 14.635 5.882zm2.626-1.975l-.246.224-15.391-5.094-.394-.13.03-.092.06-.182.163.054.473.158 15.305 5.062zm2.368-2.885c-.054.088-.111.17-.17.247l-15.909-3.35-.217-.045.055-.246v-.025h.032l.492.104 15.717 3.315z" fill="#86A065"/><path d="M61.94 421.613c-.04.093-.084.182-.123.273-4.619-.493-13.531-1.466-15.327-1.742a1.878 1.878 0 01-.315-.059l.069-.15.049-.111c.035.01.072.019.108.025.035.003.07.009.104.017l.374.052c2.266.3 10.405 1.19 15.061 1.695zm1.055-3.01l-.077.285-13.455-.492h-.212v-.291h.198l.468.017 13.078.481zm.421-2.156c0 .094-.022.19-.037.286l-10.863-.128h-.442l.378-.231h.458l10.506.073zm.116-1.616v.271l-8.295-.094h-.26l.374-.231h.28l7.9.054zm-.065-1.303l-5.606-.062h-.215l.12-.073.247-.156h.247l5.173.035c.01.084.034.177.034.256z" fill="#86A065"/><path d="M30.192 335.36l-.175.231c-.091-.069-6.417-5.234-10.676-8.71 0-.116.02-.232.032-.348a3579.464 3579.464 0 0010.819 8.827zm.151-1.311l-.205-.199-10.19-9.836c.031-.099.068-.2.108-.298l10.07 9.723.116.322.1.288zm.182-2.463l-.143-.015.091.459c-.18-.296-5.277-6.023-9.312-10.519.057-.091.116-.18.173-.269 9.21 10.152 9.198 10.268 9.19 10.344zm-.643 5.222l-.06.094-.098.148-.052-.035-.148-.096-9.833-6.54a5.613 5.613 0 01-.111-.421l10.078 6.7.224.15zm.96-7.606l-.231.172-7.637-10.174c.067-.071.136-.143.205-.209l7.663 10.211zm.178-2.501l-.055.513a1300.828 1300.828 0 01-5.983-9.792c.081-.062.158-.124.246-.183 1.72 2.848 3.998 6.56 5.792 9.462zm.458-2.387l-.113.301-3.777-8.883.247-.123 3.643 8.705zm.628-4.003l-.118.574-2.017-6.158c.09-.032.184-.059.275-.081l1.86 5.665zm.52-4.217l-.042.291a246.19 246.19 0 00-.576-2.038h.142c.183.663.345 1.274.476 1.747z" fill="#F3F9FF"/><path d="M42.42 326.886c0 .126 0 .246-.017.377l-12.58 9.639-.15.113-.047.035-.101-.131-.074-.098.207-.163 12.762-9.772zm-1.226 4.892l-.212.419-11.332 5.42-.089.041-.03-.059-.093-.199 11.756-5.622zm.869-7.919l-11.942 10.39-.192-.219.209-.182.103-.089 11.738-10.208c.027.106.057.207.084.308zm-1.653-3.644l-9.806 10.671-.21-.197 9.854-10.723c.064.089.11.165.162.249zm-1.823-2.394c-3.175 4.23-7.212 9.58-7.412 9.706l-.163-.247c.247-.219 4.188-5.419 7.376-9.693l.2.234zm-2.01-1.939l-4.858 7.555-.246-.157 4.87-7.575c.084.059.16.116.234.177zm-2.064-1.214l-2.217 3.744.054-.424 1.946-3.389.217.069zm-9.814 71.122c-.101.032-6.967 1.897-12.196 3.316-.18-.049-.36-.101-.535-.155l12.65-3.434.08.273zm-.989-1.28l-15.287 2.81a2.909 2.909 0 01-.323-.246l14.99-2.757.62.193zm-1.38-1.166c-.385-.027-9.879.985-16.028 1.683a7.626 7.626 0 01-.15-.284c15.694-1.835 15.783-1.754 15.847-1.699l-.096.108.426.192zm3.379 3.533l-8.307 3.17c-.21-.025-.416-.047-.62-.076l8.823-3.373.104.279zm-5.368-5.19l-15.273.349a7.409 7.409 0 01-.084-.288l15.352-.35.005.289zm-1.505-1.545c-4.304-.291-10.947-.771-14.367-1.079 0-.099-.017-.195-.022-.293 3.185.268 9.447.716 14.005 1.024l.384.348zm-2.212-2.198l-11.928-2.66c.02-.091.042-.182.07-.269l11.68 2.661.178.268zm-2.796-2.719l-8.067-2.535c.051-.084.103-.167.16-.246l7.508 2.357.4.424zm-3.432-3.267a128.01 128.01 0 00-3.089-1.101l.178-.157 2.766 1.017.145.241zm14.96 13.744h-.288l-.532-16.379a6 6 0 01.288.192l.532 16.187zm-2.288-1.814l-.288.03-1.523-16.012c.101.025.2.057.298.089l1.513 15.893zm-1.885-1.852l-.283.059-3.089-14.751.296.015 3.076 14.677zm-2.374-2.316h-.288c-.037-.342-2.126-7.008-3.757-12.179a3.7 3.7 0 01.288-.044c1.611 5.107 3.772 11.982 3.757 12.223zm-2.885-2.653l-.268.106-3.56-8.969.274-.089 3.554 8.952zm-3.862-3.623l-.362-.246-1.818-4.045a.116.116 0 01.03-.017l.199-.101 1.95 4.409zm36.988-29.972l-14.68 21.21a4.929 4.929 0 01-.273-.148l-.05-.027-.034-.022-.246-.143-.106-.067 15.356-20.828.032.025z" fill="#F3F9FF"/><path d="M58.573 382.632c-4.04 5.368-12.07 6.757-17.57 2.794a8.453 8.453 0 01-1.992-2.015l-.042-.059a.353.353 0 01-.037-.052c-.025-.032-.047-.067-.071-.101a6.59 6.59 0 01-.296-.493l-.02-.029c-2.604-4.622-.985-11.445 1.26-15.938 2.216-4.415 6.845-7.482 11.865-7.085 3.185.246 5.548 2.081 7.12 4.666v.014c.211.35.408.715.593 1.089.052.113.108.227.16.343 2.446 5.335 2.067 12.834-.97 16.866z" fill="#8AB8DA"/><path d="M58.787 364.332L39 383.411l-.042-.06a.352.352 0 01-.037-.051c-.024-.032-.047-.067-.071-.101a6.523 6.523 0 01-.296-.493l20.222-18.392.01.018zm-31.494 23.091c-.033.05-.07.097-.111.141l-.34.377a.563.563 0 01-.079.074l-18.45-17.934a.96.96 0 01.108-.071l18.872 17.413zm5.628-73.073l-2.983 23.301a15.155 15.155 0 01-.79-.133l3.734-23.171.04.003z" fill="#F3F9FF"/><path opacity=".45" d="M26.411 394.4c-18.941 5.323-20.633-10.139-20.67-10.506.118.271.246.539.367.795a6.985 6.985 0 001.99 2.397c.104.081.214.16.323.246a12.298 12.298 0 003.537 1.631c.175.054.355.106.535.155.956.264 1.926.461 2.848.629.46.083.938.16 1.423.224.205.029.412.051.621.076 2.779.308 5.801.187 8.203-1.148.715 1.523.929 3.341.823 5.501z" fill="#4987A5"/><path opacity=".5" d="M22.504 353.251c-5.678-.534-11.69-8.621-14.064-12.169l1.153-.064h.012c3.727 3.942 9.782 7.464 12.645 7.528.428 1.695.355 3.378.254 4.705z" fill="#4987A5"/><path d="M62.514 410.74l-22.17 13.026a16.316 16.316 0 01-.101-.409 7.864 7.864 0 01-.087-.416l22.316-12.258a.127.127 0 01.017.029c.011.007.02.016.025.028z" fill="#6198BA"/><path d="M54.057 447.791v8.725a1.615 1.615 0 01-1.616 1.614v17.438a7.982 7.982 0 01-7.984 7.984H26.25a7.987 7.987 0 01-7.988-7.986V458.13a1.616 1.616 0 01-1.614-1.614v-8.723a2.782 2.782 0 012.784-2.781h31.844a2.782 2.782 0 012.781 2.779z" fill="#8AB8DA"/><path d="M52.441 458.13v17.438a7.978 7.978 0 01-4.928 7.376 7.97 7.97 0 01-3.055.608H36.89c5.612-.377 7.471-4.927 7.752-9.927.247-4.301.986-12.44-4.567-13.655l-8.407-1.84H52.44z" fill="#6198BA"/><path d="M688.667 0H422.496v30.095h266.171V0z" fill="#fff"/><path d="M164.257 438.583h-14.485v75.547h14.485v-75.547zm391.325 0h-14.484v74.557h14.484v-74.557z" fill="#3A4E87"/><path d="M576.817 427.532v-18.298H122.608v18.298h454.209z" fill="#7FB6DD"/><path d="M576.819 427.532H122.606v11.051h67.043v75.55h15.064v-75.55h295.926v74.557h15.063v-74.557h61.117v-11.051z" fill="#122051"/><path d="M232.148 181.204s7.523 6.609 8.437 22.267c0 0 .204 4.067 3.052 9.76 2.848 5.692-6.915 23.384-15.049 25.013 0 0-5.491.305-10.371-2.338 0 0 0 11.578 2.848 16.258 2.848 4.681-21.353 1.725-21.148-.406.204-2.131 3.355-3.762 3.355-3.762s.914-21.35-2.542-25.316c0 0-3.762-1.118-3.966-5.286-.205-4.168 2.847-6.203 4.473-5.39 1.626.813 1.018-14.534 1.018-14.534s11.895-26.533 29.893-16.266z" fill="#F7D9CE"/><path d="M235.552 185.648s-13.879-6.681-21.607 3.695c-7.727 10.376-6.811 27.415-6.811 27.415s-2.754-4.464-6.508-4.907c-3.754-.443-5.114 6.898-2.151 9.445l2.257 1.396s3.276 2.057 2.296 9.467c0 0-13.837-3.525-17.318-18.579a27.916 27.916 0 01-.436-2.276c-2.54-16.977 4.828-34.061 25.127-37.313 13.107-2.101 19.768 3.368 22.845 7.509a16.121 16.121 0 012.306 4.148z" fill="#402A2D"/><path d="M218.217 235.906l-6.203-2.271s.776 7.508 6.898 11.312c-.005.007-.594-5.077-.695-9.041z" fill="#EFBEAF"/><path d="M199.136 249.021s-26.706 5.897-29.689 9.659c-2.983 3.761-34.027 75.475-17.623 82.388 0 0 5.695 3.118 12.743 1.899 0 0-4.202 30.908-.677 43.515 3.525 12.608 84.863-8.129 84.863-8.129l23.962-2.236s-12.98-115.703-26.265-120.179c-13.285-4.476-23.047-6.912-23.047-6.912l-24.267-.005z" fill="#2A3054"/><path d="M246.586 277.897s-1.232 47.378 0 66.696c1.231 19.318 2.643 28.469 2.643 28.469h10.57s-14.842-67.307-13.213-95.165zm-36.692 38.362l-1.658 2.044-2.525 3.109-20.466-.066c-4.545.133-10.95 1.276-10.95 1.276-1.231-8.652 6.915-36.793 6.915-36.793.446-.348.81-.51 1.094-.515 2.943-.054-2.407 17.106-3.028 28.235-.522 9.4 30.618 2.71 30.618 2.71zm-45.327 26.708s12.541-2.508 21.555-6.71c9.013-4.203 31.777-10.031 33.214-9.896 1.436.136 24.311-2.478 24.311-2.478s1.209 16.236-3.264 17.458c-4.474 1.222-23.284-4.271-36.298-.409-13.014 3.863-34.576 8.622-40.318 8.933l.8-6.898z" fill="#18203D"/><path d="M174.295 322.622s-8.642 1.091-15.354 3.737c0 0-2.518-.985 0-2.372 12.302-6.782 18.34-22.947 18.34-22.947s-3.562 17.912-2.986 21.582z" fill="#18203D"/><path d="M225.657 320.257a8.906 8.906 0 002.017-.246c.281.963.681 1.887 1.19 2.751-.622.119-1.254.179-1.887.18-4.097 0-7.435-2.404-7.654-5.419a8.636 8.636 0 006.334 2.734z" fill="#443330"/><path d="M484.24 229.114s-6.845-5.456 2.267-11.772-2.267 11.772-2.267 11.772z" fill="#38262D"/><path d="M531.449 239.877s5.855 9.115 14.61 1.286c8.755-7.829-7.306-12.048-7.306-12.048l-7.304 10.762z" fill="#120D0A"/><path d="M544.955 238.795c-3.015 2.306-7.087 2.414-10.346.493-3.202-1.89-7.215-5.794-3.163-12.364 6.124-9.932 22.651-.367 14.879 10.578a7.88 7.88 0 01-1.37 1.293z" fill="#58434A"/><path d="M512.495 273.283s13.376 1.547 20.343-11.236c6.966-12.782-1.535-27.412-1.535-27.412l-18.808 38.648z" fill="#120D0A"/><path d="M573.476 419.835c0 .187-.475.349-1.216.468-1.922.305-5.619.273-7.277-.604a8.64 8.64 0 00-4.58-.943c.424.763.047 1.256-.953 1.419a8.21 8.21 0 01-2.414-.069c-2.71-.407-4.188.268-10.1.672s-4.853-7.415-4.434-11.457c.419-4.043-.813-13.613-.813-13.613l7.92-1.613s.401 2.037.739 4.845c-.054 3.799.18 8.661 1.581 10.376 2.429 2.956 7.009-1.348 11.726 1.971 4.717 3.318 9.821 7.875 9.821 8.548z" fill="#F7D9CE"/><path d="M572.259 420.302c-1.921.306-5.619.274-7.277-.603a8.636 8.636 0 00-4.579-.944s-1.618-2.217-5.863-2.293c-4.244-.076-2.764-1.478-.406-1.347 2.357.13 6.269-.141 8.693 1.815 2.424 1.956 9.432 3.372 9.432 3.372z" fill="#EFBEAF"/><path d="M559.45 420.175a8.21 8.21 0 01-2.414-.069c-2.71-.407-4.188.268-10.1.672s-4.853-7.415-4.434-11.457c.419-4.043-1.692-13.955-1.692-13.955l8.799-1.271c.369 1.594.616 3.214.739 4.845 0 0-4.215 1.739-5.629 3.116-1.833 1.781-.382 15.18.739 16.259 1.636 1.586 12.64.261 13.992 1.86z" fill="#EFBEAF"/><path d="M435.736 458.137s-.202 16.374 2.831 20.215c3.032 3.84-9.703 28.969-9.703 28.969l-8.13-1.813s6.506-27.358 5.494-35.241c-1.013-7.883-1.616-14.96-1.616-14.96l11.124 2.83zm-44.885 19.811s-10.674 40.38-18.323 44.215c-7.649 3.836 11.788 1.013 15.46-5.289 11.051-18.968 8.726-24.976 8.726-24.976a47.049 47.049 0 014.85-13.95c3.85-7.075-10.713 0-10.713 0z" fill="#F7D9CE"/><path d="M527.322 412.042c-13.339 8.492-95.419-5.059-95.419-5.059s-.305 1.389-.897 3.813a333.43 333.43 0 01-7.55 26.144 253.368 253.368 0 01-5.39 14.667 191.455 191.455 0 01-4.404 10.045c-3.89 8.159-8.336 15.68-13.302 21.225 0 0-8.896 1.217-12.938-1.956 0 0 8.07-41.764 15.054-71.246a519.314 519.314 0 012.872-11.632c1.931-7.432 3.651-13.093 4.927-15.549.024-.052.051-.101.078-.15.187-.382.437-.729.739-1.027.816-.693 4.412-2.028 9.901-3.695 28.348-8.575 107.231-25.767 115.02-7.144a8.287 8.287 0 01.621 3.155c.064.624 3.882 30.007-9.312 38.409z" fill="#323755"/><path d="M536.614 373.644c-7.789-18.616-87.292-4.59-115.641 3.985-1.899 5.25-3.155 10.443-3.535 15.212-.559 7.04 4.602 13.083 13.549 17.955.591-2.424.897-3.813.897-3.813s82.079 13.549 95.419 5.06c13.213-8.403 9.395-37.786 9.311-38.399zm-22.954 36.381c-26.919 4.646-63.641-10.309-65.666-18.601-1.67-6.855 53.869-10.809 75.293-11.06a8.866 8.866 0 018.969 8.129c.594 7.742-1.768 18.625-18.596 21.532zm-90.211 26.915c-2.68 8.006-5.964 16.672-9.795 24.712a64.793 64.793 0 01-3.522-7.422c-5.801-14.253-7.403-31.662-7.659-44.555 3.07-12.967 5.927-23.562 7.789-27.181 0 0 7.686 31.184 13.187 54.446z" fill="#18203D"/><path d="M509.721 367.758s-36.389 10.728-62.67 16.259c0 0-10.647 1.751-9.568 4.434 1.079 2.682 11.499 21.084 11.499 21.084l-23.493-3.695s-1.079-20.486 6.872-26.955c7.952-6.468 72.508-18.598 72.508-18.598l4.852 7.471zm-80.195 48.8a330.806 330.806 0 01-6.082 20.382 251.414 251.414 0 01-5.392 14.667c-4.016-11.93-10.1-40.737-12.709-53.564 1.932-7.432 3.651-13.093 4.927-15.548l.081-.151 19.175 34.214z" fill="#070F23"/><path d="M497.461 370.887s-50.007 9.607-64.553 14.674c0 0 14.554 21.833 8.893 56.604l-4.85 21.025s-9.502 2.628-13.549 1.214c0 0-17.182-70.351-17.384-86.728-.202-16.377 80.649-15.519 80.649-15.519l10.794 8.73z" fill="#383E5B"/><path opacity=".32" d="M497.461 370.887l-64.553 14.674s-2.973-5.727-6.476-8.422c-3.503-2.695-20.306-.532-20.306-.532s3.131-8.964 8.08-9.878c4.949-.914 80.151-7.112 80.151-7.112l3.104 11.27z" fill="#18203D"/><path d="M485.982 366.295s-13.458 6.681-46.477 2.495c0 0-2.83-.985-7.683 1.454s-19.062 5.791-25.03 4.725l3.061-3.087 33.155-10.657s44.161.023 42.974 5.07z" fill="#070F23"/><path d="M436.234 476.881a24.27 24.27 0 01-.283 3.602c-.626 3.372-2.124 6.665-3.336 9.888-1.315 3.485-2.439 7.037-3.791 10.508-.69 1.769-1.599 3.252-3.523 4.016-.886.349-1.817.571-2.766.66-.581.052-1.232-.148-1.793-.047-.473.084-.86.471-1.2.769-1.301 1.145-2.429 2.463-3.72 3.616-1.128 1.012-2.421 1.788-3.609 2.729-.369.291-.899.678-.926 1.173-.042.739.894 1.232 1.53 1.384 1.919.436 4.375-.579 6.227-1.032 3.942-.961 8.093-1.69 11.884-3.146 1.231-.478 2.488-1.081 3.094-2.273 1.128-2.217.97-5.075 1.337-7.425.311-1.985.739-4.069 1.878-5.831a11.088 11.088 0 013.273-3.202c.456-.298.656-.493 1.013-.074.589.69.596 2.109.83 2.956.468 1.724 2.734 10.346 2.892 10.962.064.246.099.919.286 1.101.246.246-.025.131.492.086.247-.019 1.501-.234 1.68-.431.271-.295-.344-2.002-.45-2.493a96.386 96.386 0 01-.986-5.215c-.549-3.352-1.207-6.799-1.111-10.22.079-2.821.375-5.257-.478-7.994-.45-1.446-1.096-2.929-2.197-4.035-1.586-1.591-4.136-2.448-6.176-3.397l-.071 3.365zm-40.653 18.273a24.087 24.087 0 01-1.055 3.449c-1.335 3.158-3.507 6.05-5.387 8.935-2.032 3.123-3.897 6.348-5.964 9.447-1.054 1.579-2.261 2.83-4.303 3.163-.942.151-1.9.167-2.845.047-.579-.072-1.18-.409-1.742-.431-.48-.02-.941.276-1.335.492-1.52.84-2.905 1.877-4.415 2.73-1.318.739-2.749 1.232-4.109 1.887-.423.207-1.024.47-1.16.948-.197.705.609 1.402 1.197 1.68 1.781.838 4.397.377 6.304.333 4.045-.091 8.267.093 12.283-.513 1.315-.197 2.663-.517 3.512-1.552 1.577-1.923 2.038-4.747 2.905-6.964.739-1.869 1.606-3.813 3.086-5.288a11.141 11.141 0 013.89-2.432c.51-.192.739-.342 1.005.146.426.8.131 2.187.172 3.066.089 1.774.444 10.694.466 11.332 0 .246-.103.916.042 1.138.19.288-.054.121.468.192.246.035 1.515.094 1.724-.059.33-.231.096-2.032.099-2.532 0-1.769.052-3.538.155-5.306.185-3.392.283-6.898 1.116-10.221.685-2.737 1.498-5.052 1.254-7.907-.128-1.51-.439-3.099-1.276-4.417-1.207-1.895-3.513-3.281-5.301-4.646l-.786 3.283z" fill="#282E5B"/><path d="M485.051 310.726c.071.722.273 1.232.648 1.436 2.709 1.513 13.78 5.538 24.013.05l7.422-26.058s-5.496 2.914-5.021-7.883c.476-10.797 2.742-15.45 2.742-15.45l4.117-3.809 7.552-6.981-12.026-21.584-22.274-7.851s-9.139 2.382-10.452 10.593c-1.313 8.21-2.266 11.196-6.55 14.142 0 0-4.188 3.222-1.936 4.942 2.251 1.719 6.193 2.079 5.599 4.658-.594 2.579-3.22 8.831 2.022 11.033 5.242 2.203 15.01 1.843 15.606 6.257.596 4.415.714 11.28-1.19 13.613-1.022 1.246-2.956 2.463-4.528 3.749-.535.424-1.03.896-1.478 1.412-.583.692-.936 1.416-.904 2.182a4.78 4.78 0 01-.015.508l-3.347 15.041z" fill="#F7D9CE"/><path d="M483.474 228.341s4.863 2.283 11.778 8.999c6.914 6.715 10.927 17.982 10.927 17.982s4.291-7.143 1.357-19.48c-2.933-12.337-20.529-18.397-24.062-7.501zm33.66 57.825l-7.422 26.058c-10.233 5.488-21.294 1.463-24.013-.049-.375-.207-.577-.715-.648-1.437-.33-3.266 1.993-10.917 3.345-15.026.512-1.547.882-2.584.919-2.69l1.478-1.412s-.953 9.758-1.458 14.197 10.816 3.542 14.859 3.143c4.042-.399 5.799-11.824 7.225-16.074.079-.231.153-.455.219-.67a8.916 8.916 0 00-.517-6.424c-1.323-2.835-1.281-7.39-1.774-9.282-.603-2.323-6.671-1.212-7.782-7.075-1.111-5.863 2.863-8.743 2.863-8.743l14.534-2.776s0 .397.017 1.128l-4.116 3.809s-2.267 4.661-2.742 15.45c-.476 10.79 5.013 7.873 5.013 7.873z" fill="#EFBEAF"/><path d="M484.863 226.414s-3.658-9.255 6.765-12.689c10.423-3.434 33.748 1.143 39.185 19.683 0 0-43.247-1.845-45.95-6.994z" fill="#6D5861"/><path d="M533.395 245.572c-1.153 24.205-20.897 27.708-20.897 27.708s-2.956-9.277 1.047-12.526c1.919-1.567 3.636-3.823 4.229-5.912.643-2.254 0-4.311-3.099-5.092a6.129 6.129 0 00-2.909-.062c-3.72.865-5.449 5.26-5.597 5.644 1.232-3.503-.426-11.191-.426-11.191s18.756-14.96 22.779-12.731c.554.319 1.049.73 1.463 1.217 1.06 1.21 1.813 2.89 2.338 4.508a23.827 23.827 0 011.072 8.437z" fill="#38262D"/><path d="M509.808 271.714c3.704 0 6.707-3.092 6.707-6.905 0-3.814-3.003-6.905-6.707-6.905-3.705 0-6.708 3.091-6.708 6.905 0 3.813 3.003 6.905 6.708 6.905z" fill="#FE7E65"/><path d="M490.199 291.265s.426 4.368-3.365 18.759c-3.791 14.391-7.126 9.538-7.126 9.538s2.83-12.836 3.638-19.214c.808-6.378 3.611-8.708 6.853-9.083z" fill="#00458B"/><path d="M448.987 366.458s-7.883-3.843-13.751-.609c-5.868 3.235-10.078 3.942-13.704 5.026h-.039c-3.644 1.098-4.047 2.645-4.047 2.645-3.144.882-1.988-2.463-1.922-2.636l-8.129 3.237a18.561 18.561 0 01-.934-2.249c-.273-.81-.492-1.692-.45-2.384.101-1.725 6.471-9.504 9.809-11.726 3.338-2.222 7.621-1.313 7.621-1.313 6.602.387 10.99.347 13.586.246 2.111-.098 3.05-.246 3.05-.246l8.91 10.009z" fill="#F7D9CE"/><path d="M423.449 365.546c-4.405.912-7.927 5.341-7.927 5.341l-8.129 3.237a18.376 18.376 0 01-.934-2.249c3.486-3.102 8.577-5.757 13.016-7.637 5.489-2.33 3.974 1.308 3.974 1.308zm25.538.912s-7.883-3.843-13.751-.609c-5.868 3.234-10.078 3.941-13.704 5.025.219-.088 1.508-.62 8.004-3.813 7.309-3.584 7.498-10.169 7.503-10.371 2.111-.098 3.05-.246 3.05-.246l8.898 10.014z" fill="#EFBEAF"/><path d="M484.152 365.275c-.436.34-1.168.641-2.146.902-.512.141-1.087.27-1.724.387-11.665 2.167-42.804 1.093-41.407-.917.428-.613.628-1.658.692-2.862.182-3.353-.692-7.952-.692-7.952s33.154-3.033 34.571-3.449c.766-.214 2.367-4.843 3.67-9.028a244.55 244.55 0 001.988-6.74c7.472-.192 9.9 25.888 5.048 29.659z" fill="#1D63AA"/><path d="M532.508 237.741s-.739 14.443-14.734 17.091c.643-2.254 0-4.311-3.099-5.092a6.116 6.116 0 00-2.909-.061l-1.207-2.71s13.502-17.648 19.426-14.34c1.232.683 2.134 2.269 2.523 5.112z" fill="#120D0A"/><path d="M480.075 339.669a9.244 9.244 0 01-1.528-2.092c-.11.382-.246.806-.372 1.259a223.76 223.76 0 01-1.066 3.535c1.101 3.498 2.463 8.523 3.148 13.608.172 1.941.044 5.722-3.491 6.269-4.784.739-37.197.542-37.197.542-.064 1.204-.263 2.249-.692 2.862-1.397 2.01 29.743 3.084 41.407.917.271-.052.527-.104.778-.158l.225-.052c.416-.093.803-.192 1.148-.298h.032a.108.108 0 00.049-.015 5.422 5.422 0 001.643-.758s.769-20.764-4.084-25.619z" fill="#00458B"/><path d="M544.593 347.874c-1.357-2.237-2.384-6.72-4.138-14.672-1.754-7.952-5.526-35.177-9.972-42.05-4.447-6.873-8.223-6.333-12.753-5.791-4.53.542-7.464 15.63-8.129 19.268-.665 3.639-3.503 7.546-12.13 5.666s-13.302.586-13.302.586c-9.275 6.72-9.115 20.301-5.602 26.698a9.2 9.2 0 001.525 2.097c4.853 4.855 4.077 25.619 4.077 25.619 9.201 5.259 13.302 5.612 13.302 5.612 6.471.639 12.976.863 19.476.67 10.503-.37 15.433-1.971 15.433-1.971.943 6.062 7.841 27.733 7.841 27.733 5.392 2.692 10.782-2.161 10.782-2.161s-4.466-44.082-6.41-47.304z" fill="#1D63AA"/><path d="M532.37 369.601c-.908.27-1.829.488-2.762.653-2.475.493-6.663 1.099-12.671 1.308 1.414-6.488 2.943-18.093-.037-30.873-4.545-19.51-.197-24.06-.197-24.06v.019a.045.045 0 000 .023.028.028 0 000 .022c.571 1.808 10.839 34.46 12.915 40.251 2.138 5.974 2.752 12.657 2.752 12.657zm-48.219-4.326c-.501.343-1.056.6-1.643.759a.14.14 0 01-.049.015.086.086 0 00-.032 0s.944-3.814 0-12.234a49.198 49.198 0 00-4.249-14.992c.138-.453.261-.877.372-1.259a9.2 9.2 0 001.525 2.097c4.852 4.863 4.076 25.614 4.076 25.614z" fill="#00458B"/><path d="M516.715 316.658s0-.005 0 0z" fill="#FE7E65"/><path d="M532.37 369.601a24.88 24.88 0 01-2.761.653c-.062-3.34-12.317-51.293-12.884-53.542.572 1.809 10.839 34.461 12.916 40.252 2.116 5.954 2.729 12.637 2.729 12.637z" fill="#00458B"/><path d="M425.777 466.523s3.754 4.35 10.346 1.532l-.283-4.579s-5.42 1.512-10.25 1.345l.187 1.702zm-36.764 17.995s.288 3.831 8.253 4.737l1.97-6.262s-5.508.572-9.543-.854l-.68 2.379z" fill="#EFBEAF"/><path d="M498.279 236.108s8.307 25.053 28.245 9.501c1.385-1.081 3.747-5.513 4.393-7.176.581-1.502.864-3.352-.104-5.025 0 0-32.731-1.281-32.534 2.7z" fill="#47333B"/><path d="M485.807 225.681s22.735 27.715 45.006 7.727c0 0-18-27.708-42.816-13.147a5.04 5.04 0 00-1.813 1.784 4.198 4.198 0 00-.377 3.636z" fill="#58434A"/><path d="M208.236 318.304l-2.525 3.108-20.466-.066c-4.545.133-10.95 1.276-10.95 1.276-1.231-8.651 6.915-36.793 6.915-36.793.446-.348.81-.51 1.094-.515 0 0-6.129 23.272-5.89 32.253a3.182 3.182 0 003.449 3.062c2.621-.214 6.495-.51 8.038-.51 2.431 0 11.334 1.355 20.335-1.815zm38.551-26.605s1.325 62.134 6.134 78.109h-4.129s-6.032-63.201-2.005-78.109z" fill="#070F23"/><path d="M226.859 306.928h20.172l.04 21.338h-20.212v-21.338z" fill="#604D48"/><path d="M237.057 307.632h8.61l1.364-.704.04 21.338h-12.256l2.242-20.634z" fill="#443330"/><path d="M242.008 307.682l3.659-.05 1.364-.704.04 21.338h-9.041l3.978-20.584z" fill="#513E3B"/><path d="M228.223 307.738c0-.493 4.05-.877 9.048-.877 3.38 0 8.018.047 9.735.076 0 .306.055.636.064.791.062 1.062-4.801.887-9.799.887-4.998 0-9.048-.392-9.048-.877z" fill="#604D48"/><path d="M228.223 307.669c0-.192 3.922-.352 8.762-.352 4.841 0 8.76.16 8.76.352 0 .192-3.929.347-8.76.347-4.83 0-8.762-.152-8.762-.347z" fill="#442D22"/><path d="M230.204 301.577c1.724-3.963 16.426 1.279 14.618-4.577-.828-2.685-6.772-2.956-4.821-7.688 1.195-2.894-7.518-5.035-4.331-10.866-1.029 1.586-2.875 4.641 2.217 8.743 2.249 1.805.089 3.099.316 5.052.298 2.562 4.742 3.599 3.825 5.565-.783 1.707-11.967-1.059-11.824 3.771zm.527 1.168c1.064 1.19 4.188-.668 5.173.367.986 1.035.094 2.914-2.406 3.202 0 0 2.5-1.034 1.231-2.281-.667-.66-3.042.323-3.998-1.288z" fill="#FFECD6"/><path d="M191.581 321.365s11.085-.428 14.334-1.581c0 0 3.449-2.372 5.084-4.338 1.636-1.966 2.644-2.981 5.627-2.303 2.983.677 4.54.34 4.54.34s1.017 0 0 1.478c-1.018 1.478-2.983 1.152-2.983 1.152s5.153 11.901 3.187 15.236c0 0-4.926 2.116-14.672 1.506-9.745-.611-16.847 2.507-16.847 2.507l1.73-13.997z" fill="#F7D9CE"/><path d="M191.581 321.366s1.148 3.86 2.842 6.449c1.695 2.589 10.369 4.978 10.369 4.978s-5.851-.633-16.062 2.9l2.851-14.327zm26.602-5.24a39.057 39.057 0 00-4.338 1.525c-1.678.761-.202-2.542 1.423-2.542 1.626 0 5.898-.136 5.898-.136s-.219.848-2.983 1.153z" fill="#EFBEAF"/><path d="M226.977 311.465c.328 0 .648.02.963.049a12.987 12.987 0 00-.675 2.624c-2.463.15-4.382 1.362-4.382 2.835 0 1.542 2.104 2.796 4.727 2.85.287 1.036.709 2.03 1.254 2.956-.622.119-1.254.179-1.887.18-4.237 0-7.676-2.569-7.676-5.742s3.439-5.752 7.676-5.752z" fill="#443330"/><path d="M218.183 316.126s4.49-.68 4.966.406c.475 1.087 2.426 11.209 1.372 12.81-1.136 1.724-4.656 2.518-4.656 2.518s1.234-7.398-1.682-15.734z" fill="#EFBEAF"/><path d="M182.326 321.533s-.298 13.795 2.217 16.717a9.368 9.368 0 003.008-.321c1.593-.475 5.833-2.35 5.968-3.096.136-.747-.825-11.669-1.931-13.467-.924-1.491-9.804-1.919-9.262.167z" fill="#383E5B"/><path d="M220.22 516.456s-23.572.788-25.718-5.247a2.994 2.994 0 01.096-2.183c2.508-6.42 2.71-24.365 2.653-32.47-.015-2.503-.054-4.067-.054-4.067l2.271-1.941 6.282-5.383.153-.135 3.897-3.338 3.463-2.956s-.096 1.116-.246 2.978c-.054.668-.118 1.434-.182 2.274a.041.041 0 010 .022c-.109 1.37-.247 2.956-.367 4.661a960.36 960.36 0 00-.572 7.673c-.631 8.817-1.187 18.158-.934 20.72.124 1.273.739 3.079 1.602 5.084a73.042 73.042 0 002.153 4.525c2.564 5.021 5.503 9.783 5.503 9.783zm108.82-8.166s-8.208.273-15.379-.739c-6.279-.892-11.758-2.769-10.226-6.688 2.141-5.469 2.594-19.323 2.653-28.307v-2.087c0-3.695-.059-6.138-.059-6.138l4.188-3.597 3.798-3.257 8.068-6.914s-.246 2.81-.567 6.919c-.081 1.01-.167 2.104-.246 3.247l-.017.177a2631.75 2631.75 0 00-.577 7.805c-.096 1.396-.194 2.803-.285 4.187l-.136 2.072c-.404 6.39-.662 12.026-.492 13.928.134.985.382 1.951.739 2.88.194.551.421 1.128.67 1.724 2.611 6.252 7.868 14.788 7.868 14.788z" fill="#F7D9CE"/><path d="M335.265 402.403c-1.301 27.078-4.802 45.819-7.27 56.151l-.054.226c-.113.493-.232.953-.345 1.407-1.301 5.232-2.234 7.853-2.234 7.853l-4.681.663-9.76 1.379-.847.121-3.941.554-.055-.296c-.571-3.096-1.056-6.476-1.478-10.003-.554-4.681-.985-9.59-1.325-14.431a464.288 464.288 0 01-.803-15.477v-.185c-.377-10.484-.355-18.229-.355-18.229-20.773 0-84.829-2.599-84.829-2.599s-6.18-49.834 4.208-43.897c10.388 5.936 92.243 5.192 102.139 6.05 4.944.426 7.91 6.651 9.642 12.755a56.03 56.03 0 011.988 17.958z" fill="#58434A"/><path opacity=".21" d="M290.244 392.609c-18.301 2.639-28.854 3.959-49.957-3.847a116.472 116.472 0 01-7.708-3.203c-1.784-1.231-3.139-3.202-1.195-6.158 3.791-5.772 2.596-13.396 2.596-13.396l-14.169 13.026c-2.606-1.478-4.188-2.463-4.188-2.463l.246 6.084-1.298 1.193 1.35.207 1 26.089s57.666.739 85.199 1.971c0 0 .985-15.416 5.772-23.648-.005.024-3.553 2.113-17.648 4.145z" fill="#000"/><path d="M234.017 370.34c.156.641-5.757 7.346-9.698 9.696 0 0-1.128.985 0 2.348 1.128 1.362 3.109 23.532 1.377 27.328l-5.937-.372-6.676-34.622s19.488-10.374 20.934-4.378z" fill="#070F23"/><path d="M214.325 461.529c-.047.212-.101.412-.15.616l-.39 1.555a171.87 171.87 0 01-1.32 4.956 92.012 92.012 0 01-.616 2.087l-12.085 1.428-2.562.303s-.641-2.766-1.601-7.39a534.167 534.167 0 01-4.299-23.358c-1.397-8.688-2.695-18.317-3.449-27.609 0 0-8.698-.594-16.615-1.796a9.253 9.253 0 01-7.809-8.176c-1.094-10.489-1.779-27.467 5.624-25.395.34.091 48.972-.875 52.682 3.759 6.951 8.684-1.698 55.764-7.41 79.02z" fill="#58434A"/><path opacity=".21" d="M187.868 414.127s-.658-10.388 1.651-16.241c0 0 .576-4.37-7.42 1.566-7.996 5.937-22.382-10.469-17.106-20.199 0 0-2.808 20.566-1.158 27.163 1.651 6.597-1.236 6.504 24.033 7.711z" fill="#000"/><path d="M189.506 397.885s-3.567 6.472-4.308 12.778c0 0-.246 2.04-1.175 2.165-.929.126-19.291-.391-20.897-13.376 0 0 .062 10.1 2.217 11.748 3.215 2.431 18.177 3.419 22.505 2.927.02 0 .71-13.872 1.658-16.242z" fill="#070F23"/><path d="M165.003 404.712s.692-6.999 3.148-9.97c7.016-8.491 24.075-15.487 24.075-15.487l-6.348-.668S156 392.082 165.003 404.712zm141.701-13.881s-7.309 10.188-8.545 16.307c0 0-1.087 2.624-1.198 4.971l5.154.037s1.266-15.246 4.589-21.315z" fill="#070F23"/><path d="M214.007 476.265s-.825.04-2.118.082h-.175c-.328.017-.69.027-1.072.039-1.5.059-3.355.113-5.242.155-.286 0-.571.018-.857.022h-.572c-2.638.05-5.173.06-6.715-.019-.906-.054-1.478-.136-1.525-.266-.308-.739-.739-1.914-1.315-3.801-.739-2.439-1.431-8.565 1.03-7.415l.155.027c1.262.172 2.534.267 3.808.286a56.485 56.485 0 006.346-.222c.956-.087 1.97-.202 3.042-.345a27.587 27.587 0 004.035-.82c.177-.049.355-.101.532-.163a1.715 1.715 0 00.244-.074c.059-.022.118-.039.177-.059.385-.13.767-.271 1.138-.426.961-.394 1.57-.416 1.624 2.2.098 5.05-1.311 10.307-2.54 10.799zm111.789-3.776s-2.276.227-5.405.404h-.032c-1.941.108-4.207.195-6.456.2-2.853 0-5.688-.129-7.824-.545a10.206 10.206 0 01-2.153-.616s-5.173-12.617-.2-11.523a344.224 344.224 0 005.56.28c.303 0 .604.027.921.037.675.027 1.377.055 2.099.077l1.646.049h.382l.603.015h.126c2.113.049 4.259.066 6.173.027 1.724-.037 3.274-.118 4.434-.264a.061.061 0 01.027 0 6.655 6.655 0 001.872-.436.815.815 0 00.156-.091c2.335-1.658-1.929 12.386-1.929 12.386z" fill="#604D54"/><path opacity=".21" d="M214.719 506.673a1.894 1.894 0 01-.884.33c-1.89.296-11.401 3.38-19.323 4.205a2.992 2.992 0 01.096-2.182c2.508-6.42 2.71-24.366 2.653-32.47-.906-.054-1.478-.136-1.525-.266-.308-.739-.739-1.914-1.315-3.801-.739-2.439-1.431-8.565 1.03-7.415l.155.027a534.167 534.167 0 01-4.299-23.358c.2.712 5.356 18.574 18.503 19.954 1.064.111 2.137.111 3.202 0 .426-.04.87-.099 1.311-.175l-.156.616-.389 1.554a1.597 1.597 0 01-.177.059 1.643 1.643 0 01-.244.074c-.141.04-.313.086-.527.141-1.133.285-3.333.739-6.93 1.051-1.801.163-3.941.291-6.498.358a25.069 25.069 0 00.064 5.16c.064.552.161 1.099.291 1.639.556 2.34 1.749 4.379 4.207 4.389h.572c.285 0 .571 0 .857-.022 2.584-.076 4.244-.123 5.242-.155l1.071-.039h.175c-.162.054-3.431 1.056-7.777 2.906-4.461 1.9-7.922 24.807-3.305 25.514 4.081.62 10.346-2.006 11.755-2.617.185-.078.281-.128.281-.128s3.416 3.476 1.884 4.651zm95.313-37.647c.247.389.545.745.885 1.056 3.003 2.838 8.944 2.816 9.442 2.811h.032l-.136 2.072s-10.592-1.683-11.577 4.476c-.986 6.158-2.594 14.802 1.231 14.807 2.998 0 8.398-1.724 10.593-2.476.611-.204.985-.34.985-.34l-.305 2.067-2.008 13.504s-2.318.36-5.511.54c-6.279-.892-11.757-2.769-10.225-6.688 2.141-5.469 2.594-19.323 2.653-28.307a10.206 10.206 0 01-2.153-.616s-5.173-12.617-.199-11.523c0 0 .32.022.879.049-.554-4.681-.985-9.59-1.325-14.431 0 0 4.054 10.581 10.742 11.443.327.047.656.067.986.059 2.389-.042 4.611-.054 6.52-.054 3.892 0 6.472.054 6.472.054l-.399 2.658s-2.612.335-6.326.534c-1.85.104-3.976.173-6.191.151h-.125c-.868 0-1.747-.027-2.631-.069-.018 0-4.91 4.173-2.309 8.223z" fill="#000"/><path d="M209.824 506.201c.084.125.158.207-.088.275a19.03 19.03 0 01-3.661.74c-.693.08-1.391.111-2.089.091-.938-.057-1.879-.077-2.815-.192a39.744 39.744 0 01-2.863-.436.452.452 0 00-.512.214 5.17 5.17 0 00-.476.897c-.224.554-.389 1.125-.561 1.694-.082.271.027.308.246.355 1.388.301 2.773.604 4.156.911.936.21 1.867.432 2.801.643 1.616.365 3.234.715 4.845 1.089 1.752.409 3.496.845 5.247 1.254 1.887.439 3.768.893 5.644 1.365.96.246 1.926.47 2.887.707l1.495.364c.303.077.468-.019.527-.325.096-.517.158-1.039.247-1.557a4.4 4.4 0 000-1.51 4.69 4.69 0 00-.565-1.337l-.014-.022c-.424-.215-.599-.671-.966-.944-.168-.126-.264-.158-.389.032-.091.14-.212.266-.316.402a.575.575 0 01-.704.147.533.533 0 01-.091-.684c.093-.143.204-.271.31-.407.185-.246.163-.281-.061-.475-.225-.195-.547-.375-.818-.567a.224.224 0 00-.2-.062.219.219 0 00-.162.131c-.114.163-.222.328-.338.493a.574.574 0 01-.778.194.55.55 0 01-.04-.753c.123-.175.269-.335.397-.508.086-.121.101-.194-.074-.305a10.804 10.804 0 01-.934-.577c-.155-.123-.261-.079-.362.059l-.369.493a.573.573 0 01-.567.175c-.192 0-.246-.168-.3-.308a.514.514 0 01-.011-.261.515.515 0 01.122-.232c.133-.17.364-.345.349-.522-.014-.177-.337-.217-.51-.335-.172-.118-.46-.197-.662-.352a.196.196 0 00-.173-.057.198.198 0 00-.143.113 2.607 2.607 0 01-.246.289.487.487 0 01-.332.217.496.496 0 01-.385-.099.517.517 0 01-.12-.151.507.507 0 01-.029-.378.49.49 0 01.095-.168c.232-.32.219-.293-.133-.446a3.388 3.388 0 00-1.641-.246.396.396 0 01-.408-.274c-.069-.13-.001-.246.14-.298.14-.052.281-.126.421-.185.141-.059.148-.167.044-.246a10.9 10.9 0 01-.985-.985c-.044-.045-.121-.101-.18 0s-.074.138 0 .211c.131.111.247.247.372.35.126.104.111.185-.039.247-.493.229-.786.667-1.119 1.064a.315.315 0 00-.041.204 4.73 4.73 0 00.901-.352.301.301 0 01.191-.031c.065.01.125.041.171.088-.212.246-.522.288-.793.414-.448.206-.914.374-1.384.537-.175.061-.279.037-.311-.156l-.85.284z" fill="#193A55"/><path d="M196.187 514.201a11.37 11.37 0 00.325 3.129c.077.345.247.66.358.985.088.271.325.441.408.71.057.187.247.224.414.246 1.035.104 2.065.234 3.094.37.949.123 1.902.214 2.853.337.869.111 1.724.246 2.601.362.554.076 1.111.141 1.665.222 1.331.194 2.666.377 3.991.601 1.325.224 2.648.478 3.966.759 1.626.342 3.252.68 4.89.963 1.059.182 2.123.337 3.202.458.537.059 1.082.091 1.624.133 2.005.163 4.013.106 6.018.089 1.103 0 2.217-.02 3.313-.106a42.706 42.706 0 0010.282-1.949c.673-.217 1.338-.455 2.008-.675.246-.074.345-.162.246-.436-.246-.778-.532-1.537-1.155-2.111a2.773 2.773 0 00-1.478-.685c-.665-.108-1.335-.177-2-.285-.666-.109-1.274-.138-1.905-.247-.692-.12-1.389-.209-2.084-.315-.793-.123-1.574-.286-2.362-.434-1.099-.209-2.192-.443-3.269-.761-.525-.157-1.054-.308-1.577-.473a23.232 23.232 0 01-2.655-.985 28.369 28.369 0 01-2.054-1.015.718.718 0 00-.568-.115.715.715 0 00-.465.344 3.898 3.898 0 00-.544 1.232c-.128.554-.471 1.027-.584 1.586-.049.247-.401.357-.712.281-1.231-.305-2.443-.616-3.665-.916-1.84-.451-3.681-.909-5.526-1.345-2.217-.525-4.434-1.03-6.651-1.547-1.419-.331-2.83-.678-4.249-.986-1.725-.391-3.449-.759-5.19-1.14a157.43 157.43 0 01-2.011-.454c-.123-.029-.125-.014-.15.106-.185.86-.31 1.732-.372 2.609-.024.485-.007.966-.032 1.458z" fill="#193A55"/><path d="M191.346 523.434c-.088-.221-.027-2.569-.027-2.569v-1.941c0-.215.055-.429.294-.493.13-.034.115-.076.103-.177-.111-.924-.2-1.85-.229-2.781-.062-1.79.065-3.581.379-5.343.112-.611.248-1.215.409-1.811.214-.789.48-1.564.796-2.318a.918.918 0 011.106-.552c.148.035.293.089.441.128a42.295 42.295 0 008.321 1.424c1.507.107 3.022.024 4.508-.246.399-.077.796-.165 1.19-.261 0 0 2.463-.683 2.885-.986a8.975 8.975 0 011.098-2.488c.493-.776 1.266-.889 1.924-.246.247.246.493.493.754.739.079.079.133.103.246.032a1.16 1.16 0 011.395.017c.09.059.182.113.278.163.328-.385.562-.456.82-.247.259.21.247.446 0 .801l1.202.778c.099.067.163.094.271 0a.495.495 0 01.784.038.43.43 0 01.066.336.435.435 0 01-.069.161c-.059.116-.027.15.057.204.342.22.687.434 1.02.663.116.079.182.091.298 0a.465.465 0 01.601-.025.435.435 0 01.145.55c-.042.111 0 .155.082.212.32.204.633.421.948.63.126.082.231.151.387 0a.43.43 0 01.554-.024.414.414 0 01.167.542c-.059.145 0 .204.089.288.242.179.408.443.463.739a.603.603 0 00.303.47 26.338 26.338 0 007.39 3.528 47.963 47.963 0 007.238 1.461c1.596.221 3.202.325 4.801.598 1.35.232 2.643.623 3.769 1.424.924.658 1.596 1.478 1.737 2.641 0 .064 0 .135.078.16a.56.56 0 01.248.203c.06.091.092.198.092.307.077.539.124 1.084.17 1.626a.593.593 0 01-.357.613c-.305.141-.635.227-.956.338l-.076.024c-.578.228-1.169.424-1.769.586a52.957 52.957 0 01-3.15.848 62.605 62.605 0 01-8.014 1.335c-2.365.246-4.739.352-7.116.372-1.855.015-3.696-.086-5.558-.212a22.423 22.423 0 01-2.545-.278c-1.951-.365-3.897-.759-5.843-1.141-2.394-.471-4.789-.942-7.185-1.411l-1.259-.247c-.182-.037-.247-.014-.232.178v1.611c0 .492-.194.672-.68.653-.199 0-.396-.032-.596-.05l-4.483-.354-4.402-.35-4.777-.392a.953.953 0 01-.246-.061c-.246-.069-.286-.163-.308-.269a.368.368 0 01-.034-.13l.004-.018zm33.503-10.646a4.685 4.685 0 00-.565-1.338l-.014-.022c-.424-.215-.599-.67-.966-.944-.168-.125-.264-.157-.389.032-.091.141-.212.266-.316.402a.575.575 0 01-.704.148.535.535 0 01-.091-.685c.093-.143.204-.271.31-.407.185-.246.163-.281-.061-.475-.225-.195-.547-.375-.818-.567a.224.224 0 00-.298-.017.226.226 0 00-.064.086c-.114.163-.222.328-.338.493a.573.573 0 01-.778.195.554.554 0 01-.04-.754c.123-.175.269-.335.397-.508.086-.12.101-.194-.074-.305a10.654 10.654 0 01-.934-.577c-.155-.123-.261-.078-.362.06l-.369.492a.57.57 0 01-.567.175c-.192 0-.246-.167-.3-.308a.502.502 0 01.11-.492c.134-.17.365-.345.35-.523-.015-.177-.337-.216-.51-.335-.172-.118-.46-.197-.662-.352a.19.19 0 00-.173-.056.196.196 0 00-.086.038.21.21 0 00-.057.075 2.691 2.691 0 01-.246.288.487.487 0 01-.332.217.496.496 0 01-.385-.099.502.502 0 01-.149-.529.49.49 0 01.095-.168c.232-.32.219-.293-.133-.446a3.388 3.388 0 00-1.641-.246.353.353 0 01-.337-.153c-1.178.522-3.225 1.387-3.841 1.367-1.125.331-2.28.555-3.448.668-.693.081-1.392.111-2.089.091-.939-.057-1.88-.076-2.816-.192a39.718 39.718 0 01-2.862-.436.454.454 0 00-.513.214 5.234 5.234 0 00-.475.897c-.224.554-.389 1.126-.562 1.695-.081.271.027.308.247.354 1.387.301 2.773.605 4.155.912.936.209 1.868.431 2.801.643 1.616.364 3.235.714 4.846 1.089 1.751.408 3.495.844 5.247 1.253 1.887.439 3.768.894 5.643 1.365.961.246 1.927.471 2.887.707l1.508.362c.303.077.468-.02.527-.325.096-.517.158-1.039.246-1.557a4.38 4.38 0 00-.002-1.502h-.002zm-28.329 4.549c.076.345.246.661.357.986.088.271.325.441.409.709.056.187.246.224.414.247 1.034.103 2.064.234 3.094.369.948.123 1.901.214 2.852.338.87.11 1.725.246 2.601.362.555.076 1.111.14 1.666.221 1.33.195 2.665.377 3.99.601 1.326.225 2.649.478 3.966.759l1.082.227c3.449.556 6.651 1.069 8.73 1.337 1.971.151 3.942.096 5.912.079a42.01 42.01 0 003.313-.106 42.713 42.713 0 0010.283-1.948c.672-.217 1.337-.456 2.007-.675.247-.074.345-.163.247-.436-.247-.779-.532-1.537-1.156-2.111a2.759 2.759 0 00-1.478-.685c-.665-.109-1.335-.178-2-.286-.665-.108-1.274-.138-1.904-.246-.692-.121-1.39-.21-2.084-.316-.793-.123-1.574-.285-2.363-.433-1.098-.21-2.192-.444-3.268-.761-.525-.158-1.055-.308-1.577-.473a23.065 23.065 0 01-2.656-.986 28.162 28.162 0 01-2.054-1.015.703.703 0 00-.836.008.708.708 0 00-.196.222 3.886 3.886 0 00-.545 1.231c-.128.554-.47 1.027-.583 1.587-.05.246-.402.357-.712.28-1.232-.305-2.444-.615-3.666-.916-1.84-.451-3.68-.909-5.525-1.345-2.217-.525-4.434-1.03-6.651-1.547-1.419-.33-2.831-.677-4.25-.985-1.724-.392-3.448-.759-5.19-1.141-.67-.146-1.34-.297-2.01-.453-.123-.03-.126-.015-.15.106a18.5 18.5 0 00-.372 2.609c-.03.492-.013.985-.037 1.478a11.301 11.301 0 00.332 3.108h.008z" fill="#010103"/><path d="M319.068 494.987c.084.128.16.209-.089.281a19.524 19.524 0 01-3.695.739c-.7.08-1.406.112-2.111.094-.948-.06-1.897-.079-2.842-.198-.946-.118-1.937-.246-2.895-.438a.453.453 0 00-.295.021.456.456 0 00-.222.196 5.31 5.31 0 00-.493.904c-.224.561-.392 1.138-.566 1.712-.084.276.027.313.246.36 1.402.303 2.802.61 4.2.921.943.209 1.884.433 2.828.648 1.633.369 3.266.721 4.897 1.101 1.769.411 3.533.855 5.301 1.266 1.905.443 3.805.903 5.701 1.38.97.246 1.946.475 2.916.714.51.126 1.015.259 1.525.384.306.077.473-.017.53-.327.098-.523.162-1.05.246-1.575a4.371 4.371 0 000-1.522 4.671 4.671 0 00-.569-1.355s0-.017-.015-.019c-.426-.217-.603-.678-.985-.956-.17-.126-.266-.158-.392.034-.093.143-.214.269-.32.404a.576.576 0 01-.712.15.537.537 0 01-.091-.692c.093-.143.207-.273.313-.411.187-.246.165-.281-.062-.478a9.957 9.957 0 00-.825-.574.228.228 0 00-.301-.017.233.233 0 00-.066.086c-.114.165-.224.333-.34.493a.587.587 0 01-.788.197.559.559 0 01-.04-.759c.126-.18.274-.34.402-.517.088-.121.101-.195-.074-.306-.313-.199-.653-.354-.944-.584-.157-.123-.263-.081-.367.062-.103.143-.246.333-.372.493a.58.58 0 01-.574.177c-.194-.015-.246-.17-.303-.313a.513.513 0 01.111-.492c.136-.17.37-.348.355-.525-.015-.178-.34-.219-.515-.34-.212-.143-.466-.2-.67-.355a.197.197 0 00-.08-.05.2.2 0 00-.18.032.203.203 0 00-.058.075 3.003 3.003 0 01-.246.293.496.496 0 01-.537.241.491.491 0 01-.356-.651.508.508 0 01.112-.176c.234-.323.222-.296-.133-.451a3.454 3.454 0 00-1.66-.246c-.247.017-.328-.119-.409-.274-.082-.155 0-.246.14-.3.141-.055.283-.129.426-.188.143-.059.148-.17.045-.246-.355-.307-.69-.636-1.003-.985-.047-.047-.121-.104-.182 0-.062.103-.077.138.012.214.131.111.246.246.375.352.128.106.113.187-.04.259-.493.231-.793.675-1.128 1.076-.054.062-.037.136-.044.207a4.87 4.87 0 00.911-.354.315.315 0 01.367.056c-.214.247-.53.291-.801.419-.455.209-.926.377-1.399.542-.177.062-.281.037-.315-.155l-.855.246z" fill="#193A55"/><path d="M305.288 503.074a11.483 11.483 0 00.33 3.161c.103.341.224.676.362 1.005.089.273.328.446.411.717.059.189.247.229.419.246 1.045.101 2.087.246 3.126.372.958.123 1.922.217 2.882.34.877.111 1.752.246 2.629.367.559.076 1.121.141 1.682.222 1.345.197 2.69.384 4.033.608 1.342.224 2.675.493 4.005.766 1.643.348 3.286.688 4.942.973 1.069.188 2.143.342 3.222.464.542.061 1.094.091 1.638.135 2.027.165 4.055.108 6.082.091a43.53 43.53 0 003.348-.108c3.53-.227 7.02-.889 10.388-1.971.68-.219 1.35-.461 2.027-.682.247-.074.35-.163.261-.441-.246-.789-.537-1.552-1.165-2.133a2.773 2.773 0 00-1.478-.69c-.672-.111-1.35-.183-2.022-.291-.636-.103-1.286-.138-1.924-.246-.7-.121-1.404-.212-2.106-.318-.801-.123-1.592-.288-2.385-.439a33.645 33.645 0 01-3.303-.768c-.532-.158-1.067-.313-1.594-.478a23.301 23.301 0 01-2.683-1 29.63 29.63 0 01-2.076-1.027.727.727 0 00-.572-.115.716.716 0 00-.47.346 3.924 3.924 0 00-.55 1.249c-.13.559-.475 1.037-.588 1.601-.052.247-.407.362-.722.284-1.232-.308-2.464-.621-3.695-.924-1.86-.458-3.72-.919-5.585-1.36-2.239-.532-4.483-1.042-6.725-1.564-1.433-.333-2.86-.685-4.293-1.008-1.744-.394-3.496-.766-5.243-1.15a93.29 93.29 0 01-2.032-.461c-.123-.029-.128 0-.153.109a19.017 19.017 0 00-.374 2.635c-.039.493-.022.991-.049 1.483z" fill="#193A55"/><path d="M300.4 512.396c-.091-.227-.029-2.596-.029-2.596v-1.971c0-.217.057-.434.296-.493.133-.034.118-.076.105-.18a31.438 31.438 0 01-.231-2.808 25.653 25.653 0 01.384-5.4 20.64 20.64 0 01.412-1.83c.216-.798.484-1.582.803-2.345a.936.936 0 011.118-.557c.15.037.296.091.446.131a42.797 42.797 0 008.407 1.438 18.14 18.14 0 004.553-.246c.404-.076.805-.167 1.202-.264 0 0 2.49-.687 2.917-.985a9.04 9.04 0 011.111-2.512c.492-.786 1.278-.9 1.943-.247.246.247.51.493.761.739a.17.17 0 00.05.05.167.167 0 00.197-.018 1.17 1.17 0 011.406.017c.089.062.19.111.283.166.331-.392.567-.464.828-.247.261.217.261.451 0 .811.407.261.811.519 1.215.785.101.067.165.094.273 0a.495.495 0 01.668-.086.45.45 0 01.19.464.441.441 0 01-.07.162c-.059.118-.024.153.059.207.345.219.695.436 1.03.67a.206.206 0 00.301 0 .471.471 0 01.608-.025.434.434 0 01.148.554c-.044.114 0 .156.081.215.323.207.638.426.959.635.125.084.234.153.389 0a.441.441 0 01.561-.024.418.418 0 01.168.549c-.059.145 0 .205.091.291.243.179.41.442.468.739a.614.614 0 00.306.475 26.678 26.678 0 007.476 3.565c2.395.68 4.84 1.174 7.311 1.478 1.614.224 3.244.327 4.851.603 1.364.234 2.67.631 3.81 1.441.932.663 1.609 1.496 1.752 2.666 0 .064.015.138.081.16a.562.562 0 01.343.517c.076.545.125 1.094.172 1.643a.597.597 0 01-.36.621c-.316.129-.64.241-.968.338l-.076.027c-.584.229-1.18.427-1.786.591a52.087 52.087 0 01-3.185.857 62.796 62.796 0 01-8.095 1.35 76.054 76.054 0 01-7.19.374c-1.875.015-3.747-.086-5.614-.214a22.42 22.42 0 01-2.572-.281c-1.971-.369-3.942-.766-5.912-1.153-2.421-.473-4.842-.947-7.262-1.423l-1.274-.247c-.185-.037-.246-.015-.234.18.012.542 0 1.084 0 1.628 0 .493-.195.678-.685.658-.202 0-.401-.032-.603-.047l-4.531-.359-4.434-.353-4.828-.396a1.096 1.096 0 01-.246-.062c-.247-.071-.286-.165-.311-.273a.46.46 0 01-.034-.131l-.003-.022zm33.847-10.755a4.671 4.671 0 00-.569-1.355s0-.017-.014-.02c-.427-.216-.604-.677-.986-.955-.17-.126-.266-.158-.391.034-.094.143-.215.269-.321.404a.578.578 0 01-.712.15.538.538 0 01-.091-.692c.094-.143.207-.273.313-.411.187-.247.165-.281-.062-.478a9.792 9.792 0 00-.825-.574.228.228 0 00-.201-.062.226.226 0 00-.166.131c-.113.165-.224.332-.34.492a.585.585 0 01-.788.198.558.558 0 01-.039-.759c.125-.18.273-.34.401-.517.089-.121.101-.195-.074-.306-.313-.199-.653-.355-.943-.584-.158-.123-.264-.081-.367.062-.104.143-.247.332-.372.492a.575.575 0 01-.574.178c-.195-.015-.247-.17-.303-.313a.525.525 0 01.111-.493c.135-.17.369-.347.354-.524-.014-.178-.34-.22-.515-.34-.211-.143-.465-.2-.67-.355a.19.19 0 00-.174-.056.202.202 0 00-.086.038.192.192 0 00-.057.075c-.076.102-.158.2-.247.293a.49.49 0 01-.726.153.5.5 0 01-.195-.357.496.496 0 01.14-.383c.234-.322.222-.295-.133-.45a3.467 3.467 0 00-1.66-.247.339.339 0 01-.337-.152c-1.193.529-3.259 1.404-3.88 1.382-1.137.334-2.302.56-3.481.675-.701.08-1.406.111-2.111.093-.949-.059-1.897-.079-2.843-.197-.946-.118-1.936-.246-2.894-.438a.463.463 0 00-.518.216 5.31 5.31 0 00-.492.904c-.225.562-.392 1.138-.567 1.712-.084.276.027.313.246.36 1.403.304 2.803.611 4.2.921.944.21 1.885.434 2.828.648 1.634.37 3.267.722 4.898 1.101 1.768.412 3.532.855 5.301 1.267 1.905.443 3.805.903 5.7 1.379.971.246 1.946.476 2.917.714.51.126 1.015.259 1.525.385.305.076.473-.017.529-.328.099-.522.163-1.049.247-1.574.095-.508.1-1.03.014-1.54v.003zm-28.629 4.594c.103.341.224.677.362 1.005.089.274.328.446.411.717.06.19.247.229.419.246 1.045.101 2.087.247 3.126.372.958.123 1.922.217 2.882.34.877.111 1.752.247 2.629.367.559.077 1.121.141 1.682.222 1.345.197 2.69.384 4.033.608 1.342.225 2.675.493 4.005.767l1.094.229c3.496.564 6.705 1.081 8.819 1.352 1.988.153 3.981.099 5.971.081a43.53 43.53 0 003.348-.108 42.977 42.977 0 0010.388-1.971c.68-.219 1.35-.46 2.027-.682.247-.074.35-.163.262-.441-.247-.788-.538-1.552-1.166-2.133a2.773 2.773 0 00-1.478-.69c-.672-.111-1.35-.182-2.022-.291-.636-.103-1.286-.138-1.924-.246-.7-.121-1.404-.212-2.106-.318-.801-.123-1.592-.288-2.385-.438a33.65 33.65 0 01-3.303-.769c-.532-.158-1.067-.313-1.594-.478a22.936 22.936 0 01-2.683-1 29.63 29.63 0 01-2.076-1.027.727.727 0 00-.572-.115.716.716 0 00-.47.346 3.924 3.924 0 00-.55 1.249c-.13.56-.475 1.037-.588 1.602-.052.246-.407.362-.722.283-1.232-.308-2.463-.621-3.695-.924-1.86-.458-3.72-.919-5.585-1.36-2.239-.532-4.483-1.042-6.725-1.564-1.433-.333-2.86-.685-4.293-1.008-1.744-.394-3.496-.766-5.242-1.15a92.065 92.065 0 01-2.033-.461c-.123-.029-.128 0-.152.109a18.883 18.883 0 00-.375 2.636c-.029.492-.012.985-.039 1.478a11.47 11.47 0 00.32 3.165z" fill="#010103"/><path d="M248.793 369.805s-5.018 12.943-26.373 13.781c0 0-.604-2.819-10.172-3.565-9.567-.746-11.331-.833-20.019-.766 0 0-22.058-1.971-30.327 6.015-.553.427-1.149.795-1.779 1.099 0 0-.167.022-.303-2.463-.453-8.297 2.074-21.267 3.479-29.093l84.577 4.388.111 1.271.806 9.333z" fill="#2A3054"/><path d="M248.793 369.806s-5.018 12.942-26.373 13.78c0 0-.604-2.818-10.172-3.565-9.567-.746-11.331-.832-20.019-.766 0 0-16.665 4.035-24.935 12.034 0 0-3.325 4.68-4.091 10.43 0 0-.892-7.211-1.301-16.448 7.336-8.642 35.98-16.163 59.261-11.687 23.282 4.476 26.824-13.097 26.824-13.097l.806 9.319z" fill="#18203D"/><path opacity=".42" d="M182.318 322.134s.225 13.839-3.392 16.953l5.001-1.867s-1.579-7.563-1.609-15.086z" fill="#18203D"/><path d="M235.552 185.648s-13.879-6.681-21.606 3.695c-7.728 10.375-6.812 27.415-6.812 27.415s-2.754-4.464-6.508-4.907c-3.754-.444-5.114 6.897-2.15 9.444l2.256 1.397s3.276 2.057 2.296 9.467c0 0-13.837-3.525-17.318-18.579 7.839-1.436 14.308-7.144 22.526-21.786 8.464-15.071 20.138-12.317 25.02-10.295a16.081 16.081 0 012.296 4.149z" fill="#120D0A"/><path d="M203.37 243.939l9.967 4.269-3.165 9.964-14.322-9.457s5.685-1.113 7.52-4.776z" fill="#1D63AA"/><path d="M213.337 248.208l3.762 10.472 11.085-8.642s-4.474-2.542-5.796-4.473l-9.051 2.643z" fill="#1D63AA"/><path d="M272.715 0H6.544v30.095h266.171V0z" fill="#fff"/><path d="M241.213 129.51c2.2-1.296 4.089-3.023 4.707-5.419 1.114-4.321-3.042-7.361-6.678-8.541-4.207-1.367-9.469-1.557-13.563.246-2.486 1.097-4.893 2.781-6.457 4.996a17.728 17.728 0 00-1.047 1.609 22.847 22.847 0 00-2.254-6.72c-1.36-2.661-3.715-5.506-7.035-5.449-3.072.054-5.117 3.36-6.309 5.712a26.403 26.403 0 00-2.182 5.984c-.717-2.131-2.545-4.188-3.991-5.42-1.207-1.027-2.845-1.897-4.496-1.663-1.97.279-3.397 1.599-4.385 3.227-1.155 1.907-1.704 4.358-1.667 6.726-4.215-2.351-11.371-.156-12.177 4.697l67.534.015z" fill="#E9F5FF"/><path d="M89.922 212.472c2.202-1.296 4.091-3.023 4.707-5.42 1.116-4.323-3.042-7.363-6.676-8.543-4.21-1.365-9.469-1.554-13.566.247-2.485 1.096-4.892 2.781-6.456 4.995a18.094 18.094 0 00-1.044 1.606 22.895 22.895 0 00-2.255-6.72c-1.36-2.66-3.717-5.503-7.035-5.446-3.072.052-5.119 3.357-6.309 5.71a26.449 26.449 0 00-2.182 5.986c-.717-2.133-2.547-4.188-3.993-5.42-1.207-1.027-2.846-1.899-4.494-1.665-1.97.281-3.399 1.599-4.384 3.227-1.156 1.909-1.705 4.36-1.668 6.725-4.217-2.35-11.371-.155-12.18 4.7l67.535.018zm426.36-109.808c2.199-1.296 4.091-3.023 4.707-5.42 1.116-4.32-3.042-7.36-6.678-8.543-4.208-1.364-9.467-1.554-13.563.247-2.486 1.096-4.893 2.78-6.457 4.995a17.985 17.985 0 00-1.044 1.607 22.947 22.947 0 00-2.254-6.72c-1.36-2.659-3.718-5.504-7.036-5.447-3.072.054-5.119 3.358-6.309 5.71a26.47 26.47 0 00-2.182 5.986c-.717-2.133-2.547-4.188-3.993-5.42-1.207-1.027-2.845-1.899-4.493-1.665-1.971.281-3.4 1.602-4.385 3.23-1.156 1.906-1.705 4.358-1.668 6.725-4.217-2.35-11.371-.158-12.179 4.698l67.534.017z" fill="#F3F9FF"/><path d="M657.81 212.472c2.202-1.296 4.092-3.023 4.708-5.42 1.116-4.323-3.043-7.363-6.676-8.543-4.207-1.365-9.469-1.554-13.566.247-2.483 1.096-4.892 2.781-6.456 4.995a18.395 18.395 0 00-1.045 1.606 22.895 22.895 0 00-2.254-6.72c-1.36-2.66-3.715-5.503-7.035-5.446-3.072.052-5.117 3.357-6.309 5.71a26.469 26.469 0 00-2.183 5.986c-.716-2.133-2.547-4.188-3.993-5.42-1.204-1.027-2.842-1.899-4.493-1.665-1.971.281-3.399 1.599-4.385 3.227-1.155 1.909-1.704 4.36-1.667 6.725-4.215-2.35-11.371-.155-12.179 4.7l67.533.018z" fill="#E9F5FF"/><path d="M350.821 168.259H283.14v-44.715h67.681v44.715zm-65.464-2.217h63.247v-40.281h-63.247v40.281z" fill="#BFDBF5"/><path d="M407.977 188.188h-48.379v-35.365h48.379v35.365zm-46.162-2.217h43.945V155.04h-43.945v30.931z" fill="#A6CCE8"/><path d="M311.293 125.761l-25.937 16.174v3.966l30.546-20.14h-4.609zm22.368 0l-48.305 30.817v9.464l63.248-40.281h-14.943zm14.943 8.176l-47.974 32.105h5.106l42.868-28.987v-3.118zm29.795 21.106l-16.584 14.039v10.777l29.903-24.816h-13.319zm21.759 0l-36.909 30.927h5.592l36.918-30.927h-5.601zm5.602 8.752l-25.225 22.176h11.183l14.042-11.601v-10.575zm-46.884 196.499l-20.552 15.697 2.106 9.962 29.223-25.659h-10.777zm15.862 0l-32.859 32.5 2.165 10.25 36.808-37.564-1.096-5.186h-5.018z" fill="#fff"/><path d="M316.981 251.445c15.892 0 28.775-12.883 28.775-28.775s-12.883-28.775-28.775-28.775-28.774 12.883-28.774 28.775 12.882 28.775 28.774 28.775z" fill="#F7AC24"/><path d="M446.452 253.985c-2.306.342-6.511-1.754-6.511-1.754a28.785 28.785 0 00-57.455 2.608 28.785 28.785 0 0047.711 21.693 28.784 28.784 0 009.744-19.084s8.814-3.808 6.511-3.463z" fill="#1D63AA"/><path d="M419.542 246.55a10.786 10.786 0 00-8.406-7.39 10.785 10.785 0 00-10.437 4.042 10.782 10.782 0 00-1.238 11.123 10.796 10.796 0 009.294 6.237l1.547 4.907 7.37-2.323-1.581-5.013a10.782 10.782 0 003.451-11.583z" fill="#fff"/><path d="M418.726 262.837l-9.91 3.123 1.329 4.217 9.91-3.123-1.329-4.217z" fill="#FE7E65"/><path d="M420.058 267.054l-9.91 3.123 1.169 3.71 9.91-3.123-1.169-3.71z" fill="#E85D4B"/><path d="M419.537 271.072l-6.807 2.145.72 2.286 6.807-2.144-.72-2.287z" fill="#121038"/><path d="M406.7 241.692s10.689.453 9.184 12.071c0 .002 3.991-14.261-9.184-12.071z" fill="#1D63AA" fill-opacity=".2"/><path d="M289.852 232.255s-6.71 3.424-10.674 3.119c0 0 11.591 3.15 16.776 1.83l-6.102-4.949z" fill="#F7AC24"/><path d="M329.491 224.456c.317-2.274-.439-4.151-2.178-5.624a4.893 4.893 0 00-3.774-1.17 6.667 6.667 0 00-3.281 1.35 10.92 10.92 0 00-.852.69c-.03.027-.06.064-.106.037-.047-.027-.018-.072 0-.109.017-.037.019-.079.032-.118.253-.88.366-1.794.335-2.71-.109-2.049-1.02-3.621-2.86-4.567a5.837 5.837 0 00-3.474-.625 6.542 6.542 0 00-1.123.246c-.138.042-.273.096-.411.143a.109.109 0 01-.062 0 5.875 5.875 0 00-.739.362.843.843 0 01-.138.106 5.121 5.121 0 00-1.355 1.19.337.337 0 01-.111.098 6.368 6.368 0 00-.266.357.248.248 0 01-.049.111 6.67 6.67 0 00-.709 1.348v.014l-.025.067c-.015.034-.027.069-.042.106a12.255 12.255 0 00-.687 3.769 30.02 30.02 0 00.384 5.505c.246 1.838.616 3.659.934 5.486.214 1.232.418 2.464.63 3.715.027.178.079.352.156.515.015.04.044.074.081.097.037.022.08.031.123.026.239-.005.476-.044.705-.116 1.093-.317 2.187-.64 3.281-.955 2.057-.589 4.131-1.121 6.158-1.799a27.248 27.248 0 004.713-1.956 11.142 11.142 0 003.35-2.655 6.022 6.022 0 001.36-2.934z" fill="#fff"/></svg>