<svg width="71" height="100" viewBox="0 0 71 100" fill="none" xmlns="http://www.w3.org/2000/svg">
<path d="M70.0046 10.0843V92.1343C70.0053 93.1666 69.8027 94.1889 69.4082 95.1428C69.0138 96.0968 68.4354 96.9637 67.7059 97.6941C66.9765 98.4245 66.1103 99.004 65.1569 99.3997C64.2034 99.7953 63.1814 99.9993 62.1491 100H10.3292C9.29679 99.9997 8.27461 99.7959 7.32102 99.4004C6.36743 99.0048 5.50113 98.4253 4.77161 97.6948C4.04209 96.9644 3.46365 96.0973 3.06936 95.1432C2.67506 94.1891 2.47263 93.1667 2.47364 92.1343V10.0843C2.47364 8.0009 3.30127 6.00282 4.77446 4.52962C6.24766 3.05643 8.24574 2.22879 10.3292 2.22879H62.1491C64.2321 2.23014 66.2294 3.05821 67.7023 4.53111C69.1752 6.00402 70.0033 8.00132 70.0046 10.0843Z" fill="#00458B"/>
<path d="M63.0225 9.22591H8.18408V91.4032H63.0225V9.22591Z" fill="url(#paint0_linear)"/>
<path d="M63.8196 8.57638V90.5168H15.851C15.851 90.5168 9.20286 89.1184 8.85135 77.9134C8.49984 66.7083 9.20287 8.57638 9.20287 8.57638H63.8196Z" fill="white"/>
<path d="M19.9216 90.4379C19.8888 90.4625 19.8574 90.4888 19.8274 90.5168H15.8512C15.8512 90.5168 9.20307 89.1184 8.85156 77.9133C8.85156 77.9133 11.2434 85.453 19.4402 83.8406C19.4402 83.8406 15.0973 90.9193 19.9216 90.4379Z" fill="white"/>
<path d="M19.9216 90.4379C19.8888 90.4625 19.8574 90.4888 19.8274 90.5168H15.8512C15.8512 90.5168 9.20307 89.1184 8.85156 77.9133C8.85156 77.9133 11.2434 85.453 19.4402 83.8406C19.4402 83.8406 15.0973 90.9193 19.9216 90.4379Z" fill="url(#paint1_linear)"/>
<path d="M56.9908 25.8692H17.9119C17.5124 25.8692 17.1885 26.1931 17.1885 26.5926C17.1885 26.9922 17.5124 27.316 17.9119 27.316H56.9908C57.3903 27.316 57.7142 26.9922 57.7142 26.5926C57.7142 26.1931 57.3903 25.8692 56.9908 25.8692Z" fill="#E31E27"/>
<path d="M56.9908 30.2122H17.9119C17.5124 30.2122 17.1885 30.5361 17.1885 30.9356C17.1885 31.3351 17.5124 31.659 17.9119 31.659H56.9908C57.3903 31.659 57.7142 31.3351 57.7142 30.9356C57.7142 30.5361 57.3903 30.2122 56.9908 30.2122Z" fill="#E31E27"/>
<path d="M56.9908 34.5526H17.9119C17.5124 34.5526 17.1885 34.8765 17.1885 35.276C17.1885 35.6755 17.5124 35.9994 17.9119 35.9994H56.9908C57.3903 35.9994 57.7142 35.6755 57.7142 35.276C57.7142 34.8765 57.3903 34.5526 56.9908 34.5526Z" fill="#E31E27"/>
<path d="M56.9908 38.8955H17.9119C17.5124 38.8955 17.1885 39.2194 17.1885 39.6189C17.1885 40.0185 17.5124 40.3423 17.9119 40.3423H56.9908C57.3903 40.3423 57.7142 40.0185 57.7142 39.6189C57.7142 39.2194 57.3903 38.8955 56.9908 38.8955Z" fill="#E31E27"/>
<path d="M56.9908 43.2385H17.9119C17.5124 43.2385 17.1885 43.5624 17.1885 43.9619C17.1885 44.3614 17.5124 44.6853 17.9119 44.6853H56.9908C57.3903 44.6853 57.7142 44.3614 57.7142 43.9619C57.7142 43.5624 57.3903 43.2385 56.9908 43.2385Z" fill="#E31E27"/>
<path d="M48.3634 5.27013V7.63392C48.364 8.31816 48.2297 8.99582 47.9682 9.62811C47.7067 10.2604 47.323 10.8349 46.8392 11.3187C46.3553 11.8026 45.7808 12.1862 45.1485 12.4478C44.5163 12.7093 43.8386 12.8436 43.1544 12.8429H29.2161C28.5315 12.8436 27.8535 12.7094 27.2208 12.4479C26.5881 12.1865 26.0131 11.8029 25.5286 11.3192C25.0442 10.8355 24.6598 10.261 24.3974 9.62868C24.1351 8.99635 23.9998 8.31852 23.9995 7.63392V5.27013C24.0009 3.8877 24.5511 2.5624 25.5294 1.5856C26.5076 0.608796 27.8337 0.0604532 29.2161 0.0611292H43.1544C43.8385 0.0607944 44.516 0.1953 45.1481 0.456958C45.7803 0.718616 46.3546 1.1023 46.8384 1.58606C47.3222 2.06983 47.7059 2.6442 47.9675 3.27633C48.2292 3.90847 48.3637 4.58598 48.3634 5.27013Z" fill="#00458B"/>
<path d="M24.0376 5.209V7.57533C24.0356 8.26055 24.1689 8.93943 24.4298 9.57304C24.6907 10.2066 25.0741 10.7825 25.558 11.2676C26.042 11.7528 26.6169 12.1376 27.2499 12.4C27.8828 12.6625 28.5614 12.7974 29.2466 12.7971H30.2935C29.6083 12.7974 28.9297 12.6625 28.2968 12.4C27.6638 12.1376 27.0889 11.7528 26.6049 11.2676C26.121 10.7825 25.7376 10.2066 25.4767 9.57304C25.2158 8.93943 25.0825 8.26055 25.0845 7.57533V5.209C25.0842 4.52485 25.2187 3.84734 25.4803 3.2152C25.742 2.58307 26.1257 2.0087 26.6094 1.52493C27.0932 1.04117 27.6676 0.657489 28.2997 0.395831C28.9319 0.134173 29.6094 -0.00033417 30.2935 6.23448e-07H29.2466C28.5625 -0.00033417 27.885 0.134173 27.2528 0.395831C26.6207 0.657489 26.0463 1.04117 25.5626 1.52493C25.0788 2.0087 24.6951 2.58307 24.4334 3.2152C24.1718 3.84734 24.0373 4.52485 24.0376 5.209Z" fill="url(#paint2_linear)"/>
<path d="M48.3634 5.27013V7.63392C48.3641 8.31816 48.2298 8.99582 47.9683 9.62811C47.7068 10.2604 47.3231 10.8349 46.8393 11.3187C46.3554 11.8026 45.7809 12.1862 45.1486 12.4478C44.5163 12.7093 43.8387 12.8436 43.1544 12.8429H30.2606C29.576 12.8436 28.898 12.7094 28.2652 12.4479C27.6325 12.1865 27.0575 11.8029 26.5731 11.3192C26.0886 10.8355 25.7042 10.261 25.4419 9.62868C25.1795 8.99635 25.0443 8.31852 25.0439 7.63392V5.27013C25.0453 3.8877 25.5956 2.5624 26.5738 1.5856C27.5521 0.608796 28.8782 0.0604532 30.2606 0.0611292H43.1544C43.8386 0.0607944 44.5161 0.1953 45.1482 0.456958C45.7804 0.718616 46.3547 1.1023 46.8385 1.58606C47.3223 2.06983 47.706 2.6442 47.9676 3.27633C48.2293 3.90847 48.3638 4.58598 48.3634 5.27013Z" fill="url(#paint3_linear)"/>
<path d="M2.55483 50.0701C2.54223 50.2191 2.55081 50.3692 2.5803 50.5158C2.09124 50.1898 1.53595 49.1276 1.05199 47.8515C0.753968 47.0695 0 43.292 0 42.454C0 40.5257 1.32708 38.9134 2.72294 37.5277C2.40964 40.1997 2.97511 45.9665 2.55483 50.0701Z" fill="url(#paint4_linear)"/>
<defs>
<linearGradient id="paint0_linear" x1="14.6514" y1="123.528" x2="58.5547" y2="-29.8912" gradientUnits="userSpaceOnUse">
<stop stop-color="#010101" stop-opacity="0"/>
<stop offset="0.47" stop-color="#010101" stop-opacity="0.47"/>
<stop offset="0.95" stop-color="#010101"/>
</linearGradient>
<linearGradient id="paint1_linear" x1="2442.94" y1="4429.77" x2="1202.29" y2="5775.88" gradientUnits="userSpaceOnUse">
<stop stop-color="#010101" stop-opacity="0"/>
<stop offset="0.95" stop-color="#010101"/>
</linearGradient>
<linearGradient id="paint2_linear" x1="1394.4" y1="728.281" x2="2023.28" y2="755.975" gradientUnits="userSpaceOnUse">
<stop stop-color="#010101" stop-opacity="0"/>
<stop offset="0.47" stop-color="#010101" stop-opacity="0.47"/>
<stop offset="0.95" stop-color="#010101"/>
</linearGradient>
<linearGradient id="paint3_linear" x1="37.5328" y1="-6.79844" x2="36.0911" y2="16.246" gradientUnits="userSpaceOnUse">
<stop stop-color="white" stop-opacity="0"/>
<stop offset="0.95" stop-color="white"/>
</linearGradient>
<linearGradient id="paint4_linear" x1="356.106" y1="2598.39" x2="1099.78" y2="2666.6" gradientUnits="userSpaceOnUse">
<stop stop-color="#010101" stop-opacity="0"/>
<stop offset="0.95" stop-color="#010101"/>
</linearGradient>
</defs>
</svg>
