<svg width="90" height="76" fill="none" xmlns="http://www.w3.org/2000/svg"><path d="M89.231 6.964v50.421a5.964 5.964 0 01-5.963 5.964H6.963A5.964 5.964 0 011 57.385V6.964c0-.23.015-.46.042-.688A5.957 5.957 0 016.964 1h76.303a5.957 5.957 0 015.922 5.276c.027.228.041.458.042.688z" fill="#fff" stroke="#00458B" stroke-width="1.29" stroke-miterlimit="10"/><path opacity=".18" d="M51.107 17.844H8.125a2.244 2.244 0 100 4.488h42.982a2.244 2.244 0 100-4.488zm0 6.298H8.125a2.244 2.244 0 00-2.244 2.244V52.68a2.244 2.244 0 002.244 2.244h42.982a2.244 2.244 0 002.244-2.244V26.386a2.244 2.244 0 00-2.244-2.244zm17.911 18.261a9.226 9.226 0 100-18.453 9.226 9.226 0 000 18.453z" fill="#00458B"/><path d="M47.735 22.841c1.021 1.667-.28 25.013.577 26.178 2.007 2.73 6.31 10.552 6.142 13.944-3.214.117-8.004.072-11.178-.425-.584-.09-1.204-.21-1.622-.619a3.105 3.105 0 01-.707-1.427l-3.823-13.134c-1.544-5.302-3.085-10.99-1.418-16.257.84-2.656 2.446-4.994 4.028-7.287.886-1.297-.548-3.684 1.1-3.96 1.725-.291 6.041 1.59 6.9 2.987z" fill="url(#paint0_linear)"/><path d="M39.951 19.634H21.612a4.984 4.984 0 00-4.984 4.984v46.397A4.984 4.984 0 0021.612 76h18.34a4.984 4.984 0 004.984-4.985V24.618a4.984 4.984 0 00-4.985-4.984z" fill="#00458B"/><path d="M39.951 19.634H21.612a4.984 4.984 0 00-4.984 4.984v46.397A4.984 4.984 0 0021.612 76h18.34a4.984 4.984 0 004.984-4.985V24.618a4.984 4.984 0 00-4.985-4.984z" fill="url(#paint1_linear)"/><path d="M40.003 19.576H21.561a4.933 4.933 0 00-4.933 4.932V69.81a4.933 4.933 0 004.933 4.933h18.442a4.933 4.933 0 004.933-4.933v-45.3a4.933 4.933 0 00-4.933-4.933z" fill="#00458B"/><path d="M39.153 20.85H22.56a4.433 4.433 0 00-4.433 4.433v40.66a4.433 4.433 0 004.433 4.434h16.594a4.433 4.433 0 004.434-4.433v-40.66a4.433 4.433 0 00-4.434-4.434z" fill="#fff"/><path opacity=".18" d="M31.565 42.958A11.1 11.1 0 1042.663 54.06a11.107 11.107 0 00-11.098-11.103zm0 20.313a9.035 9.035 0 119.032-9.035 9.045 9.045 0 01-9.032 9.035z" fill="#00458B"/><path d="M26.282 52.19a.457.457 0 01-.159-.029.425.425 0 01-.233-.548c0-.039 1.647-3.97 5.672-3.846a.423.423 0 01.14.817.416.416 0 01-.163.026c-3.457-.097-4.813 3.178-4.864 3.318a.415.415 0 01-.393.262zm10.851 1.608a.422.422 0 01-.421-.398 4.79 4.79 0 00-2.92-4.314.421.421 0 01-.173-.678.416.416 0 01.453-.116 5.575 5.575 0 013.483 5.062.424.424 0 01-.4.444h-.022zm-.853 3.319a.431.431 0 01-.26-.088.422.422 0 01-.07-.59c.313-.465.512-.997.583-1.554a.422.422 0 11.837.094 4.443 4.443 0 01-.765 1.975.423.423 0 01-.325.163z" fill="#E31E27"/><path d="M27.69 52.706a.421.421 0 01-.383-.593 4.885 4.885 0 013.674-2.835c1.255-.204 2.452.117 3.117.837a.422.422 0 11-.62.57c-.467-.505-1.394-.732-2.364-.573a4.031 4.031 0 00-3.038 2.344.424.424 0 01-.386.25zm5.023 7.268a.418.418 0 01-.295-.72c4.342-4.232 1.946-7.404 1.946-7.436a.421.421 0 01.648-.516c.03.035 2.864 3.8-2.014 8.555a.42.42 0 01-.285.117zm-6.457-3.912a.42.42 0 01-.386-.246c-.382-.856-.14-2.436-.11-2.61a.428.428 0 01.483-.351.422.422 0 01.347.487c-.09.57-.162 1.657.049 2.127a.418.418 0 01-.383.593zm.736 1.975a.418.418 0 01-.253-.756c.678-.509.493-2.39.214-3.457a.421.421 0 01.814-.21c.091.324.824 3.33-.522 4.339a.408.408 0 01-.253.084z" fill="#E31E27"/><path d="M28.046 59.014a.421.421 0 01-.224-.779c.065-.042 1.492-.973.896-3.36-.387-1.55 0-2.52.424-3.057a3.185 3.185 0 012.527-1.178.409.409 0 01.43.406.42.42 0 01-.404.434 2.376 2.376 0 00-1.881.847c-.425.56-.523 1.375-.28 2.344.75 3.003-1.186 4.216-1.267 4.281a.428.428 0 01-.22.062z" fill="#E31E27"/><path d="M32.418 56.905a.417.417 0 01-.324-.674c.626-.817 1.125-2.046.879-2.692a.694.694 0 00-.597-.434c-.464-.088-.794-.036-.992.159-.347.324-.299 1.092-.253 1.355a.42.42 0 01-.504.517.422.422 0 01-.323-.364c-.026-.14-.234-1.392.486-2.105.406-.402.993-.532 1.745-.39a1.53 1.53 0 011.226.974c.382 1.008-.25 2.523-1 3.499a.412.412 0 01-.343.155zm-3.01 2.715a.42.42 0 01-.292-.724c1.168-1.135 1.136-2.83 1.136-2.847a.421.421 0 11.843-.026c0 .084.048 2.079-1.392 3.476a.418.418 0 01-.295.12zm1.56.454a.4.4 0 01-.178-.042.417.417 0 01-.201-.558l.85-1.8a.422.422 0 01.762.36l-.85 1.8a.422.422 0 01-.383.24z" fill="#E31E27"/><path d="M89.19 6.276H1.041A5.957 5.957 0 016.964 1h76.304a5.958 5.958 0 015.921 5.276z" fill="#00458B"/><path d="M66.972 36.77l-6.694-7.41a1.427 1.427 0 01-.11-1.83 1.38 1.38 0 012.105-.07l5.376 5.953a.934.934 0 001.362.02L81.91 20.107a1.382 1.382 0 012.101.137 1.43 1.43 0 01-.169 1.829l-14.27 14.739a1.788 1.788 0 01-2.6-.042z" fill="url(#paint2_linear)"/><path d="M66.972 36.001l-6.694-7.41a1.428 1.428 0 01-.11-1.83 1.377 1.377 0 012.105-.067l5.376 5.938a.935.935 0 001.362.022L81.91 19.335a1.381 1.381 0 012.101.137 1.43 1.43 0 01-.169 1.829L69.572 36.04a1.784 1.784 0 01-2.6-.039z" fill="#E31E27"/><path opacity=".18" d="M26.386 33.686a1.553 1.553 0 100-3.107 1.553 1.553 0 000 3.107zm4.096 0a1.553 1.553 0 100-3.107 1.553 1.553 0 000 3.107zm4.092 0a1.553 1.553 0 100-3.107 1.553 1.553 0 000 3.107z" fill="#68E1FD"/><path opacity=".18" d="M51.107 10.288H8.125a2.244 2.244 0 100 4.488h42.982a2.244 2.244 0 100-4.488z" fill="#00458B"/><path d="M44.848 63.898s.649.415.827-.296c.178-.71 1.002-8.324 1.002-8.324l-1.829-3.72v12.34z" fill="url(#paint3_linear)"/><path d="M34.25 71.927h-7.024a.739.739 0 100 1.475h7.024a.739.739 0 100-1.475z" fill="url(#paint4_linear)"/><defs><linearGradient id="paint0_linear" x1="60.071" y1="39.996" x2="8.148" y2="45.87" gradientUnits="userSpaceOnUse"><stop stop-opacity="0"/><stop offset=".99"/></linearGradient><linearGradient id="paint1_linear" x1="1399.18" y1="10046" x2="3869.89" y2="10046" gradientUnits="userSpaceOnUse"><stop stop-opacity="0"/><stop offset=".99"/></linearGradient><linearGradient id="paint2_linear" x1="7170.93" y1="1010.93" x2="7307.83" y2="4737.88" gradientUnits="userSpaceOnUse"><stop stop-opacity="0"/><stop offset=".99"/></linearGradient><linearGradient id="paint3_linear" x1="429.932" y1="2079.68" x2="1028.34" y2="3812.83" gradientUnits="userSpaceOnUse"><stop stop-opacity="0"/><stop offset=".99"/></linearGradient><linearGradient id="paint4_linear" x1="811.658" y1="424.036" x2="811.658" y2="495.674" gradientUnits="userSpaceOnUse"><stop stop-opacity="0"/><stop offset=".99"/></linearGradient></defs></svg>