<svg width="120" height="101" viewBox="0 0 120 101" fill="none" xmlns="http://www.w3.org/2000/svg">
<path d="M118.642 8.95175V76.1805C118.642 78.2895 117.804 80.312 116.313 81.8033C114.821 83.2945 112.799 84.1323 110.69 84.1323H8.95175C6.84281 84.1323 4.82025 83.2945 3.32901 81.8033C1.83777 80.312 1 78.2895 1 76.1805V8.95175C1.00122 8.64537 1.01999 8.33931 1.05621 8.03507C1.27915 6.09767 2.20704 4.30999 3.66308 3.01263C5.11913 1.71527 7.00156 0.998894 8.95175 1H110.69C112.64 0.998894 114.523 1.71527 115.979 3.01263C117.435 4.30999 118.363 6.09767 118.586 8.03507C118.622 8.33931 118.641 8.64537 118.642 8.95175Z" fill="white" stroke="#00458B" stroke-width="1.29" stroke-miterlimit="10"/>
<path opacity="0.18" d="M67.8096 23.4586H10.5C8.84745 23.4586 7.50781 24.7982 7.50781 26.4508C7.50781 28.1033 8.84745 29.443 10.5 29.443H67.8096C69.4622 29.443 70.8018 28.1033 70.8018 26.4508C70.8018 24.7982 69.4622 23.4586 67.8096 23.4586Z" fill="#00458B"/>
<path opacity="0.18" d="M67.8096 31.8557H10.5C8.84745 31.8557 7.50781 33.1954 7.50781 34.8479V69.9065C7.50781 71.559 8.84745 72.8987 10.5 72.8987H67.8096C69.4622 72.8987 70.8018 71.559 70.8018 69.9065V34.8479C70.8018 33.1954 69.4622 31.8557 67.8096 31.8557Z" fill="#00458B"/>
<path opacity="0.18" d="M91.6903 56.2039C98.4843 56.2039 103.992 50.6963 103.992 43.9023C103.992 37.1082 98.4843 31.6006 91.6903 31.6006C84.8963 31.6006 79.3887 37.1082 79.3887 43.9023C79.3887 50.6963 84.8963 56.2039 91.6903 56.2039Z" fill="#00458B"/>
<path d="M63.3124 30.1218C64.6745 32.3443 62.9406 63.4725 64.0821 65.0247C66.7586 68.6655 72.4965 79.0949 72.2716 83.6177C67.9866 83.7734 61.6001 83.7129 57.367 83.0513C56.5887 82.9302 55.7628 82.7702 55.205 82.2254C54.7307 81.684 54.4058 81.0283 54.2624 80.3229L49.1645 62.8109C47.1063 55.7412 45.0524 48.157 47.2749 41.1349C48.3948 37.5936 50.5351 34.476 52.6452 31.419C53.8257 29.6894 51.9145 26.507 54.111 26.1395C56.4114 25.7503 62.1666 28.2582 63.3124 30.1218Z" fill="url(#paint0_linear)"/>
<path d="M52.9348 25.8454H28.4828C24.8124 25.8454 21.8369 28.8209 21.8369 32.4913V94.3541C21.8369 98.0245 24.8124 101 28.4828 101H52.9348C56.6052 101 59.5807 98.0245 59.5807 94.3541V32.4913C59.5807 28.8209 56.6052 25.8454 52.9348 25.8454Z" fill="#00458B"/>
<path d="M52.9348 25.8454H28.4828C24.8124 25.8454 21.8369 28.8209 21.8369 32.4913V94.3541C21.8369 98.0245 24.8124 101 28.4828 101H52.9348C56.6052 101 59.5807 98.0245 59.5807 94.3541V32.4913C59.5807 28.8209 56.6052 25.8454 52.9348 25.8454Z" fill="url(#paint1_linear)"/>
<path d="M53.004 25.7676H28.4136C24.7814 25.7676 21.8369 28.7121 21.8369 32.3443V92.7456C21.8369 96.3778 24.7814 99.3223 28.4136 99.3223H53.004C56.6362 99.3223 59.5807 96.3778 59.5807 92.7456V32.3443C59.5807 28.7121 56.6362 25.7676 53.004 25.7676Z" fill="#00458B"/>
<path d="M51.8715 27.4669H29.7458C26.4813 27.4669 23.835 30.1133 23.835 33.3777V87.5914C23.835 90.8559 26.4813 93.5023 29.7458 93.5023H51.8715C55.1359 93.5023 57.7823 90.8559 57.7823 87.5914V33.3777C57.7823 30.1133 55.1359 27.4669 51.8715 27.4669Z" fill="white"/>
<path opacity="0.18" d="M41.7535 56.9433C38.8261 56.9424 35.9643 57.8097 33.5298 59.4353C31.0953 61.0609 29.1976 63.372 28.0766 66.0761C26.9555 68.7803 26.6615 71.7562 27.2318 74.6275C27.8021 77.4987 29.2109 80.1364 31.2803 82.2069C33.3496 84.2775 35.9865 85.6879 38.8574 86.2598C41.7283 86.8318 44.7043 86.5395 47.4092 85.4201C50.114 84.3006 52.4262 82.4042 54.0532 79.9707C55.6803 77.5372 56.5492 74.6758 56.55 71.7485C56.5489 67.8238 54.9899 64.06 52.2155 61.284C49.4411 58.508 45.6782 56.9467 41.7535 56.9433ZM41.7535 84.0285C39.3707 84.0294 37.0412 83.3236 35.0596 82.0004C33.078 80.6773 31.5333 78.7961 30.6208 76.595C29.7084 74.3939 29.4692 71.9716 29.9335 69.6345C30.3979 67.2974 31.5449 65.1505 33.2294 63.4653C34.914 61.7802 37.0605 60.6324 39.3974 60.1673C41.7343 59.7021 44.1567 59.9404 46.3581 60.852C48.5596 61.7637 50.4413 63.3077 51.7651 65.2889C53.089 67.27 53.7957 69.5992 53.7957 71.982C53.7922 75.1751 52.5225 78.2366 50.265 80.4949C48.0076 82.7532 44.9466 84.024 41.7535 84.0285Z" fill="#00458B"/>
<path d="M34.7099 69.2536C34.6375 69.2533 34.5657 69.2401 34.498 69.2146C34.3606 69.158 34.251 69.0497 34.1928 68.913C34.1345 68.7763 34.1324 68.6222 34.1867 68.4839C34.1867 68.432 36.3832 63.1914 41.7493 63.3557C41.8231 63.3579 41.8958 63.3747 41.9631 63.405C42.0304 63.4354 42.0912 63.4787 42.1417 63.5325C42.1923 63.5863 42.2318 63.6495 42.258 63.7186C42.2841 63.7877 42.2964 63.8613 42.2941 63.9351C42.293 64.0089 42.2771 64.0817 42.2475 64.1493C42.2178 64.2169 42.1749 64.2779 42.1213 64.3287C42.0677 64.3794 42.0045 64.419 41.9354 64.4449C41.8663 64.4709 41.7928 64.4828 41.719 64.4799C37.1097 64.3502 35.3022 68.7174 35.2331 68.9033C35.1918 69.0079 35.1196 69.0975 35.0261 69.1601C34.9326 69.2226 34.8223 69.2553 34.7099 69.2536Z" fill="#E31E27"/>
<path d="M49.1774 71.3982C49.0334 71.3984 48.8948 71.3434 48.7902 71.2444C48.6857 71.1455 48.623 71.0102 48.6153 70.8664C48.5905 69.6346 48.2099 68.4362 47.5194 67.4159C46.8289 66.3955 45.858 65.5966 44.7237 65.1155C44.5843 65.0656 44.4702 64.9626 44.4062 64.829C44.3422 64.6955 44.3336 64.542 44.3821 64.4021C44.4054 64.3319 44.4425 64.2672 44.4913 64.2116C44.54 64.1561 44.5994 64.1109 44.6659 64.0786C44.7324 64.0464 44.8047 64.0278 44.8785 64.0239C44.9523 64.0201 45.0261 64.031 45.0956 64.0562C46.4458 64.6024 47.6059 65.5334 48.4315 66.7334C49.2571 67.9334 49.7119 69.3495 49.7395 70.8058C49.7466 70.9547 49.6947 71.1003 49.5952 71.2112C49.4956 71.3221 49.3564 71.3893 49.2077 71.3982H49.1774Z" fill="#E31E27"/>
<path d="M48.0403 75.8216C47.9154 75.8213 47.794 75.7804 47.6944 75.7049C47.5778 75.6129 47.5024 75.4785 47.4845 75.331C47.4667 75.1836 47.508 75.0351 47.5993 74.9179C48.0168 74.2977 48.2833 73.5884 48.3776 72.8468C48.3821 72.7705 48.402 72.696 48.4362 72.6277C48.4704 72.5595 48.5181 72.4989 48.5765 72.4497C48.6349 72.4004 48.7027 72.3636 48.7758 72.3415C48.8489 72.3194 48.9257 72.3123 49.0016 72.3209C49.0774 72.3294 49.1508 72.3533 49.2171 72.3911C49.2835 72.4289 49.3414 72.4799 49.3874 72.5408C49.4334 72.6018 49.4665 72.6714 49.4847 72.7456C49.5029 72.8198 49.5058 72.8969 49.4932 72.9722C49.3703 73.9194 49.0202 74.8228 48.4727 75.6055C48.4213 75.6714 48.3558 75.725 48.281 75.7624C48.2062 75.7998 48.124 75.82 48.0403 75.8216Z" fill="#E31E27"/>
<path d="M36.5863 69.9411C36.507 69.9409 36.4287 69.9232 36.3571 69.8892C36.2223 69.8278 36.1171 69.7157 36.0645 69.5773C36.0119 69.4388 36.016 69.2852 36.076 69.1498C36.5152 68.163 37.1929 67.3009 38.0481 66.6412C38.9033 65.9815 39.9091 65.5449 40.9751 65.3707C42.6485 65.0982 44.244 65.5263 45.1304 66.4862C45.1844 66.5397 45.227 66.6036 45.2557 66.6739C45.2843 66.7443 45.2984 66.8198 45.297 66.8958C45.2957 66.9718 45.2789 67.0467 45.2478 67.116C45.2166 67.1853 45.1718 67.2476 45.1159 67.2991C45.06 67.3506 44.9943 67.3903 44.9226 67.4156C44.851 67.441 44.775 67.4516 44.6991 67.4467C44.6233 67.4419 44.5492 67.4217 44.4814 67.3874C44.4136 67.3531 44.3534 67.3054 44.3045 67.2472C43.6819 66.5727 42.4452 66.27 41.1524 66.4819C40.2704 66.6252 39.4381 66.986 38.7306 67.5319C38.0232 68.0777 37.4631 68.7913 37.1008 69.6081C37.056 69.7071 36.9837 69.7912 36.8925 69.8502C36.8012 69.9092 36.6949 69.9408 36.5863 69.9411Z" fill="#E31E27"/>
<path d="M43.284 79.6311C43.1722 79.6325 43.0625 79.6002 42.9692 79.5385C42.8759 79.4767 42.8033 79.3884 42.7609 79.2849C42.7185 79.1814 42.7082 79.0675 42.7313 78.9581C42.7544 78.8486 42.8099 78.7486 42.8905 78.6711C48.6803 73.0284 45.4849 68.7996 45.4849 68.7563C45.4238 68.6404 45.405 68.5068 45.4319 68.3786C45.4589 68.2504 45.5297 68.1356 45.6323 68.0541C45.7348 67.9725 45.8626 67.9294 45.9936 67.9321C46.1246 67.9348 46.2506 67.9831 46.3497 68.0688C46.3886 68.1164 50.1677 73.1365 43.6645 79.4754C43.5619 79.5735 43.4259 79.6291 43.284 79.6311Z" fill="#E31E27"/>
<path d="M34.6748 74.4163C34.5665 74.417 34.4604 74.3863 34.3691 74.328C34.2778 74.2697 34.2053 74.1862 34.1603 74.0877C33.6501 72.9462 33.9744 70.8404 34.0133 70.6069C34.0388 70.4606 34.1203 70.3299 34.2406 70.2427C34.3609 70.1555 34.5105 70.1186 34.6576 70.14C34.7306 70.152 34.8005 70.1784 34.8634 70.2175C34.9262 70.2567 34.9806 70.3079 35.0236 70.3681C35.0666 70.4284 35.0973 70.4966 35.1139 70.5687C35.1304 70.6409 35.1326 70.7156 35.1202 70.7885C34.9991 71.5496 34.904 72.9981 35.1851 73.6251C35.2244 73.7103 35.2415 73.8041 35.2349 73.8978C35.2283 73.9915 35.1982 74.0819 35.1473 74.1608C35.0964 74.2397 35.0264 74.3045 34.9439 74.3492C34.8613 74.3939 34.7687 74.417 34.6748 74.4163Z" fill="#E31E27"/>
<path d="M35.6564 77.0497C35.5382 77.0512 35.4226 77.0152 35.3262 76.9468C35.2298 76.8783 35.1577 76.7811 35.1202 76.669C35.0826 76.5569 35.0817 76.4358 35.1175 76.3231C35.1532 76.2105 35.2238 76.1121 35.3192 76.0422C36.2229 75.3633 35.9764 72.8554 35.6045 71.4329C35.5677 71.289 35.5893 71.1363 35.6647 71.0083C35.74 70.8803 35.863 70.7873 36.0067 70.7497C36.0779 70.7302 36.1524 70.7253 36.2256 70.735C36.2989 70.7448 36.3694 70.7692 36.4331 70.8067C36.4967 70.8441 36.5523 70.894 36.5964 70.9533C36.6405 71.0125 36.6722 71.08 36.6898 71.1518C36.8109 71.5842 37.7881 75.5925 35.9937 76.9372C35.897 77.0114 35.7782 77.051 35.6564 77.0497Z" fill="#E31E27"/>
<path d="M37.0619 78.3512C36.9401 78.3509 36.8217 78.3111 36.7245 78.2377C36.6273 78.1644 36.5565 78.0614 36.5229 77.9444C36.4892 77.8273 36.4945 77.7025 36.5379 77.5887C36.5813 77.4749 36.6605 77.3783 36.7635 77.3134C36.85 77.2572 38.7525 76.0162 37.9569 72.8338C37.4424 70.767 37.9569 69.4741 38.5234 68.7563C38.9291 68.2565 39.4432 67.8554 40.0267 67.5835C40.6103 67.3115 41.248 67.1759 41.8917 67.1867C41.9654 67.1826 42.0392 67.1935 42.1085 67.2188C42.1779 67.2441 42.2413 67.2832 42.2951 67.3337C42.3489 67.3842 42.3919 67.4452 42.4214 67.5128C42.4509 67.5805 42.4663 67.6534 42.4668 67.7272C42.4697 67.8008 42.458 67.8743 42.4323 67.9433C42.4067 68.0124 42.3676 68.0757 42.3173 68.1296C42.2671 68.1834 42.2066 68.2268 42.1395 68.2572C42.0724 68.2876 42 68.3044 41.9263 68.3066C41.4504 68.2943 40.9778 68.3893 40.5436 68.5847C40.1094 68.7801 39.7248 69.0708 39.4184 69.4352C38.852 70.1832 38.7223 71.2685 39.0466 72.5614C40.0454 76.5654 37.464 78.1825 37.3559 78.269C37.2672 78.3226 37.1655 78.351 37.0619 78.3512Z" fill="#E31E27"/>
<path d="M42.8908 75.5406C42.7872 75.539 42.686 75.5086 42.5988 75.4528C42.5115 75.397 42.4415 75.318 42.3966 75.2246C42.3517 75.1312 42.3337 75.0272 42.3446 74.9241C42.3555 74.8211 42.3949 74.7231 42.4584 74.6412C43.2929 73.5516 43.9588 71.9128 43.6302 71.0524C43.5655 70.8907 43.4565 70.7506 43.3158 70.6481C43.175 70.5456 43.0082 70.4849 42.8346 70.4729C42.2162 70.3562 41.7752 70.4254 41.5114 70.6848C41.0488 71.1172 41.1136 72.142 41.1741 72.4922C41.1937 72.567 41.1977 72.645 41.1857 72.7214C41.1738 72.7978 41.1462 72.8709 41.1047 72.9361C41.0632 73.0013 41.0087 73.0573 40.9447 73.1005C40.8806 73.1438 40.8083 73.1733 40.7322 73.1873C40.6562 73.2013 40.5781 73.1995 40.5028 73.182C40.4275 73.1644 40.3567 73.1316 40.2947 73.0854C40.2327 73.0392 40.1808 72.9808 40.1425 72.9137C40.1041 72.8466 40.0799 72.7723 40.0715 72.6955C40.037 72.5095 39.7602 70.8405 40.7201 69.8892C41.2606 69.353 42.0433 69.1801 43.0464 69.3703C43.4104 69.4195 43.7543 69.5659 44.042 69.7943C44.3296 70.0226 44.5504 70.3242 44.6809 70.6675C45.1911 72.0123 44.3479 74.0316 43.3491 75.3331C43.2948 75.4017 43.2248 75.4563 43.1451 75.4924C43.0654 75.5285 42.9782 75.545 42.8908 75.5406Z" fill="#E31E27"/>
<path d="M38.8779 79.1597C38.7664 79.159 38.6577 79.1252 38.5655 79.0626C38.4734 79 38.4019 78.9114 38.3602 78.808C38.3185 78.7047 38.3084 78.5913 38.3313 78.4822C38.3542 78.3732 38.409 78.2734 38.4887 78.1955C40.0453 76.6821 40.0021 74.4207 40.0021 74.3991C39.9975 74.25 40.0523 74.1052 40.1545 73.9965C40.2567 73.8879 40.3978 73.8243 40.5469 73.8197C40.696 73.8151 40.8408 73.8699 40.9494 73.9721C41.0581 74.0742 41.1217 74.2154 41.1263 74.3645C41.1263 74.4769 41.1912 77.1361 39.2713 78.9998C39.1664 79.1029 39.025 79.1604 38.8779 79.1597Z" fill="#E31E27"/>
<path d="M40.9579 79.7651C40.8753 79.7651 40.7939 79.7458 40.72 79.7089C40.6535 79.6778 40.5937 79.6338 40.5442 79.5796C40.4947 79.5253 40.4564 79.4618 40.4315 79.3927C40.4066 79.3236 40.3956 79.2503 40.3991 79.1769C40.4026 79.1035 40.4206 79.0316 40.452 78.9652L41.5848 76.5654C41.651 76.4349 41.7655 76.3353 41.904 76.2879C42.0424 76.2405 42.1939 76.2489 42.3262 76.3114C42.4585 76.3739 42.5612 76.4856 42.6125 76.6226C42.6638 76.7597 42.6597 76.9113 42.601 77.0453L41.4681 79.4451C41.4221 79.5414 41.3498 79.6225 41.2594 79.6792C41.1691 79.7359 41.0645 79.7656 40.9579 79.7651Z" fill="#E31E27"/>
<path d="M118.586 8.03507H1.05664C1.27958 6.09767 2.20747 4.30999 3.66351 3.01263C5.11956 1.71527 7.00199 0.998894 8.95218 1H110.69C112.641 0.998894 114.523 1.71527 115.979 3.01263C117.435 4.30999 118.363 6.09767 118.586 8.03507Z" fill="#00458B"/>
<path d="M88.9619 48.6932L80.0372 38.8129C79.7303 38.4884 79.5474 38.0662 79.5205 37.6203C79.4937 37.1744 79.6245 36.7333 79.8902 36.3742C80.0561 36.1649 80.2656 35.9942 80.5041 35.8738C80.7426 35.7535 81.0044 35.6865 81.2713 35.6775C81.5383 35.6684 81.804 35.7176 82.0501 35.8214C82.2962 35.9253 82.5167 36.0815 82.6964 36.2791L89.8656 44.2179C89.9802 44.3436 90.1195 44.4446 90.2747 44.5144C90.4299 44.5843 90.5978 44.6216 90.768 44.624C90.9382 44.6264 91.107 44.5939 91.2642 44.5286C91.4213 44.4632 91.5634 44.3663 91.6816 44.2438L108.878 26.4767C109.064 26.2847 109.289 26.1355 109.538 26.0392C109.787 25.943 110.054 25.9021 110.321 25.9194C110.587 25.9366 110.847 26.0117 111.082 26.1393C111.316 26.2669 111.52 26.444 111.68 26.6583C111.935 27.0265 112.052 27.4726 112.011 27.9185C111.97 28.3644 111.773 28.7816 111.455 29.097L92.4297 48.7494C92.2031 48.9822 91.9314 49.1662 91.6311 49.2901C91.3308 49.414 91.0084 49.4752 90.6836 49.4699C90.3588 49.4647 90.0386 49.393 89.7425 49.2595C89.4464 49.1259 89.1807 48.9332 88.9619 48.6932Z" fill="url(#paint2_linear)"/>
<path d="M88.9619 47.6684L80.0372 37.7882C79.7303 37.4636 79.5474 37.0414 79.5205 36.5955C79.4937 36.1496 79.6245 35.7085 79.8902 35.3495C80.056 35.1398 80.2656 34.9688 80.5043 34.8484C80.743 34.728 81.0051 34.6612 81.2722 34.6526C81.5394 34.6439 81.8053 34.6937 82.0513 34.7984C82.2972 34.903 82.5174 35.0601 82.6964 35.2586L89.8656 43.1758C89.9799 43.3019 90.1189 43.4031 90.274 43.4734C90.429 43.5436 90.5968 43.5813 90.767 43.5841C90.9372 43.5869 91.1062 43.5549 91.2635 43.4898C91.4208 43.4248 91.5631 43.3282 91.6816 43.2061L108.878 25.4476C109.064 25.2556 109.289 25.1064 109.538 25.0101C109.787 24.9139 110.054 24.873 110.321 24.8903C110.587 24.9075 110.847 24.9826 111.082 25.1102C111.316 25.2378 111.52 25.4149 111.68 25.6292C111.935 25.9974 112.052 26.4435 112.011 26.8894C111.97 27.3353 111.773 27.7525 111.455 28.0679L92.4297 47.7203C92.2037 47.9539 91.9323 48.1387 91.6322 48.2634C91.332 48.388 91.0095 48.4498 90.6845 48.445C90.3596 48.4401 90.039 48.3687 89.7427 48.2351C89.4465 48.1016 89.1807 47.9087 88.9619 47.6684Z" fill="#E31E27"/>
<path opacity="0.18" d="M34.848 44.5811C35.9919 44.5811 36.9192 43.6538 36.9192 42.5099C36.9192 41.366 35.9919 40.4388 34.848 40.4388C33.7042 40.4388 32.7769 41.366 32.7769 42.5099C32.7769 43.6538 33.7042 44.5811 34.848 44.5811Z" fill="#68E1FD"/>
<path opacity="0.18" d="M40.309 44.5811C41.4528 44.5811 42.3801 43.6538 42.3801 42.5099C42.3801 41.366 41.4528 40.4388 40.309 40.4388C39.1651 40.4388 38.2378 41.366 38.2378 42.5099C38.2378 43.6538 39.1651 44.5811 40.309 44.5811Z" fill="#68E1FD"/>
<path opacity="0.18" d="M45.766 44.5811C46.9099 44.5811 47.8372 43.6538 47.8372 42.5099C47.8372 41.366 46.9099 40.4388 45.766 40.4388C44.6221 40.4388 43.6948 41.366 43.6948 42.5099C43.6948 43.6538 44.6221 44.5811 45.766 44.5811Z" fill="#68E1FD"/>
<path opacity="0.18" d="M67.8096 13.3838H10.5C8.84745 13.3838 7.50781 14.7234 7.50781 16.376C7.50781 18.0285 8.84745 19.3682 10.5 19.3682H67.8096C69.4622 19.3682 70.8018 18.0285 70.8018 16.376C70.8018 14.7234 69.4622 13.3838 67.8096 13.3838Z" fill="#00458B"/>
<path d="M59.4639 84.863C59.4639 84.863 60.3287 85.4165 60.5665 84.4696C60.8043 83.5226 61.9026 73.37 61.9026 73.37L59.4639 68.4104V84.863Z" fill="url(#paint3_linear)"/>
<path d="M45.334 95.5691H35.9683C35.4238 95.5691 34.9824 96.0095 34.9824 96.5528C34.9824 97.0961 35.4238 97.5365 35.9683 97.5365H45.334C45.8784 97.5365 46.3198 97.0961 46.3198 96.5528C46.3198 96.0095 45.8784 95.5691 45.334 95.5691Z" fill="url(#paint4_linear)"/>
<defs>
<linearGradient id="paint0_linear" x1="79.7607" y1="52.9955" x2="10.5299" y2="60.8262" gradientUnits="userSpaceOnUse">
<stop stop-opacity="0"/>
<stop offset="0.99"/>
</linearGradient>
<linearGradient id="paint1_linear" x1="1865.24" y1="13394.3" x2="5159.52" y2="13394.3" gradientUnits="userSpaceOnUse">
<stop stop-opacity="0"/>
<stop offset="0.99"/>
</linearGradient>
<linearGradient id="paint2_linear" x1="9560.91" y1="1347.57" x2="9743.45" y2="6316.84" gradientUnits="userSpaceOnUse">
<stop stop-opacity="0"/>
<stop offset="0.99"/>
</linearGradient>
<linearGradient id="paint3_linear" x1="572.909" y1="2772.57" x2="1370.78" y2="5083.45" gradientUnits="userSpaceOnUse">
<stop stop-opacity="0"/>
<stop offset="0.99"/>
</linearGradient>
<linearGradient id="paint4_linear" x1="1081.88" y1="565.048" x2="1081.88" y2="660.565" gradientUnits="userSpaceOnUse">
<stop stop-opacity="0"/>
<stop offset="0.99"/>
</linearGradient>
</defs>
</svg>
