<svg width="53" height="75" fill="none" xmlns="http://www.w3.org/2000/svg"><path d="M52.503 7.564V69.1a5.896 5.896 0 01-5.891 5.9H7.747a5.895 5.895 0 01-5.892-5.9V7.564a5.892 5.892 0 015.892-5.892h38.865a5.895 5.895 0 015.891 5.892z" fill="#00458B"/><path d="M47.267 6.92H6.138v61.632h41.129V6.92z" fill="url(#paint0_linear)"/><path d="M47.864 6.432v61.456H11.889s-4.986-1.05-5.25-9.453c-.263-8.404.264-52.003.264-52.003h40.962z" fill="#fff"/><path d="M14.941 67.828a.87.87 0 00-.07.06h-2.983s-4.986-1.05-5.25-9.453c0 0 1.795 5.655 7.942 4.445 0 0-3.257 5.31.361 4.948z" fill="#fff"/><path d="M14.941 67.828a.87.87 0 00-.07.06h-2.983s-4.986-1.05-5.25-9.453c0 0 1.795 5.655 7.942 4.445 0 0-3.257 5.31.361 4.948z" fill="url(#paint1_linear)"/><path d="M42.743 19.402h-29.31a.543.543 0 000 1.085h29.31a.543.543 0 100-1.085zm0 3.258h-29.31a.543.543 0 000 1.084h29.31a.543.543 0 100-1.085zm0 3.255h-29.31a.543.543 0 000 1.085h29.31a.543.543 0 000-1.085zm0 3.257h-29.31a.543.543 0 000 1.085h29.31a.543.543 0 100-1.085zm0 3.257h-29.31a.543.543 0 000 1.085h29.31a.543.543 0 100-1.085z" fill="#E31E27"/><path d="M36.272 3.953v1.772a3.902 3.902 0 01-3.906 3.907H21.912A3.908 3.908 0 0118 5.725V3.953A3.91 3.91 0 0121.912.046h10.454a3.905 3.905 0 013.906 3.907z" fill="#00458B"/><path d="M18.028 3.907V5.68a3.905 3.905 0 003.907 3.917h.785a3.905 3.905 0 01-3.906-3.917V3.907A3.905 3.905 0 0122.72 0h-.785a3.905 3.905 0 00-3.907 3.907z" fill="url(#paint2_linear)"/><path d="M36.273 3.953v1.772a3.902 3.902 0 01-3.907 3.907h-9.67a3.91 3.91 0 01-3.913-3.907V3.953A3.91 3.91 0 0122.695.046h9.67a3.905 3.905 0 013.908 3.907z" fill="url(#paint3_linear)"/><path d="M1.916 37.553c-.01.111-.003.224.02.334-.368-.245-.784-1.041-1.147-1.998C.565 35.302 0 32.469 0 31.84c0-1.447.995-2.656 2.042-3.695-.235 2.004.19 6.33-.126 9.407z" fill="url(#paint4_linear)"/><defs><linearGradient id="paint0_linear" x1="10.989" y1="92.646" x2="43.916" y2="-22.418" gradientUnits="userSpaceOnUse"><stop stop-color="#010101" stop-opacity="0"/><stop offset=".47" stop-color="#010101" stop-opacity=".47"/><stop offset=".95" stop-color="#010101"/></linearGradient><linearGradient id="paint1_linear" x1="1832.2" y1="3322.33" x2="901.718" y2="4331.91" gradientUnits="userSpaceOnUse"><stop stop-color="#010101" stop-opacity="0"/><stop offset=".95" stop-color="#010101"/></linearGradient><linearGradient id="paint2_linear" x1="1045.8" y1="546.211" x2="1517.46" y2="566.981" gradientUnits="userSpaceOnUse"><stop stop-color="#010101" stop-opacity="0"/><stop offset=".47" stop-color="#010101" stop-opacity=".47"/><stop offset=".95" stop-color="#010101"/></linearGradient><linearGradient id="paint3_linear" x1="28.15" y1="-5.099" x2="27.068" y2="12.184" gradientUnits="userSpaceOnUse"><stop stop-color="#fff" stop-opacity="0"/><stop offset=".95" stop-color="#fff"/></linearGradient><linearGradient id="paint4_linear" x1="267.08" y1="1948.79" x2="824.835" y2="1999.95" gradientUnits="userSpaceOnUse"><stop stop-color="#010101" stop-opacity="0"/><stop offset=".95" stop-color="#010101"/></linearGradient></defs></svg>