<svg width="125" height="114" fill="none" xmlns="http://www.w3.org/2000/svg"><path d="M98.402 17.141v78.56a7.526 7.526 0 01-7.521 7.532H41.265a7.53 7.53 0 01-5.322-2.207 7.53 7.53 0 01-2.2-5.324v-78.56a7.522 7.522 0 017.522-7.522H90.88a7.526 7.526 0 017.521 7.521z" fill="#00458B"/><path d="M45.945 62.309c-1.493 3.658-4.734 6.134-7.539 8.75-1.444 1.347-2.558 2.849-3.846 4.308a3.068 3.068 0 01-.812.624V61.045c.399-1.268.655-2.577.763-3.902.488 1.608.269 3.568 1.508 4.71.797.746 1.97.878 3.06.927 2.3.093 4.601-.065 6.866-.471z" fill="url(#paint0_linear)"/><path d="M91.717 16.32H39.211v78.682h52.506V16.319z" fill="url(#paint1_linear)"/><path d="M92.48 15.698v78.455H46.553s-6.365-1.339-6.702-12.067c-.337-10.729.337-66.388.337-66.388H92.48z" fill="#fff"/><g clip-path="url(#clip0)"><path d="M73.438 51.805a6.194 6.194 0 00-8.75 0 6.185 6.185 0 00-1.507 6.28l-6.968 6.968a.562.562 0 00-.164.397v3.182c0 .311.251.563.562.563h3.182c.15 0 .292-.06.398-.165l.795-.796a.563.563 0 00.161-.462l-.099-.855 1.184-.112a.562.562 0 00.508-.507l.111-1.184.855.1a.564.564 0 00.627-.559v-1.047h1.028c.15 0 .292-.06.398-.165l1.442-1.424c2.203.715 4.59.185 6.237-1.464a6.194 6.194 0 000-8.75zm-1.591 3.977a1.689 1.689 0 01-2.386 0 1.689 1.689 0 010-2.386 1.689 1.689 0 012.386 0 1.689 1.689 0 010 2.386z" fill="#00458B"/></g><path d="M91.334 102.606c-.166-7.682-.358-15.53-2.99-22.752-1.495-4.105-3.75-7.921-4.97-12.116-.961-3.305-.732-6.814-.703-10.258.015-1.824.027-3.688-.539-5.422-.487-1.514-1.422-2.902-1.624-4.482 2.132 1.553 4.39 3.28 5.163 5.802.376 1.22.361 2.531.563 3.795.654 4.087 3.503 7.416 5.532 11.023 4.458 7.931 5.014 17.419 4.97 26.516 0 1.97-.058 4.016-.924 5.789-.866 1.773-2.537 2.461-4.478 2.105z" fill="url(#paint2_linear)"/><path d="M50.45 94.077a1.088 1.088 0 00-.09.076h-3.808s-6.365-1.339-6.702-12.068c0 0 2.29 7.22 10.138 5.676 0 0-4.158 6.777.461 6.316z" fill="#fff"/><path d="M50.45 94.077a1.088 1.088 0 00-.09.076h-3.808s-6.365-1.339-6.702-12.068c0 0 2.29 7.22 10.138 5.676 0 0-4.158 6.777.461 6.316z" fill="url(#paint3_linear)"/><path d="M85.942 32.255H48.525a.693.693 0 100 1.385h37.417a.693.693 0 100-1.385z" fill="url(#paint4_linear)"/><path d="M85.942 36.413H48.525a.693.693 0 100 1.385h37.417a.693.693 0 100-1.385z" fill="url(#paint5_linear)"/><path d="M85.942 40.569H48.525a.693.693 0 100 1.385h37.417a.693.693 0 100-1.385z" fill="url(#paint6_linear)"/><path d="M85.942 44.727H48.525a.693.693 0 100 1.386h37.417a.693.693 0 100-1.386z" fill="url(#paint7_linear)"/><path d="M85.942 48.885H48.525a.693.693 0 100 1.386h37.417a.693.693 0 100-1.386z" fill="url(#paint8_linear)"/><path d="M77.682 12.532v2.263a4.982 4.982 0 01-4.988 4.988H59.35a4.991 4.991 0 01-4.995-4.988v-2.263a4.993 4.993 0 014.995-4.987h13.345a4.985 4.985 0 014.988 4.987z" fill="#00458B"/><path d="M54.39 12.473v2.266a4.986 4.986 0 004.988 5h1.002a4.985 4.985 0 01-4.987-5v-2.266a4.982 4.982 0 013.078-4.608 4.985 4.985 0 011.91-.38h-1.003a4.985 4.985 0 00-4.988 4.988z" fill="url(#paint9_linear)"/><path d="M77.681 12.532v2.263a4.984 4.984 0 01-4.987 4.988H60.348a4.992 4.992 0 01-4.994-4.988v-2.263a4.992 4.992 0 014.995-4.987h12.345a4.985 4.985 0 014.987 4.987z" fill="url(#paint10_linear)"/><path d="M33.821 55.426c-.012.143-.004.287.025.427-.469-.312-1-1.329-1.464-2.55-.285-.75-1.007-4.366-1.007-5.169 0-1.846 1.27-3.39 2.607-4.717-.3 2.559.242 8.08-.16 12.01z" fill="url(#paint11_linear)"/><defs><linearGradient id="paint1_linear" x1="45.403" y1="125.761" x2="87.439" y2="-21.134" gradientUnits="userSpaceOnUse"><stop stop-color="#010101" stop-opacity="0"/><stop offset=".47" stop-color="#010101" stop-opacity=".47"/><stop offset=".95" stop-color="#010101"/></linearGradient><linearGradient id="paint6_linear" x1="7522.68" y1="272.684" x2="13696.1" y2="272.684" gradientUnits="userSpaceOnUse"><stop stop-color="#010101" stop-opacity="0"/><stop offset=".95" stop-color="#010101"/></linearGradient><linearGradient id="paint2_linear" x1="5852.2" y1="17864.9" x2="10794.1" y2="17077.5" gradientUnits="userSpaceOnUse"><stop stop-color="#010101" stop-opacity="0"/><stop offset=".47" stop-color="#010101" stop-opacity=".47"/><stop offset=".95" stop-color="#010101"/></linearGradient><linearGradient id="paint3_linear" x1="2370.42" y1="4248.85" x2="1182.53" y2="5537.71" gradientUnits="userSpaceOnUse"><stop stop-color="#010101" stop-opacity="0"/><stop offset=".95" stop-color="#010101"/></linearGradient><linearGradient id="paint4_linear" x1="7522.68" y1="217.133" x2="13696.1" y2="217.133" gradientUnits="userSpaceOnUse"><stop stop-color="#010101" stop-opacity="0"/><stop offset=".95" stop-color="#010101"/></linearGradient><linearGradient id="paint5_linear" x1="7522.68" y1="244.911" x2="13696.1" y2="244.911" gradientUnits="userSpaceOnUse"><stop stop-color="#010101" stop-opacity="0"/><stop offset=".95" stop-color="#010101"/></linearGradient><linearGradient id="paint0_linear" x1="33.748" y1="66.57" x2="45.945" y2="66.57" gradientUnits="userSpaceOnUse"><stop stop-color="#010101" stop-opacity="0"/><stop offset=".95" stop-color="#010101"/></linearGradient><linearGradient id="paint7_linear" x1="7522.68" y1="300.449" x2="13696.1" y2="300.449" gradientUnits="userSpaceOnUse"><stop stop-color="#010101" stop-opacity="0"/><stop offset=".95" stop-color="#010101"/></linearGradient><linearGradient id="paint8_linear" x1="7522.68" y1="328.225" x2="13696.1" y2="328.225" gradientUnits="userSpaceOnUse"><stop stop-color="#010101" stop-opacity="0"/><stop offset=".95" stop-color="#010101"/></linearGradient><linearGradient id="paint9_linear" x1="1366.47" y1="704.793" x2="1968.6" y2="731.309" gradientUnits="userSpaceOnUse"><stop stop-color="#010101" stop-opacity="0"/><stop offset=".47" stop-color="#010101" stop-opacity=".47"/><stop offset=".95" stop-color="#010101"/></linearGradient><linearGradient id="paint10_linear" x1="67.311" y1=".977" x2="65.931" y2="23.041" gradientUnits="userSpaceOnUse"><stop stop-color="#fff" stop-opacity="0"/><stop offset=".95" stop-color="#fff"/></linearGradient><linearGradient id="paint11_linear" x1="372.336" y1="2495.37" x2="1084.38" y2="2560.67" gradientUnits="userSpaceOnUse"><stop stop-color="#010101" stop-opacity="0"/><stop offset=".95" stop-color="#010101"/></linearGradient><clipPath id="clip0"><path fill="#fff" d="M56.048 49.996h19.199v19.199H56.048z"/></clipPath></defs></svg>