<svg width="120" height="101" fill="none" xmlns="http://www.w3.org/2000/svg"><path d="M118.642 8.952V76.18a7.953 7.953 0 01-7.952 7.952H8.952A7.952 7.952 0 011 76.18V8.953c.001-.307.02-.613.056-.917A7.943 7.943 0 018.952 1H110.69a7.944 7.944 0 017.896 7.035c.036.304.055.61.056.917z" fill="#fff" stroke="#00458B" stroke-width="1.29" stroke-miterlimit="10"/><path opacity=".18" d="M67.81 23.459H10.5a2.992 2.992 0 100 5.984h57.31a2.992 2.992 0 100-5.984zm0 8.397H10.5a2.992 2.992 0 00-2.992 2.992v35.058A2.992 2.992 0 0010.5 72.9h57.31a2.992 2.992 0 002.992-2.993V34.848a2.992 2.992 0 00-2.992-2.992zm23.88 24.348c6.794 0 12.302-5.508 12.302-12.302S98.484 31.601 91.69 31.601s-12.3 5.507-12.3 12.301c0 6.794 5.507 12.302 12.301 12.302z" fill="#00458B"/><path d="M63.312 30.122c1.362 2.222-.371 33.35.77 34.903 2.677 3.64 8.415 14.07 8.19 18.593-4.285.155-10.672.095-14.905-.567-.778-.12-1.604-.28-2.162-.826a4.138 4.138 0 01-.943-1.902L49.164 62.81c-2.058-7.07-4.112-14.654-1.89-21.676 1.12-3.541 3.261-6.659 5.371-9.716 1.18-1.73-.73-4.912 1.466-5.28 2.3-.389 8.056 2.12 9.201 3.983z" fill="url(#paint0_linear)"/><path d="M52.935 25.845H28.483a6.646 6.646 0 00-6.646 6.646v61.863A6.646 6.646 0 0028.483 101h24.452a6.646 6.646 0 006.646-6.646V32.491a6.646 6.646 0 00-6.646-6.646z" fill="#00458B"/><path d="M52.935 25.845H28.483a6.646 6.646 0 00-6.646 6.646v61.863A6.646 6.646 0 0028.483 101h24.452a6.646 6.646 0 006.646-6.646V32.491a6.646 6.646 0 00-6.646-6.646z" fill="url(#paint1_linear)"/><path d="M53.004 25.768h-24.59a6.577 6.577 0 00-6.577 6.576v60.402a6.577 6.577 0 006.577 6.576h24.59a6.577 6.577 0 006.577-6.576V32.344a6.577 6.577 0 00-6.577-6.576z" fill="#00458B"/><path d="M51.871 27.467H29.746a5.91 5.91 0 00-5.911 5.91v54.214a5.91 5.91 0 005.91 5.911h22.126a5.91 5.91 0 005.911-5.91V33.377a5.91 5.91 0 00-5.91-5.911z" fill="#fff"/><path opacity=".18" d="M41.754 56.943A14.8 14.8 0 1056.55 71.75a14.81 14.81 0 00-14.796-14.806zm0 27.085a12.046 12.046 0 1112.042-12.046 12.06 12.06 0 01-12.042 12.046z" fill="#00458B"/><path d="M34.71 69.254a.608.608 0 01-.212-.04.566.566 0 01-.311-.73c0-.052 2.196-5.293 7.562-5.128a.562.562 0 01.545.58.555.555 0 01-.575.544c-4.61-.13-6.417 4.237-6.486 4.423a.554.554 0 01-.523.35zm14.467 2.144a.562.562 0 01-.562-.532 6.386 6.386 0 00-3.891-5.75.562.562 0 01.372-1.06 7.433 7.433 0 014.644 6.75.567.567 0 01-.532.592h-.03zm-1.137 4.424a.575.575 0 01-.346-.117.562.562 0 01-.095-.787c.418-.62.684-1.33.779-2.071a.563.563 0 111.115.125 5.924 5.924 0 01-1.02 2.634.562.562 0 01-.433.216z" fill="#E31E27"/><path d="M36.586 69.941a.562.562 0 01-.51-.791 6.513 6.513 0 014.9-3.78c1.672-.272 3.268.156 4.154 1.116a.565.565 0 01-.014.813.56.56 0 01-.812-.052c-.622-.674-1.859-.977-3.152-.765a5.375 5.375 0 00-4.051 3.126.566.566 0 01-.515.333zm6.698 9.69a.558.558 0 01-.393-.96c5.79-5.643 2.594-9.871 2.594-9.915a.562.562 0 01.865-.687c.039.047 3.818 5.067-2.686 11.406a.562.562 0 01-.38.156zm-8.609-5.215a.561.561 0 01-.515-.328c-.51-1.142-.186-3.248-.147-3.481a.57.57 0 01.645-.467.563.563 0 01.462.648c-.12.762-.216 2.21.065 2.837a.557.557 0 01-.51.791zm.981 2.634a.558.558 0 01-.337-1.008c.904-.679.657-3.187.285-4.61a.562.562 0 01.992-.479c.045.06.076.127.094.199.12.432 1.098 4.44-.696 5.785a.545.545 0 01-.338.113z" fill="#E31E27"/><path d="M37.062 78.351a.562.562 0 01-.298-1.038c.086-.056 1.988-1.297 1.193-4.48-.515-2.066 0-3.359.566-4.077a4.246 4.246 0 013.369-1.57.544.544 0 01.575.541.557.557 0 01-.54.58 3.17 3.17 0 00-2.509 1.128c-.566.748-.696 1.834-.371 3.126.998 4.004-1.583 5.621-1.691 5.708a.57.57 0 01-.294.082z" fill="#E31E27"/><path d="M42.89 75.54a.558.558 0 01-.432-.899c.835-1.09 1.5-2.728 1.172-3.589a.926.926 0 00-.795-.58c-.619-.116-1.06-.047-1.324.213-.462.432-.397 1.457-.337 1.807a.56.56 0 01-1.032.422.563.563 0 01-.07-.219c-.035-.185-.312-1.854.648-2.806.54-.536 1.323-.709 2.326-.519a2.04 2.04 0 011.635 1.297c.51 1.345-.333 3.365-1.332 4.666a.55.55 0 01-.458.208zm-4.012 3.62a.562.562 0 01-.39-.965c1.557-1.513 1.514-3.774 1.514-3.796a.562.562 0 111.124-.034c0 .112.065 2.771-1.855 4.635a.557.557 0 01-.393.16zm2.08.605a.532.532 0 01-.238-.056.559.559 0 01-.268-.744l1.133-2.4a.562.562 0 011.016.48l-1.133 2.4a.562.562 0 01-.51.32z" fill="#E31E27"/><path d="M118.586 8.035H1.056A7.943 7.943 0 018.953 1H110.69a7.942 7.942 0 017.896 7.035z" fill="#00458B"/><path d="M88.962 48.693l-8.925-9.88a1.902 1.902 0 01-.147-2.439 1.843 1.843 0 012.806-.095l7.17 7.939a1.245 1.245 0 001.816.026l17.196-17.767a1.846 1.846 0 012.204-.338c.234.128.438.305.598.52a1.907 1.907 0 01-.225 2.438L92.43 48.749a2.382 2.382 0 01-3.468-.056z" fill="url(#paint2_linear)"/><path d="M88.962 47.668l-8.925-9.88a1.903 1.903 0 01-.147-2.438 1.838 1.838 0 012.806-.091l7.17 7.917a1.244 1.244 0 001.816.03l17.196-17.758a1.846 1.846 0 012.204-.338c.234.128.438.305.598.52a1.907 1.907 0 01-.225 2.438L92.43 47.72a2.38 2.38 0 01-3.468-.052z" fill="#E31E27"/><path opacity=".18" d="M34.848 44.581a2.071 2.071 0 100-4.142 2.071 2.071 0 000 4.142zm5.461 0a2.071 2.071 0 100-4.142 2.071 2.071 0 000 4.142zm5.457 0a2.071 2.071 0 100-4.142 2.071 2.071 0 000 4.142z" fill="#68E1FD"/><path opacity=".18" d="M67.81 13.384H10.5a2.992 2.992 0 100 5.984h57.31a2.992 2.992 0 100-5.984z" fill="#00458B"/><path d="M59.464 84.863s.865.553 1.102-.393c.238-.947 1.337-11.1 1.337-11.1l-2.44-4.96v16.453z" fill="url(#paint3_linear)"/><path d="M45.334 95.57h-9.366a.985.985 0 100 1.967h9.366a.985.985 0 100-1.968z" fill="url(#paint4_linear)"/><defs><linearGradient id="paint0_linear" x1="79.761" y1="52.995" x2="10.53" y2="60.826" gradientUnits="userSpaceOnUse"><stop stop-opacity="0"/><stop offset=".99"/></linearGradient><linearGradient id="paint1_linear" x1="1865.24" y1="13394.3" x2="5159.52" y2="13394.3" gradientUnits="userSpaceOnUse"><stop stop-opacity="0"/><stop offset=".99"/></linearGradient><linearGradient id="paint2_linear" x1="9560.91" y1="1347.57" x2="9743.45" y2="6316.84" gradientUnits="userSpaceOnUse"><stop stop-opacity="0"/><stop offset=".99"/></linearGradient><linearGradient id="paint3_linear" x1="572.909" y1="2772.57" x2="1370.78" y2="5083.45" gradientUnits="userSpaceOnUse"><stop stop-opacity="0"/><stop offset=".99"/></linearGradient><linearGradient id="paint4_linear" x1="1081.88" y1="565.048" x2="1081.88" y2="660.565" gradientUnits="userSpaceOnUse"><stop stop-opacity="0"/><stop offset=".99"/></linearGradient></defs></svg>