<svg xmlns="http://www.w3.org/2000/svg" version="1.0" width="64" height="64" viewBox="0 0 128 128"><rect width="100%" height="100%" fill="#f1f8ff"/><g><linearGradient id="a"><stop offset="0%" stop-color="#00458b"/><stop offset="100%" stop-color="#7197be" fill-opacity=".56"/></linearGradient><linearGradient id="b"><stop offset="0%" stop-color="#00458b"/><stop offset="100%" stop-color="#cfdce9" fill-opacity=".19"/></linearGradient><path d="M64 .98A63.02 63.02 0 11.98 64 63.02 63.02 0 0164 .98zm0 15.76A47.26 47.26 0 1116.74 64 47.26 47.26 0 0164 16.74z" fill-rule="evenodd" fill="url(#a)"/><path d="M64.12 125.54A61.54 61.54 0 11125.66 64a61.54 61.54 0 01-61.54 61.54zm0-121.1A59.57 59.57 0 10123.7 64 59.57 59.57 0 0064.1 4.43zM64 115.56a51.7 51.7 0 1151.7-51.7 51.7 51.7 0 01-51.7 51.7zM64 14.4a49.48 49.48 0 1049.48 49.48A49.48 49.48 0 0064 14.4z" fill-rule="evenodd" fill="url(#b)"/><animateTransform attributeName="transform" type="rotate" from="0 64 64" to="360 64 64" dur="1800ms" repeatCount="indefinite"/></g></svg>