<svg width="610" height="527" viewBox="0 0 610 527" fill="none" xmlns="http://www.w3.org/2000/svg">
<path opacity="0.18" d="M315.921 407.486C223.983 407.486 149.453 428.728 149.453 454.93V455.057C149.511 461.421 144.434 466.636 138.069 466.536C135.164 466.49 132.233 466.466 129.276 466.465C57.8783 466.465 0 480.011 0 496.717C0 513.423 57.8783 526.968 129.276 526.968C190.825 526.968 242.318 516.903 255.355 503.424C256.517 502.22 257.935 501.293 259.503 500.711C261.072 500.129 262.751 499.906 264.417 500.06C280.635 501.562 297.944 502.375 315.921 502.375C407.857 502.375 482.386 481.133 482.386 454.93C482.386 428.728 407.857 407.486 315.921 407.486Z" fill="white" fill-opacity="0.95"/>
<path d="M397.374 401.424V421.158L383.304 421.729L381.36 400.186L397.374 401.424Z" fill="#FAC2AE"/>
<path d="M406.431 400.186L404.81 417.821L416.613 416.772L417.488 397.153L406.431 400.186Z" fill="#FAC2AE"/>
<path opacity="0.18" d="M112.595 395.32H555.394C555.394 395.32 620.425 193.105 549.837 150.726C486.736 112.848 509.841 0.616146 421.064 13.5863C332.288 26.5564 326.856 64.5213 237.564 56.5913C104.818 44.8137 23.2348 149.122 100.741 293.225C120.322 329.636 121.863 366.554 112.595 395.32Z" fill="white" fill-opacity="0.95"/>
<path d="M610 394.53H43.3469V397.174H610V394.53Z" fill="#7BADC9"/>
<g style="mix-blend-mode:multiply">
<g style="mix-blend-mode:multiply">
<path d="M556.996 17.4948V279.894H205.236V19.4392C205.237 15.8922 206.647 12.491 209.156 9.98351C211.665 7.47601 215.066 6.06759 218.613 6.06799H545.557C548.588 6.06759 551.496 7.27097 553.641 9.41365C555.786 11.5563 556.993 14.463 556.996 17.4948Z" fill="#22396B"/>
</g>
</g>
<path d="M552.671 11.4366V273.836H200.911V13.3871C200.911 11.6306 201.257 9.89123 201.929 8.26841C202.602 6.64559 203.587 5.17106 204.829 3.929C206.071 2.68695 207.545 1.7017 209.168 1.0295C210.791 0.357304 212.53 0.0113224 214.287 0.0113224H541.23C544.262 0.0105122 547.17 1.2135 549.315 3.3559C551.461 5.49829 552.667 8.4048 552.671 11.4366Z" fill="#D8E4EF"/>
<path d="M235.704 0.00706482H212.341C209.308 0.00706482 206.398 1.21208 204.254 3.35703C202.109 5.50198 200.904 8.41115 200.904 11.4446V273.836H235.704V0.00706482Z" fill="white"/>
<path d="M552.671 13.4199V35.4516H200.911V13.4199C200.911 10.3865 202.116 7.47733 204.261 5.33239C206.406 3.18744 209.315 1.98242 212.349 1.98242H541.23C542.732 1.98202 544.22 2.27756 545.608 2.85217C546.996 3.42678 548.257 4.2692 549.32 5.33131C550.382 6.39342 551.225 7.65442 551.8 9.04228C552.375 10.4301 552.671 11.9177 552.671 13.4199Z" fill="#C7D5E0"/>
<path d="M552.671 11.4375V33.4692H200.911V11.4375C200.911 8.40409 202.116 5.49491 204.261 3.34996C206.406 1.20502 209.315 4.06714e-07 212.349 4.06714e-07H541.23C542.732 -0.000400193 544.22 0.295137 545.608 0.869745C546.996 1.44435 548.257 2.28677 549.32 3.34888C550.382 4.41099 551.225 5.67199 551.8 7.05985C552.375 8.44771 552.671 9.93525 552.671 11.4375Z" fill="white"/>
<path d="M522.276 25.3852C527.051 25.3852 530.923 21.5139 530.923 16.7384C530.923 11.9629 527.051 8.09167 522.276 8.09167C517.5 8.09167 513.629 11.9629 513.629 16.7384C513.629 21.5139 517.5 25.3852 522.276 25.3852Z" fill="#D8E4EF"/>
<path d="M497.944 18.5867V14.9861C497.942 13.7127 497.435 12.4921 496.534 11.5921C495.634 10.6921 494.412 10.1862 493.139 10.1854H493.13C491.856 10.1866 490.635 10.6931 489.735 11.5938C488.834 12.4944 488.327 13.7155 488.326 14.9892V18.5897L486.649 21.0175H490.853C490.853 21.6222 491.093 22.2021 491.521 22.6296C491.948 23.0572 492.528 23.2974 493.133 23.2974C493.738 23.2974 494.318 23.0572 494.745 22.6296C495.173 22.2021 495.413 21.6222 495.413 21.0175H499.619L497.944 18.5867Z" fill="#D8E4EF"/>
<path d="M474.868 15.3706H473.766C473.659 14.9918 473.509 14.6268 473.317 14.2833L474.095 13.5055C474.194 13.4066 474.249 13.2725 474.249 13.1326C474.249 12.9928 474.194 12.8587 474.095 12.7598L472.902 11.5581C472.803 11.4593 472.669 11.4038 472.53 11.4038C472.39 11.4038 472.256 11.4593 472.157 11.5581L471.379 12.3358C471.036 12.1411 470.671 11.9875 470.292 11.8783V10.7803C470.292 10.6404 470.236 10.5062 470.137 10.4072C470.038 10.3083 469.904 10.2527 469.764 10.2527H468.068C467.928 10.2527 467.794 10.3083 467.695 10.4072C467.596 10.5062 467.541 10.6404 467.541 10.7803V11.8814C467.161 11.9905 466.796 12.1441 466.453 12.3389L465.675 11.5611C465.577 11.4623 465.442 11.4068 465.303 11.4068C465.163 11.4068 465.029 11.4623 464.93 11.5611L463.731 12.7598C463.632 12.8587 463.577 12.9928 463.577 13.1326C463.577 13.2725 463.632 13.4066 463.731 13.5055L464.509 14.2833C464.316 14.6267 464.165 14.9917 464.057 15.3706H462.955C462.886 15.3706 462.817 15.3842 462.753 15.4108C462.689 15.4373 462.631 15.4762 462.582 15.5252C462.533 15.5742 462.495 15.6324 462.468 15.6964C462.442 15.7604 462.429 15.829 462.429 15.8982V17.594C462.429 17.6632 462.442 17.7317 462.468 17.7956C462.495 17.8595 462.533 17.9176 462.582 17.9665C462.631 18.0154 462.689 18.0542 462.753 18.0805C462.817 18.1069 462.886 18.1204 462.955 18.1202H464.057C464.164 18.4994 464.314 18.8649 464.506 19.209L463.728 19.9868C463.679 20.0356 463.64 20.0936 463.614 20.1575C463.587 20.2213 463.574 20.2898 463.574 20.3589C463.574 20.428 463.587 20.4964 463.614 20.5602C463.64 20.6241 463.679 20.6821 463.728 20.731L464.927 21.9311C465.026 22.0299 465.16 22.0854 465.3 22.0854C465.439 22.0854 465.573 22.0299 465.672 21.9311L466.45 21.1534C466.794 21.345 467.159 21.4955 467.537 21.6017V22.6906C467.537 22.8305 467.593 22.9647 467.692 23.0637C467.791 23.1626 467.925 23.2182 468.065 23.2182H469.761C469.901 23.2182 470.035 23.1626 470.134 23.0637C470.233 22.9647 470.289 22.8305 470.289 22.6906V21.5895C470.667 21.4833 471.032 21.3328 471.376 21.1412L472.154 21.9189C472.253 22.0177 472.387 22.0732 472.526 22.0732C472.666 22.0732 472.8 22.0177 472.899 21.9189L474.098 20.7188C474.147 20.6699 474.186 20.6119 474.212 20.548C474.239 20.4842 474.252 20.4158 474.252 20.3467C474.252 20.2775 474.239 20.2091 474.212 20.1453C474.186 20.0814 474.147 20.0234 474.098 19.9746L473.32 19.1968C473.512 18.8527 473.662 18.4872 473.769 18.108H474.871C474.94 18.1082 475.009 18.0947 475.073 18.0683C475.137 18.0419 475.195 18.0032 475.244 17.9543C475.293 17.9054 475.331 17.8473 475.358 17.7834C475.384 17.7195 475.398 17.651 475.397 17.5818V15.8906C475.396 15.7516 475.339 15.6189 475.24 15.5214C475.141 15.424 475.007 15.3698 474.868 15.3706ZM468.91 19.4042C468.384 19.4042 467.871 19.2484 467.434 18.9565C466.996 18.6645 466.656 18.2496 466.455 17.764C466.253 17.2785 466.2 16.7442 466.303 16.2287C466.405 15.7132 466.658 15.2395 467.029 14.8677C467.401 14.4958 467.874 14.2424 468.39 14.1395C468.905 14.0366 469.439 14.0888 469.925 14.2895C470.411 14.4902 470.826 14.8304 471.119 15.2672C471.411 15.7039 471.567 16.2175 471.568 16.7431C471.567 17.4473 471.286 18.1222 470.788 18.6197C470.29 19.1172 469.614 19.3966 468.91 19.3966V19.4042Z" fill="#D8E4EF"/>
<path d="M217.218 19.3477L213.947 16.0765L212.008 18.0148L217.218 23.2227L222.426 18.0148L220.487 16.0765L217.218 19.3477Z" fill="#D8E4EF"/>
<path d="M222.426 12.1908L220.487 10.254L217.218 13.5236L213.947 10.254L212.008 12.1908L217.218 17.3986L222.426 12.1908Z" fill="#D8E4EF"/>
<path d="M540.564 45.3584H521.957V63.9649H540.564V45.3584Z" fill="white"/>
<path d="M528.045 54.6605C528.045 54.9589 527.957 55.2507 527.791 55.499C527.626 55.7473 527.39 55.9408 527.115 56.0552C526.839 56.1695 526.536 56.1995 526.243 56.1414C525.95 56.0832 525.681 55.9395 525.47 55.7285C525.259 55.5175 525.116 55.2486 525.057 54.9559C524.999 54.6632 525.029 54.3598 525.144 54.0841C525.258 53.8085 525.452 53.573 525.7 53.4074C525.948 53.2417 526.24 53.1535 526.538 53.1538C526.938 53.1538 527.321 53.3126 527.604 53.5951C527.886 53.8777 528.045 54.2609 528.045 54.6605Z" fill="#D8D8D8"/>
<path d="M532.769 54.6605C532.77 54.9589 532.681 55.2506 532.516 55.4988C532.35 55.7471 532.115 55.9406 531.839 56.055C531.564 56.1694 531.261 56.1995 530.968 56.1415C530.675 56.0834 530.406 55.9399 530.195 55.7291C529.984 55.5182 529.84 55.2494 529.782 54.9568C529.724 54.6642 529.754 54.3609 529.868 54.0852C529.982 53.8095 530.175 53.5739 530.423 53.4081C530.671 53.2423 530.963 53.1538 531.261 53.1538C531.661 53.1538 532.044 53.3125 532.327 53.595C532.61 53.8775 532.769 54.2608 532.769 54.6605Z" fill="#D8D8D8"/>
<path d="M537.492 54.6605C537.493 54.9589 537.404 55.2506 537.239 55.4988C537.073 55.7471 536.838 55.9406 536.562 56.055C536.287 56.1694 535.983 56.1995 535.691 56.1415C535.398 56.0834 535.129 55.9399 534.918 55.7291C534.707 55.5182 534.563 55.2494 534.505 54.9568C534.447 54.6642 534.476 54.3609 534.591 54.0852C534.705 53.8095 534.898 53.5739 535.146 53.4081C535.394 53.2423 535.686 53.1538 535.984 53.1538C536.384 53.1538 536.767 53.3125 537.05 53.595C537.333 53.8775 537.492 54.2608 537.492 54.6605Z" fill="#D8D8D8"/>
<path d="M265.599 45.3584H246.992V63.9649H265.599V45.3584Z" fill="white"/>
<path d="M261.992 53.1541H255.98L257.743 51.3911L255.805 49.4529L252.104 53.1541H252.087V53.1708L250.597 54.6608L252.087 56.1507V56.169H252.104L255.805 59.8686L257.743 57.9319L255.98 56.169H261.992V53.1541Z" fill="#D8D8D8"/>
<path d="M335.094 49.4529H275.357V57.8389H335.094V49.4529Z" fill="#91A2C6"/>
<path d="M335.511 58.2552H274.942V49.0366H335.511V58.2552ZM275.773 57.4241H334.679V49.8693H275.773V57.4241Z" fill="#91A2C6"/>
<path d="M347.243 73.6741H246.992V170.082H347.243V73.6741Z" fill="white"/>
<path d="M391.34 181.333H246.992V261.631H391.34V181.333Z" fill="white"/>
<path d="M540.565 181.333H403.01V261.631H540.565V181.333Z" fill="white"/>
<path d="M503.369 193.427C487.875 193.427 475.309 205.989 475.309 221.487C475.309 236.984 487.873 249.547 503.369 249.547C510.811 249.547 517.948 246.59 523.21 241.328C528.473 236.066 531.429 228.929 531.429 221.487C531.426 205.996 518.863 193.427 503.369 193.427ZM518.594 238.783C514.641 242.267 509.614 244.291 504.349 244.518C499.085 244.745 493.901 243.161 489.663 240.03C485.425 236.899 482.387 232.41 481.057 227.312C479.727 222.213 480.184 216.812 482.353 212.01C484.521 207.207 488.27 203.293 492.974 200.919C497.679 198.545 503.055 197.855 508.206 198.964C513.357 200.073 517.973 202.913 521.284 207.013C524.595 211.112 526.402 216.222 526.402 221.491C526.408 224.763 525.714 227.999 524.368 230.981C523.021 233.963 521.053 236.623 518.594 238.783Z" fill="#D8D8D8"/>
<path d="M531.426 221.483C531.431 225.415 530.607 229.304 529.009 232.896C527.41 236.488 525.072 239.702 522.148 242.33L518.595 238.775C522.106 235.681 524.592 231.59 525.721 227.048C526.851 222.505 526.57 217.727 524.917 213.348C523.264 208.969 520.317 205.197 516.468 202.534C512.619 199.871 508.05 198.443 503.369 198.441V193.427C518.863 193.427 531.426 205.996 531.426 221.483Z" fill="#405284"/>
<path d="M454.863 197.559C450.455 194.85 445.381 193.419 440.206 193.427C424.712 193.427 412.146 205.99 412.146 221.487C412.146 228.929 415.103 236.066 420.365 241.328C425.627 246.59 432.765 249.547 440.206 249.547C455.7 249.547 468.266 236.984 468.266 221.487C468.269 216.684 467.038 211.962 464.691 207.772C462.344 203.582 458.96 200.065 454.863 197.559ZM440.206 244.529C435.648 244.53 431.192 243.179 427.402 240.647C423.611 238.115 420.657 234.515 418.912 230.304C417.168 226.093 416.711 221.459 417.6 216.988C418.489 212.517 420.684 208.411 423.908 205.188C427.131 201.964 431.237 199.77 435.708 198.88C440.179 197.991 444.813 198.448 449.024 200.193C453.235 201.937 456.834 204.892 459.367 208.682C461.899 212.472 463.25 216.928 463.249 221.487C463.249 224.512 462.653 227.509 461.495 230.304C460.337 233.1 458.64 235.64 456.5 237.779C454.36 239.919 451.82 241.616 449.024 242.773C446.229 243.931 443.232 244.527 440.206 244.526V244.529Z" fill="#D8D8D8"/>
<path d="M468.265 221.484C468.265 236.978 455.701 249.544 440.205 249.544C435.403 249.547 430.681 248.316 426.491 245.97C422.302 243.623 418.786 240.239 416.281 236.142L419.941 232.482C421.651 235.634 424.074 238.343 427.016 240.394C429.958 242.445 433.337 243.781 436.887 244.296C440.436 244.811 444.056 244.491 447.459 243.361C450.863 242.23 453.955 240.321 456.491 237.786C459.027 235.25 460.936 232.157 462.067 228.754C463.197 225.35 463.518 221.73 463.003 218.181C462.488 214.632 461.152 211.252 459.101 208.31C457.051 205.368 454.341 202.945 451.19 201.235L454.85 197.575C458.946 200.078 462.33 203.591 464.679 207.777C467.028 211.964 468.263 216.683 468.265 221.484Z" fill="#14234C"/>
<path d="M268.055 242.046H259.835V191.276H268.055V242.046ZM283.831 208.112H275.613V242.046H283.831V208.112ZM299.609 223.46H291.389V242.046H299.609V223.46ZM315.385 199.034H307.167V242.046H315.385V199.034ZM331.163 213.3H322.943V242.046H331.163V213.3ZM346.937 203.789H338.719V242.046H346.937V203.789ZM362.715 191.276H354.495V242.046H362.715V191.276ZM378.491 197.088H370.27V242.046H378.488L378.491 197.088Z" fill="#91A2C6"/>
<path d="M540.565 73.6741H358.415V170.082H540.565V73.6741Z" fill="white"/>
<path d="M512.852 92.8586L512.887 93.6555C513.371 93.0461 514.004 92.7415 514.785 92.7415C516.125 92.7415 516.801 93.4973 516.813 95.009V99.1985H515.729V95.0032C515.725 94.5461 515.619 94.2083 515.412 93.9895C515.209 93.7708 514.891 93.6614 514.457 93.6614C514.106 93.6614 513.797 93.7551 513.531 93.9426C513.266 94.1301 513.059 94.3762 512.91 94.6809V99.1985H511.826V92.8586H512.852ZM512.36 113.198V107.697H511.358V106.859H512.36V106.208C512.36 105.529 512.541 105.003 512.905 104.632C513.268 104.261 513.781 104.075 514.446 104.075C514.696 104.075 514.944 104.109 515.19 104.175L515.131 105.054C514.948 105.019 514.752 105.001 514.545 105.001C514.194 105.001 513.922 105.105 513.731 105.312C513.539 105.515 513.444 105.808 513.444 106.191V106.859H514.797V107.697H513.444V113.198H512.36ZM511.539 123.97C511.539 123.349 511.66 122.79 511.903 122.294C512.149 121.798 512.489 121.415 512.922 121.146C513.36 120.876 513.858 120.741 514.416 120.741C515.28 120.741 515.977 121.04 516.508 121.638C517.043 122.236 517.311 123.031 517.311 124.023V124.099C517.311 124.716 517.192 125.271 516.953 125.763C516.719 126.251 516.381 126.632 515.94 126.906C515.502 127.179 514.998 127.316 514.428 127.316C513.569 127.316 512.871 127.017 512.336 126.419C511.805 125.822 511.539 125.031 511.539 124.046V123.97ZM512.629 124.099C512.629 124.802 512.791 125.366 513.115 125.792C513.444 126.218 513.881 126.431 514.428 126.431C514.979 126.431 515.416 126.216 515.74 125.786C516.065 125.353 516.227 124.747 516.227 123.97C516.227 123.275 516.061 122.712 515.729 122.282C515.401 121.849 514.963 121.632 514.416 121.632C513.881 121.632 513.449 121.845 513.121 122.271C512.793 122.697 512.629 123.306 512.629 124.099Z" fill="white"/>
<path d="M531.426 84.1177H494.416V95.938H531.426V84.1177Z" fill="#91A2C6"/>
<path d="M532.312 108H366.669V108.865H532.312V108Z" fill="#405284"/>
<path d="M532.31 115.5H452.902V118.884H532.31V115.5Z" fill="#BCD2E2"/>
<path d="M532.31 125.875H452.902V129.259H532.31V125.875Z" fill="#BCD2E2"/>
<path d="M532.31 136.251H452.902V139.635H532.31V136.251Z" fill="#9B9B9B"/>
<path d="M464.968 136.251H452.902V139.635H464.968V136.251Z" fill="#BCD2E2"/>
<path d="M532.31 146.627H452.902V150.011H532.31V146.627Z" fill="#9B9B9B"/>
<path d="M499.968 146.627H452.902V150.011H499.968V146.627Z" fill="#BCD2E2"/>
<path d="M532.31 157.002H452.902V160.386H532.31V157.002Z" fill="#9B9B9B"/>
<path d="M516.63 157.002H452.902V160.386H516.63V157.002Z" fill="#BCD2E2"/>
<path d="M338.622 96.1421H255.611V97.0068H338.622V96.1421Z" fill="#D8D8D8"/>
<path d="M338.622 159.954H255.611V160.819H338.622V159.954Z" fill="#D8D8D8"/>
<path d="M338.622 92.563H255.611V93.4277H338.622V92.563Z" fill="#D8D8D8"/>
<path d="M338.622 88.9836H255.611V89.8483H338.622V88.9836Z" fill="#D8D8D8"/>
<path d="M338.622 85.4045H255.611V86.2692H338.622V85.4045Z" fill="#D8D8D8"/>
<path d="M338.622 81.8254H255.611V82.6901H338.622V81.8254Z" fill="#D8D8D8"/>
<path d="M318.65 138.97H318.572C317.788 138.963 317.028 138.704 316.403 138.23C315.778 137.756 315.322 137.094 315.103 136.341L309.95 119.336C309.883 119.102 309.744 118.895 309.552 118.744C309.361 118.594 309.126 118.509 308.883 118.5C308.641 118.483 308.4 118.542 308.194 118.668C307.987 118.795 307.825 118.982 307.73 119.205C307.446 119.867 306.972 120.431 306.369 120.826C305.765 121.22 305.059 121.428 304.338 121.422C303.616 121.427 302.909 121.218 302.306 120.822C301.702 120.426 301.229 119.86 300.947 119.196L298.401 113.34C298.115 112.681 297.505 112.664 297.319 112.629C297.088 112.626 296.862 112.692 296.669 112.818C296.477 112.944 296.326 113.125 296.236 113.337L292.507 121.84C292.229 122.476 291.777 123.021 291.204 123.413C290.63 123.805 289.958 124.027 289.264 124.055C288.57 124.083 287.883 123.916 287.28 123.571C286.677 123.227 286.182 122.72 285.854 122.108L284.458 119.516C284.36 119.328 284.211 119.17 284.029 119.061C283.847 118.951 283.638 118.894 283.426 118.895H283.418C283.207 118.893 282.999 118.948 282.817 119.056C282.635 119.163 282.486 119.319 282.386 119.505L276.576 129.941C276.24 130.544 275.743 131.041 275.14 131.376C274.537 131.711 273.852 131.872 273.163 131.839C272.474 131.806 271.808 131.581 271.239 131.19C270.671 130.799 270.223 130.257 269.946 129.625L262.529 112.666C262.441 112.465 262.299 112.292 262.119 112.167C261.939 112.042 261.727 111.97 261.508 111.959C261.289 111.947 261.071 111.997 260.879 112.103C260.687 112.208 260.528 112.365 260.42 112.556L257.804 117.151L255.611 115.903L258.227 111.308C258.566 110.711 259.065 110.22 259.668 109.89C260.271 109.559 260.954 109.404 261.64 109.44C262.326 109.476 262.989 109.702 263.554 110.093C264.119 110.484 264.564 111.025 264.839 111.655L272.255 128.603C272.343 128.805 272.486 128.978 272.667 129.103C272.849 129.228 273.061 129.3 273.281 129.311C273.501 129.321 273.719 129.27 273.912 129.163C274.104 129.056 274.263 128.898 274.37 128.706L280.181 118.27C280.504 117.689 280.977 117.207 281.551 116.872C282.125 116.537 282.779 116.363 283.443 116.368C284.108 116.372 284.759 116.556 285.328 116.898C285.897 117.241 286.364 117.731 286.679 118.316L288.072 120.908C288.178 121.103 288.336 121.265 288.528 121.375C288.721 121.484 288.94 121.538 289.161 121.53C289.383 121.523 289.598 121.452 289.781 121.327C289.964 121.201 290.108 121.027 290.195 120.823L293.924 112.319C294.208 111.657 294.681 111.093 295.285 110.699C295.888 110.304 296.595 110.097 297.316 110.102C298.037 110.098 298.744 110.307 299.347 110.703C299.951 111.1 300.423 111.666 300.706 112.33L303.252 118.185C303.342 118.397 303.493 118.577 303.685 118.704C303.878 118.83 304.103 118.897 304.334 118.895C304.564 118.898 304.79 118.832 304.982 118.706C305.175 118.58 305.326 118.4 305.416 118.188C305.72 117.494 306.23 116.911 306.876 116.516C307.522 116.121 308.273 115.933 309.029 115.978C309.785 116.023 310.509 116.298 311.103 116.767C311.697 117.236 312.134 117.876 312.354 118.601L317.507 135.606C317.579 135.845 317.725 136.054 317.924 136.204C318.123 136.355 318.364 136.439 318.613 136.444C318.862 136.449 319.107 136.375 319.311 136.233C319.516 136.091 319.671 135.887 319.753 135.652L323.579 124.663C323.837 123.919 324.326 123.277 324.973 122.83C325.621 122.382 326.395 122.153 327.182 122.175C327.969 122.198 328.728 122.47 329.35 122.953C329.971 123.437 330.423 124.105 330.638 124.863L331.155 126.673C331.224 126.914 331.369 127.127 331.567 127.281C331.765 127.435 332.008 127.522 332.259 127.529C332.51 127.536 332.756 127.462 332.963 127.32C333.169 127.177 333.325 126.972 333.408 126.735L336.229 118.572L338.614 119.395L335.793 127.559C335.535 128.303 335.047 128.946 334.4 129.394C333.752 129.842 332.979 130.072 332.191 130.051C331.404 130.03 330.644 129.758 330.022 129.275C329.399 128.792 328.947 128.124 328.731 127.367L328.214 125.556C328.145 125.315 328 125.102 327.802 124.948C327.604 124.794 327.362 124.707 327.111 124.7C326.86 124.693 326.613 124.766 326.406 124.908C326.2 125.051 326.044 125.255 325.961 125.492L322.135 136.482C321.891 137.211 321.423 137.845 320.797 138.292C320.171 138.739 319.419 138.976 318.65 138.97Z" fill="#405284"/>
<path d="M449.288 88.1313H366.278V88.996H449.288V88.1313Z" fill="#D8D8D8"/>
<path d="M449.288 92.3723H366.278V93.237H449.288V92.3723Z" fill="#D8D8D8"/>
<path d="M448.204 116.76H365.193V117.625H448.204V116.76Z" fill="#91A2C6"/>
<path d="M448.618 118.039H364.78V116.344H448.621L448.618 118.039ZM365.609 117.208H447.787V117.176H365.609V117.208Z" fill="#91A2C6"/>
<path d="M448.204 127.136H365.193V128.001H448.204V127.136Z" fill="#91A2C6"/>
<path d="M448.618 128.416H364.78V126.72H448.621L448.618 128.416ZM365.609 127.584H447.787V127.551H365.609V127.584Z" fill="#91A2C6"/>
<path d="M448.204 137.511H365.193V138.375H448.204V137.511Z" fill="#91A2C6"/>
<path d="M448.618 138.792H364.78V137.096H448.621L448.618 138.792ZM365.609 137.96H447.787V137.927H365.609V137.96Z" fill="#91A2C6"/>
<path d="M448.204 147.887H365.193V148.751H448.204V147.887Z" fill="#91A2C6"/>
<path d="M448.618 149.166H364.78V147.47H448.621L448.618 149.166ZM365.609 148.335H447.787V148.302H365.609V148.335Z" fill="#91A2C6"/>
<path d="M448.204 158.263H365.193V159.128H448.204V158.263Z" fill="#91A2C6"/>
<path d="M448.618 159.542H364.78V157.847H448.621L448.618 159.542ZM365.609 158.711H447.787V158.678H365.609V158.711Z" fill="#91A2C6"/>
<path d="M295.888 359.688H263.558C262.486 359.692 261.441 359.348 260.58 358.709C259.719 358.069 259.088 357.168 258.782 356.141L229.349 258.495C228.168 254.512 225.726 251.02 222.392 248.543C219.057 246.065 215.008 244.736 210.854 244.755H179.797C178.361 244.753 176.945 245.088 175.662 245.733C174.379 246.377 173.264 247.313 172.407 248.466C171.551 249.618 170.976 250.955 170.729 252.37C170.483 253.784 170.57 255.237 170.986 256.612L201.355 357.352C201.918 359.249 203.081 360.913 204.67 362.093C206.258 363.274 208.187 363.907 210.166 363.899H242.475C243.798 363.9 245.066 364.426 246.001 365.361C246.936 366.296 247.462 367.564 247.463 368.887V430.126H251.68V368.887C251.676 366.447 250.705 364.109 248.979 362.384C247.254 360.66 244.915 359.69 242.475 359.688H210.159C209.086 359.693 208.041 359.35 207.18 358.71C206.318 358.071 205.688 357.169 205.382 356.141L175.014 255.396C174.789 254.651 174.743 253.864 174.877 253.097C175.011 252.331 175.323 251.606 175.787 250.981C176.251 250.356 176.854 249.849 177.549 249.499C178.244 249.149 179.012 248.966 179.79 248.965H210.859C214.107 248.951 217.273 249.99 219.88 251.928C222.487 253.865 224.396 256.596 225.319 259.711L254.751 357.352C255.314 359.249 256.477 360.913 258.066 362.093C259.655 363.274 261.583 363.907 263.563 363.899H295.893C297.215 363.9 298.483 364.426 299.419 365.361C300.354 366.296 300.88 367.564 300.881 368.887V416.75H305.098V368.887C305.094 366.446 304.123 364.107 302.396 362.382C300.669 360.657 298.329 359.688 295.888 359.688Z" fill="#0F1A42"/>
<path d="M305.093 413.765V419.906C305.09 422.346 304.12 424.686 302.394 426.411C300.668 428.137 298.328 429.107 295.888 429.109H200.705V424.899H295.888C297.211 424.897 298.479 424.37 299.415 423.434C300.35 422.498 300.875 421.229 300.876 419.906V413.765H305.093Z" fill="#0F1A42"/>
<path d="M249.629 422.504C250.187 422.504 250.722 422.726 251.117 423.121C251.511 423.515 251.733 424.051 251.733 424.609V428.646C251.731 431.086 250.761 433.426 249.035 435.152C247.31 436.877 244.97 437.848 242.53 437.85H149.45C148.891 437.85 148.356 437.629 147.961 437.234C147.566 436.839 147.344 436.303 147.344 435.744C147.344 435.186 147.566 434.65 147.961 434.255C148.356 433.86 148.891 433.638 149.45 433.638H240.421C242.302 433.638 244.107 432.891 245.437 431.561C246.767 430.23 247.515 428.426 247.515 426.544V424.61C247.515 424.334 247.569 424.06 247.675 423.805C247.781 423.549 247.936 423.317 248.132 423.122C248.327 422.926 248.56 422.771 248.815 422.666C249.071 422.56 249.344 422.506 249.621 422.506L249.629 422.504Z" fill="#0F1A42"/>
<path d="M236.97 313.227H195.676C194.048 313.228 192.464 312.704 191.158 311.733C189.852 310.761 188.894 309.394 188.428 307.835L174.55 261.85C174.336 261.131 174.292 260.372 174.422 259.633C174.553 258.894 174.853 258.196 175.3 257.593C175.747 256.991 176.329 256.501 176.998 256.162C177.668 255.823 178.407 255.645 179.157 255.642H220.485C222.111 255.645 223.694 256.17 224.999 257.141C226.304 258.112 227.262 259.477 227.731 261.034L241.581 307.021C241.798 307.74 241.844 308.5 241.715 309.241C241.585 309.981 241.285 310.68 240.836 311.284C240.388 311.887 239.805 312.377 239.134 312.714C238.462 313.052 237.721 313.227 236.97 313.227Z" fill="#33437C"/>
<path d="M231.352 313.227H195.676C194.048 313.228 192.464 312.704 191.158 311.733C189.852 310.761 188.894 309.394 188.428 307.835L174.55 261.85C174.336 261.131 174.292 260.372 174.422 259.633C174.553 258.894 174.853 258.196 175.3 257.593C175.747 256.991 176.329 256.501 176.998 256.162C177.668 255.823 178.407 255.645 179.157 255.642H214.833C216.463 255.645 218.048 256.171 219.357 257.141C220.666 258.112 221.63 259.476 222.107 261.034L235.957 307.021C236.174 307.74 236.219 308.499 236.09 309.239C235.961 309.978 235.661 310.678 235.213 311.281C234.766 311.884 234.184 312.374 233.513 312.712C232.843 313.05 232.103 313.226 231.352 313.227Z" fill="#1D2956"/>
<path d="M301.528 357.799H213.473V342.161C213.473 342.025 213.527 341.894 213.623 341.798C213.72 341.701 213.85 341.647 213.987 341.647H301.014C301.15 341.647 301.281 341.701 301.377 341.798C301.474 341.894 301.528 342.025 301.528 342.161V357.799Z" fill="#33437C"/>
<path d="M209.75 361.301H305.248C305.376 361.301 305.479 361.198 305.479 361.071V352.101C305.479 351.974 305.376 351.871 305.248 351.871H209.75C209.623 351.871 209.52 351.974 209.52 352.101V361.071C209.52 361.198 209.623 361.301 209.75 361.301Z" fill="#1D2956"/>
<path d="M369.486 114.433C369.486 114.433 372.321 105.922 379.786 113.294C387.251 120.665 375.644 127.97 375.644 127.97L369.486 114.433Z" fill="#091644"/>
<path d="M366.566 282.453C366.566 282.453 361.716 273.794 364.487 267.098C367.258 260.401 362.524 250.01 362.524 250.01L379.382 233.5L415.056 233.731C415.056 233.731 436.649 308.107 436.649 315.727C436.649 323.347 417.045 403.591 417.045 403.591H400.044C400.044 403.591 407.75 315.393 412.368 303.155C412.368 303.155 400.047 277.488 395.199 268.598L394.045 307.16L366.566 282.453Z" fill="#1C2854"/>
<path d="M437.803 178.971C437.803 178.971 439.924 174.727 440.011 172.65C440.098 170.573 443.735 167.973 444.774 167.671C445.812 167.369 449.277 163.773 448.931 162.692C448.585 161.61 452.394 161.609 450.923 165.284C449.451 168.959 449.016 169.008 449.016 169.008C449.016 169.008 454.515 169.701 455.815 170.783C457.114 171.866 466.22 171.922 467.028 171.346C467.836 170.77 467.548 175.04 465.296 175.444C463.043 175.848 455.02 175.848 455.02 175.848C455.02 175.848 447.395 175.791 446.65 177.525C445.904 179.259 441.922 181.74 441.922 181.74L437.803 178.971Z" fill="#FAC2AE"/>
<path d="M449.017 169.013L446.506 169.748L450.615 166.042L449.017 169.013Z" fill="#F1A080"/>
<path d="M439.616 178.131C439.616 178.131 442.209 178.681 445.727 176.776C449.245 174.872 450.607 176.113 450.607 176.113C450.607 176.113 447.185 175.889 445.904 178.584C444.623 181.278 441.352 181.365 441.352 181.365L439.616 178.131Z" fill="#F1A080"/>
<path d="M395.718 259.765L395.188 268.944C395.188 268.944 406.149 293.585 412.368 303.155L403.626 366.094C420.206 349.287 421.757 316.184 424.061 304.292C426.366 292.4 395.718 259.765 395.718 259.765Z" fill="#0F1A42"/>
<path d="M366.566 282.453C366.566 282.453 378.208 388.312 378.545 403.591C378.545 403.591 385.744 410.047 400.047 403.591L394.048 307.159L366.566 282.453Z" fill="#1C2854"/>
<path d="M436.878 177.446L438.018 176.494L444.339 181.257L442.642 183.801L434.988 181.17L436.878 177.446Z" fill="white"/>
<path d="M243.179 196.053C243.179 196.053 249.653 197.273 252.648 207.463C252.648 207.463 254.753 213.209 258.312 213.128C258.312 213.128 260.093 214.746 256.047 216.608C256.047 216.608 258.041 221.381 258.702 223.567C259.364 225.752 260.174 230.688 242.452 234.492C242.452 234.492 240.105 243.878 244.151 251.404C248.197 258.93 228.128 257.554 228.047 256.827C227.966 256.099 233.793 243.712 229.909 235.463C226.025 227.214 214.938 219.521 214.938 219.521C214.938 219.521 234.682 188.688 243.179 196.053Z" fill="#FAC2AE"/>
<path d="M240.105 208.757C240.105 208.757 237.192 213.942 240.105 218.226C240.105 218.226 233.47 214.503 233.632 210.619C233.793 206.735 240.105 208.757 240.105 208.757Z" fill="#182651"/>
<path d="M233.772 214.128C233.772 214.128 228.129 221.219 237.596 223.971C237.596 223.971 229.828 230.284 227.885 224.295C225.942 218.307 231.647 212.214 233.772 214.128Z" fill="#F1A080"/>
<path d="M370.453 116.031C370.453 116.031 378.296 112.02 383.533 122.035C383.533 122.035 386.888 127.591 390.267 126.747C390.267 126.747 392.346 128.06 388.91 130.865C388.91 130.865 391.928 135.428 393.069 137.575C394.209 139.722 397.325 144.116 381.264 151.863C381.264 151.863 380.013 162.757 385.633 169.758C391.252 176.76 371.743 179.596 371.496 178.853C371.249 178.111 372.774 164.72 369.326 156.576C365.576 147.718 351.746 142.159 351.746 142.159C351.746 142.159 360.614 110.148 370.453 116.031Z" fill="#FAC2AE"/>
<path d="M361.901 139.072C361.901 139.072 356.754 138.208 359.048 144.797C361.341 151.387 352.185 135.275 352.185 135.275L361.901 139.072Z" fill="#F1A080"/>
<path d="M361.527 147.228C361.527 147.228 369.41 146.923 370.302 151.771C371.194 156.619 371.509 164.717 371.509 164.717L367.636 153.078L361.527 147.228Z" fill="#F1A080"/>
<path d="M369.45 117.088C369.45 117.088 365.193 119.128 367.569 125.074C370.496 132.394 357.331 139.307 357.331 139.307C357.331 139.307 362.813 112.58 369.084 117.205" fill="#F1A080"/>
<path d="M246.659 197.834C246.659 197.834 248.709 205.817 242.559 208.731C236.408 211.646 228.317 216.823 231.338 220.707C234.359 224.591 229.909 235.463 229.909 235.463C229.909 235.463 211.592 237.323 212.348 219.521C212.348 219.521 204.687 223.943 204.795 215.313C204.903 206.683 210.297 202.904 212.24 206.034C214.183 209.163 216.233 209.27 216.233 201.611C216.233 193.953 232.501 183.578 241.781 188.763C251.061 193.948 247.202 196.54 246.659 197.834Z" fill="#232F63"/>
<path d="M245.273 247.454C245.273 247.454 256.603 249.476 266.233 246.806C275.863 244.136 275.781 262.1 276.755 274.968C277.73 287.836 281.288 301.268 277.727 302.723C274.166 304.178 245.597 300.85 245.597 300.85C245.597 300.85 224.399 310.81 211.366 305.47C198.334 300.129 208.452 255.62 208.452 255.62C208.452 255.62 209.1 251.007 215.736 251.251C222.371 251.495 229.525 248.31 229.525 248.31C229.525 248.31 235.158 258.048 240.094 253.517C245.031 248.987 245.273 247.454 245.273 247.454Z" fill="#A3C4E8"/>
<path d="M230.756 247.251C230.756 247.251 235.392 254.289 237.597 251.521C239.074 249.7 240.652 247.963 242.324 246.318L242.948 250.426L236.848 256.564L230.504 248.518L230.756 247.251Z" fill="#F1A080"/>
<path d="M227.846 248.98C227.846 248.98 228.378 261.013 231.506 263.781C232.325 264.506 233.632 264.121 234.016 263.097C234.457 261.92 235.236 259.863 236.273 257.197C238.042 252.648 239.085 261.678 247.163 262.535C247.163 262.535 248.308 262.829 245.627 254.341L238.798 255.195C238.798 255.195 237.751 254.289 233.555 254.861C229.36 255.433 227.846 248.98 227.846 248.98Z" fill="#88ACD3"/>
<path d="M263.48 267.198C263.48 267.198 265.827 287.673 265.019 288.563C265.019 288.563 246.73 282.898 231.436 288.239C231.436 288.239 236.102 284.409 251.8 283.054C267.499 281.698 263.48 267.198 263.48 267.198Z" fill="#6E9BC4"/>
<path d="M219.054 274.163C219.054 274.163 217.354 290.996 218.325 292.291C219.297 293.586 221.805 293.585 221.805 293.585C221.805 293.585 219.701 285.245 219.054 274.163Z" fill="#6E9BC4"/>
<path d="M231.436 288.239C231.436 288.239 232.325 295.36 231.84 296.251C231.84 296.251 225.77 294.47 221.805 293.581C221.805 293.581 227.773 289.305 231.436 288.239Z" fill="#C5E1F9"/>
<path d="M245.597 300.851L231.84 296.245C232.005 294.807 232.005 293.354 231.84 291.916C231.84 291.916 255.006 302.045 279.267 298.915C279.272 298.921 286.625 309.59 245.597 300.851Z" fill="#88ACD3"/>
<path d="M370.145 167.691C370.145 167.691 366.912 170.231 357.907 171.386C348.901 172.54 341.742 225.764 341.742 225.764C341.742 225.764 340.241 231.19 346.129 237.772C352.017 244.354 364.485 267.098 364.485 267.098L367.718 251.857C367.718 251.857 368.643 244.584 371.182 244.006C373.721 243.428 411.823 241.581 415.054 233.731C415.054 233.731 414.94 229.689 414.362 222.647C413.784 215.605 413.67 212.256 413.67 212.256C413.67 212.256 416.671 225.244 426.716 208.1C436.761 190.956 442.997 184.036 442.997 184.036C442.997 184.036 434.915 179.012 436.877 177.454C436.877 177.454 436.243 174.626 434.626 178.09C433.01 181.553 420.102 195.78 420.102 195.78C420.102 195.78 415.041 179.168 413.988 173.984C412.776 168.009 410.438 164.633 404.117 164.72C397.796 164.807 385.5 165.238 385.5 165.238L378.862 172.772L373.637 172.685L370.145 167.691Z" fill="#232F63"/>
<path d="M407.785 183.392L413.673 212.256C413.673 212.256 416.291 220.593 421.331 215.271C421.33 215.271 415.692 212.892 407.785 183.392Z" fill="#0F1A42"/>
<path d="M415.181 234.074L416.41 237.473C416.41 237.473 403.858 248.169 378.228 247.129C378.228 247.129 370.549 246.085 367.72 251.857C367.72 251.857 365.873 243.025 374.302 240.311C382.731 237.596 415.181 234.074 415.181 234.074Z" fill="#0F1A42"/>
<path d="M253.888 347.243C253.888 347.243 266.364 397.011 277.733 410.253C289.102 423.494 280.621 422.954 287.124 425.179C293.627 427.404 282.813 389.558 282.813 389.558L270.448 340.783L253.888 347.243Z" fill="#FAC2AE"/>
<path d="M311.027 432.256C308.587 431.265 306.042 431.331 305.668 431.166C305.616 431.154 305.599 431.154 305.581 431.14C302.074 428.853 293.032 418.496 291.167 412.869C290.946 412.204 291.412 404.001 291.412 404.001C281.619 402.865 275.342 407.277 275.342 407.277C275.51 410.008 274.987 425.318 274.846 426.306C274.793 426.784 274.793 427.267 274.846 427.745C275.215 431.546 277.919 438.079 278.72 439.64L280.805 439.428C280.689 437.867 280.907 433.528 282.423 431.909C282.423 431.909 283.72 431.698 286.162 433.225C288.776 434.858 292.6 438.228 294.386 438.047L315.466 435.904C314.928 435.3 314.74 433.999 311.027 432.256Z" fill="#1C2854"/>
<path d="M289.163 333.498L320.793 406.364L332.45 422.312L315.172 425.362L310.807 406.362C310.807 406.362 274.759 364.487 279.623 337.656C284.486 310.825 289.163 333.498 289.163 333.498Z" fill="#FAC2AE"/>
<path d="M367.72 251.857L360.354 259.765L364.037 266.282L367.72 251.857Z" fill="white"/>
<path d="M417.443 410.55C417.443 410.55 410.968 413.403 405.395 409.45C405.395 409.45 401.125 407.62 399.6 430.291C399.6 430.291 436.749 432.638 447.502 431.601C447.502 431.601 453.135 422.634 440.45 420.101C427.766 417.568 417.443 410.55 417.443 410.55Z" fill="#232F63"/>
<path opacity="0.49" d="M448.487 425.765C448.487 425.765 400.872 422.94 400.797 419.137L400.188 427.126L448.6 428.866C448.6 428.866 448.808 426.631 448.487 425.765Z" fill="#111D49"/>
<path d="M447.5 431.601C447.5 431.601 448.873 429.242 448.737 427.581L400.007 425.364L399.641 430.882C399.641 430.882 444.69 432.475 447.5 431.601Z" fill="#231F20"/>
<path d="M399.684 414.018L400.367 430.908C400.367 430.908 388.215 435.636 369.629 438.91C360.388 440.54 358.412 438.919 357.539 437.021C356.652 435.087 356.766 432.246 360.769 428.613C360.769 428.613 378.5 421.348 381.55 416.009C381.55 416.009 390.708 419.537 395.188 414.962C398.229 411.855 399.684 414.018 399.684 414.018Z" fill="#232F63"/>
<path d="M357.539 437.021C357.539 437.021 374.026 438.851 400.18 427.126L400.367 430.908C400.367 430.908 361.425 445.067 357.539 437.021Z" fill="#231F20"/>
<path opacity="0.49" d="M357.262 433.936C357.262 433.936 374.028 435.73 400.18 424.002L400.367 427.782C400.367 427.782 354.43 448.658 357.262 433.936Z" fill="#111D49"/>
<path d="M250.014 360.827L262.62 481.534C262.62 481.534 264.813 484.625 268.831 482.262L284.177 356.326L250.014 360.827Z" fill="#485068"/>
<path d="M250.014 357.67L252.288 381.883C252.288 381.883 271.451 393.096 281.507 378.243L284.177 357.67H250.014Z" fill="#2F3A54"/>
<path d="M117.854 337.64L130.459 458.348C130.459 458.348 132.651 461.439 136.67 459.075L152.017 333.139L117.854 337.64Z" fill="#485068"/>
<path d="M315.988 294.273L328.593 414.981C328.593 414.981 330.786 418.072 334.805 415.709L350.151 289.773L315.988 294.273Z" fill="#485068"/>
<path d="M420.122 316.369L432.728 437.075C432.728 437.075 434.921 440.168 438.939 437.803L454.285 311.868L420.122 316.369Z" fill="#485068"/>
<path d="M419.985 311.869L422.256 336.078C422.256 336.078 441.42 347.291 451.475 332.438L454.146 311.865L419.985 311.869Z" fill="#2F3A54"/>
<path d="M103.679 325.754L269.564 355.627L464.678 304.931L340.447 287.836L103.679 325.754Z" fill="#00458B"/>
<path d="M103.679 325.753V332.768L269.928 364.228V355.627L103.679 325.753Z" fill="#1D63AA"/>
<path d="M269.928 355.627L464.678 304.931V311.89L269.928 364.228V355.627Z" fill="#002C58"/>
<path d="M173.99 311.641L224.881 312.849L194.232 340.259L145.68 330.905L173.99 311.641Z" fill="#91A2C6"/>
<path d="M224.997 283.729L227.669 285.218L216.649 317.886L213.497 316.628L224.997 283.729Z" fill="#5787AA"/>
<path d="M185.117 279.892L224.997 283.729L213.497 316.628L174.193 309.099L185.117 279.892Z" fill="#7EA4CE"/>
<path d="M146.877 325.193L192.91 334.262L213.497 316.628L174.193 309.099L146.877 325.193Z" fill="#6F9FBC"/>
<path d="M192.909 334.262L192.633 338.082L216.649 317.886L213.497 316.628L192.909 334.262Z" fill="#4E7A9B"/>
<path d="M146.877 325.193L192.909 334.262L192.633 338.082L146.633 328.56L146.877 325.193Z" fill="#285972"/>
<path d="M185.117 279.892L213.352 282.608L187.145 311.58L174.193 309.099L185.117 279.892Z" fill="#8DB0DC"/>
<path d="M174.193 309.099L174.997 306.952L214.203 314.608L213.497 316.628L174.193 309.099Z" fill="#6590B7"/>
<path d="M169.17 453.924C169.17 453.924 169.609 463.845 167.893 470.645C166.178 477.445 172.914 481.067 193.759 477.763C214.604 474.458 223.118 475.03 222.801 464.989C222.801 464.989 222.737 458.444 219.306 458.38C215.874 458.316 198.334 463.019 192.106 457.872C185.878 452.725 172.288 444.257 169.17 453.924Z" fill="#111D44"/>
<path d="M155.946 407.158L165.767 450.723C165.767 450.723 173.679 462.066 184.83 450.723C195.981 439.38 196.491 381.23 156.581 407.158" fill="#131E42"/>
<path d="M104.824 258.698C104.824 258.698 111.401 241.923 93.7661 248.975C76.131 256.026 104.824 258.698 104.824 258.698Z" fill="#182651"/>
<path d="M117.297 373.346L173.527 373.375C173.527 373.375 180.223 371.652 181.753 394.696C183.575 422.164 112.213 381.735 117.297 373.346Z" fill="#1D2956"/>
<path d="M95.9587 254.504C95.672 254.695 102.44 247.353 111.878 262.225C111.878 262.225 117.025 269.375 121.411 270.518C121.411 270.518 124.08 272.043 118.361 276.618C118.361 276.618 118.266 281.003 119.601 286.817C120.935 292.632 107.494 296.16 107.494 296.16C107.494 296.16 108.256 306.74 110.068 309.885C111.88 313.029 95.1017 314.556 95.1017 314.556C95.1017 314.556 99.1063 302.831 94.1486 296.062C89.1908 289.293 79.8502 283.194 82.9962 276.139C86.1423 269.085 95.9587 254.504 95.9587 254.504Z" fill="#FAC2AE"/>
<path d="M88.035 284.817C88.035 284.817 92 289.139 97.0325 286.151C97.0325 286.151 92.4026 294.349 86.4291 286.596C80.4557 278.843 88.035 284.817 88.035 284.817Z" fill="#F1A080"/>
<path d="M89.96 275.772C89.96 275.772 93.6078 273.887 95.5781 277.573L97.0299 267.404L89.96 275.772Z" fill="#182651"/>
<path d="M105.799 255.101C105.799 255.101 104.539 248.125 99.9624 249.745C95.3858 251.364 103.871 262.137 100.63 267.476C97.3897 272.815 82.8763 275.863 88.0353 284.824L94.7819 297.047C94.7819 297.047 87.5077 295.441 80.9975 293.471C63.7345 288.246 61.7367 261.374 79.9437 249.078C97.5727 237.163 110.381 244.188 105.799 255.101Z" fill="#232F63"/>
<path d="M107.493 296.161L102.196 297.592L108.554 304.706L107.493 296.161Z" fill="#F1A080"/>
<path d="M135.494 347.284C135.494 347.284 154.203 345.254 162.019 340.773C169.834 336.293 177.366 327.713 180.607 328.666C183.848 329.619 189.377 331.527 189.377 333.052C189.377 334.577 185.501 342.521 185.501 342.521C185.501 342.521 185.629 343.601 181.498 343.538C177.366 343.476 178.002 341.441 175.205 342.838C172.409 344.235 149.976 361.713 132.182 359.743L135.494 347.284Z" fill="#FAC2AE"/>
<path d="M139.716 350.832C139.716 350.832 145.788 357.249 155.35 354.524C155.35 354.524 147.562 358.656 137.965 359.898L139.716 350.832Z" fill="#F1A080"/>
<path d="M183.846 463.85C183.846 463.85 184.287 473.772 182.571 480.572C180.856 487.372 187.592 490.993 208.435 487.689C229.279 484.384 237.796 484.956 237.479 474.915C237.479 474.915 237.415 468.37 233.984 468.306C230.553 468.242 213.012 472.945 206.784 467.798C200.556 462.651 186.965 454.183 183.846 463.85Z" fill="#1D2956"/>
<path d="M183.845 464.879V469.888C183.845 469.888 190.994 474.729 202.893 464.879L198.013 460.367L183.845 464.879Z" fill="#111D44"/>
<path d="M163.134 350.451C163.134 350.451 172.918 339.598 178.129 340.36C183.34 341.123 186.546 340.322 186.546 340.322L185.361 342.822C185.361 342.822 182.146 344.661 177.707 342.575C177.707 342.575 176.452 341.66 173.701 343.773C170.949 345.887 163.134 350.451 163.134 350.451Z" fill="#F1A080"/>
<path d="M97.0295 411.016C97.0295 411.016 114.973 417.459 148.51 410.254C156.248 408.591 161.523 407.756 165.118 407.379C166.089 407.278 167.071 407.375 168.003 407.666C168.936 407.956 169.799 408.434 170.541 409.069C171.283 409.704 171.888 410.484 172.319 411.36C172.75 412.236 172.998 413.191 173.048 414.167C173.736 427.346 175.982 456.888 182.577 465.913C182.577 465.913 196.368 468.791 200.309 461.355C200.309 461.355 202.444 411.651 203.879 395.847C205.77 375.107 132.044 376.946 114.829 386.262C97.6151 395.579 97.0295 411.016 97.0295 411.016Z" fill="#232F63"/>
<path d="M83.3762 405.404C83.3762 405.404 90.9067 421.514 109.733 417.796C128.559 414.078 133.707 373.375 133.707 373.375L123.032 373.018L83.3762 405.404Z" fill="#1D2956"/>
<path d="M96.1149 310.444C96.1149 310.444 102.878 314.257 109.745 309.224C109.745 309.224 121.887 330.855 124.271 348.299L137.903 347.061C137.903 347.061 143.908 356.879 141.525 367.556L127.037 368.413C127.037 368.413 127.894 381.759 121.032 388.718C114.169 395.677 102.248 413.76 75.4343 411.012C75.4343 411.012 74.6124 391.673 72.7061 375.563C70.7999 359.453 83.2301 314.057 96.1149 310.444Z" fill="#6FA4BC"/>
<path d="M92.4316 341.249C92.4316 341.249 110.732 366.702 121.602 367.845L127.035 368.417L127.006 372.044C127.006 372.044 127.533 382.732 119.276 390.398C119.276 390.398 117.025 393.679 106.539 375.758C96.0535 357.838 92.4316 341.249 92.4316 341.249Z" fill="#4C8A9B"/>
<path d="M124.271 348.304C124.271 348.304 111.639 338.073 107.294 330.701C107.294 330.701 118.413 341.301 122.628 340.322L124.271 348.304Z" fill="#619AAF"/>
<path d="M145.665 427.615H115.927C114.941 427.617 113.98 427.301 113.188 426.713C112.396 426.125 111.815 425.296 111.532 424.351L84.4514 334.513C83.3653 330.849 81.1196 327.635 78.0517 325.356C74.9837 323.076 71.2591 321.853 67.437 321.871H38.8478C37.5268 321.87 36.224 322.178 35.0435 322.771C33.8631 323.364 32.8379 324.225 32.0499 325.286C31.262 326.346 30.7332 327.576 30.5059 328.877C30.2786 330.178 30.359 331.515 30.7409 332.779L58.6819 425.466C59.1996 427.212 60.2697 428.743 61.7314 429.829C63.1932 430.915 64.9678 431.498 66.7888 431.49H96.5263C97.7431 431.49 98.9098 431.974 99.7701 432.834C100.631 433.695 101.114 434.861 101.115 436.078V492.422H104.995V436.078C104.991 433.834 104.098 431.682 102.51 430.095C100.923 428.509 98.7709 427.617 96.5263 427.615H66.7949C65.8081 427.619 64.8463 427.304 64.0541 426.715C63.2619 426.127 62.6819 425.297 62.4014 424.351L34.4543 331.655C34.2475 330.97 34.2041 330.245 34.3273 329.54C34.4505 328.835 34.7371 328.168 35.164 327.593C35.5909 327.018 36.1464 326.551 36.7861 326.23C37.4257 325.908 38.1318 325.74 38.8478 325.74H67.4339C70.4223 325.726 73.3344 326.683 75.733 328.465C78.1317 330.247 79.8874 332.76 80.7365 335.625L107.817 425.466C108.335 427.212 109.405 428.742 110.867 429.829C112.329 430.915 114.103 431.497 115.924 431.49H145.662C146.879 431.49 148.045 431.974 148.906 432.834C149.766 433.695 150.25 434.861 150.251 436.078V493.418H154.13V436.078C154.127 433.834 153.234 431.683 151.647 430.096C150.06 428.51 147.909 427.617 145.665 427.615Z" fill="#0F1A42"/>
<path d="M154.133 493.415V499.065C154.131 501.31 153.238 503.463 151.65 505.05C150.063 506.638 147.91 507.531 145.665 507.533H58.0918V503.658H145.665C146.882 503.656 148.049 503.172 148.909 502.311C149.769 501.449 150.253 500.282 150.254 499.065V493.415H154.133Z" fill="#58595B"/>
<path d="M103.104 485.409C103.617 485.409 104.11 485.613 104.473 485.976C104.836 486.339 105.04 486.832 105.04 487.346V491.058C105.038 493.303 104.146 495.456 102.558 497.043C100.97 498.631 98.8175 499.524 96.5721 499.526H10.9373C10.6828 499.526 10.4308 499.476 10.1957 499.379C9.96052 499.282 9.74683 499.139 9.56682 498.959C9.38682 498.779 9.24402 498.566 9.14659 498.331C9.04916 498.096 8.99902 497.844 8.99902 497.589C8.99902 497.335 9.04916 497.083 9.14659 496.848C9.24402 496.613 9.38682 496.399 9.56682 496.219C9.74683 496.039 9.96052 495.897 10.1957 495.799C10.4308 495.702 10.6828 495.652 10.9373 495.652H94.6354C95.4925 495.652 96.3413 495.484 97.1332 495.156C97.9251 494.828 98.6446 494.347 99.2507 493.741C99.8568 493.135 100.338 492.415 100.666 491.623C100.994 490.831 101.162 489.983 101.162 489.125V487.346C101.162 487.091 101.212 486.839 101.309 486.604C101.407 486.369 101.549 486.156 101.729 485.976C101.909 485.796 102.123 485.653 102.358 485.556C102.593 485.459 102.845 485.409 103.099 485.409H103.104Z" fill="#0F1A42"/>
<path d="M91.456 384.878H53.4637C51.9662 384.878 50.5085 384.396 49.3073 383.502C48.1061 382.608 47.2255 381.35 46.7963 379.915L34.0291 337.603C33.8319 336.941 33.7916 336.243 33.9114 335.563C34.0311 334.883 34.3076 334.241 34.7189 333.687C35.1302 333.132 35.665 332.682 36.2809 332.37C36.8968 332.058 37.5768 331.895 38.267 331.892H76.2853C77.782 331.894 79.2382 332.378 80.4389 333.272C81.6397 334.165 82.5215 335.421 82.9541 336.854L95.6955 379.162C95.8955 379.824 95.938 380.524 95.8194 381.205C95.7008 381.886 95.4245 382.53 95.0125 383.086C94.6005 383.641 94.0643 384.092 93.4468 384.403C92.8293 384.715 92.1475 384.877 91.456 384.878Z" fill="#33437C"/>
<path d="M86.2877 384.878H53.4637C51.9662 384.878 50.5085 384.396 49.3073 383.502C48.1061 382.608 47.2255 381.35 46.7963 379.915L34.0291 337.603C33.8319 336.941 33.7916 336.243 33.9114 335.563C34.0311 334.883 34.3076 334.241 34.7189 333.687C35.1302 333.132 35.665 332.682 36.2809 332.37C36.8968 332.058 37.5768 331.895 38.267 331.892H71.0911C72.5907 331.895 74.0497 332.378 75.2543 333.271C76.4589 334.164 77.3456 335.42 77.7843 336.854L90.5257 379.162C90.7257 379.824 90.7682 380.523 90.6497 381.204C90.5312 381.886 90.255 382.53 89.8432 383.085C89.4314 383.64 88.8954 384.092 88.2781 384.403C87.6607 384.714 86.9791 384.877 86.2877 384.878Z" fill="#1D2956"/>
<path d="M150.845 425.877H69.8372V411.532C69.8372 411.395 69.8914 411.265 69.9878 411.168C70.0841 411.072 70.2149 411.018 70.3512 411.018H150.337C150.474 411.018 150.604 411.072 150.701 411.168C150.797 411.265 150.851 411.395 150.851 411.532V425.877H150.845Z" fill="#33437C"/>
<path d="M66.432 429.1H154.258C154.385 429.1 154.489 428.997 154.489 428.87V420.654C154.489 420.527 154.385 420.424 154.258 420.424H66.432C66.3048 420.424 66.2017 420.527 66.2017 420.654V428.87C66.2017 428.997 66.3048 429.1 66.432 429.1Z" fill="#1D2956"/>
<path d="M145.665 507.534H58.0919C57.5778 507.534 57.0848 507.329 56.7213 506.966C56.3578 506.602 56.1536 506.109 56.1536 505.595C56.1536 505.081 56.3578 504.588 56.7213 504.225C57.0848 503.861 57.5778 503.657 58.0919 503.657H145.665C146.882 503.656 148.049 503.172 148.91 502.311C149.77 501.451 150.254 500.284 150.255 499.067V436.084C150.254 434.867 149.769 433.701 148.909 432.841C148.048 431.98 146.882 431.497 145.665 431.495H115.928C114.107 431.503 112.332 430.92 110.871 429.834C109.41 428.748 108.34 427.217 107.822 425.472L80.7412 335.636C79.8918 332.77 78.1358 330.258 75.7369 328.475C73.338 326.693 70.4257 325.737 67.4371 325.75H38.8479C38.3339 325.75 37.8409 325.546 37.4774 325.183C37.1139 324.819 36.9097 324.326 36.9097 323.812C36.9097 323.298 37.1139 322.805 37.4774 322.442C37.8409 322.078 38.3339 321.874 38.8479 321.874H67.4341C71.2567 321.857 74.9818 323.08 78.05 325.36C81.1182 327.64 83.3639 330.854 84.45 334.519L111.531 424.354C111.812 425.3 112.392 426.13 113.184 426.718C113.976 427.307 114.938 427.623 115.924 427.619H145.662C147.907 427.621 150.058 428.514 151.646 430.101C153.233 431.688 154.126 433.84 154.129 436.084V499.067C154.126 501.311 153.234 503.463 151.647 505.05C150.061 506.637 147.909 507.53 145.665 507.534Z" fill="#0F1A42"/>
<path d="M170.824 409.33C170.824 409.33 179.854 408.578 181.786 407.653C183.718 406.727 182.315 407.653 182.315 407.653C182.315 407.653 176.541 423.011 175.343 439.781C175.343 439.778 172.215 422.619 170.824 409.33Z" fill="#1D2956"/>
<path d="M371.033 163.6C371.033 163.6 374.702 170.527 378.857 172.778C378.857 172.778 382.645 167.405 381.961 161.856L387.228 164.697C387.862 165.735 388.729 178.493 388.729 178.493L379.492 173.124C379.492 173.124 379.034 171.739 376.202 174.682C373.37 177.626 372.036 182.245 372.036 182.245C372.036 182.245 370.545 181.025 368.352 168.672L371.033 163.6Z" fill="white"/>
<path d="M229.886 246.903C229.886 246.903 234.518 253.702 236.537 254.786C236.537 254.786 242.143 248.215 242.818 246.903C243.494 245.592 246.243 246.903 246.243 246.903C246.243 246.903 244.787 257.973 246.243 261.13C247.7 264.287 237.261 254.925 237.261 254.925C237.261 254.925 235.158 252.956 233.134 262.91C233.134 262.91 230.707 266.067 227.797 248.668L229.886 246.903Z" fill="#C5E1F9"/>
<path d="M359.523 196.845C359.523 196.845 360.063 212.234 357.448 222.16C356.766 224.731 356.977 227.456 358.046 229.891L367.72 251.864C367.72 251.864 368.731 245.197 371.184 244.014C371.185 244.006 362.241 221.9 359.523 196.845Z" fill="#0F1A42"/>
<path d="M418.146 189.232C418.146 189.232 417.659 196.76 418.146 199.238L420.102 195.778L418.146 189.232Z" fill="#0F1A42"/>
<path d="M452.942 169.928L459.742 169.545C459.742 169.545 463.84 167.733 464.889 167.448C464.889 167.448 466.129 167.401 465.795 168.305C465.461 169.21 460.314 170.879 459.98 171.07C459.646 171.261 454.308 171.451 454.308 171.451L452.942 169.928Z" fill="#FAC2AE"/>
<path d="M369.45 117.088C369.45 117.088 366.54 104.606 359.331 111.891C352.123 119.176 364.504 126.609 364.504 126.609L364.56 123.296C364.589 121.628 365.201 119.995 366.39 118.819C367.147 118.07 368.074 117.517 369.091 117.205L369.45 117.088Z" fill="#080F28"/>
<path d="M362.672 132.477C362.672 132.477 362.608 139.136 365.193 142.156C365.193 142.156 361.301 136.33 357.33 139.309C353.359 142.287 362.672 132.477 362.672 132.477Z" fill="#080F28"/>
<path d="M369.449 117.088C369.449 117.088 367.909 111.173 366.155 112.754C363.171 115.443 363.953 118.758 364.91 122.848C365.043 123.472 365.262 124.075 365.559 124.64C367 127.217 366.567 130.947 361.279 135.489C355.99 140.03 356.385 145.886 364.001 147.911C371.616 149.937 369.326 156.572 369.326 156.572C369.326 156.572 365.022 152.499 360.762 153.556C356.501 154.612 341.013 150.984 339.075 138.592C338.303 133.657 340.07 132.881 340.009 130.626C339.8 122.848 347.345 106.813 363.482 107.716C363.482 107.716 370.541 107.943 370.497 116.422L369.449 117.088Z" fill="#232F63"/>
<path d="M357.917 140.387C357.917 140.387 353.541 146.525 362.645 150.473C362.645 150.473 366.872 152.806 366.685 154.693L369.324 156.573C369.324 156.573 371.676 149.648 363.999 147.913C364.001 147.913 357.641 146.906 357.917 140.387Z" fill="#0A1A49"/>
<path d="M339.922 131.902C339.922 131.902 338.521 140.146 339.195 142.729C339.19 142.732 335.713 136.102 339.922 131.902Z" fill="#232F63"/>
<path d="M87.8018 284.389C87.8018 284.389 88.116 293.623 81.5493 293.523C81.5493 293.523 93.7127 295.827 95.0715 297.579C95.0715 297.579 95.1538 291.574 92.5232 290.322C89.8926 289.07 87.8018 284.389 87.8018 284.389Z" fill="#182651"/>
<path d="M381.264 151.858C381.264 151.858 378.653 151.574 378.545 153.735C378.436 155.896 381.581 159.927 381.581 159.927C381.581 159.927 380.851 152.97 381.264 151.858Z" fill="#F1A080"/>
<path d="M351.249 416.14C348.627 416.415 346.413 417.665 346.006 417.697C345.978 417.709 345.948 417.716 345.917 417.717C341.74 417.345 328.897 412.457 324.604 408.369C324.096 407.886 320.653 400.427 320.653 400.427C311.474 404.029 308.009 410.873 308.009 410.873C309.442 413.206 316.18 426.963 316.518 427.901C316.696 428.348 316.923 428.774 317.197 429.17C319.309 432.351 324.769 436.847 326.211 437.85L327.95 436.684C327.114 435.358 325.267 431.428 325.842 429.286C325.842 429.286 326.888 428.49 329.763 428.69C332.836 428.902 337.797 430.077 339.287 429.078L356.885 417.275C356.123 416.991 355.345 415.931 351.249 416.14Z" fill="#1C2854"/>
<path d="M244.499 311.002L279.708 302L317.872 311.697L289.64 321.201L244.499 311.002Z" fill="#91A2C6"/>
<path d="M246.384 309.348L279.784 300.808L315.988 310.008L289.206 319.022L246.384 309.348Z" fill="white"/>
</svg>
