<svg width="99" height="142" viewBox="0 0 99 142" fill="none" xmlns="http://www.w3.org/2000/svg">
<path d="M61.125 17.8108L56.4922 16.4161L57.758 5.9668H58.1292C58.5895 5.61102 59.9334 4.07048 59.5733 2.92842C59.2503 1.88242 57.513 1.4626 56.1061 1.28827C54.109 1.04633 52.8023 1.26336 52.3234 1.91088C51.6812 2.78611 52.5276 4.42982 52.9099 4.9884L53.0102 5.13427L52.3123 15.2349L47.1709 13.8758L47.4604 12.8761L51.1838 13.8758L51.7703 5.33706C51.3991 4.75714 50.2854 2.69716 51.284 1.32029C52.0264 0.309865 53.6746 -0.0494744 56.1915 0.25294C60.1227 0.733246 60.8762 2.29157 60.8206 3.51546C60.7649 4.73935 59.6846 6.24075 58.8717 6.79933L57.7914 15.6939L61.4591 16.7968L61.125 17.8108Z" fill="url(#paint0_linear)"/>
<path d="M99 142H5.79842L0 137.425L5.79842 16.9427L93.2016 12.3673L99 16.9427V142Z" fill="#00458B"/>
<path d="M99 142H5.79842L0 137.425L5.79842 16.9427L93.2016 12.3673L99 16.9427V142Z" fill="url(#paint1_linear)"/>
<path d="M95.93 139.819L4.32097 140.04L0 137.425L3.06996 16.5086L90.4731 11.9333L96.2715 16.5086L95.93 139.819Z" fill="url(#paint2_linear)"/>
<path d="M0.5 136.925V12.8673H92.7016V136.925H0.5Z" fill="white" stroke="black"/>
<path d="M29.3707 21.0697C29.3224 21.3864 29.3001 21.7813 29.5674 21.9592C29.7131 22.0433 29.88 22.0876 30.05 22.0873C38.6358 22.7993 47.2837 22.3393 55.7345 20.7211C57.1266 20.4542 58.8119 19.8423 58.9122 18.4868C59.005 17.2842 57.7985 15.8148 58.7711 15.0606C59.1358 14.8512 59.5524 14.7393 59.9776 14.7368C60.7486 14.6289 61.4851 14.3586 62.1341 13.9452C62.783 13.5317 63.3283 12.9856 63.7306 12.346L39.3601 12.1574C36.9918 12.1396 32.6782 11.1861 30.9855 13.2248C29.6751 14.7866 29.3707 19.2126 29.3707 21.0697Z" fill="url(#paint3_linear)"/>
<path d="M56.3768 17.8677H31.1451L29.4375 2.83594L54.8399 2.67228L56.3768 17.8677Z" fill="#00458B"/>
<path d="M54.8418 2.67228L64.2225 7.1409L62.8564 12.3673H55.922L54.8418 2.67228Z" fill="#00458B"/>
<path d="M54.8418 2.67228L64.2225 7.1409L62.8564 12.3673H55.922L54.8418 2.67228Z" fill="url(#paint4_linear)"/>
<path d="M49.1941 17.6329L44.3386 17.4514L42.6607 5.83161L43.0096 5.74622C43.3549 5.22678 44.2235 3.19171 43.559 2.06032C42.9577 1.02855 41.1647 1.06769 39.7652 1.28471C37.7717 1.59069 36.569 2.19552 36.2906 3.0316C35.9194 4.15587 37.1852 5.68574 37.7049 6.18027L37.8423 6.30835L39.9694 17.3874H34.6387V16.2276H38.5179L36.7212 6.87049C36.2163 6.34749 34.5496 4.45473 35.1398 2.67938C35.5704 1.38078 37.0627 0.526899 39.5944 0.139097C43.5145 -0.462174 44.6727 1.00009 44.9622 2.33783C45.2518 3.67557 44.6207 5.59679 43.9934 6.42932L45.4188 16.3272L49.2609 16.473L49.1941 17.6329Z" fill="url(#paint5_linear)"/>
<path d="M42.7388 31.4301H14.0957V66.0726H42.7388V31.4301Z" fill="#00458B"/>
<path d="M80.5872 36.226H53.08C52.264 36.226 51.6025 36.86 51.6025 37.642C51.6025 38.4241 52.264 39.0581 53.08 39.0581H80.5872C81.4032 39.0581 82.0647 38.4241 82.0647 37.642C82.0647 36.86 81.4032 36.226 80.5872 36.226Z" fill="#E31E27"/>
<path d="M80.5872 42.4344H53.08C52.264 42.4344 51.6025 43.0684 51.6025 43.8505C51.6025 44.6325 52.264 45.2665 53.08 45.2665H80.5872C81.4032 45.2665 82.0647 44.6325 82.0647 43.8505C82.0647 43.0684 81.4032 42.4344 80.5872 42.4344Z" fill="#00458B"/>
<path d="M80.5872 51.4749H53.08C52.264 51.4749 51.6025 52.1088 51.6025 52.8909C51.6025 53.6729 52.264 54.3069 53.08 54.3069H80.5872C81.4032 54.3069 82.0647 53.6729 82.0647 52.8909C82.0647 52.1088 81.4032 51.4749 80.5872 51.4749Z" fill="#00458B"/>
<path d="M80.5872 57.6833H53.08C52.264 57.6833 51.6025 58.3172 51.6025 59.0993C51.6025 59.8813 52.264 60.5153 53.08 60.5153H80.5872C81.4032 60.5153 82.0647 59.8813 82.0647 59.0993C82.0647 58.3172 81.4032 57.6833 80.5872 57.6833Z" fill="#00458B"/>
<path d="M63.1966 86.4446H35.6894C34.8734 86.4446 34.2119 87.0786 34.2119 87.8607C34.2119 88.6427 34.8734 89.2767 35.6894 89.2767H63.1966C64.0126 89.2767 64.674 88.6427 64.674 87.8607C64.674 87.0786 64.0126 86.4446 63.1966 86.4446Z" fill="#00458B"/>
<path d="M63.1966 92.653H35.6894C34.8734 92.653 34.2119 93.287 34.2119 94.069C34.2119 94.8511 34.8734 95.4851 35.6894 95.4851H63.1966C64.0126 95.4851 64.674 94.8511 64.674 94.069C64.674 93.287 64.0126 92.653 63.1966 92.653Z" fill="#00458B"/>
<path d="M63.1966 107.358H35.6894C34.8734 107.358 34.2119 107.991 34.2119 108.774C34.2119 109.556 34.8734 110.19 35.6894 110.19H63.1966C64.0126 110.19 64.674 109.556 64.674 108.774C64.674 107.991 64.0126 107.358 63.1966 107.358Z" fill="#00458B"/>
<path d="M63.1966 113.566H35.6894C34.8734 113.566 34.2119 114.2 34.2119 114.982C34.2119 115.764 34.8734 116.398 35.6894 116.398H63.1966C64.0126 116.398 64.674 115.764 64.674 114.982C64.674 114.2 64.0126 113.566 63.1966 113.566Z" fill="#00458B"/>
<path d="M80.5839 70.7582H14.8896C14.0736 70.7582 13.4121 71.3922 13.4121 72.1742C13.4121 72.9563 14.0736 73.5903 14.8896 73.5903H80.5839C81.3999 73.5903 82.0614 72.9563 82.0614 72.1742C82.0614 71.3922 81.3999 70.7582 80.5839 70.7582Z" fill="#00458B"/>
<path d="M80.5839 76.9666H14.8896C14.0736 76.9666 13.4121 77.6006 13.4121 78.3826C13.4121 79.1647 14.0736 79.7986 14.8896 79.7986H80.5839C81.3999 79.7986 82.0614 79.1647 82.0614 78.3826C82.0614 77.6006 81.3999 76.9666 80.5839 76.9666Z" fill="#00458B"/>
<path d="M20.0678 59.9638C18.3416 61.177 16.7937 63.358 17.0981 65.393C25.5507 64.9946 33.5727 65.4606 40.9191 65.3575C40.7706 63.5074 39.9948 61.1557 38.651 59.8215C37.951 59.2017 37.1448 58.7023 36.2677 58.345C34.4785 57.5018 32.6632 56.6621 30.6995 56.2708C26.7794 55.4774 23.1526 57.8006 20.0678 59.9638Z" fill="white"/>
<path d="M34.9168 47.5897C34.9493 47.8869 34.9151 48.1873 34.8165 48.4708C34.7179 48.7543 34.5572 49.0144 34.3451 49.2334C34.2463 49.3462 34.1183 49.4321 33.9739 49.4825C33.2314 49.7137 33.198 48.2764 33.4096 47.8672C33.6621 47.4011 34.8054 46.6647 34.9168 47.5897Z" fill="url(#paint6_linear)"/>
<path d="M21.727 46.7856C21.6942 47.0826 21.7279 47.3828 21.8259 47.6662C21.9238 47.9497 22.0837 48.2099 22.2949 48.4294C22.3959 48.5398 22.5233 48.6253 22.6662 48.6784C23.4086 48.9097 23.442 47.4687 23.2267 47.0632C22.9817 46.6078 21.8383 45.8606 21.727 46.7856Z" fill="url(#paint7_linear)"/>
<path d="M27.3795 35.6141C28.07 34.7999 29.0678 34.2795 30.1562 34.1661C31.2105 34.0593 32.3835 34.408 32.9478 35.2619C33.3122 35.9167 33.4793 36.6559 33.4303 37.3966C33.4958 38.0833 33.3836 38.775 33.1037 39.4103C32.7611 40.0091 32.203 40.4682 31.5334 40.7018C29.9892 41.2853 28.1665 40.8121 26.9712 39.759C25.7758 38.7058 26.444 36.7028 27.3795 35.6141Z" fill="#606161"/>
<path d="M27.3795 35.6141C28.07 34.7999 29.0678 34.2795 30.1562 34.1661C31.2105 34.0593 32.3835 34.408 32.9478 35.2619C33.3122 35.9167 33.4793 36.6559 33.4303 37.3966C33.4958 38.0833 33.3836 38.775 33.1037 39.4103C32.7611 40.0091 32.203 40.4682 31.5334 40.7018C29.9892 41.2853 28.1665 40.8121 26.9712 39.759C25.7758 38.7058 26.444 36.7028 27.3795 35.6141Z" fill="url(#paint8_linear)"/>
<path d="M31.0935 51.61C31.0935 51.61 31.138 56.3135 32.2554 57.3025C33.3728 58.2916 27.7785 62.9132 25.4102 57.7544C25.4102 57.7544 26.7874 55.5272 26.3159 51.7737C25.8445 48.0202 31.0935 51.61 31.0935 51.61Z" fill="url(#paint9_linear)"/>
<path d="M31.2569 52.7236V53.7554C31.2569 53.7554 28.4171 57.669 27.2552 56.3562C26.0933 55.0433 26.4348 54.748 26.4348 54.748L26.3086 51.7773L31.2569 52.7236Z" fill="url(#paint10_linear)"/>
<path d="M33.7993 44.8858C33.7993 44.8858 34.616 52.0654 30.6105 53.4886C26.6051 54.9117 24.2182 52.8695 23.1194 49.4042C22.0206 45.9389 23.7022 38.9442 27.9452 39.6238C32.1882 40.3033 33.7993 44.8858 33.7993 44.8858Z" fill="url(#paint11_linear)"/>
<path d="M34.434 47.298C34.6167 47.0495 34.735 46.7629 34.7792 46.4619C35.0397 45.1144 34.9266 43.7249 34.451 42.4325C33.9755 41.1401 33.1542 39.99 32.0693 39.0972C31.6288 38.7252 31.1186 38.4366 30.5659 38.2469C30.0148 38.0905 29.439 38.0303 28.8657 38.069C27.0573 38.1226 25.3132 38.7242 23.884 39.7874C23.1785 40.3253 22.5971 40.9976 22.1766 41.7619C21.7562 42.5262 21.5058 43.3658 21.4414 44.2276C21.3916 44.7381 21.4785 45.2524 21.6938 45.7219C21.8027 45.9556 21.9672 46.1616 22.1742 46.3235C22.3811 46.4853 22.6247 46.5985 22.8854 46.654C23.8097 46.807 24.0622 45.9887 24.812 45.4443C25.9257 44.6225 26.2969 43.4022 28.8583 43.6085C33.0233 43.943 33.3203 48.6108 34.434 47.298Z" fill="#606161"/>
<path d="M22.4697 47.298C22.4209 47.255 22.3817 47.203 22.3547 47.145C22.3375 47.0773 22.3275 47.0082 22.325 46.9386C22.3151 46.8704 22.281 46.8076 22.2284 46.7607C22.2003 46.7388 22.1668 46.724 22.1311 46.7178C22.0954 46.7116 22.0587 46.7141 22.0243 46.7252C21.9951 46.7382 21.9692 46.757 21.9481 46.7803C21.927 46.8036 21.9112 46.8309 21.9018 46.8604C21.8856 46.9196 21.8769 46.9805 21.8758 47.0418C21.8507 47.2781 21.8877 47.5166 21.9834 47.7356C22.0743 47.8861 22.191 48.0208 22.3287 48.1341C22.3524 48.162 22.3817 48.1852 22.4148 48.2023C22.448 48.2194 22.4843 48.2301 22.5217 48.2337C22.5699 48.2306 22.6162 48.2146 22.6553 48.1874C22.6736 48.1785 22.6899 48.1664 22.7036 48.1518C22.7071 48.1342 22.7071 48.1161 22.7036 48.0985C22.7352 47.9362 22.7352 47.7698 22.7036 47.6075C22.6599 47.4841 22.5784 47.3762 22.4697 47.298Z" fill="url(#paint12_linear)"/>
<path d="M34.0632 48.07C34.112 48.0271 34.1512 47.975 34.1783 47.917C34.1957 47.8506 34.2057 47.7827 34.208 47.7142C34.2169 47.645 34.2527 47.5815 34.3082 47.5364C34.3347 47.5128 34.3674 47.4968 34.4027 47.4898C34.4381 47.4829 34.4747 47.4855 34.5087 47.4972C34.5374 47.5108 34.5631 47.5298 34.5841 47.553C34.6052 47.5762 34.6212 47.6032 34.6312 47.6324C34.6473 47.6929 34.6561 47.755 34.6572 47.8174C34.6822 48.0537 34.6452 48.2922 34.5495 48.5112C34.4585 48.6606 34.3418 48.7941 34.2043 48.9061C34.1555 48.9622 34.0867 48.999 34.0112 49.0093C33.9627 49.005 33.9164 48.9878 33.8776 48.9595C33.8579 48.9529 33.841 48.9404 33.8293 48.9239C33.8255 48.9063 33.8255 48.8881 33.8293 48.8705C33.7978 48.7095 33.7978 48.5442 33.8293 48.3831C33.873 48.2587 33.9544 48.1497 34.0632 48.07Z" fill="url(#paint13_linear)"/>
<path d="M22.1223 96.56H17.8818C17.069 96.5594 16.2897 96.2596 15.715 95.7266C15.1402 95.1936 14.8171 94.4708 14.8164 93.717V89.463C14.8171 88.7092 15.1402 87.9864 15.715 87.4534C16.2897 86.9203 17.069 86.6206 17.8818 86.62H22.1223C22.9351 86.6206 23.7144 86.9203 24.2891 87.4534C24.8638 87.9864 25.187 88.7092 25.1877 89.463V93.7264C25.1843 94.4786 24.86 95.1989 24.2855 95.7299C23.7111 96.2609 22.9333 96.5594 22.1223 96.56ZM17.8818 87.3934C17.2929 87.3941 16.7282 87.6113 16.3118 87.9975C15.8954 88.3838 15.6611 88.9074 15.6605 89.4536V93.717C15.6611 94.2632 15.8954 94.7868 16.3118 95.1731C16.7282 95.5593 17.2929 95.7766 17.8818 95.7772H22.1223C22.711 95.7765 23.2753 95.5592 23.6913 95.1729C24.1074 94.7866 24.3411 94.263 24.3411 93.717V89.463C24.3411 88.917 24.1074 88.3934 23.6913 88.0071C23.2753 87.6208 22.711 87.4034 22.1223 87.4028L17.8818 87.3934Z" fill="#00458B"/>
<path d="M20.2907 95.14L16.6618 91.8075C16.5464 91.7013 16.4549 91.5753 16.3924 91.4365C16.33 91.2978 16.2979 91.1491 16.2979 90.9989C16.2979 90.8487 16.33 90.7 16.3924 90.5613C16.4549 90.4225 16.5464 90.2965 16.6618 90.1903C16.7772 90.0841 16.9142 89.9998 17.065 89.9424C17.2158 89.8849 17.3774 89.8553 17.5406 89.8553C17.7038 89.8553 17.8654 89.8849 18.0162 89.9424C18.1669 89.9998 18.3039 90.0841 18.4193 90.1903L20.1521 91.7847L25.9667 85.5959C26.1823 85.3663 26.4883 85.225 26.8172 85.203C27.1461 85.181 27.471 85.2801 27.7205 85.4786C27.9699 85.677 28.1235 85.9586 28.1474 86.2612C28.1713 86.5639 28.0636 86.8629 27.8479 87.0924L20.2907 95.14Z" fill="#E31E27"/>
<path d="M22.1223 116.44H17.8818C17.069 116.439 16.2897 116.14 15.715 115.607C15.1402 115.074 14.8171 114.351 14.8164 113.597V109.343C14.8171 108.589 15.1402 107.866 15.715 107.333C16.2897 106.8 17.069 106.501 17.8818 106.5H22.1223C22.9351 106.501 23.7144 106.8 24.2891 107.333C24.8638 107.866 25.187 108.589 25.1877 109.343V113.606C25.1843 114.359 24.86 115.079 24.2855 115.61C23.7111 116.141 22.9333 116.439 22.1223 116.44ZM17.8818 107.273C17.2929 107.274 16.7282 107.491 16.3118 107.878C15.8954 108.264 15.6611 108.787 15.6605 109.334V113.597C15.6611 114.143 15.8954 114.667 16.3118 115.053C16.7282 115.439 17.2929 115.657 17.8818 115.657H22.1223C22.711 115.657 23.2753 115.439 23.6913 115.053C24.1074 114.667 24.3411 114.143 24.3411 113.597V109.343C24.3411 108.797 24.1074 108.273 23.6913 107.887C23.2753 107.501 22.711 107.283 22.1223 107.283L17.8818 107.273Z" fill="#00458B"/>
<path d="M20.2907 115.02L16.6618 111.688C16.5464 111.581 16.4549 111.455 16.3924 111.317C16.33 111.178 16.2979 111.029 16.2979 110.879C16.2979 110.729 16.33 110.58 16.3924 110.441C16.4549 110.303 16.5464 110.176 16.6618 110.07C16.7772 109.964 16.9142 109.88 17.065 109.822C17.2158 109.765 17.3774 109.735 17.5406 109.735C17.7038 109.735 17.8654 109.765 18.0162 109.822C18.1669 109.88 18.3039 109.964 18.4193 110.07L20.1521 111.665L25.9667 105.476C26.1823 105.246 26.4883 105.105 26.8172 105.083C27.1461 105.061 27.471 105.16 27.7205 105.359C27.9699 105.557 28.1235 105.839 28.1474 106.141C28.1713 106.444 28.0636 106.743 27.8479 106.972L20.2907 115.02Z" fill="#E31E27"/>
<defs>
<linearGradient id="paint0_linear" x1="51.7915" y1="23.8853" x2="57.9641" y2="-0.313222" gradientUnits="userSpaceOnUse">
<stop stop-color="#010101" stop-opacity="0"/>
<stop offset="0.95" stop-color="#010101"/>
</linearGradient>
<linearGradient id="paint1_linear" x1="53575.8" y1="71071.8" x2="-15947.2" y2="9583.95" gradientUnits="userSpaceOnUse">
<stop stop-color="#010101" stop-opacity="0"/>
<stop offset="0.95" stop-color="#010101"/>
</linearGradient>
<linearGradient id="paint2_linear" x1="44886.6" y1="27858.4" x2="13618.2" y2="30261.8" gradientUnits="userSpaceOnUse">
<stop stop-color="#010101" stop-opacity="0"/>
<stop offset="0.95" stop-color="#010101"/>
</linearGradient>
<linearGradient id="paint3_linear" x1="8900.87" y1="1196.13" x2="9046.3" y2="-1405.68" gradientUnits="userSpaceOnUse">
<stop stop-color="#010101" stop-opacity="0"/>
<stop offset="0.95" stop-color="#010101"/>
</linearGradient>
<linearGradient id="paint4_linear" x1="2920.54" y1="200.936" x2="2752.86" y2="503.568" gradientUnits="userSpaceOnUse">
<stop stop-color="#010101" stop-opacity="0"/>
<stop offset="0.95" stop-color="#010101"/>
</linearGradient>
<linearGradient id="paint5_linear" x1="3758.2" y1="1710.74" x2="3732.05" y2="328.832" gradientUnits="userSpaceOnUse">
<stop stop-color="#010101" stop-opacity="0"/>
<stop offset="0.95" stop-color="#010101"/>
</linearGradient>
<linearGradient id="paint6_linear" x1="34.9279" y1="48.3262" x2="33.3057" y2="48.3262" gradientUnits="userSpaceOnUse">
<stop stop-color="#E4C5D5"/>
<stop offset="0.42" stop-color="#E9D3CF"/>
<stop offset="1" stop-color="#EFE8CA"/>
</linearGradient>
<linearGradient id="paint7_linear" x1="-244.278" y1="413.289" x2="-237.167" y2="413.289" gradientUnits="userSpaceOnUse">
<stop stop-color="#E4C5D5"/>
<stop offset="0.42" stop-color="#E9D3CF"/>
<stop offset="1" stop-color="#EFE8CA"/>
</linearGradient>
<linearGradient id="paint8_linear" x1="2412.03" y1="868.091" x2="2384.01" y2="945.844" gradientUnits="userSpaceOnUse">
<stop stop-color="#010101" stop-opacity="0"/>
<stop offset="0.95" stop-color="#010101"/>
</linearGradient>
<linearGradient id="paint9_linear" x1="-2552.91" y1="1835.03" x2="-2421.27" y2="1835.03" gradientUnits="userSpaceOnUse">
<stop stop-color="#E4C5D5"/>
<stop offset="0.42" stop-color="#E9D3CF"/>
<stop offset="1" stop-color="#EFE8CA"/>
</linearGradient>
<linearGradient id="paint10_linear" x1="29.5939" y1="57.4911" x2="26.6177" y2="42.154" gradientUnits="userSpaceOnUse">
<stop offset="0.12" stop-color="#010101" stop-opacity="0"/>
<stop offset="0.95" stop-color="#010101"/>
</linearGradient>
<linearGradient id="paint11_linear" x1="-4105.95" y1="2244.33" x2="-3775.56" y2="2244.33" gradientUnits="userSpaceOnUse">
<stop stop-color="#E4C5D5"/>
<stop offset="0.42" stop-color="#E9D3CF"/>
<stop offset="1" stop-color="#EFE8CA"/>
</linearGradient>
<linearGradient id="paint12_linear" x1="-270.428" y1="283.297" x2="-278.243" y2="282.377" gradientUnits="userSpaceOnUse">
<stop offset="0.12" stop-color="#010101" stop-opacity="0"/>
<stop offset="0.95" stop-color="#010101"/>
</linearGradient>
<linearGradient id="paint13_linear" x1="0.231502" y1="288.005" x2="-7.58206" y2="287.092" gradientUnits="userSpaceOnUse">
<stop offset="0.12" stop-color="#010101" stop-opacity="0"/>
<stop offset="0.95" stop-color="#010101"/>
</linearGradient>
</defs>
</svg>
