<svg width="117" height="114" viewBox="0 0 117 114" fill="none" xmlns="http://www.w3.org/2000/svg">
<path d="M98.2046 38.9218C98.2033 41.6923 97.1022 44.349 95.1431 46.3081C93.1841 48.2671 90.5274 49.3682 87.7569 49.3695H66.1482C65.6739 49.3708 65.2002 49.3368 64.7309 49.2679C64.1642 49.3364 63.5939 49.3703 63.0231 49.3695H32.5895C30.6405 49.3942 28.706 49.0316 26.8982 48.3029C25.0904 47.5741 23.4453 46.4936 22.0584 45.1241C20.6714 43.7546 19.5702 42.1233 18.8186 40.3249C18.067 38.5265 17.6799 36.5967 17.6799 34.6476C17.6799 32.6984 18.067 30.7687 18.8186 28.9702C19.5702 27.1718 20.6714 25.5405 22.0584 24.171C23.4453 22.8015 25.0904 21.721 26.8982 20.9923C28.706 20.2635 30.6405 19.901 32.5895 19.9256H38.5846C39.1604 15.4102 41.3214 11.2461 44.6822 8.17604C48.0431 5.10596 52.3852 3.32952 56.9342 3.16354C61.4831 2.99756 65.9431 4.45284 69.5188 7.26983C73.0944 10.0868 75.5532 14.0823 76.4565 18.5438H78.3179C79.585 18.5435 80.8398 18.7928 82.0106 19.2774C83.1815 19.762 84.2454 20.4725 85.1416 21.3683C86.0378 22.2641 86.7489 23.3277 87.2341 24.4983C87.7193 25.6689 87.9692 26.9235 87.9695 28.1907C87.9695 28.2876 87.9695 28.3844 87.9695 28.4765C90.7034 28.531 93.3068 29.6555 95.2206 31.6086C97.1343 33.5616 98.2057 36.1874 98.2046 38.9218Z" fill="url(#paint0_linear)"/>
<path d="M95.8542 36.5715C95.853 39.342 94.7518 41.9987 92.7928 43.9578C90.8337 45.9168 88.1771 47.0179 85.4066 47.0192H63.8002C63.3259 47.0204 62.8522 46.9864 62.3829 46.9176C61.817 46.986 61.2475 47.0199 60.6775 47.0192H30.2392C28.2902 47.0439 26.3557 46.6813 24.5479 45.9526C22.7401 45.2238 21.095 44.1433 19.708 42.7738C18.3211 41.4043 17.2198 39.773 16.4682 37.9746C15.7166 36.1762 15.3296 34.2464 15.3296 32.2973C15.3296 30.3481 15.7166 28.4183 16.4682 26.6199C17.2198 24.8215 18.3211 23.1902 19.708 21.8207C21.095 20.4512 22.7401 19.3707 24.5479 18.642C26.3557 17.9132 28.2902 17.5507 30.2392 17.5753H36.2343C36.8069 13.0576 38.9666 8.89041 42.3277 5.81778C45.6888 2.74515 50.0325 0.967096 54.5834 0.801047C59.1342 0.634998 63.596 2.09177 67.1721 4.91128C70.7482 7.73079 73.2058 11.7295 74.1062 16.1935H75.9675C78.5262 16.1929 80.9805 17.2086 82.7904 19.0172C84.6004 20.8258 85.6179 23.2793 85.6191 25.838C85.6191 25.9373 85.6191 26.0341 85.6191 26.1262C88.3528 26.1813 90.9559 27.306 92.8696 29.2589C94.7832 31.2119 95.8548 33.8373 95.8542 36.5715Z" fill="#00458B"/>
<path d="M95.8541 36.5715C95.8528 39.342 94.7517 41.9987 92.7926 43.9578C90.8336 45.9168 88.1769 47.0179 85.4064 47.0192H63.8001C63.3258 47.0204 62.8521 46.9864 62.3828 46.9176C61.8169 46.986 61.2474 47.0199 60.6773 47.0192H31.1201C28.3086 45.4021 26.1098 42.9019 24.8651 39.9068C23.6204 36.9118 23.3996 33.5896 24.2368 30.4561C25.074 27.3227 26.9225 24.5534 29.4951 22.5783C32.0677 20.6032 35.2206 19.5329 38.4639 19.5335H44.4614C45.0523 14.8972 47.3135 10.6355 50.8213 7.54685C54.3291 4.45822 58.8428 2.75465 63.5166 2.75537H63.7528C66.3925 4.05313 68.6991 5.93926 70.4952 8.26858C72.2914 10.5979 73.5291 13.3083 74.1131 16.1911H75.9744C78.5332 16.1905 80.9874 17.2062 82.7974 19.0148C84.6073 20.8235 85.6248 23.2769 85.6261 25.8357C85.6261 25.9349 85.6261 26.0317 85.6261 26.1239C88.3589 26.1807 90.9606 27.3066 92.8728 29.2598C94.785 31.2131 95.8553 33.8381 95.8541 36.5715Z" fill="url(#paint1_linear)"/>
<path d="M12.3082 86.9745H11.1484V42.0469C11.1503 40.9269 11.5962 39.8534 12.3884 39.0617C13.1805 38.27 14.2543 37.8247 15.3743 37.8234H22.6969V38.9832H15.3743C14.5599 38.9832 13.7788 39.3068 13.2029 39.8826C12.627 40.4585 12.3035 41.2396 12.3035 42.054L12.3082 86.9745Z" fill="#00458B"/>
<path d="M107.365 86.9745H106.207V42.047C106.207 41.2326 105.884 40.4515 105.308 39.8756C104.732 39.2997 103.951 38.9762 103.137 38.9762H95.814V37.8164H103.137C104.256 37.8177 105.33 38.263 106.122 39.0548C106.913 39.8466 107.359 40.9201 107.36 42.0399L107.365 86.9745Z" fill="#00458B"/>
<path d="M111.539 65.5618H100.6C98.0674 65.5618 96.0146 67.6145 96.0146 70.1467V93.3593C96.0146 95.8914 98.0674 97.9442 100.6 97.9442H111.539C114.071 97.9442 116.123 95.8914 116.123 93.3593V70.1467C116.123 67.6145 114.071 65.5618 111.539 65.5618Z" fill="#00458B"/>
<path d="M114.746 70.0948V90.5555C114.746 90.9421 114.67 91.3248 114.522 91.6819C114.374 92.0389 114.158 92.3634 113.884 92.6367C113.611 92.91 113.287 93.1268 112.929 93.2747C112.572 93.4226 112.19 93.4988 111.803 93.4988H100.264C99.8775 93.4991 99.4945 93.4232 99.1371 93.2754C98.7798 93.1276 98.455 92.9109 98.1815 92.6375C97.9079 92.3642 97.6909 92.0397 97.5429 91.6824C97.3948 91.3252 97.3186 90.9423 97.3186 90.5555V70.0948C97.3186 69.3134 97.6289 68.564 98.1812 68.0112C98.7335 67.4584 99.4827 67.1475 100.264 67.1469H111.803C112.19 67.1472 112.573 67.2237 112.93 67.372C113.287 67.5203 113.612 67.7376 113.885 68.0113C114.159 68.2851 114.375 68.6099 114.523 68.9674C114.671 69.3249 114.747 69.708 114.746 70.0948Z" fill="white"/>
<path d="M108.636 94.8545H103.98C103.438 94.8545 103 95.2928 103 95.8336C103 96.3743 103.438 96.8127 103.98 96.8127H108.636C109.177 96.8127 109.616 96.3743 109.616 95.8336C109.616 95.2928 109.177 94.8545 108.636 94.8545Z" fill="white"/>
<path d="M37.3444 74.3112H4.13531C2.38067 74.3112 0.958252 75.7336 0.958252 77.4883V93.8531C0.958252 95.6077 2.38067 97.0301 4.13531 97.0301H37.3444C39.099 97.0301 40.5214 95.6077 40.5214 93.8531V77.4883C40.5214 75.7336 39.099 74.3112 37.3444 74.3112Z" fill="#00458B"/>
<path d="M36.3711 75.4237H5.2005C3.59458 75.4237 2.29272 76.7256 2.29272 78.3315V92.8821C2.29272 94.4881 3.59458 95.7899 5.2005 95.7899H36.3711C37.977 95.7899 39.2788 94.4881 39.2788 92.8821V78.3315C39.2788 76.7256 37.977 75.4237 36.3711 75.4237Z" fill="white"/>
<path d="M40.5191 98.523C40.5197 98.7192 40.4815 98.9136 40.4067 99.095C40.3319 99.2764 40.222 99.4412 40.0832 99.58C39.9445 99.7187 39.7797 99.8286 39.5982 99.9034C39.4168 99.9783 39.2224 100.016 39.0262 100.016H2.45111C2.05518 100.016 1.67547 99.8585 1.3955 99.5786C1.11554 99.2986 0.958252 98.9189 0.958252 98.523C0.958252 98.127 1.11554 97.7473 1.3955 97.4673C1.67547 97.1874 2.05518 97.0301 2.45111 97.0301H39.0262C39.4218 97.0313 39.8008 97.189 40.0804 97.4687C40.3601 97.7484 40.5178 98.1274 40.5191 98.523Z" fill="#00458B"/>
<path d="M40.2381 97.6536C40.1928 97.7198 40.1414 97.7814 40.0845 97.8379C39.9458 97.9773 39.7809 98.0879 39.5993 98.1633C39.4177 98.2387 39.2229 98.2774 39.0263 98.2772H2.45119C2.21378 98.2775 1.97974 98.2211 1.76855 98.1126C1.55736 98.0041 1.37514 97.8468 1.23706 97.6536C1.37388 97.4592 1.55584 97.3009 1.76732 97.1923C1.97879 97.0837 2.21346 97.028 2.45119 97.03H39.0263C39.2634 97.0296 39.4972 97.0859 39.708 97.1944C39.9189 97.3029 40.1006 97.4604 40.2381 97.6536Z" fill="url(#paint2_linear)"/>
<path d="M83.7625 82.0708H64.8278C64.5089 82.0708 64.0247 81.811 64.0247 81.4921C64.0247 81.1732 64.5089 80.911 64.8278 80.911H83.7625C84.8664 80.9104 85.9249 80.4718 86.7057 79.6914C87.4865 78.9111 87.9257 77.8528 87.927 76.7489V59.581C87.9263 58.7931 87.6131 58.0377 87.0559 57.4805C86.4988 56.9234 85.7433 56.6101 84.9554 56.6095H71.6094C70.6388 56.6082 69.7082 56.2221 69.0219 55.5357C68.3355 54.8494 67.9494 53.9188 67.9481 52.9482V48.5877C67.9431 48.5084 67.9543 48.429 67.9812 48.3542C68.008 48.2795 68.0499 48.211 68.1043 48.1531C68.1586 48.0952 68.2243 48.049 68.2971 48.0174C68.37 47.9859 68.4486 47.9696 68.528 47.9696C68.6075 47.9696 68.6861 47.9859 68.7589 48.0174C68.8318 48.049 68.8975 48.0952 68.9518 48.1531C69.0062 48.211 69.0481 48.2795 69.0749 48.3542C69.1018 48.429 69.113 48.5084 69.1079 48.5877V52.9482C69.1086 53.6114 69.3723 54.2473 69.8413 54.7163C70.3103 55.1853 70.9462 55.4491 71.6094 55.4497H84.9554C86.0507 55.4509 87.1008 55.8866 87.8753 56.6611C88.6499 57.4356 89.0855 58.4857 89.0868 59.581V76.7489C89.0849 78.1602 88.5233 79.5131 87.5251 80.5108C86.527 81.5085 85.1738 82.0696 83.7625 82.0708Z" fill="#00458B"/>
<path opacity="0.18" d="M111.879 74.0938H100.652C100.219 74.0938 99.8674 74.4444 99.8674 74.8769C99.8674 75.3093 100.219 75.6599 100.652 75.6599H111.879C112.312 75.6599 112.663 75.3093 112.663 74.8769C112.663 74.4444 112.312 74.0938 111.879 74.0938Z" fill="#00458B"/>
<path opacity="0.18" d="M111.879 77.1835H100.652C100.219 77.1835 99.8674 77.5341 99.8674 77.9666C99.8674 78.399 100.219 78.7496 100.652 78.7496H111.879C112.312 78.7496 112.663 78.399 112.663 77.9666C112.663 77.5341 112.312 77.1835 111.879 77.1835Z" fill="#00458B"/>
<path opacity="0.18" d="M111.879 80.2732H100.652C100.219 80.2732 99.8674 80.6238 99.8674 81.0562C99.8674 81.4887 100.219 81.8393 100.652 81.8393H111.879C112.312 81.8393 112.663 81.4887 112.663 81.0562C112.663 80.6238 112.312 80.2732 111.879 80.2732Z" fill="#00458B"/>
<path opacity="0.18" d="M111.879 83.3628H100.652C100.219 83.3628 99.8674 83.7134 99.8674 84.1458C99.8674 84.5783 100.219 84.9289 100.652 84.9289H111.879C112.312 84.9289 112.663 84.5783 112.663 84.1458C112.663 83.7134 112.312 83.3628 111.879 83.3628Z" fill="#00458B"/>
<path opacity="0.18" d="M18.8442 80.1646H7.61699C7.18387 80.1646 6.83276 80.5151 6.83276 80.9476C6.83276 81.3801 7.18387 81.7306 7.61699 81.7306H18.8442C19.2773 81.7306 19.6284 81.3801 19.6284 80.9476C19.6284 80.5151 19.2773 80.1646 18.8442 80.1646Z" fill="#00458B"/>
<path opacity="0.18" d="M18.8442 83.2541H7.61699C7.18387 83.2541 6.83276 83.6047 6.83276 84.0371C6.83276 84.4696 7.18387 84.8202 7.61699 84.8202H18.8442C19.2773 84.8202 19.6284 84.4696 19.6284 84.0371C19.6284 83.6047 19.2773 83.2541 18.8442 83.2541Z" fill="#00458B"/>
<path opacity="0.18" d="M18.8442 86.3462H7.61699C7.18387 86.3462 6.83276 86.6968 6.83276 87.1292C6.83276 87.5617 7.18387 87.9123 7.61699 87.9123H18.8442C19.2773 87.9123 19.6284 87.5617 19.6284 87.1292C19.6284 86.6968 19.2773 86.3462 18.8442 86.3462Z" fill="#00458B"/>
<path opacity="0.18" d="M18.8442 89.4359H7.61699C7.18387 89.4359 6.83276 89.7864 6.83276 90.2189C6.83276 90.6514 7.18387 91.0019 7.61699 91.0019H18.8442C19.2773 91.0019 19.6284 90.6514 19.6284 90.2189C19.6284 89.7864 19.2773 89.4359 18.8442 89.4359Z" fill="#00458B"/>
<path opacity="0.18" d="M38.1427 76.0285L2.29272 88.8052V78.3339C2.29272 77.5621 2.59933 76.8219 3.14508 76.2761C3.69084 75.7304 4.43104 75.4238 5.20286 75.4238H36.3687C37.0108 75.4222 37.6351 75.635 38.1427 76.0285Z" fill="#00458B"/>
<path opacity="0.18" d="M39.279 87.0596V92.8798C39.2787 93.2617 39.2032 93.6397 39.0568 93.9924C38.9104 94.3451 38.6959 94.6655 38.4257 94.9352C38.1554 95.205 37.8347 95.419 37.4818 95.5648C37.1289 95.7106 36.7507 95.7856 36.3689 95.7852H17.5002L39.279 87.0596Z" fill="#00458B"/>
<path d="M80.2287 65.824H60.0514C58.6282 65.824 57.4744 66.9778 57.4744 68.4011V93.279C57.4744 94.7023 58.6282 95.8561 60.0514 95.8561H80.2287C81.652 95.8561 82.8058 94.7023 82.8058 93.279V68.4011C82.8058 66.9778 81.652 65.824 80.2287 65.824Z" fill="#00458B"/>
<path d="M81.6177 69.2657V91.7696C81.618 92.0756 81.558 92.3786 81.441 92.6613C81.3241 92.944 81.1525 93.2009 80.9362 93.4172C80.7199 93.6335 80.463 93.8051 80.1803 93.922C79.8976 94.0389 79.5946 94.099 79.2886 94.0987H61.0436C60.7375 94.099 60.4344 94.039 60.1516 93.9221C59.8687 93.8052 59.6117 93.6336 59.3952 93.4173C59.1786 93.201 59.0069 92.9442 58.8897 92.6615C58.7725 92.3787 58.7122 92.0757 58.7122 91.7696V69.2657C58.7128 68.6478 58.9587 68.0554 59.3958 67.6187C59.833 67.182 60.4257 66.9366 61.0436 66.9366H79.2886C79.5945 66.9366 79.8973 66.9969 80.1799 67.1139C80.4625 67.231 80.7192 67.4025 80.9355 67.6188C81.1518 67.8351 81.3233 68.0918 81.4404 68.3744C81.5574 68.657 81.6177 68.9598 81.6177 69.2657Z" fill="white"/>
<path opacity="0.18" d="M61.8254 77.5756L65.1348 76.0945L69.1386 79.4889L73.2298 74.0938L77.321 79.8385V83.8092H61.9861L61.8254 77.5756Z" fill="#00458B"/>
<path d="M71.3165 94.5286H69.4551C69.2385 94.5286 69.063 94.7036 69.063 94.9195C69.063 95.1354 69.2385 95.3104 69.4551 95.3104H71.3165C71.533 95.3104 71.7086 95.1354 71.7086 94.9195C71.7086 94.7036 71.533 94.5286 71.3165 94.5286Z" fill="url(#paint3_linear)"/>
<path d="M78.5824 83.9581H61.7546V72.7876H61.9861V83.7266H78.5824V83.9581Z" fill="#00458B"/>
<path d="M65.7016 75.5513H64.3623V83.8092H65.7016V75.5513Z" fill="#00458B"/>
<path d="M74.0566 73.5246H72.7173V83.8116H74.0566V73.5246Z" fill="#00458B"/>
<path d="M69.8142 78.7944H68.4749V83.8092H69.8142V78.7944Z" fill="#00458B"/>
<path d="M77.8217 78.7944H76.4824V83.8092H77.8217V78.7944Z" fill="#00458B"/>
<path opacity="0.18" d="M81.6177 69.2657V71.3137L58.7051 83.8069V69.2657C58.7057 68.6478 58.9516 68.0554 59.3888 67.6187C59.8259 67.182 60.4186 66.9367 61.0365 66.9367H79.2815C79.588 66.9357 79.8916 66.9953 80.175 67.1119C80.4584 67.2285 80.716 67.3999 80.933 67.6163C81.15 67.8327 81.3222 68.0897 81.4397 68.3728C81.5572 68.6558 81.6177 68.9593 81.6177 69.2657Z" fill="#00458B"/>
<path opacity="0.18" d="M114.746 78.4567V90.5555C114.746 90.942 114.67 91.3247 114.522 91.6818C114.374 92.0389 114.158 92.3634 113.884 92.6367C113.611 92.91 113.287 93.1268 112.929 93.2747C112.572 93.4226 112.19 93.4987 111.803 93.4987H100.264C99.8775 93.499 99.4945 93.4231 99.1371 93.2753C98.7798 93.1276 98.455 92.9108 98.1815 92.6375C97.9079 92.3642 97.6909 92.0396 97.5429 91.6824C97.3948 91.3251 97.3186 90.9422 97.3186 90.5555V87.9902L114.739 77.3016L114.746 78.4567Z" fill="#00458B"/>
<path d="M47.7093 113.069L46.781 113.26V46.972H47.7093V113.069Z" fill="#00458B"/>
<defs>
<linearGradient id="paint0_linear" x1="9820.75" y1="5025.41" x2="37208" y2="5025.41" gradientUnits="userSpaceOnUse">
<stop stop-opacity="0"/>
<stop offset="0.99"/>
</linearGradient>
<linearGradient id="paint1_linear" x1="20835.8" y1="-2039.14" x2="21528" y2="18454.6" gradientUnits="userSpaceOnUse">
<stop stop-opacity="0"/>
<stop offset="0.99"/>
</linearGradient>
<linearGradient id="paint2_linear" x1="20.7387" y1="95.9411" x2="20.7387" y2="104.646" gradientUnits="userSpaceOnUse">
<stop stop-opacity="0"/>
<stop offset="0.41" stop-opacity="0.41"/>
<stop offset="0.99"/>
</linearGradient>
<linearGradient id="paint3_linear" x1="890.885" y1="401.518" x2="891.142" y2="417.558" gradientUnits="userSpaceOnUse">
<stop stop-opacity="0"/>
<stop offset="0.41" stop-opacity="0.41"/>
<stop offset="0.99"/>
</linearGradient>
</defs>
</svg>
