<svg width="71" height="100" viewBox="0 0 71 100" fill="none" xmlns="http://www.w3.org/2000/svg">
<path d="M60.5839 0H4.84477C2.16908 0 0 2.16908 0 4.84477V95.1552C0 97.8309 2.16908 100 4.84477 100H60.5839C63.2596 100 65.4287 97.8309 65.4287 95.1552V4.84477C65.4287 2.16908 63.2596 0 60.5839 0Z" fill="#00458B"/>
<path d="M62.4428 0H6.70366C4.02797 0 1.85889 2.16908 1.85889 4.84477V95.1552C1.85889 97.8309 4.02797 100 6.70366 100H62.4428C65.1185 100 67.2876 97.8309 67.2876 95.1552V4.84477C67.2876 2.16908 65.1185 0 62.4428 0Z" fill="#00458B"/>
<path d="M62.4428 0H6.70366C4.02797 0 1.85889 2.16908 1.85889 4.84477V95.1552C1.85889 97.8309 4.02797 100 6.70366 100H62.4428C65.1185 100 67.2876 97.8309 67.2876 95.1552V4.84477C67.2876 2.16908 65.1185 0 62.4428 0Z" fill="url(#paint0_linear)"/>
<path d="M6.85742 57.5248L8.57037 4.85687L58.0944 5.90283C58.0944 5.90283 51.6185 60.5718 56.1904 74.6816C60.7623 88.7915 61.5233 94.085 61.5233 94.085L8.0004 95.6009L6.85742 57.5248Z" fill="url(#paint1_linear)"/>
<path d="M70.428 89.4282L16.2866 90.0012C16.2866 90.0012 10.7203 57.6613 9.75317 46.8196C8.80422 36.3752 8.58594 4.85687 8.58594 4.85687H60.2868C60.2868 4.85687 60.4171 35.402 61.3327 45.522C62.3453 56.6881 70.428 89.4282 70.428 89.4282Z" fill="white"/>
<path d="M40.0015 15.5227H14.4801C14.0062 15.5227 13.6221 15.9061 13.6221 16.3791C13.6221 16.8522 14.0062 17.2356 14.4801 17.2356H40.0015C40.4754 17.2356 40.8595 16.8522 40.8595 16.3791C40.8595 15.9061 40.4754 15.5227 40.0015 15.5227Z" fill="#00458B"/>
<path d="M40.0015 18.4756H14.4801C14.0062 18.4756 13.6221 18.8591 13.6221 19.3321C13.6221 19.8051 14.0062 20.1886 14.4801 20.1886H40.0015C40.4754 20.1886 40.8595 19.8051 40.8595 19.3321C40.8595 18.8591 40.4754 18.4756 40.0015 18.4756Z" fill="#00458B"/>
<path d="M40.0015 21.4286H14.4801C14.0062 21.4286 13.6221 21.812 13.6221 22.285C13.6221 22.758 14.0062 23.1415 14.4801 23.1415H40.0015C40.4754 23.1415 40.8595 22.758 40.8595 22.285C40.8595 21.812 40.4754 21.4286 40.0015 21.4286Z" fill="#00458B"/>
<path d="M40.1558 24.3815H23.2385C22.8501 24.3815 22.5352 24.6964 22.5352 25.0849V25.3911C22.5352 25.7795 22.8501 26.0944 23.2385 26.0944H40.1558C40.5443 26.0944 40.8592 25.7795 40.8592 25.3911V25.0849C40.8592 24.6964 40.5443 24.3815 40.1558 24.3815Z" fill="#00458B"/>
<path d="M40.2862 34.2378H14.7647C14.2909 34.2378 13.9067 34.6212 13.9067 35.0943C13.9067 35.5673 14.2909 35.9507 14.7647 35.9507H40.2862C40.76 35.9507 41.1442 35.5673 41.1442 35.0943C41.1442 34.6212 40.76 34.2378 40.2862 34.2378Z" fill="#00458B"/>
<path d="M40.2862 37.1907H14.7647C14.2909 37.1907 13.9067 37.5742 13.9067 38.0472C13.9067 38.5202 14.2909 38.9037 14.7647 38.9037H40.2862C40.76 38.9037 41.1442 38.5202 41.1442 38.0472C41.1442 37.5742 40.76 37.1907 40.2862 37.1907Z" fill="#00458B"/>
<path d="M40.2862 40.1407H14.7647C14.2909 40.1407 13.9067 40.5241 13.9067 40.9971C13.9067 41.4701 14.2909 41.8536 14.7647 41.8536H40.2862C40.76 41.8536 41.1442 41.4701 41.1442 40.9971C41.1442 40.5241 40.76 40.1407 40.2862 40.1407Z" fill="#00458B"/>
<path d="M40.441 43.0936H23.5237C23.1352 43.0936 22.8203 43.4085 22.8203 43.797V44.1032C22.8203 44.4916 23.1352 44.8065 23.5237 44.8065H40.441C40.8294 44.8065 41.1443 44.4916 41.1443 44.1032V43.797C41.1443 43.4085 40.8294 43.0936 40.441 43.0936Z" fill="#00458B"/>
<path d="M42.2295 53.8079H16.705C16.4685 53.8007 16.242 53.711 16.0648 53.5542C15.8876 53.3975 15.7708 53.1837 15.7348 52.9499C15.7163 52.843 15.7218 52.7334 15.751 52.629C15.7801 52.5245 15.8321 52.4279 15.9032 52.346C15.9743 52.2641 16.0628 52.1991 16.1621 52.1557C16.2615 52.1123 16.3692 52.0915 16.4776 52.0949H41.9991C42.2358 52.1007 42.463 52.1894 42.6409 52.3457C42.8188 52.502 42.9361 52.7158 42.9723 52.9499C42.9907 53.0568 42.9852 53.1666 42.9561 53.2712C42.927 53.3757 42.875 53.4726 42.8039 53.5546C42.7329 53.6367 42.6445 53.702 42.5452 53.7458C42.4458 53.7896 42.338 53.8108 42.2295 53.8079Z" fill="#00458B"/>
<path d="M42.6238 56.7548H17.0993C16.8594 56.7492 16.6293 56.6587 16.45 56.4994C16.2706 56.34 16.1537 56.1222 16.12 55.8846C16.1021 55.7779 16.108 55.6685 16.1373 55.5643C16.1667 55.4601 16.2187 55.3636 16.2897 55.2819C16.3607 55.2002 16.4489 55.1352 16.548 55.0916C16.6471 55.048 16.7546 55.0268 16.8628 55.0297H42.3873C42.6233 55.0367 42.8494 55.126 43.0266 55.2821C43.2038 55.4382 43.3208 55.6514 43.3574 55.8846C43.3777 55.9917 43.3739 56.102 43.3462 56.2074C43.3186 56.3129 43.2677 56.4108 43.1975 56.4941C43.1272 56.5775 43.0393 56.6441 42.94 56.6892C42.8408 56.7343 42.7327 56.7567 42.6238 56.7548Z" fill="#00458B"/>
<path d="M43.018 59.7016H17.4935C17.2575 59.6946 17.0313 59.6053 16.8542 59.4492C16.677 59.2931 16.56 59.0799 16.5233 58.8467C16.5049 58.7397 16.5105 58.6299 16.5396 58.5254C16.5687 58.4208 16.6206 58.324 16.6917 58.2419C16.7627 58.1598 16.8511 58.0945 16.9505 58.0507C17.0498 58.0069 17.1576 57.9857 17.2661 57.9887H42.7997C43.0362 57.9958 43.2627 58.0856 43.4399 58.2423C43.6171 58.399 43.7339 58.6128 43.7699 58.8467C43.788 58.9542 43.7819 59.0644 43.7521 59.1693C43.7222 59.2742 43.6693 59.3711 43.5973 59.453C43.5253 59.5349 43.4359 59.5997 43.3357 59.6427C43.2355 59.6857 43.127 59.7058 43.018 59.7016Z" fill="#00458B"/>
<path d="M43.5667 62.6485H26.6494C26.4556 62.6431 26.2699 62.5702 26.1243 62.4423C25.9787 62.3144 25.8824 62.1396 25.852 61.9482L25.8096 61.645C25.7954 61.5577 25.8005 61.4683 25.8246 61.3831C25.8487 61.2979 25.8911 61.2191 25.9489 61.152C26.0066 61.085 26.0784 61.0314 26.1591 60.9951C26.2398 60.9587 26.3274 60.9405 26.4159 60.9416H43.3363C43.5304 60.9472 43.7165 61.0205 43.8622 61.149C44.0079 61.2776 44.1039 61.453 44.1336 61.645L44.173 61.9482C44.1867 62.0353 44.1812 62.1244 44.1569 62.2092C44.1326 62.294 44.0901 62.3724 44.0324 62.4391C43.9747 62.5058 43.9031 62.5591 43.8227 62.5952C43.7422 62.6314 43.6549 62.6496 43.5667 62.6485Z" fill="#00458B"/>
<path d="M45.328 72.5594H19.8035C19.561 72.549 19.3289 72.4581 19.1439 72.3011C18.9589 72.1441 18.8314 71.9299 18.7818 71.6923C18.7556 71.588 18.7538 71.479 18.7767 71.3739C18.7996 71.2688 18.8465 71.1704 18.9137 71.0865C18.981 71.0025 19.0667 70.9352 19.1643 70.8899C19.2618 70.8446 19.3685 70.8224 19.4761 70.8252H45.0006C45.243 70.8356 45.4751 70.9265 45.6601 71.0835C45.8452 71.2405 45.9726 71.4548 46.0223 71.6923C46.0491 71.7967 46.0514 71.9059 46.0287 72.0112C46.0061 72.1166 45.9592 72.2153 45.8919 72.2994C45.8245 72.3835 45.7385 72.4508 45.6406 72.4959C45.5427 72.5411 45.4357 72.5628 45.328 72.5594Z" fill="#00458B"/>
<path d="M45.895 75.5366H20.3644C20.1215 75.5261 19.8891 75.4347 19.704 75.2771C19.519 75.1195 19.3918 74.9046 19.3427 74.6665C19.3159 74.5624 19.3137 74.4534 19.3361 74.3483C19.3586 74.2432 19.4052 74.1447 19.4722 74.0606C19.5392 73.9766 19.6248 73.9092 19.7223 73.8639C19.8198 73.8185 19.9265 73.7965 20.034 73.7994H45.5585C45.8011 73.8092 46.0334 73.8999 46.2186 74.0571C46.4037 74.2142 46.531 74.4287 46.5802 74.6665C46.6074 74.7703 46.6101 74.879 46.5882 74.9841C46.5664 75.0891 46.5204 75.1877 46.454 75.272C46.3876 75.3563 46.3026 75.4241 46.2056 75.47C46.1086 75.5159 46.0023 75.5387 45.895 75.5366Z" fill="#00458B"/>
<path d="M46.4588 78.5259H20.9343C20.6919 78.5155 20.4598 78.4247 20.2747 78.2676C20.0897 78.1106 19.9623 77.8964 19.9126 77.6588C19.8886 77.5553 19.8885 77.4477 19.9124 77.3442C19.9363 77.2406 19.9835 77.1439 20.0505 77.0614C20.1175 76.979 20.2025 76.9129 20.2989 76.8682C20.3953 76.8236 20.5007 76.8016 20.6069 76.8039H46.1344C46.3772 76.8149 46.6093 76.9064 46.7943 77.064C46.9793 77.2215 47.1066 77.4361 47.1561 77.674C47.1797 77.7775 47.1793 77.8851 47.155 77.9885C47.1307 78.0919 47.0831 78.1883 47.0158 78.2705C46.9486 78.3527 46.8634 78.4184 46.7669 78.4627C46.6704 78.5069 46.565 78.5286 46.4588 78.5259Z" fill="#00458B"/>
<path d="M47.1777 81.5153H30.2604C30.0618 81.5047 29.8721 81.4293 29.7204 81.3006C29.5688 81.1719 29.4634 80.9971 29.4206 80.8028L29.363 80.4996C29.3407 80.4141 29.3388 80.3245 29.3573 80.238C29.3758 80.1515 29.4143 80.0706 29.4697 80.0016C29.5251 79.9327 29.5958 79.8777 29.6763 79.841C29.7567 79.8043 29.8446 79.7869 29.933 79.7902H46.8503C47.048 79.8013 47.2367 79.8765 47.3877 80.0046C47.5387 80.1326 47.6438 80.3064 47.6871 80.4996L47.7477 80.8028C47.7699 80.8885 47.7718 80.9782 47.7533 81.0648C47.7347 81.1514 47.6963 81.2325 47.641 81.3017C47.5857 81.3708 47.515 81.4261 47.4346 81.4632C47.3542 81.5003 47.2662 81.5181 47.1777 81.5153Z" fill="#00458B"/>
<path d="M52.9016 28.0772H47.8143C46.8392 28.0764 45.9042 27.6887 45.2147 26.9992C44.5252 26.3097 44.1375 25.3748 44.1367 24.3997V18.897C44.1375 17.9219 44.5252 16.987 45.2147 16.2975C45.9042 15.608 46.8392 15.2203 47.8143 15.2195H52.9016C53.8767 15.2203 54.8116 15.608 55.5011 16.2975C56.1906 16.987 56.5783 17.9219 56.5791 18.897V24.4118C56.5751 25.3848 56.186 26.3166 55.4968 27.0035C54.8077 27.6904 53.8746 28.0764 52.9016 28.0772ZM47.8143 16.22C47.1077 16.2208 46.4304 16.5018 45.9308 17.0014C45.4312 17.501 45.1501 18.1784 45.1493 18.8849V24.3997C45.1501 25.1062 45.4312 25.7836 45.9308 26.2832C46.4304 26.7828 47.1077 27.0638 47.8143 27.0646H52.9016C53.6078 27.0638 54.2849 26.7827 54.784 26.283C55.2831 25.7833 55.5635 25.1059 55.5635 24.3997V18.897C55.5635 18.1908 55.2831 17.5134 54.784 17.0137C54.2849 16.514 53.6078 16.2329 52.9016 16.2321L47.8143 16.22Z" fill="#00458B"/>
<path d="M54.2386 47.0107H49.1664C48.2196 47.0116 47.309 46.647 46.6244 45.9929C45.9398 45.3389 45.5341 44.4458 45.4919 43.4999L45.2494 38.0973C45.2269 37.6007 45.3052 37.1048 45.4797 36.6394C45.6542 36.174 45.9213 35.7488 46.2647 35.3895C46.6081 35.0301 47.0208 34.7442 47.4779 34.5489C47.9349 34.3535 48.4269 34.2529 48.9239 34.253H54.0021C54.946 34.2568 55.8522 34.6239 56.5324 35.2783C57.2127 35.9326 57.6149 36.8238 57.6554 37.7668L57.901 43.1664C57.9235 43.6629 57.8452 44.1589 57.6707 44.6243C57.4962 45.0897 57.2291 45.5149 56.8857 45.8742C56.5422 46.2335 56.1295 46.5194 55.6725 46.7148C55.2154 46.9101 54.7235 47.0108 54.2265 47.0107H54.2386ZM48.9148 35.2686C48.5548 35.2682 48.1984 35.3409 47.8673 35.4822C47.5362 35.6235 47.2372 35.8305 46.9883 36.0906C46.7395 36.3508 46.546 36.6587 46.4196 36.9958C46.2932 37.3329 46.2365 37.6921 46.2529 38.0518L46.4985 43.4544C46.5282 44.1391 46.8215 44.7859 47.317 45.2594C47.8126 45.7329 48.472 45.9964 49.1573 45.995H54.2386C54.5986 45.9954 54.9549 45.9227 55.2861 45.7814C55.6172 45.6402 55.9162 45.4332 56.165 45.173C56.4139 44.9128 56.6073 44.6049 56.7338 44.2678C56.8602 43.9307 56.9169 43.5715 56.9005 43.2118L56.6549 37.8123C56.6245 37.127 56.3306 36.4799 55.8347 36.006C55.3387 35.5321 54.679 35.2679 53.993 35.2686H48.9148Z" fill="#00458B"/>
<path d="M50.7732 64.5222C49.8489 64.5227 48.9584 64.1747 48.2795 63.5475C47.6007 62.9203 47.1833 62.0601 47.1108 61.1387L46.6772 55.7513C46.6376 55.2558 46.6988 54.7574 46.857 54.2862C47.0152 53.815 47.2672 53.3808 47.5979 53.0096C47.9285 52.6385 48.3309 52.3382 48.7807 52.1268C49.2306 51.9154 49.7186 51.7973 50.2153 51.7796L55.2935 51.6038C56.2363 51.5776 57.1537 51.9116 57.8589 52.5379C58.5641 53.1643 59.0041 54.0358 59.0893 54.9751L59.5229 60.3626C59.562 60.858 59.5006 61.3561 59.3422 61.8272C59.1838 62.2982 58.9318 62.7322 58.6012 63.1033C58.2707 63.4743 57.8685 63.7747 57.4188 63.9862C56.9692 64.1977 56.4814 64.3161 55.9848 64.3342L50.9066 64.5101L50.7732 64.5222ZM55.4269 52.6164H55.3299L50.2517 52.7922C49.892 52.8054 49.5388 52.8913 49.2131 53.0445C48.8875 53.1978 48.5962 53.4154 48.3569 53.6842C48.1176 53.953 47.9351 54.2675 47.8205 54.6086C47.7058 54.9498 47.6614 55.3106 47.6899 55.6694L48.1234 61.0569C48.1805 61.7392 48.4972 62.3737 49.0083 62.8294C49.5193 63.2852 50.1858 63.5276 50.8702 63.5065L55.9484 63.3277C56.3081 63.3153 56.6615 63.2301 56.9873 63.0773C57.3131 62.9245 57.6046 62.7072 57.844 62.4385C58.0835 62.1699 58.266 61.8555 58.3805 61.5143C58.495 61.1731 58.5392 60.8123 58.5103 60.4535L58.0767 55.0661C58.0248 54.3991 57.723 53.7762 57.2318 53.3221C56.7405 52.8679 56.096 52.6159 55.4269 52.6164Z" fill="#00458B"/>
<path d="M54.7598 82.3763C53.8856 82.3763 53.0397 82.0657 52.3733 81.4998C51.7069 80.9339 51.2633 80.1496 51.1217 79.2869L50.2728 74.0359C50.189 73.5206 50.2158 72.9933 50.3516 72.4892C50.4874 71.9851 50.7289 71.5156 51.0602 71.1121C51.3914 70.7086 51.8048 70.3802 52.2728 70.1488C52.7408 69.9174 53.2527 69.7884 53.7745 69.7702L58.8072 69.5943C59.7006 69.5714 60.5723 69.871 61.2627 70.4384C61.9531 71.0057 62.4161 71.8029 62.5666 72.6837L63.4155 77.9347C63.4988 78.45 63.4716 78.9771 63.3357 79.481C63.1997 79.9849 62.9581 80.4541 62.627 80.8575C62.2958 81.2609 61.8826 81.5893 61.4149 81.8208C60.9471 82.0524 60.4354 82.1818 59.9138 82.2004L54.8781 82.3733L54.7598 82.3763ZM58.9437 70.607H58.8497L53.8169 70.7828C53.4398 70.7973 53.07 70.8917 52.7321 71.0598C52.3942 71.2279 52.0958 71.4658 51.8568 71.7579C51.6177 72.05 51.4434 72.3895 51.3455 72.754C51.2475 73.1185 51.2281 73.4996 51.2884 73.8722L52.1404 79.1232C52.2508 79.7616 52.5873 80.339 53.0882 80.7498C53.5892 81.1606 54.2213 81.3774 54.869 81.3606L59.9017 81.1848C60.2794 81.1721 60.6501 81.079 60.989 80.9117C61.3278 80.7445 61.6272 80.5069 61.867 80.2149C62.1069 79.9228 62.2817 79.583 62.3799 79.218C62.478 78.8531 62.4972 78.4714 62.4363 78.0985L61.5874 72.8444C61.4849 72.2179 61.1625 71.6485 60.6779 71.2384C60.1934 70.8283 59.5785 70.6044 58.9437 70.607Z" fill="#00458B"/>
<path d="M47.7682 2.8559H23.0896C22.0933 2.8559 21.2856 3.66353 21.2856 4.6598V7.47935C21.2856 8.47562 22.0933 9.28325 23.0896 9.28325H47.7682C48.7645 9.28325 49.5721 8.47562 49.5721 7.47935V4.6598C49.5721 3.66353 48.7645 2.8559 47.7682 2.8559Z" fill="#68E1FD"/>
<path d="M47.7682 2.8559H23.0896C22.0933 2.8559 21.2856 3.66353 21.2856 4.6598V7.47935C21.2856 8.47562 22.0933 9.28325 23.0896 9.28325H47.7682C48.7645 9.28325 49.5721 8.47562 49.5721 7.47935V4.6598C49.5721 3.66353 48.7645 2.8559 47.7682 2.8559Z" fill="url(#paint2_linear)"/>
<path d="M50.5579 25.7579L46.1133 21.3225C45.9719 21.1811 45.8598 21.0133 45.7833 20.8287C45.7068 20.644 45.6675 20.4461 45.6675 20.2462C45.6675 20.0463 45.7068 19.8484 45.7833 19.6637C45.8598 19.479 45.9719 19.3112 46.1133 19.1699C46.2546 19.0286 46.4224 18.9164 46.6071 18.8399C46.7918 18.7635 46.9897 18.7241 47.1896 18.7241C47.3894 18.7241 47.5874 18.7635 47.772 18.8399C47.9567 18.9164 48.1245 19.0286 48.2658 19.1699L50.3881 21.2921L57.5097 13.0548C57.7739 12.7493 58.1486 12.5612 58.5514 12.5319C58.9542 12.5026 59.3522 12.6345 59.6577 12.8987C59.9633 13.1628 60.1514 13.5375 60.1807 13.9403C60.21 14.3432 60.078 14.7411 59.8139 15.0467L50.5579 25.7579Z" fill="#E31E27"/>
<path d="M52.6525 44.2336L48.2109 39.792C48.0696 39.6507 47.9575 39.4829 47.881 39.2982C47.8045 39.1136 47.7651 38.9156 47.7651 38.7157C47.7651 38.5159 47.8045 38.3179 47.881 38.1333C47.9575 37.9486 48.0696 37.7808 48.2109 37.6395C48.3523 37.4981 48.5201 37.386 48.7047 37.3095C48.8894 37.233 49.0873 37.1937 49.2872 37.1937C49.4871 37.1937 49.685 37.233 49.8697 37.3095C50.0544 37.386 50.2222 37.4981 50.3635 37.6395L52.4857 39.7617L59.6074 31.5244C59.8715 31.2188 60.2462 31.0307 60.6491 31.0014C61.0519 30.9722 61.4498 31.1041 61.7554 31.3682C62.0609 31.6324 62.249 32.0071 62.2783 32.4099C62.3076 32.8127 62.1757 33.2107 61.9115 33.5163L52.6525 44.2336Z" fill="#E31E27"/>
<path d="M54.178 61.8512L49.7334 57.4005C49.448 57.1151 49.2876 56.7279 49.2876 56.3243C49.2876 55.9206 49.448 55.5334 49.7334 55.248C50.0189 54.9625 50.406 54.8022 50.8097 54.8022C51.2134 54.8022 51.6005 54.9625 51.886 55.248L54.0082 57.3702L61.1298 49.1329C61.2604 48.9818 61.4195 48.8579 61.598 48.7683C61.7764 48.6787 61.9708 48.6251 62.17 48.6106C62.3692 48.5961 62.5693 48.621 62.7588 48.6838C62.9484 48.7466 63.1237 48.8462 63.2748 48.9768C63.4259 49.1073 63.5498 49.2664 63.6394 49.4449C63.729 49.6234 63.7826 49.8177 63.7971 50.0169C63.8116 50.2161 63.7868 50.4162 63.7239 50.6057C63.6611 50.7953 63.5615 50.9706 63.431 51.1217L54.178 61.8512Z" fill="#E31E27"/>
<path d="M58.1251 79.5658L53.6835 75.1213C53.3985 74.8358 53.2385 74.4488 53.2388 74.0454C53.2391 73.642 53.3996 73.2553 53.685 72.9702C53.9705 72.6852 54.3575 72.5252 54.7609 72.5255C55.1643 72.5258 55.551 72.6863 55.8361 72.9717L57.9583 75.094L65.083 66.8597C65.3471 66.5541 65.7218 66.366 66.1246 66.3367C66.5275 66.3075 66.9254 66.4394 67.231 66.7035C67.5365 66.9677 67.7246 67.3424 67.7539 67.7452C67.7832 68.148 67.6513 68.546 67.3871 68.8515L58.1251 79.5658Z" fill="#E31E27"/>
<defs>
<linearGradient id="paint0_linear" x1="29.3328" y1="-33.6527" x2="39.6196" y2="130.539" gradientUnits="userSpaceOnUse">
<stop stop-color="white" stop-opacity="0"/>
<stop offset="0.14" stop-color="white" stop-opacity="0.22"/>
<stop offset="0.3" stop-color="white" stop-opacity="0.45"/>
<stop offset="0.45" stop-color="white" stop-opacity="0.65"/>
<stop offset="0.6" stop-color="white" stop-opacity="0.8"/>
<stop offset="0.73" stop-color="white" stop-opacity="0.91"/>
<stop offset="0.85" stop-color="white" stop-opacity="0.98"/>
<stop offset="0.94" stop-color="white"/>
</linearGradient>
<linearGradient id="paint1_linear" x1="3773.88" y1="35482.1" x2="42950.8" y2="9463.83" gradientUnits="userSpaceOnUse">
<stop stop-color="#010101" stop-opacity="0"/>
<stop offset="0.95" stop-color="#010101"/>
</linearGradient>
<linearGradient id="paint2_linear" x1="5698.09" y1="575.019" x2="5697.17" y2="377.107" gradientUnits="userSpaceOnUse">
<stop stop-color="white" stop-opacity="0"/>
<stop offset="0.14" stop-color="white" stop-opacity="0.22"/>
<stop offset="0.3" stop-color="white" stop-opacity="0.45"/>
<stop offset="0.45" stop-color="white" stop-opacity="0.65"/>
<stop offset="0.6" stop-color="white" stop-opacity="0.8"/>
<stop offset="0.73" stop-color="white" stop-opacity="0.91"/>
<stop offset="0.85" stop-color="white" stop-opacity="0.98"/>
<stop offset="0.94" stop-color="white"/>
</linearGradient>
</defs>
</svg>
