<svg width="53" height="75" viewBox="0 0 53 75" fill="none" xmlns="http://www.w3.org/2000/svg">
<path d="M52.5032 7.56352V69.101C52.5037 69.8752 52.3517 70.6419 52.0559 71.3574C51.7601 72.0728 51.3263 72.723 50.7792 73.2708C50.2321 73.8186 49.5825 74.2533 48.8674 74.55C48.1523 74.8468 47.3858 74.9998 46.6116 75.0003H7.74663C6.97235 75 6.20571 74.8472 5.49052 74.5506C4.77533 74.2539 4.1256 73.8193 3.57846 73.2714C3.03132 72.7235 2.5975 72.0733 2.30177 71.3577C2.00605 70.6421 1.85423 69.8753 1.85498 69.101V7.56352C1.85498 6.00096 2.47571 4.50239 3.5806 3.3975C4.6855 2.2926 6.18406 1.67188 7.74663 1.67188H46.6116C48.1739 1.67289 49.6718 2.29394 50.7765 3.39862C51.8812 4.50329 52.5022 6.00127 52.5032 7.56352Z" fill="#00458B"/>
<path d="M47.267 6.91943H6.13818V68.5524H47.267V6.91943Z" fill="url(#paint0_linear)"/>
<path d="M47.8645 6.43213V67.8875H11.888C11.888 67.8875 6.9019 66.8387 6.63827 58.4349C6.37464 50.0311 6.90191 6.43213 6.90191 6.43213H47.8645Z" fill="white"/>
<path d="M14.9412 67.8284C14.9166 67.8469 14.893 67.8667 14.8705 67.8877H11.8884C11.8884 67.8877 6.90231 66.8389 6.63867 58.4351C6.63867 58.4351 8.43253 64.0898 14.5802 62.8805C14.5802 62.8805 11.3229 68.1895 14.9412 67.8284Z" fill="white"/>
<path d="M14.9412 67.8284C14.9166 67.8469 14.893 67.8667 14.8705 67.8877H11.8884C11.8884 67.8877 6.90231 66.8389 6.63867 58.4351C6.63867 58.4351 8.43253 64.0898 14.5802 62.8805C14.5802 62.8805 11.3229 68.1895 14.9412 67.8284Z" fill="url(#paint1_linear)"/>
<path d="M42.7431 19.4019H13.4339C13.1343 19.4019 12.8914 19.6448 12.8914 19.9444C12.8914 20.2441 13.1343 20.487 13.4339 20.487H42.7431C43.0428 20.487 43.2857 20.2441 43.2857 19.9444C43.2857 19.6448 43.0428 19.4019 42.7431 19.4019Z" fill="#E31E27"/>
<path d="M42.7431 22.6592H13.4339C13.1343 22.6592 12.8914 22.9021 12.8914 23.2017C12.8914 23.5014 13.1343 23.7443 13.4339 23.7443H42.7431C43.0428 23.7443 43.2857 23.5014 43.2857 23.2017C43.2857 22.9021 43.0428 22.6592 42.7431 22.6592Z" fill="#E31E27"/>
<path d="M42.7431 25.9146H13.4339C13.1343 25.9146 12.8914 26.1575 12.8914 26.4571C12.8914 26.7567 13.1343 26.9997 13.4339 26.9997H42.7431C43.0428 26.9997 43.2857 26.7567 43.2857 26.4571C43.2857 26.1575 43.0428 25.9146 42.7431 25.9146Z" fill="#E31E27"/>
<path d="M42.7431 29.1719H13.4339C13.1343 29.1719 12.8914 29.4148 12.8914 29.7144C12.8914 30.0141 13.1343 30.257 13.4339 30.257H42.7431C43.0428 30.257 43.2857 30.0141 43.2857 29.7144C43.2857 29.4148 43.0428 29.1719 42.7431 29.1719Z" fill="#E31E27"/>
<path d="M42.7431 32.4287H13.4339C13.1343 32.4287 12.8914 32.6716 12.8914 32.9713C12.8914 33.2709 13.1343 33.5138 13.4339 33.5138H42.7431C43.0428 33.5138 43.2857 33.2709 43.2857 32.9713C43.2857 32.6716 43.0428 32.4287 42.7431 32.4287Z" fill="#E31E27"/>
<path d="M36.2724 3.95265V5.72549C36.2729 6.23867 36.1722 6.74692 35.976 7.22113C35.7799 7.69535 35.4921 8.12622 35.1293 8.4891C34.7664 8.85197 34.3355 9.13972 33.8613 9.33588C33.3871 9.53203 32.8788 9.63274 32.3656 9.63224H21.912C21.3985 9.63274 20.89 9.53207 20.4155 9.33599C19.9409 9.1399 19.5097 8.85224 19.1464 8.48944C18.783 8.12664 18.4947 7.69581 18.298 7.22156C18.1012 6.74731 17.9998 6.23894 17.9995 5.72549V3.95265C18.0005 2.91583 18.4132 1.92185 19.1469 1.18925C19.8806 0.456649 20.8752 0.0453919 21.912 0.0458989H32.3656C32.8788 0.0456478 33.3869 0.146527 33.861 0.342771C34.3351 0.539014 34.7659 0.826774 35.1287 1.1896C35.4915 1.55242 35.7793 1.9832 35.9755 2.4573C36.1718 2.9314 36.2726 3.43953 36.2724 3.95265Z" fill="#00458B"/>
<path d="M18.0283 3.90675V5.6815C18.0268 6.19542 18.1268 6.70457 18.3225 7.17978C18.5181 7.65498 18.8057 8.08689 19.1687 8.45073C19.5316 8.81456 19.9628 9.10318 20.4375 9.30002C20.9123 9.49686 21.4212 9.59805 21.9351 9.5978H22.7203C22.2063 9.59805 21.6974 9.49686 21.2227 9.30002C20.748 9.10318 20.3168 8.81456 19.9538 8.45073C19.5909 8.08689 19.3033 7.65498 19.1076 7.17978C18.912 6.70457 18.812 6.19542 18.8135 5.6815V3.90675C18.8133 3.39364 18.9141 2.88551 19.1104 2.4114C19.3066 1.9373 19.5944 1.50653 19.9572 1.1437C20.32 0.780876 20.7508 0.493117 21.2249 0.296873C21.699 0.10063 22.2071 -0.000250627 22.7203 4.67586e-07H21.9351C21.422 -0.000250627 20.9138 0.10063 20.4397 0.296873C19.9656 0.493117 19.5349 0.780876 19.172 1.1437C18.8092 1.50653 18.5215 1.9373 18.3252 2.4114C18.129 2.88551 18.0281 3.39364 18.0283 3.90675Z" fill="url(#paint2_linear)"/>
<path d="M36.2726 3.95265V5.72549C36.2731 6.23867 36.1724 6.74692 35.9762 7.22113C35.7801 7.69535 35.4923 8.12622 35.1294 8.4891C34.7666 8.85197 34.3357 9.13972 33.8615 9.33588C33.3873 9.53203 32.879 9.63274 32.3658 9.63224H22.6954C22.182 9.63274 21.6735 9.53207 21.1989 9.33599C20.7244 9.1399 20.2931 8.85224 19.9298 8.48944C19.5665 8.12664 19.2782 7.69581 19.0814 7.22156C18.8846 6.74731 18.7832 6.23894 18.783 5.72549V3.95265C18.784 2.91583 19.1967 1.92185 19.9304 1.18925C20.664 0.456649 21.6586 0.0453919 22.6954 0.0458989H32.3658C32.8789 0.0456478 33.3871 0.146527 33.8612 0.342771C34.3353 0.539014 34.7661 0.826774 35.1289 1.1896C35.4917 1.55242 35.7795 1.9832 35.9757 2.4573C36.172 2.9314 36.2728 3.43953 36.2726 3.95265Z" fill="url(#paint3_linear)"/>
<path d="M1.91612 37.5528C1.90668 37.6645 1.91311 37.7771 1.93523 37.8871C1.56843 37.6425 1.15197 36.8459 0.788992 35.8888C0.565476 35.3023 0 32.4692 0 31.8407C0 30.3945 0.995314 29.1852 2.04221 28.146C1.80723 30.15 2.23134 34.4751 1.91612 37.5528Z" fill="url(#paint4_linear)"/>
<defs>
<linearGradient id="paint0_linear" x1="10.9887" y1="92.6463" x2="43.9162" y2="-22.4184" gradientUnits="userSpaceOnUse">
<stop stop-color="#010101" stop-opacity="0"/>
<stop offset="0.47" stop-color="#010101" stop-opacity="0.47"/>
<stop offset="0.95" stop-color="#010101"/>
</linearGradient>
<linearGradient id="paint1_linear" x1="1832.2" y1="3322.33" x2="901.718" y2="4331.91" gradientUnits="userSpaceOnUse">
<stop stop-color="#010101" stop-opacity="0"/>
<stop offset="0.95" stop-color="#010101"/>
</linearGradient>
<linearGradient id="paint2_linear" x1="1045.8" y1="546.211" x2="1517.46" y2="566.981" gradientUnits="userSpaceOnUse">
<stop stop-color="#010101" stop-opacity="0"/>
<stop offset="0.47" stop-color="#010101" stop-opacity="0.47"/>
<stop offset="0.95" stop-color="#010101"/>
</linearGradient>
<linearGradient id="paint3_linear" x1="28.1496" y1="-5.09878" x2="27.0683" y2="12.1845" gradientUnits="userSpaceOnUse">
<stop stop-color="white" stop-opacity="0"/>
<stop offset="0.95" stop-color="white"/>
</linearGradient>
<linearGradient id="paint4_linear" x1="267.08" y1="1948.79" x2="824.835" y2="1999.95" gradientUnits="userSpaceOnUse">
<stop stop-color="#010101" stop-opacity="0"/>
<stop offset="0.95" stop-color="#010101"/>
</linearGradient>
</defs>
</svg>
