<svg width="53" height="75" viewBox="0 0 53 75" fill="none" xmlns="http://www.w3.org/2000/svg">
<path d="M45.4379 0H3.63358C1.62681 0 0 1.62681 0 3.63358V71.3664C0 73.3732 1.62681 75 3.63358 75H45.4379C47.4447 75 49.0715 73.3732 49.0715 71.3664V3.63358C49.0715 1.62681 47.4447 0 45.4379 0Z" fill="#00458B"/>
<path d="M46.832 0H5.02762C3.02085 0 1.39404 1.62681 1.39404 3.63358V71.3664C1.39404 73.3732 3.02085 75 5.02762 75H46.832C48.8388 75 50.4656 73.3732 50.4656 71.3664V3.63358C50.4656 1.62681 48.8388 0 46.832 0Z" fill="#00458B"/>
<path d="M46.832 0H5.02762C3.02085 0 1.39404 1.62681 1.39404 3.63358V71.3664C1.39404 73.3732 3.02085 75 5.02762 75H46.832C48.8388 75 50.4656 73.3732 50.4656 71.3664V3.63358C50.4656 1.62681 48.8388 0 46.832 0Z" fill="url(#paint0_linear)"/>
<path d="M5.14331 43.1435L6.42802 3.64258L43.571 4.42705C43.571 4.42705 38.7141 45.4287 42.1431 56.0112C45.572 66.5936 46.1427 70.5637 46.1427 70.5637L6.00055 71.7006L5.14331 43.1435Z" fill="url(#paint1_linear)"/>
<path d="M52.8213 67.0711L12.2152 67.5008C12.2152 67.5008 8.04047 43.2459 7.31512 35.1147C6.60341 27.2813 6.4397 3.64258 6.4397 3.64258H45.2153C45.2153 3.64258 45.3131 26.5514 45.9998 34.1415C46.7592 42.516 52.8213 67.0711 52.8213 67.0711Z" fill="white"/>
<path d="M30.0009 11.6416H10.8598C10.5044 11.6416 10.2163 11.9292 10.2163 12.284C10.2163 12.6387 10.5044 12.9263 10.8598 12.9263H30.0009C30.3563 12.9263 30.6444 12.6387 30.6444 12.284C30.6444 11.9292 30.3563 11.6416 30.0009 11.6416Z" fill="#00458B"/>
<path d="M30.0009 13.8564H10.8598C10.5044 13.8564 10.2163 14.144 10.2163 14.4988C10.2163 14.8536 10.5044 15.1412 10.8598 15.1412H30.0009C30.3563 15.1412 30.6444 14.8536 30.6444 14.4988C30.6444 14.144 30.3563 13.8564 30.0009 13.8564Z" fill="#00458B"/>
<path d="M30.0009 16.0713H10.8598C10.5044 16.0713 10.2163 16.3589 10.2163 16.7136C10.2163 17.0684 10.5044 17.356 10.8598 17.356H30.0009C30.3563 17.356 30.6444 17.0684 30.6444 16.7136C30.6444 16.3589 30.3563 16.0713 30.0009 16.0713Z" fill="#00458B"/>
<path d="M30.1169 18.2861H17.4289C17.1375 18.2861 16.9014 18.5223 16.9014 18.8137V19.0433C16.9014 19.3347 17.1375 19.5708 17.4289 19.5708H30.1169C30.4082 19.5708 30.6444 19.3347 30.6444 19.0433V18.8137C30.6444 18.5223 30.4082 18.2861 30.1169 18.2861Z" fill="#00458B"/>
<path d="M30.2148 25.6782H11.0737C10.7183 25.6782 10.4302 25.9658 10.4302 26.3206C10.4302 26.6753 10.7183 26.9629 11.0737 26.9629H30.2148C30.5702 26.9629 30.8583 26.6753 30.8583 26.3206C30.8583 25.9658 30.5702 25.6782 30.2148 25.6782Z" fill="#00458B"/>
<path d="M30.2148 27.8931H11.0737C10.7183 27.8931 10.4302 28.1807 10.4302 28.5354C10.4302 28.8902 10.7183 29.1778 11.0737 29.1778H30.2148C30.5702 29.1778 30.8583 28.8902 30.8583 28.5354C30.8583 28.1807 30.5702 27.8931 30.2148 27.8931Z" fill="#00458B"/>
<path d="M30.2148 30.1055H11.0737C10.7183 30.1055 10.4302 30.3931 10.4302 30.7478C10.4302 31.1026 10.7183 31.3902 11.0737 31.3902H30.2148C30.5702 31.3902 30.8583 31.1026 30.8583 30.7478C30.8583 30.3931 30.5702 30.1055 30.2148 30.1055Z" fill="#00458B"/>
<path d="M30.3305 32.3203H17.6425C17.3512 32.3203 17.115 32.5565 17.115 32.8478V33.0775C17.115 33.3688 17.3512 33.605 17.6425 33.605H30.3305C30.6218 33.605 30.858 33.3688 30.858 33.0775V32.8478C30.858 32.5565 30.6218 32.3203 30.3305 32.3203Z" fill="#00458B"/>
<path d="M31.6722 40.3563H12.5289C12.3515 40.3509 12.1816 40.2836 12.0487 40.1661C11.9158 40.0485 11.8283 39.8881 11.8012 39.7128C11.7874 39.6326 11.7915 39.5504 11.8133 39.4721C11.8352 39.3938 11.8742 39.3213 11.9275 39.2599C11.9809 39.1985 12.0472 39.1497 12.1217 39.1172C12.1962 39.0846 12.2771 39.069 12.3583 39.0716H31.4994C31.677 39.0759 31.8474 39.1425 31.9808 39.2597C32.1142 39.3769 32.2022 39.5373 32.2293 39.7128C32.2432 39.793 32.239 39.8753 32.2172 39.9538C32.1953 40.0322 32.1564 40.1048 32.1031 40.1664C32.0498 40.2279 31.9835 40.2769 31.909 40.3097C31.8345 40.3426 31.7536 40.3585 31.6722 40.3563Z" fill="#00458B"/>
<path d="M31.9679 42.566H12.8246C12.6447 42.5618 12.4721 42.494 12.3376 42.3744C12.2031 42.2549 12.1154 42.0915 12.0901 41.9134C12.0767 41.8333 12.0811 41.7513 12.1031 41.6731C12.1251 41.595 12.1641 41.5226 12.2174 41.4614C12.2706 41.4001 12.3368 41.3513 12.4111 41.3186C12.4854 41.2859 12.566 41.27 12.6472 41.2722H31.7906C31.9676 41.2774 32.1372 41.3444 32.2701 41.4615C32.4029 41.5786 32.4907 41.7384 32.5182 41.9134C32.5334 41.9937 32.5305 42.0764 32.5098 42.1555C32.489 42.2346 32.4509 42.308 32.3982 42.3705C32.3455 42.433 32.2796 42.483 32.2051 42.5168C32.1307 42.5506 32.0497 42.5674 31.9679 42.566Z" fill="#00458B"/>
<path d="M32.2633 44.7761H13.1199C12.9429 44.7708 12.7733 44.7039 12.6404 44.5868C12.5075 44.4697 12.4198 44.3099 12.3923 44.1349C12.3784 44.0547 12.3826 43.9724 12.4044 43.8939C12.4263 43.8155 12.4652 43.7429 12.5185 43.6813C12.5718 43.6198 12.6381 43.5708 12.7126 43.538C12.7871 43.5051 12.868 43.4892 12.9494 43.4914H32.0995C32.2769 43.4968 32.4468 43.5641 32.5797 43.6816C32.7126 43.7992 32.8002 43.9595 32.8272 44.1349C32.8408 44.2156 32.8362 44.2982 32.8138 44.3769C32.7914 44.4556 32.7518 44.5282 32.6978 44.5897C32.6437 44.6511 32.5767 44.6997 32.5016 44.7319C32.4264 44.7642 32.345 44.7793 32.2633 44.7761Z" fill="#00458B"/>
<path d="M32.6752 46.9863H19.9873C19.842 46.9822 19.7027 46.9275 19.5935 46.8316C19.4842 46.7357 19.412 46.6046 19.3893 46.461L19.3574 46.2336C19.3468 46.1681 19.3506 46.1011 19.3687 46.0372C19.3867 45.9733 19.4185 45.9142 19.4619 45.8639C19.5052 45.8136 19.559 45.7734 19.6196 45.7462C19.6801 45.7189 19.7458 45.7052 19.8122 45.7061H32.5024C32.6481 45.7102 32.7876 45.7653 32.8969 45.8616C33.0062 45.958 33.0782 46.0896 33.1005 46.2336L33.13 46.461C33.1403 46.5264 33.1361 46.5932 33.1179 46.6567C33.0997 46.7203 33.0679 46.7792 33.0246 46.8292C32.9813 46.8792 32.9276 46.9192 32.8672 46.9463C32.8069 46.9734 32.7414 46.9871 32.6752 46.9863Z" fill="#00458B"/>
<path d="M33.9962 54.4199H14.8529C14.671 54.4122 14.4969 54.344 14.3582 54.2262C14.2194 54.1085 14.1238 53.9478 14.0866 53.7696C14.0669 53.6914 14.0656 53.6097 14.0828 53.5308C14.0999 53.452 14.1351 53.3782 14.1855 53.3152C14.236 53.2523 14.3003 53.2018 14.3734 53.1678C14.4466 53.1338 14.5266 53.1172 14.6073 53.1193H33.7507C33.9325 53.1271 34.1066 53.1953 34.2454 53.313C34.3841 53.4308 34.4797 53.5915 34.5169 53.7696C34.5371 53.8479 34.5388 53.9298 34.5218 54.0088C34.5048 54.0879 34.4697 54.1619 34.4192 54.225C34.3686 54.2881 34.3041 54.3385 34.2307 54.3724C34.1573 54.4062 34.077 54.4225 33.9962 54.4199Z" fill="#00458B"/>
<path d="M34.4214 56.6527H15.2734C15.0913 56.6448 14.917 56.5763 14.7782 56.4581C14.6393 56.3399 14.544 56.1787 14.5072 56.0001C14.4871 55.922 14.4854 55.8403 14.5022 55.7615C14.5191 55.6826 14.554 55.6088 14.6043 55.5457C14.6545 55.4827 14.7188 55.4322 14.7919 55.3982C14.865 55.3642 14.945 55.3476 15.0256 55.3498H34.169C34.3509 55.3572 34.5252 55.4252 34.6641 55.5431C34.8029 55.6609 34.8984 55.8218 34.9352 56.0001C34.9556 56.078 34.9577 56.1595 34.9413 56.2383C34.9249 56.3171 34.8904 56.391 34.8406 56.4542C34.7908 56.5175 34.7271 56.5683 34.6543 56.6027C34.5816 56.6372 34.5018 56.6543 34.4214 56.6527Z" fill="#00458B"/>
<path d="M34.8444 58.8942H15.701C15.5191 58.8864 15.3451 58.8183 15.2063 58.7005C15.0675 58.5827 14.972 58.422 14.9347 58.2439C14.9167 58.1663 14.9166 58.0855 14.9345 58.0079C14.9525 57.9302 14.9879 57.8577 15.0381 57.7958C15.0884 57.734 15.1521 57.6844 15.2244 57.6509C15.2967 57.6174 15.3757 57.6009 15.4554 57.6027H34.6011C34.7831 57.6109 34.9572 57.6796 35.096 57.7977C35.2347 57.9159 35.3302 58.0768 35.3673 58.2552C35.385 58.3329 35.3847 58.4136 35.3665 58.4911C35.3483 58.5687 35.3126 58.641 35.2621 58.7026C35.2117 58.7643 35.1478 58.8136 35.0754 58.8468C35.003 58.88 34.924 58.8962 34.8444 58.8942Z" fill="#00458B"/>
<path d="M35.3831 61.1369H22.6951C22.5461 61.1289 22.4038 61.0724 22.2901 60.9759C22.1763 60.8794 22.0973 60.7482 22.0652 60.6025L22.022 60.3751C22.0053 60.311 22.0038 60.2438 22.0177 60.1789C22.0316 60.1141 22.0605 60.0534 22.102 60.0017C22.1436 59.95 22.1966 59.9087 22.257 59.8812C22.3173 59.8536 22.3832 59.8406 22.4495 59.8431H35.1375C35.2857 59.8514 35.4273 59.9078 35.5405 60.0038C35.6538 60.0999 35.7326 60.2302 35.7651 60.3751L35.8105 60.6025C35.8272 60.6668 35.8286 60.7341 35.8147 60.7991C35.8008 60.864 35.772 60.9248 35.7305 60.9767C35.689 61.0285 35.636 61.07 35.5757 61.0978C35.5154 61.1256 35.4494 61.139 35.3831 61.1369Z" fill="#00458B"/>
<path d="M39.6762 21.0584H35.8607C35.1294 21.0577 34.4282 20.767 33.911 20.2498C33.3939 19.7327 33.1031 19.0315 33.1025 18.3002V14.1732C33.1031 13.4419 33.3939 12.7407 33.911 12.2236C34.4282 11.7064 35.1294 11.4156 35.8607 11.415H39.6762C40.4075 11.4156 41.1087 11.7064 41.6258 12.2236C42.143 12.7407 42.4337 13.4419 42.4343 14.1732V18.3093C42.4313 19.039 42.1395 19.7379 41.6226 20.2531C41.1058 20.7682 40.4059 21.0578 39.6762 21.0584ZM35.8607 12.1654C35.3308 12.166 34.8228 12.3768 34.4481 12.7515C34.0734 13.1262 33.8626 13.6342 33.862 14.1641V18.3002C33.8626 18.8301 34.0734 19.3381 34.4481 19.7128C34.8228 20.0875 35.3308 20.2983 35.8607 20.2989H39.6762C40.2059 20.2983 40.7137 20.0874 41.088 19.7127C41.4623 19.3379 41.6726 18.8299 41.6726 18.3002V14.1732C41.6726 13.6435 41.4623 13.1355 41.088 12.7607C40.7137 12.3859 40.2059 12.1751 39.6762 12.1745L35.8607 12.1654Z" fill="#00458B"/>
<path d="M40.6791 35.2577H36.875C36.1648 35.2584 35.4818 34.985 34.9684 34.4944C34.455 34.0039 34.1507 33.334 34.1191 32.6246L33.9372 28.5727C33.9203 28.2003 33.979 27.8283 34.1099 27.4793C34.2408 27.1302 34.4411 26.8113 34.6986 26.5418C34.9562 26.2723 35.2658 26.0579 35.6085 25.9114C35.9513 25.7649 36.3203 25.6894 36.693 25.6895H40.5017C41.2096 25.6923 41.8892 25.9677 42.3995 26.4584C42.9097 26.9492 43.2113 27.6176 43.2417 28.3248L43.4259 32.3745C43.4428 32.7469 43.384 33.1189 43.2531 33.4679C43.1222 33.817 42.922 34.1359 42.6644 34.4054C42.4068 34.6748 42.0973 34.8893 41.7545 35.0358C41.4117 35.1823 41.0428 35.2578 40.67 35.2577H40.6791ZM36.6862 26.4512C36.4162 26.4509 36.149 26.5054 35.9006 26.6114C35.6523 26.7173 35.428 26.8726 35.2414 27.0677C35.0548 27.2628 34.9097 27.4938 34.8148 27.7466C34.72 27.9994 34.6775 28.2688 34.6898 28.5386L34.874 32.5905C34.8963 33.1041 35.1162 33.5891 35.4879 33.9443C35.8595 34.2994 36.3541 34.4971 36.8681 34.496H40.6791C40.9491 34.4963 41.2163 34.4418 41.4647 34.3358C41.713 34.2298 41.9373 34.0746 42.1239 33.8795C42.3105 33.6843 42.4556 33.4534 42.5504 33.2006C42.6452 32.9478 42.6878 32.6783 42.6755 32.4086L42.4913 28.3589C42.4685 27.845 42.2481 27.3597 41.8761 27.0042C41.5042 26.6488 41.0094 26.4507 40.4949 26.4512H36.6862Z" fill="#00458B"/>
<path d="M38.0798 48.392C37.3866 48.3924 36.7187 48.1314 36.2095 47.661C35.7004 47.1906 35.3873 46.5455 35.333 45.8544L35.0078 41.8138C34.9781 41.4422 35.024 41.0685 35.1426 40.7151C35.2613 40.3617 35.4503 40.036 35.6983 39.7576C35.9463 39.4793 36.248 39.254 36.5854 39.0955C36.9228 38.9369 37.2888 38.8484 37.6614 38.8351L41.47 38.7032C42.1771 38.6836 42.8652 38.9341 43.3941 39.4038C43.9229 39.8736 44.2529 40.5272 44.3169 41.2317L44.642 45.2723C44.6714 45.6438 44.6253 46.0175 44.5065 46.3707C44.3877 46.724 44.1987 47.0496 43.9508 47.3278C43.7029 47.6061 43.4012 47.8314 43.064 47.99C42.7268 48.1487 42.3609 48.2375 41.9885 48.251L38.1798 48.3829L38.0798 48.392ZM41.5701 39.4627H41.4973L37.6887 39.5946C37.4189 39.6045 37.1539 39.6688 36.9097 39.7838C36.6655 39.8988 36.4471 40.062 36.2676 40.2635C36.0881 40.4651 35.9512 40.701 35.8652 40.9568C35.7792 41.2127 35.7459 41.4833 35.7673 41.7524L36.0924 45.793C36.1353 46.3048 36.3728 46.7806 36.7561 47.1225C37.1394 47.4643 37.6392 47.646 38.1525 47.6303L41.9612 47.4961C42.2309 47.4868 42.496 47.423 42.7404 47.3084C42.9847 47.1937 43.2033 47.0308 43.3829 46.8293C43.5625 46.6278 43.6994 46.392 43.7853 46.1361C43.8711 45.8802 43.9042 45.6096 43.8826 45.3405L43.5574 41.2999C43.5185 40.7997 43.2921 40.3326 42.9237 39.9919C42.5553 39.6513 42.0718 39.4623 41.5701 39.4627Z" fill="#00458B"/>
<path d="M41.07 61.7822C40.4143 61.7822 39.7799 61.5493 39.2801 61.1248C38.7803 60.7004 38.4476 60.1122 38.3414 59.4652L37.7047 55.5269C37.6419 55.1404 37.662 54.745 37.7638 54.3669C37.8656 53.9888 38.0468 53.6367 38.2952 53.3341C38.5437 53.0314 38.8537 52.7851 39.2047 52.6116C39.5557 52.4381 39.9397 52.3413 40.331 52.3276L44.1055 52.1957C44.7756 52.1785 45.4293 52.4032 45.9472 52.8288C46.465 53.2543 46.8122 53.8521 46.9251 54.5128L47.5618 58.4511C47.6243 58.8375 47.6038 59.2328 47.5019 59.6107C47.3999 59.9887 47.2187 60.3406 46.9703 60.6431C46.722 60.9457 46.4121 61.192 46.0613 61.3656C45.7104 61.5393 45.3267 61.6363 44.9355 61.6503L41.1587 61.7799L41.07 61.7822ZM44.2079 52.9552H44.1374L40.3628 53.0871C40.08 53.0979 39.8026 53.1687 39.5492 53.2948C39.2958 53.4209 39.072 53.5994 38.8927 53.8184C38.7134 54.0375 38.5827 54.2921 38.5092 54.5655C38.4357 54.8388 38.4212 55.1247 38.4665 55.4041L39.1054 59.3424C39.1882 59.8212 39.4406 60.2542 39.8163 60.5623C40.192 60.8704 40.6661 61.033 41.1518 61.0205L44.9264 60.8886C45.2097 60.8791 45.4877 60.8092 45.7418 60.6838C45.996 60.5584 46.2205 60.3802 46.4004 60.1612C46.5803 59.9421 46.7114 59.6872 46.785 59.4135C46.8586 59.1398 46.8731 58.8536 46.8273 58.5738L46.1907 54.6333C46.1138 54.1634 45.872 53.7363 45.5086 53.4288C45.1452 53.1212 44.684 52.9533 44.2079 52.9552Z" fill="#00458B"/>
<path d="M35.8263 2.14209H17.3173C16.5701 2.14209 15.9644 2.74782 15.9644 3.49502V5.60968C15.9644 6.35688 16.5701 6.96261 17.3173 6.96261H35.8263C36.5735 6.96261 37.1792 6.35688 37.1792 5.60968V3.49502C37.1792 2.74782 36.5735 2.14209 35.8263 2.14209Z" fill="#68E1FD"/>
<path d="M35.8263 2.14209H17.3173C16.5701 2.14209 15.9644 2.74782 15.9644 3.49502V5.60968C15.9644 6.35688 16.5701 6.96261 17.3173 6.96261H35.8263C36.5735 6.96261 37.1792 6.35688 37.1792 5.60968V3.49502C37.1792 2.74782 36.5735 2.14209 35.8263 2.14209Z" fill="url(#paint2_linear)"/>
<path d="M37.9183 19.3186L34.5848 15.9919C34.4788 15.8859 34.3948 15.7601 34.3374 15.6216C34.28 15.4831 34.2505 15.3346 34.2505 15.1847C34.2505 15.0348 34.28 14.8864 34.3374 14.7479C34.3948 14.6094 34.4788 14.4835 34.5848 14.3775C34.6908 14.2715 34.8167 14.1874 34.9552 14.1301C35.0937 14.0727 35.2421 14.0432 35.3921 14.0432C35.542 14.0432 35.6904 14.0727 35.8289 14.1301C35.9674 14.1874 36.0933 14.2715 36.1993 14.3775L37.7909 15.9692L43.1322 9.79121C43.3303 9.56204 43.6113 9.42096 43.9134 9.399C44.2155 9.37704 44.514 9.476 44.7432 9.6741C44.9723 9.87221 45.1134 10.1532 45.1354 10.4554C45.1573 10.7575 45.0584 11.056 44.8603 11.2851L37.9183 19.3186Z" fill="#E31E27"/>
<path d="M39.4895 33.1752L36.1583 29.844C36.0523 29.738 35.9682 29.6121 35.9109 29.4736C35.8535 29.3351 35.824 29.1867 35.824 29.0368C35.824 28.8869 35.8535 28.7384 35.9109 28.5999C35.9682 28.4614 36.0523 28.3356 36.1583 28.2296C36.2643 28.1236 36.3902 28.0395 36.5287 27.9821C36.6672 27.9247 36.8156 27.8952 36.9655 27.8952C37.1155 27.8952 37.2639 27.9247 37.4024 27.9821C37.5409 28.0395 37.6667 28.1236 37.7727 28.2296L39.3644 29.8213L44.7057 23.6433C44.9038 23.4141 45.1848 23.273 45.4869 23.2511C45.789 23.2291 46.0875 23.328 46.3167 23.5262C46.5458 23.7243 46.6869 24.0053 46.7089 24.3074C46.7308 24.6095 46.6319 24.908 46.4338 25.1372L39.4895 33.1752Z" fill="#E31E27"/>
<path d="M40.6336 46.3885L37.3002 43.0506C37.0861 42.8365 36.9658 42.5461 36.9658 42.2433C36.9658 41.9406 37.0861 41.6502 37.3002 41.4361C37.5143 41.222 37.8046 41.1018 38.1074 41.1018C38.4102 41.1018 38.7005 41.222 38.9146 41.4361L40.5063 43.0278L45.8475 36.8498C45.9454 36.7365 46.0648 36.6436 46.1986 36.5764C46.3325 36.5092 46.4782 36.469 46.6276 36.4581C46.777 36.4472 46.9271 36.4659 47.0692 36.513C47.2114 36.5601 47.3429 36.6348 47.4562 36.7327C47.5696 36.8307 47.6625 36.95 47.7297 37.0838C47.7969 37.2177 47.8371 37.3634 47.848 37.5128C47.8588 37.6622 47.8402 37.8123 47.7931 37.9545C47.7459 38.0966 47.6713 38.2281 47.5733 38.3415L40.6336 46.3885Z" fill="#E31E27"/>
<path d="M43.5939 59.6743L40.2628 56.3409C40.049 56.1268 39.929 55.8366 39.9292 55.534C39.9294 55.2315 40.0498 54.9414 40.2639 54.7276C40.478 54.5138 40.7682 54.3939 41.0708 54.3941C41.3733 54.3943 41.6634 54.5147 41.8772 54.7288L43.4689 56.3204L48.8124 50.1447C49.0105 49.9156 49.2915 49.7745 49.5936 49.7525C49.8957 49.7306 50.1942 49.8295 50.4234 50.0276C50.6525 50.2257 50.7936 50.5067 50.8156 50.8089C50.8375 51.111 50.7386 51.4095 50.5405 51.6386L43.5939 59.6743Z" fill="#E31E27"/>
<defs>
<linearGradient id="paint0_linear" x1="21.9995" y1="-25.2395" x2="29.7146" y2="97.9043" gradientUnits="userSpaceOnUse">
<stop stop-color="white" stop-opacity="0"/>
<stop offset="0.14" stop-color="white" stop-opacity="0.22"/>
<stop offset="0.3" stop-color="white" stop-opacity="0.45"/>
<stop offset="0.45" stop-color="white" stop-opacity="0.65"/>
<stop offset="0.6" stop-color="white" stop-opacity="0.8"/>
<stop offset="0.73" stop-color="white" stop-opacity="0.91"/>
<stop offset="0.85" stop-color="white" stop-opacity="0.98"/>
<stop offset="0.94" stop-color="white"/>
</linearGradient>
<linearGradient id="paint1_linear" x1="2830.41" y1="26611.6" x2="32213.1" y2="7097.87" gradientUnits="userSpaceOnUse">
<stop stop-color="#010101" stop-opacity="0"/>
<stop offset="0.95" stop-color="#010101"/>
</linearGradient>
<linearGradient id="paint2_linear" x1="4273.57" y1="431.265" x2="4272.88" y2="282.83" gradientUnits="userSpaceOnUse">
<stop stop-color="white" stop-opacity="0"/>
<stop offset="0.14" stop-color="white" stop-opacity="0.22"/>
<stop offset="0.3" stop-color="white" stop-opacity="0.45"/>
<stop offset="0.45" stop-color="white" stop-opacity="0.65"/>
<stop offset="0.6" stop-color="white" stop-opacity="0.8"/>
<stop offset="0.73" stop-color="white" stop-opacity="0.91"/>
<stop offset="0.85" stop-color="white" stop-opacity="0.98"/>
<stop offset="0.94" stop-color="white"/>
</linearGradient>
</defs>
</svg>
