<svg width="90" height="76" viewBox="0 0 90 76" fill="none" xmlns="http://www.w3.org/2000/svg">
<path d="M89.2313 6.96381V57.3854C89.2313 58.9671 88.603 60.484 87.4846 61.6025C86.3661 62.7209 84.8492 63.3492 83.2675 63.3492H6.96381C5.38211 63.3492 3.86519 62.7209 2.74676 61.6025C1.62833 60.484 1 58.9671 1 57.3854V6.96381C1.00092 6.73402 1.01499 6.50448 1.04216 6.2763C1.20936 4.82325 1.90528 3.48249 2.99731 2.50947C4.08934 1.53645 5.50117 0.999171 6.96381 1H83.2675C84.7301 0.999171 86.142 1.53645 87.234 2.50947C88.326 3.48249 89.0219 4.82325 89.1891 6.2763C89.2163 6.50448 89.2304 6.73402 89.2313 6.96381Z" fill="white" stroke="#00458B" stroke-width="1.29" stroke-miterlimit="10"/>
<path opacity="0.18" d="M51.1072 17.8438H8.12499C6.88559 17.8438 5.88086 18.8485 5.88086 20.0879C5.88086 21.3273 6.88559 22.332 8.12499 22.332H51.1072C52.3466 22.332 53.3514 21.3273 53.3514 20.0879C53.3514 18.8485 52.3466 17.8438 51.1072 17.8438Z" fill="#00458B"/>
<path opacity="0.18" d="M51.1072 24.1416H8.12499C6.88559 24.1416 5.88086 25.1463 5.88086 26.3857V52.6797C5.88086 53.9191 6.88559 54.9238 8.12499 54.9238H51.1072C52.3466 54.9238 53.3514 53.9191 53.3514 52.6797V26.3857C53.3514 25.1463 52.3466 24.1416 51.1072 24.1416Z" fill="#00458B"/>
<path opacity="0.18" d="M69.0177 42.4027C74.1132 42.4027 78.244 38.2719 78.244 33.1764C78.244 28.0809 74.1132 23.9502 69.0177 23.9502C63.9222 23.9502 59.7915 28.0809 59.7915 33.1764C59.7915 38.2719 63.9222 42.4027 69.0177 42.4027Z" fill="#00458B"/>
<path d="M47.7346 22.8413C48.7561 24.5081 47.4557 47.8542 48.3118 49.0185C50.3192 51.749 54.6226 59.5711 54.454 62.9632C51.2402 63.0799 46.4503 63.0345 43.2755 62.5384C42.6918 62.4476 42.0723 62.3276 41.654 61.919C41.2983 61.5129 41.0546 61.0211 40.947 60.4921L37.1236 47.3581C35.5799 42.0558 34.0395 36.3677 35.7064 31.1011C36.5463 28.4451 38.1516 26.1069 39.7342 23.8141C40.6195 22.517 39.1861 20.1301 40.8335 19.8545C42.5588 19.5626 46.8752 21.4435 47.7346 22.8413Z" fill="url(#paint0_linear)"/>
<path d="M39.9513 19.6338H21.6124C18.8595 19.6338 16.6279 21.8654 16.6279 24.6182V71.0153C16.6279 73.7681 18.8595 75.9997 21.6124 75.9997H39.9513C42.7041 75.9997 44.9358 73.7681 44.9358 71.0153V24.6182C44.9358 21.8654 42.7041 19.6338 39.9513 19.6338Z" fill="#00458B"/>
<path d="M39.9513 19.6338H21.6124C18.8595 19.6338 16.6279 21.8654 16.6279 24.6182V71.0153C16.6279 73.7681 18.8595 75.9997 21.6124 75.9997H39.9513C42.7041 75.9997 44.9358 73.7681 44.9358 71.0153V24.6182C44.9358 21.8654 42.7041 19.6338 39.9513 19.6338Z" fill="url(#paint1_linear)"/>
<path d="M40.0032 19.5757H21.5605C18.8363 19.5757 16.6279 21.7841 16.6279 24.5082V69.8092C16.6279 72.5334 18.8363 74.7417 21.5605 74.7417H40.0032C42.7274 74.7417 44.9358 72.5334 44.9358 69.8092V24.5082C44.9358 21.7841 42.7274 19.5757 40.0032 19.5757Z" fill="#00458B"/>
<path d="M39.1534 20.8501H22.5591C20.1108 20.8501 18.126 22.8349 18.126 25.2832V65.9435C18.126 68.3919 20.1108 70.3766 22.5591 70.3766H39.1534C41.6017 70.3766 43.5865 68.3919 43.5865 65.9435V25.2832C43.5865 22.8349 41.6017 20.8501 39.1534 20.8501Z" fill="white"/>
<path opacity="0.18" d="M31.5653 42.9575C29.3698 42.9569 27.2234 43.6073 25.3976 44.8265C23.5717 46.0457 22.1484 47.779 21.3077 49.8071C20.4669 51.8353 20.2464 54.0672 20.6741 56.2206C21.1018 58.3741 22.1584 60.3523 23.7104 61.9052C25.2624 63.4582 27.2401 64.516 29.3933 64.9449C31.5465 65.3739 33.7785 65.1547 35.8071 64.3151C37.8358 63.4755 39.5699 62.0532 40.7902 60.2281C42.0104 58.4029 42.6621 56.2569 42.6628 54.0614C42.6619 51.1179 41.4926 48.295 39.4118 46.213C37.331 44.131 34.5089 42.9601 31.5653 42.9575ZM31.5653 63.2714C29.7783 63.2721 28.0311 62.7427 26.5449 61.7504C25.0587 60.758 23.9002 59.3472 23.2159 57.6963C22.5315 56.0454 22.3522 54.2287 22.7004 52.4759C23.0486 50.7231 23.9089 49.1129 25.1723 47.8491C26.4357 46.5852 28.0456 45.7244 29.7983 45.3755C31.551 45.0266 33.3677 45.2053 35.0188 45.8891C36.6699 46.5728 38.0812 47.7308 39.0741 49.2167C40.067 50.7025 40.597 52.4495 40.597 54.2365C40.5944 56.6314 39.6421 58.9275 37.949 60.6212C36.2559 62.3149 33.9602 63.268 31.5653 63.2714Z" fill="#00458B"/>
<path d="M26.2822 52.1904C26.2279 52.1902 26.1741 52.1803 26.1232 52.1612C26.0202 52.1187 25.938 52.0375 25.8943 51.935C25.8507 51.8325 25.849 51.7169 25.8898 51.6132C25.8898 51.5742 27.5372 47.6438 31.5617 47.767C31.6171 47.7687 31.6716 47.7813 31.7221 47.804C31.7726 47.8268 31.8181 47.8592 31.8561 47.8996C31.894 47.94 31.9236 47.9874 31.9432 48.0392C31.9628 48.091 31.972 48.1462 31.9703 48.2016C31.9695 48.2569 31.9576 48.3115 31.9353 48.3622C31.9131 48.4129 31.8809 48.4587 31.8407 48.4967C31.8006 48.5348 31.7532 48.5645 31.7013 48.5839C31.6495 48.6034 31.5943 48.6123 31.539 48.6102C28.082 48.5129 26.7264 51.7883 26.6746 51.9277C26.6436 52.0062 26.5894 52.0734 26.5193 52.1203C26.4492 52.1672 26.3665 52.1917 26.2822 52.1904Z" fill="#E31E27"/>
<path d="M37.1332 53.7984C37.0252 53.7985 36.9212 53.7573 36.8428 53.683C36.7644 53.6088 36.7174 53.5073 36.7116 53.3995C36.693 52.4756 36.4075 51.5769 35.8896 50.8116C35.3718 50.0463 34.6436 49.4472 33.7929 49.0864C33.6883 49.0489 33.6027 48.9717 33.5548 48.8715C33.5068 48.7713 33.5003 48.6562 33.5367 48.5513C33.5542 48.4987 33.582 48.4501 33.6186 48.4084C33.6551 48.3668 33.6997 48.3329 33.7495 48.3087C33.7994 48.2845 33.8536 48.2705 33.909 48.2677C33.9643 48.2648 34.0197 48.273 34.0718 48.2918C35.0845 48.7015 35.9545 49.3998 36.5737 50.2998C37.1929 51.1998 37.5341 52.2619 37.5547 53.3541C37.5601 53.4657 37.5212 53.575 37.4465 53.6581C37.3719 53.7413 37.2674 53.7917 37.1559 53.7984H37.1332Z" fill="#E31E27"/>
<path d="M36.2803 57.1165C36.1866 57.1163 36.0955 57.0855 36.0208 57.0289C35.9334 56.9599 35.8768 56.8591 35.8634 56.7486C35.85 56.638 35.881 56.5266 35.9495 56.4387C36.2626 55.9736 36.4625 55.4416 36.5332 54.8853C36.5365 54.8282 36.5515 54.7723 36.5771 54.7211C36.6028 54.6699 36.6386 54.6244 36.6824 54.5875C36.7262 54.5506 36.777 54.523 36.8318 54.5064C36.8866 54.4898 36.9443 54.4845 37.0012 54.4909C37.0581 54.4973 37.1131 54.5152 37.1628 54.5436C37.2126 54.572 37.2561 54.6102 37.2906 54.6559C37.3251 54.7016 37.3499 54.7538 37.3635 54.8095C37.3772 54.8651 37.3793 54.9229 37.3699 54.9794C37.2777 55.6898 37.0152 56.3674 36.6046 56.9544C36.566 57.0038 36.5168 57.044 36.4607 57.0721C36.4046 57.1001 36.343 57.1153 36.2803 57.1165Z" fill="#E31E27"/>
<path d="M27.6896 52.7061C27.6301 52.706 27.5714 52.6927 27.5177 52.6672C27.4166 52.6212 27.3377 52.5371 27.2983 52.4333C27.2588 52.3295 27.2619 52.2142 27.3069 52.1127C27.6363 51.3726 28.1445 50.726 28.7859 50.2312C29.4273 49.7365 30.1817 49.409 30.9812 49.2783C32.2362 49.074 33.4329 49.3951 34.0977 50.115C34.1382 50.1551 34.1701 50.203 34.1916 50.2558C34.2131 50.3086 34.2236 50.3652 34.2226 50.4222C34.2216 50.4792 34.2091 50.5353 34.1857 50.5873C34.1624 50.6393 34.1287 50.6861 34.0868 50.7247C34.0449 50.7633 33.9956 50.793 33.9418 50.8121C33.8881 50.8311 33.8311 50.839 33.7742 50.8354C33.7173 50.8317 33.6618 50.8166 33.6109 50.7909C33.56 50.7652 33.5149 50.7294 33.4783 50.6858C33.0113 50.1799 32.0838 49.9529 31.1142 50.1118C30.4527 50.2192 29.8284 50.4899 29.2979 50.8992C28.7673 51.3086 28.3472 51.8438 28.0755 52.4564C28.0419 52.5307 27.9877 52.5937 27.9192 52.638C27.8508 52.6823 27.7711 52.7059 27.6896 52.7061Z" fill="#E31E27"/>
<path d="M32.7131 59.9735C32.6292 59.9746 32.547 59.9504 32.477 59.9041C32.4071 59.8578 32.3526 59.7915 32.3208 59.7139C32.289 59.6363 32.2812 59.5509 32.2986 59.4688C32.3159 59.3867 32.3575 59.3117 32.418 59.2536C36.7603 55.0215 34.3638 51.8499 34.3638 51.8175C34.3179 51.7306 34.3039 51.6304 34.3241 51.5342C34.3443 51.438 34.3974 51.3519 34.4743 51.2908C34.5512 51.2296 34.6471 51.1973 34.7453 51.1993C34.8436 51.2013 34.938 51.2376 35.0124 51.3019C35.0416 51.3375 37.8759 55.1026 32.9985 59.8568C32.9215 59.9304 32.8196 59.9721 32.7131 59.9735Z" fill="#E31E27"/>
<path d="M26.2561 56.0623C26.1749 56.0628 26.0953 56.0398 26.0268 55.996C25.9583 55.9523 25.904 55.8897 25.8702 55.8159C25.4876 54.9597 25.7308 53.3804 25.76 53.2053C25.7791 53.0955 25.8402 52.9975 25.9305 52.9321C26.0207 52.8667 26.1329 52.839 26.2432 52.855C26.2979 52.8641 26.3504 52.8838 26.3975 52.9132C26.4446 52.9426 26.4855 52.981 26.5177 53.0262C26.55 53.0714 26.573 53.1225 26.5854 53.1766C26.5978 53.2307 26.5994 53.2867 26.5902 53.3415C26.4994 53.9122 26.428 54.9986 26.6388 55.4689C26.6683 55.5328 26.6811 55.6032 26.6762 55.6734C26.6712 55.7437 26.6486 55.8115 26.6105 55.8707C26.5723 55.9299 26.5198 55.9785 26.4579 56.012C26.396 56.0455 26.3266 56.0628 26.2561 56.0623Z" fill="#E31E27"/>
<path d="M26.9922 58.037C26.9036 58.0382 26.8168 58.0111 26.7445 57.9598C26.6723 57.9085 26.6181 57.8356 26.59 57.7515C26.5619 57.6674 26.5611 57.5766 26.588 57.4921C26.6148 57.4076 26.6678 57.3338 26.7392 57.2814C27.417 56.7722 27.2322 54.8913 26.9533 53.8244C26.9256 53.7165 26.9419 53.602 26.9984 53.506C27.0549 53.41 27.1471 53.3402 27.2549 53.312C27.3083 53.2974 27.3642 53.2937 27.4191 53.301C27.474 53.3084 27.5269 53.3266 27.5747 53.3547C27.6224 53.3828 27.6641 53.4202 27.6971 53.4647C27.7302 53.5091 27.7541 53.5598 27.7673 53.6136C27.8581 53.9379 28.591 56.9441 27.2451 57.9527C27.1726 58.0083 27.0836 58.038 26.9922 58.037Z" fill="#E31E27"/>
<path d="M28.0462 59.0136C27.9548 59.0134 27.866 58.9836 27.7931 58.9285C27.7202 58.8735 27.6671 58.7963 27.6419 58.7085C27.6167 58.6207 27.6206 58.5271 27.6532 58.4418C27.6857 58.3564 27.7451 58.284 27.8224 58.2353C27.8873 58.1931 29.3142 57.2624 28.7175 54.8756C28.3315 53.3255 28.7175 52.3558 29.1423 51.8175C29.4466 51.4426 29.8321 51.1418 30.2698 50.9378C30.7075 50.7339 31.1858 50.6321 31.6686 50.6403C31.7238 50.6372 31.7791 50.6454 31.8311 50.6643C31.8831 50.6833 31.9308 50.7126 31.9711 50.7505C32.0114 50.7884 32.0436 50.8341 32.0658 50.8849C32.0879 50.9356 32.0995 50.9903 32.0999 51.0457C32.102 51.1009 32.0932 51.156 32.074 51.2077C32.0548 51.2595 32.0254 51.307 31.9878 51.3474C31.9501 51.3878 31.9047 51.4204 31.8544 51.4432C31.8041 51.4659 31.7497 51.4785 31.6945 51.4802C31.3375 51.471 30.9831 51.5422 30.6575 51.6888C30.3318 51.8353 30.0434 52.0533 29.8136 52.3266C29.3887 52.8877 29.2915 53.7016 29.5347 54.6713C30.2838 57.6743 28.3478 58.8871 28.2667 58.952C28.2001 58.9922 28.1239 59.0135 28.0462 59.0136Z" fill="#E31E27"/>
<path d="M32.4182 56.9054C32.3405 56.9043 32.2647 56.8815 32.1992 56.8396C32.1337 56.7977 32.0812 56.7384 32.0475 56.6684C32.0139 56.5984 32.0004 56.5204 32.0086 56.4431C32.0168 56.3658 32.0463 56.2923 32.0939 56.2309C32.7198 55.4137 33.2192 54.1846 32.9727 53.5392C32.9242 53.418 32.8425 53.3129 32.737 53.2361C32.6314 53.1592 32.5063 53.1137 32.376 53.1047C31.9123 53.0171 31.5815 53.069 31.3837 53.2636C31.0367 53.5879 31.0853 54.3565 31.1307 54.6192C31.1454 54.6752 31.1484 54.7338 31.1394 54.791C31.1304 54.8483 31.1098 54.9031 31.0787 54.9521C31.0475 55.001 31.0067 55.043 30.9586 55.0754C30.9105 55.1078 30.8563 55.13 30.7993 55.1405C30.7423 55.151 30.6837 55.1496 30.6272 55.1365C30.5708 55.1233 30.5176 55.0987 30.4711 55.064C30.4246 55.0294 30.3858 54.9856 30.357 54.9353C30.3282 54.8849 30.3101 54.8292 30.3038 54.7716C30.2778 54.6321 30.0703 53.3803 30.7902 52.6669C31.1956 52.2648 31.7826 52.135 32.5349 52.2777C32.8079 52.3146 33.0658 52.4244 33.2816 52.5957C33.4973 52.7669 33.6629 52.9932 33.7608 53.2506C34.1434 54.2592 33.5111 55.7736 32.7619 56.7498C32.7212 56.8012 32.6687 56.8422 32.6089 56.8693C32.5491 56.8964 32.4837 56.9088 32.4182 56.9054Z" fill="#E31E27"/>
<path d="M29.4084 59.6195C29.3248 59.619 29.2433 59.5936 29.1742 59.5466C29.105 59.4997 29.0514 59.4332 29.0201 59.3557C28.9889 59.2782 28.9813 59.1932 28.9985 59.1114C29.0156 59.0296 29.0567 58.9547 29.1165 58.8963C30.284 57.7613 30.2516 56.0652 30.2516 56.049C30.2481 55.9372 30.2892 55.8286 30.3659 55.7471C30.4425 55.6656 30.5484 55.6179 30.6602 55.6145C30.772 55.611 30.8806 55.6521 30.9621 55.7288C31.0436 55.8054 31.0913 55.9113 31.0947 56.0231C31.0947 56.1074 31.1434 58.1018 29.7035 59.4995C29.6248 59.5769 29.5187 59.62 29.4084 59.6195Z" fill="#E31E27"/>
<path d="M30.9684 60.074C30.9065 60.074 30.8454 60.0595 30.79 60.0318C30.7401 60.0085 30.6953 59.9755 30.6582 59.9348C30.621 59.8942 30.5923 59.8465 30.5736 59.7947C30.5549 59.7429 30.5467 59.6879 30.5493 59.6328C30.5519 59.5778 30.5654 59.5238 30.589 59.474L31.4386 57.6742C31.4883 57.5763 31.5741 57.5017 31.678 57.4661C31.7818 57.4305 31.8954 57.4369 31.9946 57.4837C32.0939 57.5306 32.1709 57.6143 32.2094 57.7171C32.2479 57.8199 32.2448 57.9336 32.2007 58.0342L31.3511 59.834C31.3166 59.9062 31.2623 59.9671 31.1946 60.0096C31.1268 60.0521 31.0484 60.0744 30.9684 60.074Z" fill="#E31E27"/>
<path d="M89.1892 6.2763H1.04224C1.20944 4.82325 1.90536 3.48249 2.99739 2.50947C4.08942 1.53645 5.50125 0.999171 6.96389 1H83.2676C84.7302 0.999171 86.142 1.53645 87.2341 2.50947C88.3261 3.48249 89.022 4.82325 89.1892 6.2763Z" fill="#00458B"/>
<path d="M66.9715 36.7698L60.278 29.3596C60.0479 29.1162 59.9107 28.7995 59.8905 28.4651C59.8704 28.1307 59.9685 27.7999 60.1678 27.5306C60.2922 27.3736 60.4493 27.2455 60.6282 27.1553C60.807 27.0651 61.0034 27.0148 61.2036 27.008C61.4038 27.0012 61.6031 27.0381 61.7877 27.116C61.9723 27.1939 62.1377 27.311 62.2725 27.4592L67.6493 33.4133C67.7353 33.5076 67.8397 33.5833 67.9561 33.6357C68.0725 33.6881 68.1985 33.7161 68.3261 33.7179C68.4537 33.7197 68.5804 33.6954 68.6983 33.6463C68.8161 33.5973 68.9227 33.5246 69.0113 33.4328L81.9086 20.1074C82.0479 19.9635 82.2168 19.8515 82.4037 19.7793C82.5906 19.7071 82.7909 19.6765 82.9908 19.6894C83.1907 19.7024 83.3854 19.7587 83.5614 19.8544C83.7374 19.95 83.8905 20.0829 84.01 20.2436C84.2012 20.5198 84.289 20.8544 84.2582 21.1888C84.2273 21.5232 84.0798 21.8361 83.8414 22.0727L69.5724 36.8119C69.4025 36.9865 69.1986 37.1245 68.9734 37.2175C68.7482 37.3104 68.5064 37.3563 68.2628 37.3524C68.0193 37.3484 67.779 37.2947 67.557 37.1945C67.3349 37.0943 67.1357 36.9498 66.9715 36.7698Z" fill="url(#paint2_linear)"/>
<path d="M66.9715 36.001L60.278 28.5909C60.0479 28.3474 59.9107 28.0308 59.8905 27.6964C59.8704 27.362 59.9685 27.0312 60.1678 26.7618C60.2921 26.6046 60.4493 26.4763 60.6283 26.3861C60.8074 26.2958 61.0039 26.2457 61.2043 26.2392C61.4047 26.2327 61.6041 26.27 61.7886 26.3485C61.9731 26.427 62.1382 26.5448 62.2725 26.6937L67.6493 32.6316C67.7351 32.7261 67.8393 32.8021 67.9556 32.8548C68.0719 32.9074 68.1978 32.9357 68.3254 32.9378C68.453 32.94 68.5798 32.9159 68.6977 32.8671C68.8157 32.8184 68.9224 32.7459 69.0113 32.6543L81.9086 19.3355C82.0479 19.1915 82.2168 19.0795 82.4037 19.0073C82.5906 18.9352 82.7909 18.9045 82.9908 18.9174C83.1907 18.9304 83.3854 18.9867 83.5614 19.0824C83.7374 19.1781 83.8905 19.3109 84.01 19.4717C84.2012 19.7478 84.289 20.0824 84.2582 20.4168C84.2273 20.7512 84.0798 21.0641 83.8414 21.3007L69.5724 36.04C69.4029 36.2152 69.1994 36.3538 68.9742 36.4473C68.7491 36.5408 68.5072 36.5871 68.2635 36.5835C68.0198 36.5798 67.7794 36.5263 67.5572 36.4261C67.335 36.3259 67.1356 36.1813 66.9715 36.001Z" fill="#E31E27"/>
<path opacity="0.18" d="M26.3859 33.6859C27.2438 33.6859 27.9393 32.9904 27.9393 32.1325C27.9393 31.2746 27.2438 30.5791 26.3859 30.5791C25.528 30.5791 24.8325 31.2746 24.8325 32.1325C24.8325 32.9904 25.528 33.6859 26.3859 33.6859Z" fill="#68E1FD"/>
<path opacity="0.18" d="M30.4818 33.6859C31.3398 33.6859 32.0352 32.9904 32.0352 32.1325C32.0352 31.2746 31.3398 30.5791 30.4818 30.5791C29.6239 30.5791 28.9285 31.2746 28.9285 32.1325C28.9285 32.9904 29.6239 33.6859 30.4818 33.6859Z" fill="#68E1FD"/>
<path opacity="0.18" d="M34.5744 33.6859C35.4323 33.6859 36.1278 32.9904 36.1278 32.1325C36.1278 31.2746 35.4323 30.5791 34.5744 30.5791C33.7165 30.5791 33.021 31.2746 33.021 32.1325C33.021 32.9904 33.7165 33.6859 34.5744 33.6859Z" fill="#68E1FD"/>
<path opacity="0.18" d="M51.1072 10.2881H8.12499C6.88559 10.2881 5.88086 11.2928 5.88086 12.5322C5.88086 13.7716 6.88559 14.7763 8.12499 14.7763H51.1072C52.3466 14.7763 53.3514 13.7716 53.3514 12.5322C53.3514 11.2928 52.3466 10.2881 51.1072 10.2881Z" fill="#00458B"/>
<path d="M44.8481 63.8976C44.8481 63.8976 45.4967 64.3127 45.6751 63.6025C45.8535 62.8923 46.6772 55.2778 46.6772 55.2778L44.8481 51.5581V63.8976Z" fill="url(#paint3_linear)"/>
<path d="M34.2502 71.9268H27.226C26.8176 71.9268 26.4866 72.2571 26.4866 72.6645C26.4866 73.072 26.8176 73.4023 27.226 73.4023H34.2502C34.6586 73.4023 34.9896 73.072 34.9896 72.6645C34.9896 72.2571 34.6586 71.9268 34.2502 71.9268Z" fill="url(#paint4_linear)"/>
<defs>
<linearGradient id="paint0_linear" x1="60.0708" y1="39.9965" x2="8.14771" y2="45.8695" gradientUnits="userSpaceOnUse">
<stop stop-opacity="0"/>
<stop offset="0.99"/>
</linearGradient>
<linearGradient id="paint1_linear" x1="1399.18" y1="10046" x2="3869.89" y2="10046" gradientUnits="userSpaceOnUse">
<stop stop-opacity="0"/>
<stop offset="0.99"/>
</linearGradient>
<linearGradient id="paint2_linear" x1="7170.93" y1="1010.93" x2="7307.83" y2="4737.88" gradientUnits="userSpaceOnUse">
<stop stop-opacity="0"/>
<stop offset="0.99"/>
</linearGradient>
<linearGradient id="paint3_linear" x1="429.932" y1="2079.68" x2="1028.34" y2="3812.83" gradientUnits="userSpaceOnUse">
<stop stop-opacity="0"/>
<stop offset="0.99"/>
</linearGradient>
<linearGradient id="paint4_linear" x1="811.658" y1="424.036" x2="811.658" y2="495.674" gradientUnits="userSpaceOnUse">
<stop stop-opacity="0"/>
<stop offset="0.99"/>
</linearGradient>
</defs>
</svg>
