<?xml version="1.0" standalone="no"?>
<!DOCTYPE svg PUBLIC "-//W3C//DTD SVG 20010904//EN"
 "http://www.w3.org/TR/2001/REC-SVG-20010904/DTD/svg10.dtd">
<svg version="1.0" xmlns="http://www.w3.org/2000/svg"
 width="700.000000pt" height="700.000000pt" viewBox="0 0 700.000000 700.000000"
 preserveAspectRatio="xMidYMid meet">
<metadata>
Created by potrace 1.14, written by Peter Selinger 2001-2017
</metadata>
<g transform="translate(0.000000,700.000000) scale(0.100000,-0.100000)"
fill="#000000" stroke="none">
<path d="M280 5848 l0 -1013 351 -315 351 -315 -171 -3 -171 -2 0 -908 0 -907
108 -108 107 -107 903 0 902 0 0 907 0 908 -102 102 -103 103 2123 0 2122 0 0
975 0 975 -75 0 -75 0 0 75 0 75 -973 0 -972 0 -105 105 -105 105 -1047 0
-1048 0 0 180 0 180 -1010 0 -1010 0 0 -1012z"/>
<path d="M2800 3075 l0 -905 905 0 905 0 0 905 0 905 -905 0 -905 0 0 -905z"/>
<path d="M850 1055 l0 -905 905 0 905 0 0 905 0 905 -905 0 -905 0 0 -905z"/>
<path d="M2800 1055 l0 -905 905 0 905 0 0 905 0 905 -905 0 -905 0 0 -905z"/>
</g>
</svg>
